<svg width="190" height="190" viewBox="0 0 190 190" fill="none" xmlns="http://www.w3.org/2000/svg">
<path d="M190 95C190 147.467 147.467 190 95 190C42.5329 190 0 147.467 0 95C0 42.5329 42.5329 0 95 0C147.467 0 190 42.5329 190 95ZM28.1426 95C28.1426 131.924 58.0757 161.857 95 161.857C131.924 161.857 161.857 131.924 161.857 95C161.857 58.0757 131.924 28.1426 95 28.1426C58.0757 28.1426 28.1426 58.0757 28.1426 95Z" fill="#F2F3F3"/>
<path d="M190 95C190 109.991 186.452 124.77 179.646 138.127C172.841 151.485 162.971 163.042 150.843 171.854C138.715 180.667 124.674 186.483 109.867 188.829C95.0603 191.176 79.9086 189.984 65.6507 185.353C51.3927 180.721 38.4332 172.781 27.8316 162.182C17.2301 151.582 9.28748 138.625 4.65318 124.368C0.0188763 110.11 -1.17556 94.9591 1.16751 80.1519C3.51059 65.3448 9.32466 51.3024 18.1344 39.1728L41.1783 55.9095C35.0097 64.4028 30.9387 74.2353 29.298 84.6033C27.6574 94.9713 28.4938 105.58 31.7387 115.563C34.9837 125.546 40.5451 134.619 47.9684 142.041C55.3916 149.463 64.4659 155.022 74.4494 158.265C84.433 161.508 95.0422 162.343 105.41 160.7C115.778 159.057 125.609 154.984 134.101 148.814C142.593 142.643 149.505 134.551 154.27 125.198C159.035 115.845 161.519 105.497 161.519 95H190Z" fill="#5C89FE"/>
<path d="M76.712 106.832C68.584 106.832 62.12 100.496 62.12 92.048C62.12 88.976 63.08 86.16 64.424 83.728L76.712 61.2H82.6L72.936 77.904L73.192 78.16C74.216 77.712 75.56 77.392 76.968 77.392C85.16 77.392 91.432 83.664 91.432 92.048C91.432 100.368 84.84 106.832 76.712 106.832ZM76.712 101.968C82.28 101.968 86.12 97.552 86.12 92.048C86.12 86.608 82.28 82.064 76.712 82.064C71.208 82.064 67.368 86.608 67.368 92.048C67.368 97.616 71.208 101.968 76.712 101.968ZM114.483 106V94.672H93.6825V88.656L111.795 61.2H119.603V90.064H125.491V94.672H119.603V106H114.483ZM98.4185 90.064H114.483V65.936H114.098L98.4185 89.68V90.064Z" fill="#003865"/>
<path d="M130.584 69.488C129.16 69.488 128.12 68.416 128.12 67.056C128.12 65.696 129.16 64.592 130.568 64.592C132.04 64.592 133.096 65.68 133.096 67.056C133.096 68.4 132.024 69.488 130.584 69.488ZM128.616 76L137.144 64.8H138.456L129.912 76H128.616ZM130.6 68.496C131.464 68.496 132.008 67.856 132.008 67.056C132.008 66.24 131.432 65.584 130.584 65.584C129.752 65.584 129.192 66.24 129.192 67.056C129.192 67.856 129.768 68.496 130.6 68.496ZM136.44 76.208C135.016 76.208 133.96 75.152 133.96 73.776C133.96 72.416 135 71.312 136.424 71.312C137.88 71.312 138.936 72.416 138.936 73.776C138.936 75.136 137.864 76.208 136.44 76.208ZM136.44 75.232C137.304 75.232 137.848 74.592 137.848 73.776C137.848 72.96 137.288 72.32 136.424 72.32C135.592 72.32 135.032 72.96 135.032 73.776C135.032 74.592 135.608 75.232 136.44 75.232Z" fill="#003865"/>
<path d="M66.6 131V119.8H70.296C72.328 119.8 73.72 121.128 73.72 123.16C73.72 125.176 72.264 126.568 70.296 126.568H67.896V131H66.6ZM67.896 125.416H70.184C71.528 125.416 72.392 124.456 72.392 123.16C72.392 121.88 71.528 120.952 70.184 120.952H67.896V125.416ZM75.7994 131V122.68H77.0474V124.072H77.1434C77.3834 123.368 78.1994 122.472 79.4154 122.472H79.9594V123.736H79.2074C77.6874 123.736 77.0634 124.968 77.0634 126.552V131H75.7994ZM85.4173 131.208C82.9213 131.208 81.0813 129.368 81.0813 126.84C81.0813 124.328 82.9533 122.472 85.4333 122.472C87.9453 122.472 89.7693 124.344 89.7693 126.84C89.7693 129.336 87.9133 131.208 85.4173 131.208ZM85.4173 130.056C87.2093 130.056 88.4733 128.696 88.4733 126.84C88.4733 125 87.2093 123.624 85.4173 123.624C83.6253 123.624 82.3773 125.016 82.3773 126.84C82.3773 128.712 83.6413 130.056 85.4173 130.056ZM95.6345 131.208C93.1225 131.208 91.3625 129.304 91.3625 126.84C91.3625 124.376 93.1705 122.472 95.6185 122.472C97.4265 122.472 99.0265 123.56 99.4745 125.416L98.2265 125.704C98.0025 124.456 96.9465 123.624 95.6505 123.624C93.8745 123.624 92.6745 125.032 92.6745 126.84C92.6745 128.712 93.9385 130.056 95.6825 130.056C96.9785 130.056 98.0345 129.224 98.2585 127.976L99.5065 128.264C99.0585 130.12 97.4425 131.208 95.6345 131.208ZM105.225 131.208C102.697 131.208 101.113 129.432 101.113 126.872C101.113 124.216 102.937 122.472 105.145 122.472C107.657 122.472 109.097 124.232 109.097 126.728V127.192H102.409C102.424 129.048 103.513 130.088 105.241 130.088C106.409 130.088 107.481 129.416 107.753 128.264L108.985 128.552C108.521 130.104 107.145 131.208 105.225 131.208ZM102.441 126.168H107.801C107.721 124.44 106.521 123.608 105.145 123.608C103.785 123.608 102.537 124.6 102.441 126.168ZM114.083 131.208C112.211 131.208 111.043 130.184 110.851 128.696L112.003 128.408C112.099 129.528 112.883 130.104 114.147 130.104C115.395 130.104 116.083 129.496 116.083 128.648C116.083 126.312 111.107 128.088 111.107 124.792C111.107 123.384 112.371 122.472 114.115 122.472C115.555 122.472 116.947 123.304 117.139 124.808L116.035 125.128C115.923 124.152 115.123 123.56 114.035 123.56C112.995 123.56 112.323 124.072 112.323 124.792C112.323 126.904 117.315 125.144 117.315 128.584C117.315 130.152 116.019 131.208 114.083 131.208ZM122.551 131.208C120.679 131.208 119.511 130.184 119.319 128.696L120.471 128.408C120.567 129.528 121.351 130.104 122.615 130.104C123.863 130.104 124.551 129.496 124.551 128.648C124.551 126.312 119.575 128.088 119.575 124.792C119.575 123.384 120.839 122.472 122.583 122.472C124.023 122.472 125.415 123.304 125.607 124.808L124.503 125.128C124.391 124.152 123.591 123.56 122.503 123.56C121.463 123.56 120.791 124.072 120.791 124.792C120.791 126.904 125.783 125.144 125.783 128.584C125.783 130.152 124.487 131.208 122.551 131.208Z" fill="#003865"/>
</svg>
