<svg width="28" height="22" viewBox="0 0 28 22" fill="none" xmlns="http://www.w3.org/2000/svg">
<path d="M4.28318 0.304295H4.28082C4.1504 0.304015 4.02122 0.329572 3.90073 0.379492C3.78025 0.429411 3.67084 0.502704 3.57884 0.595138C3.48503 0.688233 3.41066 0.799037 3.36004 0.921113C3.30941 1.04319 3.28355 1.17411 3.28394 1.30626V16.3306C3.28394 16.8816 3.73392 17.3309 4.28714 17.3323C6.61935 17.3379 10.5267 17.824 13.2223 20.6448V4.92139C13.2223 4.73463 13.1746 4.55918 13.0845 4.41399C10.8722 0.851098 6.62067 0.309763 4.28318 0.304295ZM24.7162 16.3306V1.30617C24.7162 1.03729 24.6114 0.784728 24.4213 0.595044C24.3293 0.502633 24.2199 0.429356 24.0994 0.379437C23.979 0.329519 23.8498 0.303948 23.7194 0.304201H23.7169C21.3795 0.309763 17.1281 0.851098 14.9156 4.41399C14.8255 4.55918 14.7779 4.73463 14.7779 4.92139V20.6447C17.4735 17.8239 21.3809 17.3378 23.7131 17.3322C24.2662 17.3308 24.7162 16.8815 24.7162 16.3306Z" fill="#003865"/>
<path d="M26.9982 3.76904H26.2717V16.3305C26.2717 17.7372 25.1256 18.8843 23.7167 18.8878C21.7385 18.8925 18.4768 19.2793 16.1667 21.4657C20.162 20.4875 24.3737 21.1234 26.7739 21.6703C26.921 21.7043 27.0738 21.7045 27.2209 21.6709C27.368 21.6374 27.5056 21.571 27.6235 21.4767C27.7412 21.3831 27.8363 21.2641 27.9015 21.1286C27.9667 20.9931 28.0004 20.8445 28 20.6941V4.77082C28.0001 4.21846 27.5506 3.76904 26.9982 3.76904ZM1.72828 16.3305V3.76904H1.00178C0.44951 3.76904 0 4.21846 0 4.77082V20.6938C0 21.0002 0.137266 21.2855 0.37654 21.4764C0.494325 21.5708 0.631949 21.6372 0.779082 21.6707C0.926214 21.7043 1.07903 21.704 1.22606 21.6701C3.62634 21.123 7.83814 20.4872 11.8332 21.4654C9.52324 19.2791 6.26146 18.8924 4.28326 18.8877C2.87449 18.8843 1.72828 17.7372 1.72828 16.3305Z" fill="#003865"/>
</svg>
