<svg width="20" height="16" viewBox="0 0 20 16" fill="none" xmlns="http://www.w3.org/2000/svg">
<path d="M3.05945 0.36042H3.05776C2.96461 0.36022 2.87233 0.378475 2.78627 0.414132C2.70021 0.449789 2.62206 0.502141 2.55635 0.568165C2.48935 0.634662 2.43622 0.713807 2.40006 0.801005C2.3639 0.888202 2.34543 0.981715 2.34571 1.07611V11.8078C2.34571 12.2013 2.66712 12.5223 3.06227 12.5233C4.72814 12.5273 7.51912 12.8745 9.44452 14.8894V3.65834C9.44452 3.52494 9.41044 3.39962 9.34613 3.29592C7.76586 0.750994 4.72908 0.364326 3.05945 0.36042ZM17.6544 11.8078V1.07605C17.6544 0.883991 17.5796 0.703586 17.4438 0.568098C17.3781 0.50209 17.3 0.449749 17.2139 0.414093C17.1279 0.378437 17.0356 0.360172 16.9425 0.360353H16.9407C15.2711 0.364326 12.2344 0.750994 10.654 3.29592C10.5897 3.39962 10.5557 3.52494 10.5557 3.65834V14.8893C12.4811 12.8744 15.2721 12.5272 16.9379 12.5232C17.333 12.5222 17.6544 12.2013 17.6544 11.8078Z" fill="#BDBDBD"/>
<path d="M19.2844 2.83545H18.7655V11.8079C18.7655 12.8127 17.9469 13.6321 16.9405 13.6345C15.5275 13.6379 13.1977 13.9142 11.5476 15.4759C14.4014 14.7772 17.4098 15.2314 19.1242 15.6221C19.2293 15.6463 19.3384 15.6465 19.4435 15.6225C19.5486 15.5986 19.6469 15.5511 19.731 15.4838C19.8152 15.4169 19.8831 15.3319 19.9296 15.2351C19.9762 15.1383 20.0003 15.0322 20 14.9248V3.55101C20.0001 3.15646 19.679 2.83545 19.2844 2.83545ZM1.23448 11.8079V2.83545H0.715558C0.321079 2.83545 0 3.15646 0 3.55101V14.9246C0 15.1434 0.0980475 15.3472 0.268957 15.4836C0.35309 15.551 0.451392 15.5984 0.556487 15.6224C0.661582 15.6463 0.770737 15.6462 0.87576 15.6219C2.59024 15.2311 5.59867 14.777 8.45228 15.4757C6.80231 13.9141 4.47247 13.6378 3.05947 13.6345C2.05321 13.6321 1.23448 12.8127 1.23448 11.8079Z" fill="#BDBDBD"/>
</svg>
