<svg width="71" height="71" viewBox="0 0 71 71" fill="none" xmlns="http://www.w3.org/2000/svg">
<g clip-path="url(#clip0_525_2057)">
<path d="M11.513 14.0393L10.0927 13.474C10.1409 13.3517 11.3227 10.4522 15.3791 8.06152L16.1553 9.37835C14.2878 10.479 13.1254 11.6871 12.4791 12.5068C11.7785 13.3954 11.5156 14.0329 11.513 14.0393Z" fill="#FFCC6B"/>
<path d="M38.3293 4.85112L30.4174 1.45255C29.4235 1.02561 28.3411 0.845245 27.2624 0.926832C26.1837 1.00842 25.1408 1.34954 24.2224 1.92112L16.9117 6.47123C15.2355 7.51445 15.4245 10.0119 17.2386 10.7913L21.8156 12.7572L22.0304 15.5967C22.1015 16.538 22.8302 17.2935 23.7671 17.4095C26.9268 17.8005 30.1328 17.558 33.1978 16.6961C34.1065 16.4405 34.7132 15.5839 34.6419 14.6426L34.4271 11.8032L38.6562 9.17103C40.3324 8.12794 40.1434 5.63032 38.3293 4.85112Z" fill="#777677"/>
<path d="M40.5635 6.85392C40.5203 6.26916 40.3172 5.7075 39.9765 5.23034C39.6357 4.75318 39.1703 4.37886 38.6312 4.14829L30.7196 0.75097C29.6125 0.275424 28.4069 0.0744983 27.2055 0.165308C26.0041 0.256118 24.8424 0.635971 23.8194 1.27251L16.5072 5.82206C16.0089 6.13108 15.6052 6.57112 15.3401 7.09409C15.075 7.61706 14.9587 8.20284 15.004 8.78742C15.0473 9.3723 15.2505 9.93404 15.5914 10.4112C15.9324 10.8884 16.3979 11.2627 16.9372 11.4932L21.0882 13.2762L21.2681 15.6543C21.3661 16.9505 22.3776 18.0077 23.673 18.1679C24.6922 18.2941 25.711 18.357 26.7269 18.357C28.9777 18.357 31.2135 18.0479 33.4045 17.4318C34.6609 17.0785 35.5018 15.8812 35.4039 14.585L35.224 12.2072L39.0604 9.81956C39.5587 9.51047 39.9624 9.07037 40.2275 8.54735C40.4926 8.02433 40.6088 7.43852 40.5635 6.85392ZM32.9909 15.9602H32.9907C30.0076 16.7992 26.9362 17.0316 23.8607 16.6509C23.2851 16.5797 22.8358 16.1119 22.7924 15.5389L22.3581 9.7964C22.3147 9.2234 22.6887 8.6934 23.2471 8.53642C25.3023 7.9583 27.3999 7.6682 29.5117 7.6682C30.4645 7.6682 31.4206 7.72727 32.3767 7.84556C32.9526 7.91698 33.4019 8.38458 33.4452 8.95757L33.8796 14.7001C33.923 15.2734 33.5492 15.8032 32.9909 15.9602ZM38.2525 8.52173L35.0938 10.4875L34.9693 8.84233C34.8714 7.54617 33.8599 6.48907 32.5645 6.32863C29.2868 5.92302 26.0123 6.17068 22.8333 7.06484C21.5766 7.41817 20.7356 8.61547 20.8338 9.91163L20.9582 11.5566L17.5406 10.0886C16.9549 9.83703 16.5761 9.30716 16.5282 8.67177C16.48 8.03651 16.7742 7.45631 17.3148 7.11961L24.627 2.57007C25.4408 2.06364 26.365 1.76144 27.3207 1.68922C28.2765 1.61701 29.2356 1.77691 30.1162 2.1553L38.028 5.55262C38.6133 5.80417 38.9913 6.3339 39.0395 6.96916C39.0876 7.60469 38.7933 8.18503 38.2525 8.52173Z" fill="#605C5D"/>
<path d="M10.8031 13.7558C9.5054 13.1673 7.98376 13.2432 6.79076 14.0224C6.05164 14.5051 5.51845 15.1854 5.8618 16.0988C6.68606 18.2911 9.97079 17.056 9.97079 17.056C9.97079 17.056 11.2059 20.3407 13.3981 19.5163C14.3115 19.1728 14.4718 18.3234 14.348 17.4494C14.1481 16.0385 13.2025 14.8439 11.9048 14.2555L10.8031 13.7558Z" fill="#FD80A6"/>
<path d="M12.6994 20.4158C11.2237 20.4158 10.1304 19.0988 9.5477 17.9761C9.19464 18.0615 8.73799 18.145 8.25417 18.1633C6.70548 18.2184 5.60373 17.5838 5.14639 16.3678C4.90025 15.7128 4.73218 14.4543 6.37267 13.3827C7.77297 12.4678 9.547 12.3471 11.1186 13.0599L12.2205 13.5597C13.7919 14.272 14.8701 15.6862 15.1047 17.3424C15.3794 19.2827 14.3219 19.9855 13.6669 20.2317C13.3289 20.3589 13.0058 20.4158 12.6994 20.4158ZM9.97079 16.2918C10.1262 16.2919 10.2779 16.3394 10.4057 16.4278C10.5335 16.5163 10.6314 16.6416 10.6862 16.787C10.6953 16.8111 11.681 19.3462 13.1292 18.8009C13.326 18.727 13.7353 18.5731 13.5915 17.5568C13.433 16.438 12.6657 15.4398 11.5892 14.9517L10.4873 14.4519C9.41097 13.9638 8.15446 14.0443 7.20858 14.6624C6.34923 15.2237 6.50302 15.6332 6.57721 15.83C6.66499 16.0637 6.89269 16.6877 8.19676 16.636C8.97498 16.6069 9.69469 16.3435 9.70176 16.3409C9.78773 16.3084 9.87888 16.2918 9.97079 16.2918Z" fill="#FE518E"/>
<path d="M58.9547 25.9802C57.7016 25.9787 56.4639 26.2571 55.3322 26.795C54.2909 18.9374 47.9048 12.6282 39.835 11.7727C36.1325 11.379 32.3992 11.3665 28.6941 11.7354C20.4612 12.5531 13.9748 18.854 12.8571 26.8047C11.7196 26.2602 10.4742 25.9784 9.21308 25.98C4.54691 25.98 0.764359 29.7626 0.764359 34.4288C0.764359 39.0949 4.54705 42.8776 9.21308 42.8776C11.5901 42.8776 13.7363 41.8946 15.2715 40.3147C17.0031 42.932 19.7165 44.8326 22.8853 45.4866C30.2723 47.0112 37.6593 47.0271 45.0463 45.5346C48.31 44.8752 51.0882 42.954 52.8684 40.2856C54.4054 41.8825 56.5631 42.8778 58.9547 42.8778C63.6209 42.8778 67.4034 39.0951 67.4034 34.4289C67.4034 29.7627 63.6209 25.9802 58.9547 25.9802Z" fill="#D4AFB7"/>
<path d="M34.0843 47.401C30.2907 47.4012 26.498 47.0123 22.731 46.2349C19.6935 45.608 17.0343 43.9284 15.1552 41.4684C13.4955 42.876 11.4173 43.6418 9.21322 43.6418C4.13298 43.6418 0 39.5088 0 34.4285C0 29.3486 4.13298 25.2157 9.21308 25.2157C10.2659 25.2157 11.2879 25.3892 12.2633 25.7324C12.9859 22.065 14.8508 18.6545 17.5789 16.0429C20.5639 13.1851 24.4847 11.3852 28.6185 10.9747C32.3757 10.6024 36.161 10.615 39.9156 11.0124C43.9726 11.4426 47.8213 13.2531 50.7527 16.1105C53.4283 18.7187 55.2452 22.1015 55.9333 25.7227C56.9004 25.3858 57.9128 25.2156 58.9547 25.2156C64.0347 25.2156 68.1676 29.3484 68.1676 34.4284C68.1676 39.5085 64.0347 43.6415 58.9547 43.6415C56.7347 43.6415 54.6449 42.866 52.9803 41.4404C51.0545 43.9446 48.3222 45.652 45.1979 46.2832C41.5109 47.0285 37.7971 47.401 34.0843 47.401ZM15.2715 39.5503C15.3978 39.5503 15.5221 39.5815 15.6333 39.6413C15.7445 39.701 15.8393 39.7874 15.909 39.8926C17.576 42.412 20.1084 44.1327 23.0399 44.7377C30.2909 46.2344 37.6444 46.2502 44.8949 44.7851C47.9157 44.1745 50.5216 42.4259 52.2327 39.861C52.2961 39.766 52.3801 39.6864 52.4783 39.628C52.5766 39.5697 52.6867 39.5341 52.8005 39.524C52.9143 39.5138 53.029 39.5293 53.136 39.5693C53.2431 39.6093 53.3398 39.6728 53.419 39.7551C54.8824 41.2757 56.8484 42.1131 58.9545 42.1131C63.1918 42.1131 66.639 38.6658 66.639 34.4284C66.639 30.1913 63.1918 26.744 58.9545 26.744C57.8026 26.744 56.6942 26.9934 55.6601 27.4848C55.5513 27.5365 55.4318 27.5617 55.3114 27.5585C55.191 27.5552 55.0731 27.5235 54.9672 27.466C54.8614 27.4085 54.7707 27.3268 54.7024 27.2276C54.6341 27.1283 54.5903 27.0143 54.5745 26.8949C54.0912 23.2481 52.355 19.8068 49.6857 17.2048C46.9988 14.5857 43.4718 12.9264 39.7543 12.5323C36.1035 12.1458 32.4228 12.1334 28.7696 12.4954C24.9741 12.8723 21.3752 14.5243 18.6357 17.1467C15.9165 19.75 14.1329 23.2175 13.6137 26.9106C13.5968 27.0295 13.5522 27.1428 13.4835 27.2412C13.4147 27.3397 13.3237 27.4206 13.2179 27.4774C13.1121 27.5341 12.9943 27.5652 12.8743 27.568C12.7542 27.5708 12.6352 27.5453 12.5268 27.4936C11.4879 26.9962 10.3729 26.7439 9.2128 26.7439C4.97555 26.7439 1.52816 30.191 1.52816 34.4283C1.52816 38.6657 4.97541 42.1129 9.2128 42.1129C11.3054 42.1129 13.2623 41.285 14.7231 39.7816C14.7945 39.7084 14.8798 39.6503 14.9739 39.6105C15.0681 39.5708 15.1693 39.5503 15.2715 39.5503Z" fill="#B78E98"/>
<path d="M41.9197 39.0943C36.6396 40.085 31.3595 40.0744 26.0795 39.0626C22.8393 38.4416 20.2601 36.1309 19.458 33.1504C19.0384 31.5912 18.8153 30.032 18.7888 28.4727C18.6848 22.3674 23.6878 17.265 30.2314 16.6615C32.8806 16.4167 35.5471 16.425 38.1947 16.6862C44.5067 17.3076 49.3806 22.2627 49.3806 28.1567C49.3806 29.7538 49.1744 31.3509 48.762 32.948C47.9574 36.0645 45.3027 38.4596 41.9197 39.0943Z" fill="#FAEAC0"/>
<path d="M8.69986 37.5569C10.3967 37.5569 11.7723 36.1814 11.7723 34.4845C11.7723 32.7877 10.3967 31.4121 8.69986 31.4121C7.00301 31.4121 5.62744 32.7877 5.62744 34.4845C5.62744 36.1814 7.00301 37.5569 8.69986 37.5569Z" fill="#B78E98"/>
<path d="M24.3355 29.4147C25.1936 29.4147 25.8892 28.7306 25.8892 27.8868C25.8892 27.0429 25.1936 26.3589 24.3355 26.3589C23.4775 26.3589 22.7818 27.0429 22.7818 27.8868C22.7818 28.7306 23.4775 29.4147 24.3355 29.4147Z" fill="#605C5D"/>
<path d="M43.8321 29.4147C44.6902 29.4147 45.3858 28.7306 45.3858 27.8868C45.3858 27.0429 44.6902 26.3589 43.8321 26.3589C42.974 26.3589 42.2784 27.0429 42.2784 27.8868C42.2784 28.7306 42.974 29.4147 43.8321 29.4147Z" fill="#605C5D"/>
<path d="M36.3924 31.6317C35.4734 31.6317 34.6474 31.2262 34.0839 30.5847C33.5203 31.2262 32.6944 31.6317 31.7754 31.6317C30.081 31.6317 28.7024 30.2533 28.7024 28.5589C28.7063 28.3587 28.7885 28.168 28.9314 28.0278C29.0743 27.8876 29.2665 27.8091 29.4667 27.8091C29.6669 27.8091 29.8591 27.8876 30.002 28.0278C30.1449 28.168 30.2271 28.3587 30.2309 28.5589C30.2309 29.4105 30.9238 30.1031 31.7753 30.1031C32.6269 30.1031 33.3195 29.4105 33.3195 28.5589C33.3233 28.3587 33.4055 28.168 33.5484 28.0278C33.6913 27.8876 33.8835 27.8091 34.0837 27.8091C34.2839 27.8091 34.4762 27.8876 34.6191 28.0278C34.762 28.168 34.8442 28.3587 34.848 28.5589C34.848 29.4105 35.5406 30.1031 36.3922 30.1031C37.2438 30.1031 37.9366 29.4105 37.9366 28.5589C37.9404 28.3587 38.0226 28.168 38.1655 28.0278C38.3084 27.8876 38.5006 27.8091 38.7008 27.8091C38.901 27.8091 39.0932 27.8876 39.2361 28.0278C39.379 28.168 39.4612 28.3587 39.465 28.5589C39.4653 30.2533 38.0869 31.6317 36.3924 31.6317Z" fill="#605C5D"/>
<path d="M13.788 42.1432L15.5333 61.9131C15.7613 64.4961 18.0402 66.4052 20.6233 66.1772L36.9114 64.7357C39.4944 64.5076 41.4035 62.2288 41.1756 59.6458L39.4302 39.8759C39.2023 37.2928 36.9233 35.3838 34.3403 35.6117L18.0522 37.0532C15.4691 37.2812 13.56 39.56 13.788 42.1432Z" fill="#91A2B5"/>
<path d="M20.201 66.9598C18.9223 66.9598 17.6962 66.5158 16.7043 65.6849C15.5864 64.7484 14.9002 63.4327 14.7719 61.98L13.0267 42.2101C12.7621 39.2116 14.9863 36.5564 17.9851 36.2917L34.2732 34.8504C35.724 34.7217 37.1415 35.1671 38.2593 36.1037C39.3771 37.0401 40.0634 38.3559 40.1917 39.8086L41.9369 59.5785C42.0653 61.0311 41.62 62.4468 40.6836 63.5645C39.7471 64.6823 38.4314 65.3686 36.9787 65.4969L20.6905 66.9383C20.5269 66.9529 20.3636 66.9598 20.201 66.9598ZM14.5492 42.0757L16.2945 61.8456C16.3867 62.8915 16.8809 63.8389 17.6858 64.5133C18.4906 65.1875 19.5096 65.5084 20.556 65.4157L36.8441 63.9742C37.8901 63.882 38.8376 63.3878 39.5118 62.5829C40.1861 61.778 40.5066 60.7587 40.4143 59.7127L38.6691 39.9427C38.5767 38.8968 38.0826 37.9494 37.2776 37.2752C36.4728 36.6008 35.4538 36.2802 34.4077 36.3728L18.1196 37.8142C15.9603 38.0049 14.3589 39.9167 14.5492 42.0757Z" fill="#678490"/>
<path d="M18.8954 61.9432C19.0987 62.5525 19.6895 62.9382 20.3322 62.8815L36.6205 61.4398C37.1184 61.3959 37.4238 61.1138 37.5615 60.9493C37.6992 60.7849 37.9237 60.4347 37.8797 59.937L36.1344 40.1671C36.1249 40.0578 36.1027 39.95 36.0683 39.8458C35.865 39.2368 35.2742 38.8511 34.6316 38.9079L18.3432 40.3492C17.5818 40.4163 17.0168 41.0907 17.0841 41.8523L18.8293 61.6222C18.839 61.7331 18.8613 61.8411 18.8954 61.9432Z" fill="white"/>
<path d="M20.2063 63.6512C19.7559 63.6522 19.3166 63.511 18.9511 63.2478C18.5855 62.9845 18.3124 62.6127 18.1706 62.1851C18.1174 62.0247 18.0829 61.8587 18.068 61.6904L16.3228 41.9195C16.2972 41.6381 16.3278 41.3545 16.4126 41.085C16.4974 40.8155 16.6349 40.5656 16.817 40.3496C16.9977 40.1324 17.2197 39.9533 17.4702 39.8225C17.7206 39.6918 17.9945 39.612 18.276 39.5879L34.5642 38.1466C35.5581 38.0591 36.4776 38.6578 36.7933 39.6039C36.8464 39.7634 36.8808 39.9301 36.8957 40.1001L38.6411 59.8699C38.709 60.642 38.3609 61.185 38.1474 61.44C37.9345 61.6946 37.4612 62.133 36.6877 62.2012L20.3997 63.6429C20.3347 63.6484 20.2701 63.6512 20.2063 63.6512ZM34.7551 39.6668C34.7363 39.6668 34.7176 39.6676 34.6986 39.6693L18.4104 41.1105C18.3289 41.1175 18.2497 41.1407 18.1773 41.1785C18.1049 41.2164 18.0407 41.2683 17.9885 41.3311C17.9358 41.3935 17.896 41.4658 17.8715 41.5437C17.8469 41.6216 17.838 41.7036 17.8453 41.785L19.5905 61.5551C19.595 61.6062 19.6052 61.6557 19.6203 61.7013L19.6204 61.7014C19.7112 61.9735 19.9754 62.1456 20.265 62.1202L36.5529 60.6786C36.6344 60.6722 36.7137 60.6495 36.7862 60.6118C36.8587 60.5741 36.9229 60.5222 36.9749 60.4592C37.0281 60.3968 37.0681 60.3244 37.0928 60.2462C37.1174 60.168 37.1261 60.0857 37.1183 60.0041L35.373 40.2343C35.3606 40.0792 35.2901 39.9345 35.1755 39.8292C35.0608 39.724 34.9107 39.6659 34.7551 39.6668Z" fill="#678490"/>
<path d="M31.7277 58.2545L28.4863 56.9214L25.6672 59.0041L24.7166 51.3195L30.7771 50.5698L31.7277 58.2545Z" fill="#FD80A6"/>
<path d="M25.6672 59.7685C25.4808 59.7685 25.3008 59.7003 25.1612 59.5768C25.0215 59.4533 24.9318 59.2831 24.9089 59.0981L23.9583 51.4133C23.9459 51.3137 23.9533 51.2126 23.98 51.1158C24.0067 51.0191 24.0522 50.9285 24.114 50.8494C24.1757 50.7702 24.2524 50.704 24.3398 50.6546C24.4271 50.6051 24.5234 50.5734 24.623 50.5611L30.6834 49.8115C30.783 49.7991 30.884 49.8065 30.9808 49.8332C31.0775 49.86 31.168 49.9055 31.2472 49.9672C31.3263 50.0289 31.3925 50.1056 31.442 50.193C31.4915 50.2803 31.5232 50.3765 31.5355 50.4761L32.4861 58.1608C32.5026 58.2933 32.484 58.4277 32.4323 58.5508C32.3806 58.6739 32.2976 58.7813 32.1914 58.8623C32.0853 58.9432 31.9598 58.995 31.8275 59.0124C31.6951 59.0298 31.5605 59.0122 31.4371 58.9613L28.5939 57.792L26.1215 59.6189C25.99 59.7161 25.8307 59.7686 25.6672 59.7685ZM25.569 51.9842L26.2651 57.6123L28.032 56.3067C28.1377 56.2286 28.2618 56.1791 28.3923 56.163C28.5228 56.1468 28.6552 56.1646 28.7768 56.2147L30.8086 57.0503L30.1125 51.4223L25.569 51.9842Z" fill="#FE518E"/>
<path d="M32.6933 50.1246L32.4244 50.5647L32.4291 51.081C32.4342 51.6395 32.2499 52.1833 31.9064 52.6238C31.5629 53.0642 31.0804 53.3754 30.5375 53.5066L30.0356 53.6278L29.6744 53.9957C29.283 54.3943 28.7682 54.6486 28.2138 54.7172C27.6594 54.7858 27.0981 54.6646 26.6214 54.3733L26.1814 54.1044L25.6651 54.1092C25.1065 54.1142 24.5627 53.93 24.1222 53.5865C23.6818 53.243 23.3706 52.7604 23.2395 52.2174L23.1183 51.7155L22.7504 51.3543C22.3518 50.9629 22.0974 50.4481 22.0289 49.8937C21.9603 49.3393 22.0815 48.778 22.3728 48.3013L22.6416 47.8612L22.6369 47.3449C22.6319 46.7863 22.8161 46.2425 23.1596 45.8021C23.5031 45.3616 23.9856 45.0504 24.5286 44.9192L25.0304 44.798L25.3917 44.4301C25.783 44.0315 26.2979 43.7772 26.8523 43.7086C27.4067 43.6401 27.968 43.7613 28.4447 44.0525L28.8848 44.3214L29.4011 44.3167C29.9596 44.3117 30.5034 44.4959 30.9439 44.8394C31.3844 45.183 31.6955 45.6655 31.8267 46.2085L31.9479 46.7103L32.3158 47.0716C32.7143 47.463 32.9686 47.9778 33.0371 48.5322C33.1057 49.0866 32.9845 49.6478 32.6933 50.1246Z" fill="#FFFF9D"/>
<path d="M27.9133 55.5039C27.3336 55.5039 26.7491 55.3471 26.2229 55.0256L25.9694 54.8707L25.6716 54.8735L25.6414 54.8736C24.1403 54.8736 22.8495 53.8591 22.4963 52.3971L22.4264 52.1078L22.2145 51.8998C21.134 50.8387 20.9307 49.1952 21.7202 47.903L21.8751 47.6495L21.8723 47.3518C21.8586 45.8379 22.8768 44.532 24.3487 44.1765L24.638 44.1066L24.846 43.8946C25.9071 42.8142 27.5505 42.6107 28.8428 43.4002L29.0963 43.5551L29.394 43.5523L29.4242 43.5522C30.9254 43.5522 32.2161 44.5667 32.5693 46.0287L32.6392 46.318L32.8512 46.526C33.9316 47.587 34.1349 49.2305 33.3456 50.5228L33.1907 50.7763L33.1935 51.074C33.2072 52.5879 32.1889 53.8936 30.7171 54.2493L30.4278 54.3192L30.2198 54.5313C29.5906 55.1718 28.7571 55.5039 27.9133 55.5039ZM26.1813 53.3403C26.3219 53.3403 26.4596 53.3792 26.5797 53.4524L27.0197 53.7213C27.3486 53.9238 27.7367 54.0082 28.1201 53.9608C28.5035 53.9134 28.8593 53.7369 29.129 53.4603L29.4902 53.0923C29.5904 52.9902 29.7172 52.9184 29.8562 52.8848L30.358 52.7636C30.7338 52.6742 31.0679 52.4595 31.3055 52.1549C31.543 51.8503 31.6697 51.474 31.6649 51.0878L31.6603 50.5713C31.6591 50.4285 31.6979 50.2881 31.7724 50.1661L32.0412 49.7261C32.2437 49.3972 32.3282 49.0091 32.2808 48.6257C32.2333 48.2423 32.0568 47.8865 31.7803 47.6168L31.4122 47.2556C31.3102 47.1554 31.2383 47.0286 31.2048 46.8896L31.0836 46.3878C30.9948 46.0147 30.7825 45.6825 30.4812 45.4453C30.1799 45.2081 29.8072 45.0797 29.4237 45.0809L29.4076 45.081L28.8912 45.0856H28.8844C28.7438 45.0856 28.606 45.0468 28.486 44.9736L28.046 44.7047C27.717 44.5023 27.3289 44.4178 26.9455 44.4652C26.5622 44.5127 26.2064 44.6892 25.9366 44.9657L25.5754 45.3337C25.4752 45.4357 25.3484 45.5076 25.2094 45.5412L24.7076 45.6624C24.3318 45.7518 23.9977 45.9664 23.7602 46.271C23.5227 46.5756 23.396 46.952 23.4009 47.3382L23.4055 47.8546C23.4067 47.9975 23.3679 48.1379 23.2934 48.2598L23.0245 48.6998C22.822 49.0288 22.7376 49.4169 22.785 49.8003C22.8324 50.1837 23.0089 50.5395 23.2855 50.8092L23.6535 51.1704C23.7556 51.2706 23.8274 51.3974 23.861 51.5364L23.9822 52.0382C24.071 52.4113 24.2833 52.7434 24.5846 52.9807C24.8859 53.2179 25.2586 53.3463 25.6421 53.3451L25.658 53.3449L26.1745 53.3403H26.1813Z" fill="#FFCC6B"/>
<path d="M27.5391 52.2375C27.3812 52.2374 27.2235 52.2252 27.0675 52.2009C26.6748 52.1408 26.298 52.0035 25.9588 51.7968C25.6196 51.5901 25.3247 51.3182 25.0913 50.9968C24.8561 50.6767 24.6867 50.3131 24.593 49.9271C24.4992 49.541 24.483 49.1403 24.5452 48.7479C24.8017 47.1007 26.3493 45.9695 27.9981 46.2256C29.6453 46.4822 30.7767 48.0311 30.5203 49.6783V49.6784C30.4602 50.0711 30.3229 50.4479 30.1162 50.7871C29.9095 51.1264 29.6376 51.4212 29.3162 51.6546C28.7929 52.037 28.1751 52.2375 27.5391 52.2375ZM27.5318 47.7182C26.808 47.7182 26.1703 48.2464 26.0555 48.9833C26.0248 49.1772 26.0328 49.3754 26.0791 49.5662C26.1254 49.7571 26.2091 49.9368 26.3253 50.0951C26.4408 50.2541 26.5866 50.3885 26.7544 50.4907C26.9221 50.5929 27.1085 50.6608 27.3027 50.6905C28.1153 50.8171 28.883 50.2578 29.0099 49.4434C29.1366 48.6288 28.5771 47.8629 27.7627 47.736C27.6863 47.7241 27.6091 47.7182 27.5318 47.7182Z" fill="#FFCC6B"/>
<path d="M44.3188 48.532C44.8244 50.5688 44.5198 52.3974 42.483 52.903C40.4461 53.4086 38.3852 52.1673 37.8795 50.1306C37.3739 48.0938 38.6151 46.0329 40.6518 45.5273C42.6887 45.0217 43.8132 46.4954 44.3188 48.532Z" fill="#D4AFB7"/>
<path d="M41.5679 53.7802C39.5202 53.7802 37.6532 52.3901 37.138 50.3152C36.5317 47.8726 38.0255 45.3922 40.4679 44.7859C42.6874 44.2348 44.3618 45.5332 45.0607 48.3484C45.7596 51.1634 44.8871 53.094 42.6673 53.6451C42.3077 53.7347 41.9385 53.78 41.5679 53.7802ZM41.4235 46.1847C41.1774 46.1847 40.9701 46.2361 40.8361 46.2694C39.2117 46.6727 38.2181 48.3224 38.6214 49.947C39.0245 51.5715 40.6748 52.5644 42.2989 52.1617C43.0053 51.9864 43.4288 51.6307 43.632 51.0428C43.8309 50.4667 43.812 49.6623 43.5772 48.7168C43.0428 46.5641 42.0912 46.1847 41.4235 46.1847Z" fill="#B78E98"/>
<path d="M11.4238 48.31C11.5822 50.4025 12.4448 52.0433 14.5375 51.8849C16.6301 51.7266 18.198 49.9016 18.0397 47.8091C17.8813 45.7165 16.0564 44.1485 13.9638 44.3069C11.8711 44.4654 11.2654 46.2174 11.4238 48.31Z" fill="#D4AFB7"/>
<path d="M14.2587 52.6601C12.1736 52.6604 10.8698 51.115 10.6616 48.3678C10.5643 47.0829 10.7383 46.0227 11.1789 45.2168C11.7255 44.2168 12.6686 43.6387 13.906 43.5451C15.122 43.453 16.3003 43.8398 17.225 44.6345C18.1497 45.4289 18.7095 46.5361 18.8015 47.7517C18.8935 48.9673 18.5069 50.146 17.7123 51.0707C16.9177 51.9953 15.8107 52.5551 14.5951 52.6474C14.4809 52.6558 14.3686 52.6601 14.2587 52.6601ZM14.2553 45.0603C14.1777 45.0603 14.0999 45.0633 14.0215 45.0692C13.2957 45.1241 12.8187 45.404 12.5203 45.9499C12.2279 46.4848 12.1123 47.2809 12.1859 48.2524C12.415 51.2791 13.9684 51.1618 14.4798 51.1231C14.8776 51.094 15.2656 50.9864 15.6215 50.8064C15.9774 50.6264 16.294 50.3776 16.5531 50.0744C16.8138 49.7727 17.0121 49.4222 17.1365 49.0433C17.2609 48.6644 17.3089 48.2646 17.2777 47.8671C17.2487 47.4693 17.1411 47.0813 16.9611 46.7255C16.7811 46.3696 16.5323 46.053 16.2292 45.7939C15.6735 45.3165 14.98 45.0603 14.2553 45.0603Z" fill="#B78E98"/>
<path d="M61.2199 20.5113C59.0687 18.5454 54.6234 18.4916 50.8397 22.2661C47.1235 25.8212 44.0687 33.2047 46.2589 41.0439C48.0957 48.9735 54.3174 53.9876 59.2833 55.3249C64.4139 56.8226 68.2885 54.6438 69.2339 51.887C71.222 46.0033 64.8478 43.9468 63.0583 36.753C61.1793 29.5823 65.7858 24.7211 61.2199 20.5113Z" fill="#FFFF9D"/>
<path d="M64.4197 51.3247C64.3323 51.3247 64.2455 51.3096 64.1632 51.2802C64.0477 51.239 61.3013 50.2456 58.3182 48.0035C54.3319 45.0076 51.8502 41.1964 51.1415 36.9816C50.1765 31.2435 52.5364 26.8237 54.686 24.1264C54.7485 24.0479 54.8258 23.9825 54.9137 23.9339C55.0015 23.8853 55.098 23.8545 55.1977 23.8432C55.2975 23.8319 55.3984 23.8404 55.4949 23.8682C55.5913 23.896 55.6814 23.9425 55.7598 24.0051C55.8383 24.0676 55.9037 24.145 55.9523 24.2328C56.0009 24.3207 56.0317 24.4172 56.0429 24.5169C56.0542 24.6166 56.0457 24.7176 56.018 24.814C55.9902 24.9105 55.9437 25.0005 55.8812 25.079C53.9256 27.5329 51.7773 31.5458 52.6489 36.728C53.2984 40.5905 55.5029 43.964 59.2008 46.7546C62.0017 48.8684 64.651 49.8311 64.6775 49.8405C64.847 49.9012 64.9897 50.0198 65.0803 50.1754C65.1709 50.331 65.2037 50.5136 65.1729 50.691C65.1421 50.8684 65.0497 51.0293 64.9119 51.1452C64.7741 51.2611 64.5998 51.3247 64.4197 51.3247Z" fill="#FFE5A7"/>
<path d="M50.3857 36.7695C50.1959 36.7693 50.0129 36.6984 49.8724 36.5707C49.732 36.4429 49.6441 36.2675 49.6259 36.0785C49.5749 35.5482 49.7363 35.0303 50.0804 34.6199C50.4212 34.2133 50.9014 33.9615 51.4321 33.9105C52.5357 33.8033 53.5136 34.6051 53.6186 35.6944C53.6282 35.7943 53.6181 35.8951 53.5888 35.9911C53.5594 36.087 53.5115 36.1763 53.4476 36.2538C53.3838 36.3312 53.3053 36.3953 53.2167 36.4424C53.1281 36.4895 53.0311 36.5187 52.9312 36.5283C52.512 36.5699 52.1376 36.261 52.0972 35.8409C52.0731 35.5902 51.8408 35.4076 51.5784 35.432C51.4513 35.4434 51.3338 35.5046 51.2516 35.6023C51.2131 35.6475 51.184 35.6999 51.1661 35.7565C51.1482 35.8132 51.1419 35.8728 51.1475 35.9319C51.1577 36.0381 51.1456 36.1452 51.112 36.2464C51.0784 36.3476 51.0239 36.4406 50.9522 36.5195C50.8804 36.5984 50.793 36.6614 50.6954 36.7044C50.5979 36.7475 50.4924 36.7697 50.3857 36.7695ZM56.0014 38.7482C54.8808 38.7482 53.921 37.9035 53.8127 36.7777C53.8031 36.6778 53.8133 36.577 53.8426 36.481C53.872 36.385 53.92 36.2958 53.9838 36.2184C54.0476 36.1409 54.1261 36.0768 54.2147 36.0297C54.3033 35.9826 54.4004 35.9534 54.5003 35.9438C54.6002 35.9342 54.701 35.9444 54.7969 35.9737C54.8929 36.0031 54.9821 36.0511 55.0596 36.1149C55.137 36.1788 55.2011 36.2572 55.2482 36.3458C55.2953 36.4345 55.3245 36.5315 55.3341 36.6314C55.3686 36.9896 55.6999 37.2519 56.07 37.2164C56.2498 37.2002 56.4159 37.1136 56.5321 36.9754C56.5873 36.9105 56.6289 36.8351 56.6545 36.7538C56.6801 36.6725 56.6891 36.5869 56.681 36.502C56.6714 36.4021 56.6815 36.3013 56.7109 36.2053C56.7402 36.1093 56.7882 36.0201 56.8521 35.9427C56.9159 35.8652 56.9944 35.8011 57.083 35.754C57.1716 35.7069 57.2687 35.6777 57.3686 35.6682C57.786 35.6277 58.1622 35.9355 58.2024 36.3557C58.2584 36.9381 58.081 37.5071 57.703 37.9578C57.3281 38.4047 56.8001 38.6819 56.2162 38.7379C56.1444 38.7447 56.0724 38.7482 56.0014 38.7482Z" fill="#605C5D"/>
<path d="M62.536 56.5799C61.5204 56.5799 60.3648 56.4362 59.077 56.061C53.8776 54.6574 47.4219 49.4208 45.5182 41.2332C43.2627 33.1351 46.4165 25.4445 50.3056 21.7195C52.6729 19.3605 55.0103 18.654 56.555 18.4768C58.5715 18.245 60.4597 18.7813 61.7355 19.9472L61.7381 19.9494C64.6411 22.6261 64.204 25.6139 63.7412 28.777C63.4084 31.0529 63.0308 33.6326 63.7978 36.5593C64.5305 39.5048 66.0989 41.5877 67.4827 43.4251C69.4057 45.9787 71.2222 48.3908 69.9582 52.1316C69.3965 53.7696 67.9965 55.1455 66.116 55.9094C65.2534 56.2598 64.0509 56.5799 62.536 56.5799ZM57.495 19.9515C55.6055 19.9515 53.3756 20.8159 51.3795 22.8072L51.368 22.8184C47.7926 26.2388 44.899 33.3367 46.9949 40.8383C46.9981 40.8494 47.0009 40.8605 47.0035 40.8716C48.7612 48.4594 54.7041 53.3003 59.4822 54.5872L59.4976 54.5915C63.0728 55.6347 67.4219 54.8161 68.511 51.6392C69.5157 48.6658 68.1509 46.8532 66.2616 44.3446C64.7901 42.3906 63.1223 40.1758 62.3168 36.9376C61.4732 33.719 61.8747 30.9759 62.2287 28.5556C62.6833 25.4489 63.0114 23.2038 60.7033 21.0745C59.9139 20.3537 58.7834 19.9515 57.495 19.9515Z" fill="#FFCC6B"/>
<path d="M60.1219 24.6131C59.1333 24.7357 58.1579 24.4255 57.4153 23.7447C57.0747 23.4314 56.8014 23.0521 56.6121 22.6298C56.4227 22.2075 56.3213 21.751 56.314 21.2883C56.3082 20.8255 56.3967 20.3665 56.574 19.939C56.7513 19.5115 57.0138 19.1246 57.3454 18.8018H57.3455L60.585 15.6593C61.3649 14.9025 62.5467 14.7115 63.5256 15.1848C63.8334 15.3325 64.1088 15.5398 64.3359 15.7947C64.5631 16.0496 64.7374 16.347 64.8488 16.6697C64.962 16.9918 65.0101 17.3332 64.9904 17.6741C64.9708 18.0149 64.8837 18.3485 64.7342 18.6555L62.7698 22.7188C62.2978 23.6955 61.4158 24.3728 60.3504 24.577C60.2741 24.5916 60.198 24.6037 60.1219 24.6131ZM58.9308 35.9484C58.7409 35.9482 58.5579 35.8773 58.4174 35.7495C58.277 35.6217 58.1891 35.4462 58.171 35.2571C58.0665 34.1676 58.8769 33.1952 59.9777 33.0894C60.5039 33.037 61.0296 33.1948 61.44 33.5285C61.8557 33.8657 62.1129 34.3433 62.1638 34.8737C62.1734 34.9736 62.1633 35.0744 62.1339 35.1704C62.1046 35.2664 62.0566 35.3556 61.9927 35.433C61.9289 35.5105 61.8504 35.5745 61.7617 35.6216C61.6731 35.6687 61.5761 35.6978 61.4762 35.7074C61.3762 35.7171 61.2754 35.707 61.1794 35.6777C61.0834 35.6484 60.9941 35.6004 60.9166 35.5365C60.8392 35.4727 60.7751 35.3941 60.7281 35.3054C60.681 35.2168 60.6519 35.1197 60.6425 35.0197C60.6367 34.9606 60.6191 34.9033 60.5908 34.8511C60.5624 34.7989 60.5239 34.7529 60.4774 34.7159C60.3779 34.6359 60.2509 34.5982 60.1238 34.6111C59.862 34.6362 59.6687 34.8605 59.6927 35.1113C59.7029 35.2174 59.6908 35.3245 59.6571 35.4256C59.6235 35.5268 59.569 35.6198 59.4973 35.6987C59.4255 35.7775 59.338 35.8405 59.2405 35.8835C59.1429 35.9265 59.0374 35.9486 58.9308 35.9484Z" fill="#605C5D"/>
<path d="M43.202 43.5251L41.1936 63.27C40.9312 65.8499 42.8098 68.1539 45.3895 68.4163L61.6578 70.0674C64.2377 70.3298 66.5417 68.4512 66.8041 65.8715L68.8125 46.1266C69.0748 43.5469 67.1962 41.2427 64.6165 40.9803L48.3482 39.3292C45.7684 39.0667 43.4643 40.9452 43.202 43.5251Z" fill="#91A2B5"/>
<path d="M62.1371 70.8563C61.9531 70.8563 61.7674 70.8469 61.5804 70.828L45.3123 69.1767C42.3173 68.872 40.1286 66.1876 40.4333 63.1929L42.4416 43.4478C42.7463 40.4529 45.4296 38.2646 48.4256 38.5688L64.6938 40.2201C67.6888 40.5247 69.8775 43.2091 69.5729 46.204L67.5644 65.949C67.2786 68.7569 64.9009 70.8563 62.1371 70.8563ZM43.9622 43.6025L41.9538 63.3475C41.7344 65.5038 43.3104 67.4366 45.4668 67.656L61.7349 69.3072C63.8902 69.5259 65.8242 67.9507 66.0436 65.7942L68.0521 46.0493C68.2714 43.8929 66.6953 41.9601 64.539 41.7407L48.2708 40.0894C46.1155 39.8688 44.1817 41.4461 43.9622 43.6025Z" fill="#678490"/>
<path d="M44.4898 63.9325C44.5748 64.5691 45.0824 65.0592 45.7241 65.1245L61.9924 66.7757C62.4898 66.8263 62.8428 66.6068 63.0089 66.4712C63.1752 66.3355 63.4615 66.0339 63.5121 65.5368L65.5205 45.792C65.5317 45.6813 65.5302 45.571 65.5159 45.464C65.4309 44.8277 64.9234 44.3376 64.2816 44.2724L48.0132 42.621C47.2527 42.5435 46.5709 43.0994 46.4936 43.8602L44.4852 63.6048C44.474 63.7138 44.4755 63.8238 44.4898 63.9325Z" fill="white"/>
<path d="M62.1403 67.5476C62.0674 67.5476 61.9924 67.544 61.9152 67.5361L45.6469 65.8849C44.6515 65.7837 43.8643 65.0225 43.7324 64.0338C43.7102 63.8662 43.7076 63.6966 43.7248 63.5285L45.7334 43.7829C45.7614 43.5017 45.8448 43.2289 45.9788 42.9802C46.1129 42.7314 46.2949 42.5118 46.5144 42.3339C46.7328 42.1546 46.9846 42.0204 47.2553 41.9392C47.5259 41.858 47.81 41.8313 48.091 41.8607L64.3591 43.512C65.3545 43.6133 66.1418 44.3744 66.2736 45.363C66.2958 45.5273 66.2983 45.6976 66.2813 45.8685L64.2726 65.6142C64.1941 66.3854 63.75 66.8531 63.492 67.0635C63.2604 67.2524 62.7938 67.5476 62.1403 67.5476ZM47.8723 43.3779C47.7293 43.378 47.5907 43.4276 47.4801 43.5184C47.4166 43.5698 47.3639 43.6334 47.3251 43.7053C47.2863 43.7772 47.2621 43.8561 47.254 43.9375L45.2454 63.6823C45.2404 63.7319 45.241 63.7819 45.2474 63.8313C45.2852 64.1158 45.5131 64.3347 45.8014 64.3641L62.0697 66.0153C62.1509 66.0243 62.2332 66.0169 62.3115 65.9935C62.3898 65.97 62.4626 65.9311 62.5256 65.879C62.5896 65.8278 62.6426 65.7642 62.6814 65.6921C62.7203 65.62 62.7442 65.5408 62.7518 65.4592L64.7603 45.7144C64.7654 45.6631 64.7649 45.6128 64.7585 45.5658C64.7205 45.2808 64.4927 45.0618 64.2044 45.0324L47.9361 43.3811C47.9149 43.379 47.8936 43.378 47.8723 43.3779Z" fill="#678490"/>
<path d="M57.7872 62.7258L54.8547 60.8061L51.694 62.3208L52.2073 54.5947L58.3006 54.9995L57.7872 62.7258Z" fill="#FD80A6"/>
<path d="M57.7872 63.4904C57.6385 63.4904 57.493 63.4471 57.3686 63.3656L54.7963 61.6818L52.0241 63.0104C51.9038 63.0681 51.7704 63.0932 51.6373 63.0833C51.5042 63.0734 51.376 63.0289 51.2655 62.954C51.1549 62.8792 51.0659 62.7768 51.0073 62.6569C50.9487 62.537 50.9225 62.4038 50.9313 62.2706L51.4446 54.5445C51.4728 54.1234 51.8376 53.8075 52.2579 53.8324L58.3512 54.2372C58.4513 54.2439 58.5492 54.2702 58.6391 54.3146C58.7291 54.3591 58.8095 54.4208 58.8756 54.4964C58.9417 54.5719 58.9923 54.6597 59.0244 54.7547C59.0566 54.8498 59.0698 54.9503 59.0631 55.0504L58.5498 62.7766C58.5368 62.9701 58.4508 63.1514 58.3093 63.2839C58.1677 63.4164 57.9811 63.4902 57.7872 63.4904ZM54.8546 60.042C55.0009 60.042 55.1468 60.084 55.2732 60.1668L57.1113 61.3701L57.4874 55.7116L52.9193 55.4082L52.5433 61.0665L54.5244 60.117C54.6275 60.0677 54.7403 60.0421 54.8546 60.042Z" fill="#FE518E"/>
<path d="M60.2661 54.9234L59.9192 55.305L59.8265 55.813C59.7263 56.3625 59.443 56.8619 59.0227 57.2298C58.6024 57.5977 58.0699 57.8125 57.5119 57.8391L56.9962 57.8637L56.5722 58.157C56.1127 58.4747 55.5592 58.6276 55.0018 58.5905C54.4444 58.5535 53.916 58.3288 53.5027 57.953L53.121 57.6061L52.6131 57.5135C52.0636 57.4133 51.5642 57.13 51.1963 56.7097C50.8283 56.2894 50.6136 55.7569 50.5869 55.1989L50.5624 54.6832L50.2691 54.2592C49.9513 53.7997 49.7985 53.2462 49.8355 52.6888C49.8726 52.1314 50.0973 51.603 50.4731 51.1897L50.8199 50.808L50.9126 50.3001C51.0128 49.7506 51.2961 49.2512 51.7164 48.8832C52.1367 48.5153 52.6692 48.3006 53.2271 48.2739L53.7428 48.2494L54.1669 47.9561C54.6263 47.6383 55.1798 47.4855 55.7372 47.5225C56.2946 47.5596 56.8231 47.7843 57.2364 48.1601L57.618 48.5069L58.126 48.5995C58.6755 48.6998 59.1749 48.9831 59.5428 49.4034C59.9107 49.8237 60.1255 50.3562 60.1521 50.9141L60.1767 51.4298L60.47 51.8539C60.7878 52.3133 60.9406 52.8668 60.9036 53.4242C60.8666 53.9816 60.6419 54.51 60.2661 54.9234Z" fill="#FFFF9D"/>
<path d="M55.1641 59.3645C54.3823 59.3645 53.6049 59.0791 52.9886 58.519L52.7688 58.3192L52.4759 58.2658C50.9863 57.9942 49.8957 56.7481 49.8236 55.2356L49.8094 54.9385L49.6405 54.6944C48.7791 53.4489 48.8889 51.7964 49.9076 50.676L50.1073 50.4563L50.1607 50.1633C50.4322 48.6738 51.6783 47.5832 53.1908 47.5109L53.488 47.4968L53.732 47.3279C54.9776 46.4669 56.6299 46.5764 57.7505 47.5948L57.9703 47.7947L58.263 47.848C59.7526 48.1197 60.8433 49.3658 60.9155 50.8782L60.9297 51.1753L61.0986 51.4195C61.96 52.665 61.8502 54.3174 60.8315 55.438L60.6318 55.6576L60.5785 55.9504C60.3067 57.4403 59.0608 58.5308 57.5484 58.6029L57.2512 58.6172L57.0069 58.7861C56.4465 59.1735 55.8036 59.3645 55.1641 59.3645ZM55.5744 48.2796C55.2366 48.2796 54.8974 48.3803 54.6016 48.5848L54.1777 48.8782C54.0601 48.9595 53.9221 49.0062 53.7793 49.0132L53.2636 49.0377C52.8777 49.0547 52.5091 49.2026 52.2185 49.457C51.9278 49.7114 51.7325 50.0572 51.6646 50.4375L51.5719 50.9457C51.5463 51.0862 51.4817 51.2168 51.3856 51.3225L51.0387 51.7041C50.7779 51.989 50.6218 52.3542 50.5961 52.7397C50.5705 53.1252 50.6769 53.5079 50.8977 53.8248L51.1911 54.2489C51.2724 54.3663 51.3191 54.5046 51.3261 54.6473L51.3506 55.163C51.3676 55.5489 51.5154 55.9175 51.7699 56.2082C52.0243 56.4988 52.3701 56.6941 52.7504 56.762L53.2585 56.8546C53.399 56.8804 53.5295 56.9449 53.6352 57.041L54.0169 57.3878C54.3018 57.6487 54.667 57.8048 55.0525 57.8305C55.4379 57.8561 55.8206 57.7497 56.1376 57.5289L56.5619 57.2354C56.6795 57.1543 56.8173 57.1076 56.96 57.1006L57.4757 57.076C57.8617 57.059 58.2303 56.9111 58.521 56.6566C58.8117 56.4022 59.007 56.0564 59.0749 55.6761L59.1674 55.1683C59.1931 55.0276 59.2577 54.897 59.3539 54.7912L59.7009 54.4096C59.9617 54.1247 60.1177 53.7594 60.1434 53.374C60.169 52.9886 60.0626 52.6059 59.8418 52.289L59.5483 51.8648C59.4671 51.7472 59.4204 51.6092 59.4134 51.4664L59.3889 50.9507C59.3719 50.5648 59.224 50.1962 58.9695 49.9055C58.7151 49.6149 58.3692 49.4196 57.989 49.3517L57.4812 49.2592C57.3405 49.2335 57.2099 49.1689 57.1041 49.0728L56.7225 48.7258C56.4089 48.439 55.9994 48.2799 55.5744 48.2796Z" fill="#FFCC6B"/>
<path d="M55.3718 56.0816C55.0281 56.0816 54.6833 56.0222 54.3501 55.9028C53.9758 55.7699 53.6315 55.5641 53.3373 55.2973C53.0431 55.0304 52.8047 54.7079 52.636 54.3483C52.4653 53.9896 52.3675 53.6007 52.3481 53.204C52.3288 52.8072 52.3883 52.4106 52.5232 52.037C53.0851 50.4674 54.8192 49.6477 56.3891 50.21C57.9586 50.7722 58.7782 52.5064 58.216 54.0759C58.0831 54.4502 57.8773 54.7945 57.6104 55.0887C57.3436 55.3829 57.021 55.6213 56.6615 55.7901C56.2585 55.9816 55.818 56.0811 55.3718 56.0816ZM55.3711 51.5613C54.7574 51.5613 54.1806 51.9422 53.9622 52.5524C53.8955 52.7371 53.8661 52.9332 53.8756 53.1293C53.8852 53.3255 53.9337 53.5178 54.0181 53.6951C54.1015 53.8729 54.2194 54.0324 54.3648 54.1644C54.5103 54.2963 54.6805 54.3981 54.8655 54.4638C55.6417 54.7418 56.4991 54.3365 56.7771 53.5605C57.055 52.7845 56.6497 51.9269 55.8738 51.6489C55.7125 51.591 55.5425 51.5614 55.3711 51.5613Z" fill="#FFCC6B"/>
<path d="M69.3591 40.1756C70.3302 41.404 70.6866 42.7404 69.4582 43.7116C68.2299 44.6828 66.447 44.4743 65.4757 43.2461C64.5046 42.0178 64.713 40.2349 65.9412 39.2636C67.1695 38.2923 68.3878 38.9473 69.3591 40.1756Z" fill="#FFFF9D"/>
<path d="M67.7035 45.0855C66.6397 45.0855 65.5858 44.6173 64.8762 43.72C63.6453 42.1631 63.9105 39.8949 65.4674 38.664C66.8817 37.5458 68.5608 37.9335 69.9586 39.7017C71.3564 41.4696 71.3465 43.1929 69.9322 44.3111C69.2981 44.8135 68.5125 45.0865 67.7035 45.0855ZM67.1574 39.5597C66.7992 39.5597 66.5531 39.7542 66.4154 39.8631C65.5195 40.5713 65.3671 41.8763 66.0753 42.772C66.7834 43.6674 68.0886 43.8204 68.9843 43.112C69.2739 42.883 70.0437 42.2739 68.7596 40.6496C68.0854 39.7971 67.5529 39.5597 67.1574 39.5597Z" fill="#FFCC6B"/>
<path d="M46.2225 37.5021C47.788 37.4676 49.0692 37.9888 49.1037 39.5543C49.1382 41.1198 47.8971 42.4168 46.3317 42.4513C44.7662 42.4858 43.4692 41.2447 43.4347 39.6792C43.4001 38.1139 44.6571 37.5366 46.2225 37.5021Z" fill="#FFFF9D"/>
<path d="M46.2681 43.2164C44.3198 43.2165 42.7139 41.6537 42.6704 39.6962C42.6308 37.8937 43.9525 36.7878 46.2056 36.7379C48.4576 36.6901 49.8279 37.735 49.8677 39.5375C49.9113 41.5218 48.3327 43.1716 46.3483 43.2155C46.3218 43.2161 46.2948 43.2164 46.2681 43.2164ZM46.2393 38.2662C44.1688 38.312 44.1906 39.2932 44.1986 39.6625C44.2237 40.8043 45.176 41.7126 46.3147 41.6872C47.4564 41.662 48.3647 40.7128 48.3395 39.5711C48.3314 39.2018 48.3058 38.2173 46.2393 38.2662Z" fill="#FFCC6B"/>
</g>
<defs>
<clipPath id="clip0_525_2057">
<rect width="71" height="71" fill="white"/>
</clipPath>
</defs>
</svg>
