<svg width="71" height="71" viewBox="0 0 71 71" fill="none" xmlns="http://www.w3.org/2000/svg">
<g clip-path="url(#clip0_525_1953)">
<path d="M62.1508 23.2518C60.8458 23.1393 59.5321 23.3199 58.3058 23.7803C57.9159 15.5043 51.8224 8.36826 43.4929 6.76383C39.6714 6.02653 35.7842 5.68351 31.8926 5.74015C23.2454 5.86413 15.9324 11.8532 14.0655 20.0356C12.9629 19.3877 11.7021 18.9699 10.343 18.8545C5.48296 18.4419 1.20881 22.0474 0.796405 26.9073C0.383856 31.7672 3.98932 36.0415 8.84922 36.454C11.3249 36.6641 13.6473 35.83 15.3859 34.3201C16.9582 37.1991 19.6161 39.4187 22.8588 40.38C23.5569 40.5865 24.2587 40.7802 24.9639 40.9609C23.9706 41.1353 22.9085 41.5452 21.8969 42.1913C19.1548 43.9427 17.8246 46.7605 18.9261 48.4851C19.4709 49.3382 20.5092 49.7632 21.7508 49.7636C21.0615 49.9829 22.2256 49.7438 22.2256 49.7438C22.5256 49.7183 22.8235 49.6727 23.1173 49.6073C27.8588 49.6266 39.3552 53.3641 39.8407 56.1985C40.3042 58.9038 46.9532 63.2029 51.3054 58.8508C55.3134 54.8429 50.1677 46.2584 44.4115 42.5446C44.919 42.4993 45.4272 42.4477 45.9359 42.389C49.3934 41.9906 52.4569 40.2353 54.547 37.6135C56.0067 39.4126 58.1661 40.64 60.657 40.8515C65.5171 41.264 69.7912 37.6585 70.2036 32.7985C70.6162 27.9385 67.0108 23.6643 62.1508 23.2518Z" fill="#D4AFB7"/>
<path d="M41.3872 41.885C35.8002 42.4501 30.3016 41.9722 24.8917 40.4515C21.5718 39.5183 19.0899 36.8837 18.518 33.7085C18.2187 32.0473 18.1243 30.4037 18.2344 28.7773C18.6658 22.4092 24.3278 17.5371 31.1966 17.4871C33.9775 17.4663 36.754 17.7106 39.4885 18.2168C46.0079 19.422 50.6462 25.0139 50.125 31.1526C49.9839 32.816 49.6279 34.4613 49.0573 36.0882C47.9437 39.263 44.967 41.5229 41.3872 41.885Z" fill="#FAEAC0"/>
<path d="M32.2179 27.187L32.2177 27.1903L32.2179 27.187ZM39.1824 27.7782L39.1822 27.7815L39.1824 27.7782ZM32.2179 27.187L32.2177 27.1903L32.2179 27.187ZM39.1824 27.7782L39.1822 27.7815L39.1824 27.7782Z" fill="#FD80A6"/>
<path d="M64.4337 33.5073C65.1996 31.9075 64.5235 29.9897 62.9237 29.2239C61.3239 28.4581 59.4062 29.1341 58.6403 30.7339C57.8745 32.3337 58.5505 34.2515 60.1503 35.0173C61.7501 35.7831 63.6679 35.1071 64.4337 33.5073Z" fill="#B78E98"/>
<path d="M11.7487 29.4183C12.7164 27.9318 12.2958 25.9424 10.8094 24.9747C9.32295 24.007 7.33351 24.4276 6.36584 25.914C5.39817 27.4005 5.81872 29.3899 7.30516 30.3576C8.7916 31.3253 10.781 30.9047 11.7487 29.4183Z" fill="#B78E98"/>
<path d="M62.2154 22.4903C61.1212 22.3975 60.042 22.4883 58.9962 22.7606C58.6076 18.9209 57.0148 15.228 54.4544 12.27C51.6589 9.0405 47.8174 6.81856 43.6374 6.01343C39.7644 5.26772 35.8253 4.92011 31.8815 4.97603C27.5474 5.03801 23.3123 6.56341 19.9566 9.27111C16.8791 11.7542 14.6346 15.15 13.5639 18.9145C12.5713 18.4626 11.5137 18.1869 10.4075 18.0929C7.85369 17.8767 5.36813 18.6668 3.40898 20.3195C1.44982 21.9721 0.251555 24.2887 0.0346726 26.8426C-0.412822 32.1147 3.51229 36.7678 8.78445 37.2154C11.0845 37.411 13.3199 36.7914 15.1721 35.4622C16.9073 38.199 19.5297 40.1901 22.6414 41.1127C23.7545 41.4427 24.8769 41.7405 26.0072 42.0059C26.1049 42.0288 26.2062 42.0323 26.3052 42.016C26.4043 41.9998 26.4991 41.9643 26.5844 41.9114C26.6697 41.8585 26.7438 41.7893 26.8023 41.7078C26.8608 41.6263 26.9028 41.534 26.9256 41.4363C26.9486 41.3386 26.9521 41.2374 26.9359 41.1383C26.9197 41.0393 26.8841 40.9444 26.8312 40.8591C26.7783 40.7738 26.7091 40.6998 26.6276 40.6412C26.5461 40.5827 26.4538 40.5408 26.3561 40.5179C25.2545 40.2593 24.1606 39.9689 23.0757 39.6472C20.0669 38.7552 17.5742 36.7333 16.0564 33.9539C16.0017 33.8536 15.9252 33.7669 15.8325 33.7001C15.7399 33.6333 15.6334 33.5881 15.521 33.5679C15.4086 33.5477 15.293 33.5529 15.1829 33.5832C15.0728 33.6136 14.9709 33.6682 14.8846 33.7431C13.2231 35.186 11.1021 35.8782 8.91356 35.6924C6.76664 35.5102 4.81899 34.5027 3.4295 32.8556C2.04001 31.2084 1.37535 29.1189 1.55757 26.9717C1.73978 24.8245 2.74723 22.877 4.39438 21.4877C6.04152 20.0982 8.13145 19.4327 10.2781 19.6158C11.3323 19.7053 12.3336 19.9914 13.2619 20.4662L13.0131 23.3972C12.996 23.5991 13.0598 23.7996 13.1904 23.9546C13.3211 24.1095 13.508 24.2061 13.7099 24.2233C13.9119 24.2404 14.1124 24.1766 14.2673 24.0459C14.4222 23.9153 14.5189 23.7284 14.536 23.5264L14.8217 20.1603C15.6974 16.37 17.8598 12.9265 20.9162 10.4605C24.0073 7.96635 27.9094 6.56133 31.9034 6.50405C35.7428 6.45048 39.5776 6.78889 43.3483 7.514C47.1928 8.25465 50.7267 10.2989 53.2988 13.2703C55.8443 16.2112 57.3489 19.9396 57.5393 23.7729L57.2533 27.142C57.2362 27.344 57.3 27.5445 57.4307 27.6994C57.5614 27.8544 57.7483 27.951 57.9502 27.9682C58.1522 27.9853 58.3527 27.9215 58.5076 27.7908C58.6626 27.6601 58.7592 27.4732 58.7764 27.2713L59.025 24.342C60.0137 24.0354 61.0411 23.9243 62.0862 24.0132C66.5185 24.3893 69.8184 28.3015 69.4422 32.7337C69.0658 37.1661 65.1535 40.4674 60.7215 40.0897C58.5184 39.9028 56.5363 38.8522 55.1404 37.1317C55.0687 37.0433 54.9783 36.9721 54.8756 36.9232C54.7729 36.8743 54.6606 36.8489 54.5469 36.8489H54.5437C54.4294 36.8494 54.3167 36.8755 54.2138 36.9253C54.111 36.9751 54.0206 37.0473 53.9493 37.1367C51.9347 39.6644 49.0577 41.2599 45.8483 41.6295C43.8342 41.8621 41.8093 41.989 39.7819 42.0099C39.5792 42.0109 39.3852 42.0923 39.2426 42.2363C39.1 42.3803 39.0204 42.5751 39.0214 42.7778C39.0223 42.9805 39.1038 43.1745 39.2478 43.3171C39.3918 43.4597 39.5866 43.5393 39.7893 43.5383H39.7969C41.8777 43.5168 43.9559 43.3865 46.0231 43.148C49.337 42.7663 52.3362 41.2239 54.5603 38.7759C56.1654 40.4178 58.276 41.4161 60.5923 41.6127C65.8658 42.0605 70.5174 38.135 70.9651 32.8629C71.4127 27.5911 67.4876 22.9378 62.2154 22.4903Z" fill="#B78E98"/>
<path d="M41.3022 33.3717C41.2276 34.2506 41.8915 35.0245 42.7853 35.1003C43.679 35.1762 44.4639 34.5253 44.5385 33.6462C44.6131 32.7673 43.9491 31.9934 43.0554 31.9176C42.1617 31.8418 41.3768 32.4928 41.3022 33.3717ZM20.9956 31.6481C20.921 32.527 21.585 33.3009 22.4787 33.3768C23.3725 33.4526 24.1573 32.8016 24.2319 31.9227C24.3065 31.0438 23.6426 30.2699 22.7488 30.194C21.8552 30.1181 21.0702 30.7692 20.9956 31.6481ZM36.3196 35.8058C36.1696 35.8058 36.023 35.7615 35.8981 35.6785C35.7632 35.5901 32.7139 33.6425 28.6866 35.2081C28.5931 35.2445 28.4933 35.2621 28.393 35.2599C28.2927 35.2577 28.1938 35.2358 28.1019 35.1953C28.01 35.1549 27.9271 35.0968 27.8577 35.0243C27.7883 34.9518 27.7338 34.8663 27.6975 34.7728C27.6611 34.6793 27.6435 34.5795 27.6457 34.4792C27.6479 34.3788 27.6698 34.2799 27.7102 34.1881C27.7507 34.0962 27.8088 34.0132 27.8813 33.9438C27.9538 33.8744 28.0392 33.82 28.1328 33.7837C32.9278 31.9196 36.5907 34.3034 36.7443 34.4056C36.8807 34.4967 36.9841 34.6293 37.0394 34.7837C37.0947 34.9381 37.0988 35.1062 37.0512 35.2632C37.0036 35.4202 36.9067 35.5576 36.775 35.6553C36.6432 35.753 36.4836 35.8058 36.3196 35.8058Z" fill="#605C5D"/>
<path d="M21.7557 50.5354C20.2526 50.5354 18.9784 49.9864 18.2821 48.8964C16.9331 46.7843 18.3402 43.5562 21.4854 41.5474L21.4855 41.5472C24.6306 39.5386 28.1512 39.6196 29.5002 41.7314C30.8492 43.8435 29.4421 47.0716 26.2969 49.0806C24.775 50.0525 23.1647 50.5354 21.7557 50.5354ZM22.3081 42.8352C19.966 44.3314 18.7121 46.7301 19.5701 48.0736C20.4279 49.4173 23.1319 49.288 25.4742 47.7925C27.8163 46.2965 29.0702 43.8976 28.2122 42.5541C27.3543 41.2105 24.6503 41.3398 22.3081 42.8352Z" fill="#B78E98"/>
<path d="M5.89287 59.4412C5.75766 58.8076 5.90174 58.1105 6.39874 57.5607L16.5523 46.6219C16.7617 46.3963 17.0236 46.2259 17.3148 46.1258C17.606 46.0258 17.9173 45.9992 18.2212 46.0485L44.4662 50.3023C45.1615 50.415 45.672 50.8775 45.9022 51.4523C46.1324 52.0271 46.3465 54.1632 46.4684 54.6742C46.5904 55.1852 46.5003 55.7511 46.1396 56.2275L37.4628 67.6858C37.0144 68.2779 36.4082 68.7315 35.7137 68.9947C35.0192 69.2579 34.2646 69.3199 33.5364 69.1736L8.04963 64.0533C7.09196 63.8609 6.47556 63.0985 6.35229 62.2525L5.89287 59.4412Z" fill="#91A2B5"/>
<path d="M34.3022 70.0139C33.9972 70.0139 33.6903 69.9842 33.3857 69.9229L7.89918 64.8025C6.68025 64.5576 5.77639 63.5999 5.59611 62.3627L5.14141 59.5812C4.9524 58.6655 5.2034 57.7432 5.83172 57.0482L15.9921 46.1021C16.2869 45.7839 16.6559 45.5435 17.0661 45.4026C17.4764 45.2616 17.9152 45.2244 18.3434 45.2944L44.5884 49.548C45.5088 49.6972 46.265 50.3029 46.6115 51.1684C46.7786 51.5859 46.9017 52.401 47.0573 53.5071C47.1153 53.9189 47.1751 54.3445 47.2115 54.4968C47.3939 55.2606 47.2253 56.0596 46.7487 56.6889L38.0717 68.1472C37.1746 69.3322 35.761 70.0139 34.3022 70.0139ZM17.921 46.7887C17.7692 46.7887 17.6189 46.8201 17.4798 46.8808C17.3407 46.9416 17.2156 47.0305 17.1124 47.1419L6.95884 58.0807C6.66569 58.405 6.54713 58.8455 6.64031 59.2818C6.64295 59.2939 6.64517 59.3058 6.64711 59.318L7.10653 62.1293C7.17378 62.5901 7.49883 63.1631 8.20009 63.304L33.6867 68.4244C34.877 68.6638 36.1202 68.1928 36.8534 67.2246L45.5304 55.7663C45.7329 55.4988 45.8021 55.174 45.7251 54.8518C45.6745 54.64 45.6233 54.2836 45.5442 53.7202C45.4544 53.0822 45.3043 52.0147 45.1929 51.7367C45.0454 51.3681 44.7358 51.1204 44.3441 51.0567L18.0992 46.8031C18.0403 46.7935 17.9807 46.7886 17.921 46.7887Z" fill="#678490"/>
<path d="M9.40834 58.541L33.6205 63.407C33.7473 63.4315 33.877 63.4329 34.0061 63.4118C34.2785 63.3678 34.5232 63.22 34.6889 62.9994L42.3608 52.8719L18.293 48.9688L9.40834 58.541Z" fill="white"/>
<path d="M33.8319 64.1911C33.7104 64.1911 33.5894 64.179 33.4692 64.1547L9.25746 59.2905C9.12432 59.2637 9.00073 59.2019 8.89941 59.1114C8.79809 59.021 8.72269 58.9052 8.68097 58.7759C8.63925 58.6467 8.63272 58.5086 8.66205 58.376C8.69137 58.2434 8.7555 58.121 8.84782 58.0214L17.7321 48.4501C17.8177 48.3578 17.9248 48.2881 18.0439 48.2472C18.1629 48.2063 18.2903 48.1955 18.4145 48.2158L42.483 52.1168C42.613 52.1379 42.7354 52.1923 42.8383 52.2747C42.9411 52.3571 43.0209 52.4646 43.0699 52.587C43.1189 52.7093 43.1355 52.8422 43.118 52.9728C43.1005 53.1034 43.0495 53.2273 42.97 53.3323L35.2996 63.4614C35.0148 63.8389 34.595 64.0917 34.1281 64.1669V64.1671C34.0295 64.1831 33.9307 64.1911 33.8319 64.1911ZM10.8966 58.0609L33.7703 62.6564C33.8081 62.664 33.8443 62.665 33.8817 62.6586C33.9611 62.6463 34.0326 62.6034 34.0807 62.5391L40.9845 53.4222L18.5737 49.7898L10.8966 58.0609Z" fill="#678490"/>
<path d="M51.5639 50.6782C53.0305 53.7598 53.2899 56.8662 51.3056 58.8507C46.9533 63.2029 40.3043 58.9037 39.8409 56.1985C39.1826 52.356 45.0384 50.1463 48.172 54.4985L51.5639 50.6782Z" fill="#D4AFB7"/>
<path d="M46.8954 61.479C46.0776 61.479 45.2291 61.3429 44.3634 61.0675C41.7156 60.2258 39.3982 58.1431 39.0876 56.3262C38.7524 54.3676 39.7979 52.5736 41.7511 51.756C43.8123 50.8936 46.7887 51.2686 48.7913 54.0535C48.8499 54.135 48.8919 54.2272 48.9148 54.3249C48.9378 54.4226 48.9413 54.5238 48.9251 54.6228C48.9089 54.7219 48.8734 54.8168 48.8206 54.9021C48.7677 54.9874 48.6986 55.0614 48.6171 55.12C48.5357 55.1786 48.4434 55.2206 48.3458 55.2436C48.2481 55.2665 48.1468 55.27 48.0478 55.2538C47.9487 55.2377 47.8539 55.2021 47.7686 55.1493C47.6833 55.0965 47.6092 55.0273 47.5506 54.9459C46.4606 53.4306 44.4273 52.2927 42.3411 53.1659C41.3289 53.5898 40.3384 54.5748 40.5938 56.0687C40.7817 57.1675 42.5662 58.8926 44.8264 59.6112C46.1407 60.0289 48.66 60.4158 50.7645 58.3096C51.7064 57.3685 52.0969 56.0749 51.9258 54.4641C51.5317 50.7546 48.0502 45.8006 43.9998 43.1858C43.8299 43.0757 43.7106 42.9027 43.6682 42.7047C43.6257 42.5068 43.6636 42.3001 43.7734 42.13C43.8832 41.9599 44.056 41.8404 44.2538 41.7976C44.4517 41.7547 44.6585 41.7922 44.8287 41.9017C49.2963 44.7861 53.001 50.1174 53.4455 54.3027C53.6648 56.366 53.1113 58.1252 51.8451 59.3904C50.4662 60.7702 48.7612 61.4788 46.8954 61.479Z" fill="#B78E98"/>
<path d="M31.4823 41.895L29.639 40.0519C30.0727 39.2749 30.2425 38.4655 29.6282 37.9087C28.7479 37.111 27.2999 37.8746 25.883 39.1185C25.883 39.1185 24.173 36.4754 22.6946 37.0361C21.2167 37.5966 22.013 40.6217 23.3381 43.3849C23.4326 44.007 23.7158 44.6058 24.1946 45.0844L26.2438 47.1336C27.44 48.3296 29.3789 48.328 30.5734 47.1336L31.4823 46.2246C32.6786 45.0283 32.6786 43.0912 31.4823 41.895Z" fill="#D4AFB7"/>
<path d="M32.0234 41.3548L30.5594 39.891C30.7011 39.5418 30.7895 39.1879 30.7936 38.8435C30.8007 38.2547 30.5752 37.7358 30.1416 37.3426C28.9926 36.3012 27.4328 36.9412 26.0201 38.0188C25.2885 37.1227 23.8848 35.7675 22.4238 36.3217C21.9217 36.5121 21.5453 36.8899 21.3356 37.4143C20.6736 39.0692 21.8195 41.965 22.6009 43.6138C22.739 44.3761 23.1069 45.0779 23.6552 45.6252L25.7044 47.6744C26.4267 48.3969 27.3873 48.7947 28.4092 48.7947H28.4104C29.4321 48.7943 30.3926 48.3965 31.1145 47.6744L32.0235 46.7654C33.5149 45.2737 33.5149 42.8467 32.0234 41.3548ZM22.7545 37.9819C22.8172 37.8254 22.8931 37.7782 22.9657 37.7508C23.4397 37.5709 24.2611 38.2705 24.8632 39.0157C24.7619 39.1124 24.6625 39.2096 24.5653 39.3068C24.5628 39.3093 24.5612 39.3123 24.5587 39.315L23.6569 40.2168C23.458 40.4159 23.2818 40.6363 23.1313 40.8741C22.6913 39.5636 22.5426 38.5116 22.7545 37.9819ZM30.9427 45.6846L30.0337 46.5936C29.1379 47.489 27.6806 47.4893 26.7848 46.5936L24.7356 44.5444C23.8409 43.6496 23.8417 42.193 24.7374 41.2973L25.6464 40.3884L25.6454 40.3875L25.6458 40.3872C27.2569 38.7762 28.6187 38.0252 29.1151 38.4749C29.225 38.5743 29.267 38.6725 29.2653 38.8243C29.256 39.6339 28.0242 41.0607 27.1529 41.8152C27.077 41.8808 27.0146 41.9607 26.9695 42.0503C26.9244 42.14 26.8975 42.2376 26.8901 42.3377C26.8828 42.4378 26.8952 42.5384 26.9268 42.6336C26.9583 42.7289 27.0083 42.817 27.0739 42.893C27.1456 42.9762 27.2344 43.043 27.3343 43.0887C27.4341 43.1344 27.5427 43.158 27.6526 43.1578C27.8295 43.1578 28.0073 43.0968 28.1516 42.972C28.2997 42.8443 29.083 42.1516 29.7587 41.2517L30.9427 42.4355C31.8384 43.3315 31.8384 44.7889 30.9427 45.6846Z" fill="#B78E98"/>
<path d="M32.3609 60.8392C32.3139 60.8392 32.2663 60.8349 32.2186 60.8257L14.6424 57.512C14.5431 57.4941 14.4484 57.4567 14.3637 57.402C14.2789 57.3474 14.2059 57.2764 14.1487 57.1934C14.0915 57.1103 14.0513 57.0168 14.0304 56.9181C14.0096 56.8194 14.0084 56.7176 14.0271 56.6185C14.0458 56.5194 14.0839 56.425 14.1393 56.3407C14.1946 56.2564 14.2661 56.1839 14.3496 56.1274C14.4331 56.0708 14.527 56.0314 14.6258 56.0113C14.7246 55.9912 14.8264 55.9909 14.9254 56.0103L32.5016 59.324C32.6885 59.3594 32.8556 59.4632 32.97 59.6151C33.0845 59.767 33.1382 59.9562 33.1206 60.1456C33.103 60.335 33.0154 60.5111 32.8749 60.6393C32.7344 60.7676 32.5511 60.8388 32.3609 60.8392ZM35.1817 58.2572C35.1388 58.2572 35.0954 58.2536 35.0517 58.2461L17.4756 55.2318C17.0596 55.1604 16.7801 54.7655 16.8515 54.3494C16.923 53.9334 17.3193 53.6546 17.7339 53.7254L35.31 56.7397C35.499 56.7717 35.6691 56.8735 35.7866 57.0249C35.904 57.1764 35.9602 57.3665 35.9441 57.5575C35.9279 57.7485 35.8406 57.9264 35.6994 58.0561C35.5582 58.1857 35.3734 58.2575 35.1817 58.2572ZM37.479 55.7143C37.4402 55.7143 37.4009 55.7112 37.3614 55.7051L19.7851 52.9905C19.686 52.9751 19.5908 52.9404 19.505 52.8883C19.4192 52.8362 19.3446 52.7677 19.2853 52.6867C19.226 52.6058 19.1832 52.5139 19.1594 52.4164C19.1356 52.3189 19.1312 52.2177 19.1466 52.1185C19.1619 52.0193 19.1966 51.9241 19.2487 51.8383C19.3008 51.7526 19.3693 51.6779 19.4503 51.6186C19.5313 51.5593 19.6231 51.5165 19.7206 51.4927C19.8181 51.4689 19.9193 51.4646 20.0185 51.4799L37.5948 54.1946C37.785 54.224 37.957 54.3241 38.0766 54.4749C38.1962 54.6257 38.2545 54.8161 38.2399 55.008C38.2253 55.1999 38.1388 55.3792 37.9977 55.5101C37.8567 55.641 37.6714 55.7139 37.479 55.7143Z" fill="#605C5D"/>
<path d="M54.3395 1.75049H45.6139C41.5191 1.75049 38.1995 5.07001 38.1995 9.16486V12.9901C38.1995 16.4368 40.5515 19.3337 43.7379 20.1646C42.6452 21.7803 41.5293 23.9954 43.1121 24.5967C45.1219 25.3601 49.4802 22.8948 51.6601 20.4045H54.3395C58.4344 20.4045 61.7539 17.085 61.7539 12.99V9.16486C61.7539 5.07001 58.4344 1.75049 54.3395 1.75049Z" fill="#FD80A6"/>
<path d="M43.9666 25.4996C43.5596 25.4996 43.1808 25.4403 42.8407 25.3112C42.2457 25.0851 41.8372 24.6687 41.6594 24.1071C41.385 23.24 41.6821 22.0815 42.5676 20.5825C39.5008 19.3547 37.4352 16.3643 37.4352 12.9902V9.16506C37.4352 4.65531 41.1042 0.986328 45.6138 0.986328H54.3394C58.8492 0.986328 62.518 4.65531 62.518 9.16506V12.9903C62.518 17.5001 58.8492 21.1689 54.3394 21.1689H51.9985C50.078 23.219 46.4896 25.4994 43.9666 25.4996ZM45.6139 2.51477C41.947 2.51477 38.9636 5.49816 38.9636 9.16506V12.9903C38.9636 16.0164 41.0061 18.6626 43.9307 19.4253C44.049 19.4561 44.1581 19.5149 44.2489 19.5967C44.3398 19.6785 44.4097 19.7808 44.4528 19.8952C44.4959 20.0096 44.511 20.1326 44.4967 20.254C44.4825 20.3754 44.4393 20.4916 44.3708 20.5929C43.2555 22.242 42.9916 23.2512 43.1166 23.646C43.1335 23.6995 43.1651 23.7997 43.3835 23.8824C44.892 24.4546 48.9226 22.3717 51.0851 19.9013C51.1568 19.8194 51.2452 19.7537 51.3444 19.7088C51.4436 19.6638 51.5512 19.6405 51.6601 19.6405H54.3396C58.0065 19.6405 60.9897 16.6572 60.9897 12.9903V9.16506C60.9897 5.49816 58.0065 2.51477 54.3396 2.51477H45.6139Z" fill="#FE518E"/>
<path d="M49.2205 12.9782C49.0466 12.7746 48.9598 12.4868 48.9598 12.1152C48.9533 10.9597 49.4245 10.3593 50.1822 9.54465C50.755 8.93574 51.4145 8.10704 50.7215 7.42338C49.961 6.89477 48.9761 7.34143 48.2047 7.78296L47.7733 7.99859C47.0587 8.38424 46.5343 8.54205 46.0205 7.95366C45.5375 7.35557 45.5882 6.34271 46.2812 5.89536C47.9095 4.69751 50.426 4.22949 52.2853 5.04142C53.8611 5.65546 54.7385 7.46138 53.966 8.98732C53.5285 9.85014 53.0251 10.1897 52.2674 10.8927C51.6438 11.4403 51.1523 11.7651 50.955 12.4568C50.8665 13.2716 49.7157 13.5628 49.2205 12.9782ZM48.753 17.0767C47.2071 15.3434 49.5103 13.0284 51.2339 14.5959C51.8932 15.2305 51.8932 16.4423 51.2339 17.0767C50.6162 17.7436 49.3751 17.7529 48.753 17.0767Z" fill="white"/>
</g>
<defs>
<clipPath id="clip0_525_1953">
<rect width="71" height="71" fill="white"/>
</clipPath>
</defs>
</svg>
