<svg width="99" height="92" viewBox="0 0 99 92" fill="none" xmlns="http://www.w3.org/2000/svg">
<g clip-path="url(#clip0_641_1958)">
<path d="M69.9264 41.6354C69.1701 52.1418 64.9944 62.1666 60.7201 71.7511C58.4268 73.1464 55.9608 74.7577 53.6675 76.153C52.6109 81.179 52.6277 86.3748 53.7168 91.3936C43.0609 92.5712 32.287 92.0104 21.8073 89.7325C20.4391 84.9788 19.455 80.1208 18.8646 75.2062C16.6288 73.7361 11.853 69.5834 11.853 69.5834C11.853 69.5834 10.2995 60.7297 9.98713 57.7065C9.25661 51.291 9.55639 44.7983 10.8749 38.4793C13.2175 27.8566 19.3496 17.7986 28.6627 12.3336C37.9758 6.86858 50.5686 6.7523 59.1255 13.3635C67.4111 19.7504 70.6908 31.1289 69.9264 41.6354Z" fill="url(#paint0_radial_641_1958)"/>
<path d="M89.9088 41.2699C88.158 48.0804 84.6892 54.5586 81.4259 60.8459C80.5053 62.6233 79.5847 64.4422 78.7134 66.286C78.2643 66.1733 77.8548 65.9377 77.5297 65.605C75.8857 64.0601 75.5487 61.8093 75.5652 59.4589C75.5652 59.3675 75.5652 59.2762 75.5652 59.1848C77.1598 56.8759 78.7463 54.5586 80.2176 52.175C82.8826 48.0579 84.9659 43.5852 86.4072 38.8862C86.9866 38.8147 87.5743 38.9028 88.1082 39.1411C88.6421 39.3794 89.1024 39.7591 89.4403 40.24C89.6466 40.5576 89.8045 40.9048 89.9088 41.2699Z" fill="#FAA747"/>
<path d="M90.6075 42.8149C90.6591 41.7602 90.5482 40.7039 90.2787 39.6837C90.1251 39.1707 89.8769 38.6916 89.5472 38.2718C89.2236 37.8777 88.8261 37.5522 88.3775 37.3142C87.9288 37.0761 87.438 36.9302 86.9332 36.8848C86.0974 36.7807 85.249 36.8921 84.4673 37.2087C82.7281 38.0301 81.2423 39.3133 80.1683 40.9212C75.9383 46.5744 73.8139 53.5522 74.1678 60.6302C74.1678 60.7963 74.1678 60.9624 74.1678 61.1285C74.3733 63.6202 74.9898 65.9208 76.9543 67.4822C77.2259 67.711 77.531 67.8959 77.8585 68.0304C79.5765 68.7529 81.0232 67.3825 82.363 65.7464C84.4176 63.224 86.1212 60.4296 87.4264 57.4409C89.4557 52.8334 90.538 47.8575 90.6075 42.8149ZM82.0671 64.2514C81.0149 65.4972 79.897 66.5437 78.6887 66.2862C78.2397 66.1735 77.8301 65.9379 77.5051 65.6052C75.8611 64.0603 75.5241 61.8096 75.5405 59.4591C75.5405 59.3677 75.5405 59.2764 75.5405 59.185C75.6799 53.0346 77.7946 47.0967 81.5657 42.2667C82.5194 40.9035 83.8163 39.8224 85.3222 39.1355C85.6873 39.0023 86.0691 38.9212 86.4565 38.8947C87.0359 38.8232 87.6236 38.9113 88.1575 39.1496C88.6914 39.3879 89.1517 39.7676 89.4896 40.2485C89.6923 40.5641 89.8474 40.9084 89.9499 41.2701C90.1939 42.2634 90.2607 43.2928 90.1472 44.3099C89.6256 51.6526 86.8043 58.637 82.0917 64.2514H82.0671Z" fill="#7EB2DB"/>
<path d="M90.1061 44.3097C89.5956 51.6451 86.7888 58.6261 82.0917 64.2429C81.0396 65.4887 79.9217 66.5352 78.7134 66.2778C79.5847 64.4339 80.5053 62.615 81.4259 60.8377C84.7139 54.5421 88.158 48.0721 89.9088 41.2616C90.1538 42.2577 90.2206 43.2899 90.1061 44.3097ZM81.5657 42.2666C77.8211 47.106 75.7327 53.0431 75.6145 59.1849C77.2091 56.8759 78.7956 54.5587 80.2669 52.175C82.9319 48.0579 85.0152 43.5852 86.4565 38.8862C86.0691 38.9127 85.6873 38.9938 85.3222 39.1271C83.8153 39.8163 82.5183 40.9003 81.5657 42.2666Z" fill="#FFC761"/>
<path d="M19.9167 89.3339C19.2509 89.1761 18.5933 89.0017 17.9357 88.819L14.0313 78.1713C16.4574 81.6226 18.4354 85.3741 19.9167 89.3339ZM72.6225 5.68091C77.2497 8.12272 81.1094 11.8228 83.766 16.3634C86.4225 20.9041 87.7701 26.1047 87.6566 31.3781C87.5807 33.2265 87.3386 35.064 86.9332 36.8681C87.438 36.9135 87.9288 37.0594 88.3775 37.2975C88.8261 37.5355 89.2236 37.861 89.5472 38.2551C89.8769 38.6749 90.1251 39.154 90.2787 39.667C90.8043 37.3067 91.0635 34.8938 91.0514 32.4744C90.9774 20.963 83.2096 9.92502 72.6225 5.68091ZM74.2254 61.1284C72.0553 64.2928 69.9017 67.4738 68.0358 70.8292C64.7478 76.7178 62.3641 83.3373 62.5203 90.0232C66.2018 89.28 69.836 88.3148 73.4034 87.1329C73.1321 80.5882 75.1706 74.168 77.9161 68.0303C77.5885 67.8958 77.2835 67.7109 77.0119 67.4821C75.0802 65.9207 74.4308 63.5951 74.2254 61.1284Z" fill="#7EB2DB"/>
<path d="M92.9666 24.5427C91.3623 18.0654 87.7611 12.2714 82.6836 7.99811C77.5708 3.84536 71.1018 1.66932 64.5999 0.75572C52.1879 -0.963518 38.4443 -0.0748305 27.6105 6.78551C18.8449 12.4044 12.5034 21.1614 9.85561 31.3033C7.69379 39.6836 7.88285 49.0854 8.77059 57.8228C8.90211 59.16 9.05007 60.4806 9.21446 61.7762C10.1251 68.9048 11.9459 75.8841 14.6314 82.54C15.0012 83.4536 16.5055 88.4535 17.385 88.686C17.5658 88.7276 17.7385 88.7857 17.9193 88.8189L14.0149 78.1713C16.4467 81.6217 18.4302 85.3732 19.9167 89.3339C20.5497 89.4834 21.1826 89.6329 21.8237 89.7657C20.4556 85.012 19.4714 80.154 18.881 75.2394C16.6288 73.7361 11.853 69.5834 11.853 69.5834C11.853 69.5834 10.2995 60.7297 9.98713 57.7065C9.25661 51.2909 9.55639 44.7983 10.8749 38.4793C13.2175 27.8566 19.3496 17.7986 28.6627 12.3336C37.9758 6.86857 50.5686 6.75229 59.1255 13.3635C67.4111 19.7504 70.6908 31.1289 69.9263 41.6022C69.1619 52.0754 64.9944 62.1333 60.7201 71.7179C58.4268 73.1132 55.9608 74.7245 53.6675 76.1198C52.6109 81.1457 52.6278 86.3416 53.7168 91.3604C56.6759 91.0448 59.6104 90.5797 62.5203 89.99C62.3641 83.3041 64.7725 76.7012 68.0358 70.796C69.9017 67.4738 72.0553 64.2596 74.2253 61.0952C74.2253 60.9291 74.2253 60.7629 74.2253 60.5968C73.8511 53.5203 75.9551 46.5367 80.1683 40.8713C81.2377 39.2802 82.7113 38.0092 84.4344 37.1919C85.2162 36.8754 86.0645 36.764 86.9004 36.868C87.3057 35.064 87.5478 33.2264 87.6237 31.3781C87.7372 26.1046 86.3896 20.9041 83.7331 16.3634C81.0766 11.8227 77.2169 8.12269 72.5896 5.68088C83.1768 9.92499 90.9445 20.963 91.0185 32.4744C91.0427 34.898 90.7945 37.3166 90.2787 39.6836C90.5582 40.7078 90.6775 41.7699 90.6322 42.8314C90.5719 47.8689 89.5009 52.8417 87.484 57.449C86.1788 60.4378 84.4752 63.2322 82.4205 65.7545C81.0807 67.4156 79.634 68.7611 77.916 68.0386C75.1706 74.1763 73.1321 80.5965 73.4034 87.1412C74.9898 86.618 76.568 86.0532 78.1133 85.4801C79.6011 75.7959 84.5002 66.9838 88.4703 57.9142C90.4851 53.5486 92.047 48.9839 93.131 44.2931C94.6099 37.7877 94.5535 31.022 92.9666 24.5427Z" fill="url(#paint1_linear_641_1958)"/>
<path style="mix-blend-mode:screen" d="M67.2467 2.20081C68.9719 5.37256 69.6296 9.0251 69.1208 12.6076C68.6074 16.1792 67.4096 19.6154 65.5945 22.7237C61.4188 30.1986 55.0073 36.2284 47.782 40.5805C40.5568 44.9326 32.5424 47.7066 24.413 49.6501C22.0723 50.3001 19.6461 50.5803 17.2206 50.4807C16.0035 50.4286 14.809 50.1306 13.7078 49.6042C12.6065 49.0778 11.6209 48.3337 10.8091 47.4159C6.76494 42.4326 9.51038 33.2966 11.5242 27.9063C14.0752 21.0747 18.3209 15.0202 23.854 10.3236C35.6002 0.523095 52.8373 -1.437 67.2467 2.20081Z" fill="url(#paint2_linear_641_1958)"/>
<path d="M54.3251 57.3908C54.2182 57.9057 54.1113 58.429 54.0127 58.9439C50.4069 58.7612 46.7957 58.692 43.1789 58.7363C40.7553 51.1297 40.547 42.9795 42.5789 35.2566C43.0253 33.3182 43.8163 31.4778 44.9133 29.8248C45.4679 28.9998 46.1781 28.2935 47.0032 27.7462C47.8284 27.1989 48.7522 26.8215 49.7219 26.6355C50.95 26.5201 52.1868 26.7279 53.3118 27.2388C54.4368 27.7497 55.4117 28.5462 56.1416 29.5508C57.5745 31.5921 58.326 34.0417 58.287 36.544C58.2635 38.7798 58.0073 41.0068 57.5226 43.1884C56.9061 46.7431 54.8018 52.7646 54.3251 57.3908ZM25.2679 40.8462C25.3501 39.6918 25.4158 38.5539 25.4898 37.4161C25.628 36.3067 25.5667 35.1812 25.3089 34.0939C25.1752 33.5585 24.903 33.0688 24.5202 32.6747C24.1374 32.2807 23.6579 31.9965 23.1307 31.8514C22.7318 31.7943 22.3255 31.82 21.9368 31.9272C21.5482 32.0343 21.1852 32.2205 20.8702 32.4743C20.2483 32.992 19.7247 33.6195 19.3249 34.3264C18.0052 36.5724 17.0766 39.0305 16.5795 41.5937C15.2476 48.0665 15.8837 54.7948 18.4043 60.8957C20.6894 60.522 22.991 60.1897 25.2843 59.9074C25.2843 59.5917 25.2103 59.2678 25.1857 58.9522C24.9111 52.9193 24.9385 46.8763 25.2679 40.8462Z" fill="#58C2B2"/>
<path d="M24.6185 47.0339C24.4264 46.4881 24.0988 46.0013 23.6669 45.6203C23.2351 45.2392 22.7136 44.9767 22.1525 44.8579C21.6015 44.8147 21.0487 44.9158 20.5476 45.1515C20.0465 45.3872 19.6141 45.7495 19.292 46.2034C18.6592 47.1224 18.2456 48.1771 18.0837 49.2847C17.4119 52.6441 17.6044 56.1214 18.6426 59.3842C18.8084 59.9385 19.1601 60.4172 19.6373 60.738C21.5032 60.439 23.3855 60.1732 25.2596 59.9074C25.2596 59.5918 25.1857 59.2679 25.161 58.9523C25.013 55.8793 24.9473 52.2331 24.9884 48.5787C24.9284 48.0504 24.8041 47.5315 24.6185 47.0339Z" fill="#CFEAE4"/>
<path d="M47.8642 41.5274C47.1991 41.5583 46.5473 41.7269 45.9493 42.0226C45.3512 42.3183 44.8196 42.7349 44.3872 43.2466C42.3734 45.4808 42.2419 48.0306 42.3816 50.896C42.5325 53.5522 42.9932 56.1811 43.7543 58.7281C46.5491 58.7281 49.3383 58.7723 52.1221 58.8609C52.1221 57.0836 52.2537 52.9973 52.2701 52.5405C52.3276 50.2398 53.0921 48.0804 52.5002 45.7466C51.9249 43.5539 50.1 41.5191 47.8642 41.5274Z" fill="#CFEAE4"/>
<path d="M44.5763 63.3958C41.9015 65.2392 38.7694 66.2893 35.5345 66.4273C35.4358 66.7844 35.1728 67.3409 35.0741 67.6897C38.6991 68.2046 42.3076 66.3276 44.5763 63.3958Z" fill="#58C2B2"/>
<path style="mix-blend-mode:screen" d="M47.593 10.199C48.6528 10.2941 49.6753 10.6413 50.5768 11.2123C51.0229 11.5043 51.3749 11.9216 51.5895 12.4129C51.8042 12.9042 51.8722 13.4482 51.7851 13.978C51.5985 14.507 51.2682 14.9722 50.8321 15.3203C50.396 15.6684 49.8717 15.8854 49.3192 15.9464C48.2249 16.0578 47.1216 16.0411 46.0312 15.8966C36.5126 15.3816 30.1011 22.9147 21.4127 25.0326C21.1454 25.1311 20.8601 25.1702 20.5764 25.1473C20.2927 25.1243 20.0173 25.0399 19.7688 24.8997C18.9468 24.2353 19.5304 22.8815 20.2126 22.0509C26.8707 13.9365 36.9565 8.60434 47.593 10.199Z" fill="url(#paint3_linear_641_1958)"/>
<path d="M70.4524 49.9657L39.9074 50.4142C39.6746 48.8169 39.2006 47.265 38.5018 45.813C38.063 44.8835 37.4646 44.0399 36.7346 43.3213C35.8984 42.478 34.7959 41.9578 33.6192 41.8513C32.4044 41.8081 31.2221 42.2531 30.3313 43.0888C29.5646 43.7899 28.9418 44.6365 28.4983 45.5804C27.8487 47.003 27.435 48.5238 27.2735 50.082L0.0493211 49.2515C1.96137e-06 49.2515 0.0493191 52.0753 0.0986383 52.366C0.282593 55.5686 1.46521 58.63 3.477 61.1117C5.3615 63.1742 7.87707 64.5372 10.6201 64.9821L11.442 65.0984C12.1245 65.1719 12.811 65.1997 13.497 65.1814C16.3203 65.083 19.0747 64.2751 21.5114 62.831C24.1269 61.2979 26.2784 59.0722 27.7338 56.3942C28.3818 55.1915 28.8841 53.9143 29.2298 52.5903C29.723 50.68 29.9121 48.6202 30.8245 46.8512C31.5067 45.4974 32.5753 44.509 33.4795 44.5838C34.0464 44.6461 34.5775 44.894 34.9919 45.2897C35.5352 45.7851 35.9959 46.3656 36.3564 47.009C38.3128 50.2481 38.4032 54.1932 40.0554 57.557C41.3425 60.1695 43.3946 62.3183 45.9326 63.7113C48.2414 64.9559 50.805 65.6411 53.4209 65.713H54.5141C54.9744 65.713 55.443 65.713 55.9033 65.6216C59.1634 65.2922 62.2685 64.0528 64.8711 62.0419C66.2195 60.9558 67.3733 59.6439 68.2824 58.1633C69.3232 56.6723 70.0352 54.9729 70.3702 53.18C70.4835 52.1126 70.511 51.0376 70.4524 49.9657ZM11.6969 62.5735C6.50191 62.0004 3.24685 58.4207 2.72899 52.8228L26.6323 52.4325C25.6737 55.5986 23.6658 58.3348 20.946 60.1815C18.2262 62.0282 14.9603 62.8728 11.6969 62.5735ZM54.062 63.1798C48.8013 63.1798 42.4145 60.3559 41.0582 52.3826L67.5919 53.2132C66.2028 59.7164 59.931 63.1549 54.0702 63.1798H54.062Z" fill="#82B4AF"/>
<path d="M70.4524 49.9658L95.112 54.293C97.0084 58.1032 98.3168 62.1841 98.9918 66.3941L94.8819 69.7661C94.5976 65.3408 93.4642 61.0135 91.5446 57.0255L70.3373 53.205L70.4524 49.9658Z" fill="#3D7E72"/>
<path d="M11.6969 62.5736C6.50191 62.0006 3.24684 58.4209 2.72899 52.823L26.6323 52.4326C25.6737 55.5987 23.6658 58.335 20.946 60.1817C18.2262 62.0284 14.9603 62.873 11.6969 62.5736Z" fill="#CFEAE4"/>
<path d="M54.0702 63.18C48.8095 63.18 42.4227 60.3561 41.0664 52.3828L67.6001 53.2134C66.2028 59.7166 59.931 63.155 54.0702 63.18Z" fill="#CFEAE4"/>
</g>
<defs>
<radialGradient id="paint0_radial_641_1958" cx="0" cy="0" r="1" gradientUnits="userSpaceOnUse" gradientTransform="translate(31.5033 27.2987) rotate(8.81953) scale(52.5622 53.0842)">
<stop stop-color="#367992"/>
<stop offset="1" stop-color="#2D3C52"/>
</radialGradient>
<linearGradient id="paint1_linear_641_1958" x1="37.6963" y1="0.730803" x2="65.3574" y2="90.4861" gradientUnits="userSpaceOnUse">
<stop stop-color="#FFEEC5"/>
<stop offset="1" stop-color="#ADDCF6"/>
</linearGradient>
<linearGradient id="paint2_linear_641_1958" x1="28.676" y1="-6.35649" x2="48.4819" y2="52.7521" gradientUnits="userSpaceOnUse">
<stop stop-color="#BDBE9A"/>
<stop offset="0.16" stop-color="#9D9E80"/>
<stop offset="0.74" stop-color="#2D2E25"/>
<stop offset="1" stop-color="#010101"/>
</linearGradient>
<linearGradient id="paint3_linear_641_1958" x1="28.0544" y1="2.31708" x2="40.0019" y2="27.6703" gradientUnits="userSpaceOnUse">
<stop stop-color="#BDBE9A"/>
<stop offset="0.16" stop-color="#9D9E80"/>
<stop offset="0.74" stop-color="#2D2E25"/>
<stop offset="1" stop-color="#010101"/>
</linearGradient>
<clipPath id="clip0_641_1958">
<rect width="99" height="92" fill="white"/>
</clipPath>
</defs>
</svg>
