<svg width="26" height="22" viewBox="0 0 26 22" fill="none" xmlns="http://www.w3.org/2000/svg">
<path d="M25.998 6.01098C25.9935 6.1747 25.9289 6.33801 25.8257 6.48467L13.5976 21.3392C13.4805 21.4887 13.3114 21.5886 13.1239 21.6191C13.0412 21.6314 12.9572 21.6329 12.8741 21.6236H12.87C12.6807 21.5923 12.51 21.4909 12.3919 21.3396L0.163738 6.52814C0.0541424 6.37842 -0.00336531 6.1969 1.92084e-05 6.01139C0.00448796 5.84767 0.0601442 5.68395 0.163738 5.5377L3.95283 0.672043C4.02596 0.577387 4.12508 0.495324 4.24127 0.44373C4.33593 0.396199 4.43952 0.370605 4.55571 0.370605H21.4342C21.5548 0.370605 21.654 0.396605 21.7441 0.448199C21.8518 0.499793 21.9424 0.577387 22.0371 0.672043L25.8261 5.49464C25.9594 5.64942 26.011 5.8302 25.998 6.01098Z" fill="#4AABF4"/>
<path d="M17.3867 6.01074L13.1239 21.6193C13.0412 21.6315 12.9572 21.633 12.8741 21.6237H12.87L8.60315 6.01074H17.3867Z" fill="#7CC0F2"/>
<path d="M25.9978 6.01098H0.000244141C0.00471289 5.84726 0.0603692 5.68354 0.163963 5.53729L3.95265 0.672043C4.02577 0.577387 4.1249 0.495324 4.24109 0.44373C4.33574 0.396199 4.43934 0.370605 4.55553 0.370605H21.434C21.5547 0.370605 21.6538 0.396605 21.744 0.448199C21.8516 0.499793 21.9422 0.577387 22.0369 0.672043L25.826 5.49464C25.9592 5.64942 26.0108 5.8302 25.9978 6.01098Z" fill="#A4D1F7"/>
<path d="M4.55565 0.370605H12.9947C11.5306 2.26495 10.0668 4.11664 8.60271 6.01098L4.24121 0.44373C4.33587 0.396605 4.43946 0.370605 4.55565 0.370605ZM21.7441 0.448199L17.3866 6.01098C15.9225 4.11664 14.4588 2.26495 12.9947 0.370605H21.4337C21.5544 0.370605 21.6535 0.396605 21.7441 0.448199Z" fill="#4AABF4"/>
</svg>
