<svg width="207" height="207" viewBox="0 0 207 207" fill="none" xmlns="http://www.w3.org/2000/svg">
<path d="M95.164 168.423C95.0423 170.127 94.5555 171.709 93.8254 173.169C93.2169 174.386 92.3651 175.603 91.3915 176.577C85.7936 178.28 79.709 177.672 75.5714 172.804C72.2857 168.91 71.6772 162.947 73.9894 158.444C76.1799 154.429 80.1958 152.238 84.5767 151.63C85.7936 151.508 86.8889 151.143 88.1058 150.899C91.6349 154.063 94.1905 158.444 94.9206 163.19C95.2857 164.894 95.4074 166.598 95.164 168.423Z" fill="url(#paint0_linear_475_1893)"/>
<path d="M111.471 136.662C112.931 142.138 112.323 148.101 110.619 153.577C108.063 161.852 103.439 170.371 95.7724 174.751C94.4338 175.482 92.9735 176.212 91.5132 176.699C92.4867 175.725 93.3386 174.508 93.947 173.291C94.6772 171.831 95.0423 170.127 95.2857 168.545C96.9894 167.815 98.4497 166.72 99.7883 165.503C102.1 163.312 103.682 160.513 104.899 157.593C108.185 149.561 108.185 140.312 104.899 132.281C105.751 131.794 106.725 131.55 107.577 131.672C109.645 132.037 110.984 134.471 111.471 136.662Z" fill="#7EB2DB"/>
<path d="M104.778 132.281C108.064 140.313 108.064 149.561 104.778 157.593C103.561 160.514 101.979 163.313 99.6667 165.503C98.3281 166.72 96.8677 167.815 95.164 168.545C95.4074 166.72 95.2857 165.016 95.0424 163.191C94.1905 158.445 91.7566 154.064 88.2275 150.9C91.2699 149.926 93.9471 148.344 96.2593 145.91C97.963 144.085 99.3016 142.016 100.519 139.826C101.614 137.879 101.979 135.566 103.196 133.741C103.561 133.133 104.169 132.646 104.778 132.281Z" fill="url(#paint1_linear_475_1893)"/>
<path d="M101.492 139.46C98.4496 145.545 94.3121 148.831 89.4443 151.143C91.8782 152.847 94.0687 156.497 94.9205 159.418C100.032 155.402 102.222 146.762 101.492 139.46Z" fill="url(#paint2_linear_475_1893)"/>
<path d="M125.953 171.344C126.926 181.201 124.979 190.815 122.91 200.55C120.72 200.915 118.529 201.28 116.339 201.402C117.921 195.439 118.894 189.354 119.625 183.27C119.99 180.349 120.111 177.307 119.259 174.629C118.164 171.222 115.609 168.423 112.931 165.989C113.783 165.137 114.757 164.407 115.852 163.799C117.921 162.704 120.598 162.46 122.545 163.799C124.979 165.259 125.709 168.423 125.953 171.344Z" fill="#7EB2DB"/>
<path d="M119.138 174.508C119.99 177.307 119.868 180.349 119.503 183.148C118.894 189.232 117.799 195.317 116.217 201.28C114.392 201.402 112.566 201.523 110.741 201.523C112.566 191.545 111.593 180.957 107.942 171.465C108.672 170.37 109.524 169.275 110.376 168.18C111.106 167.328 111.836 166.476 112.688 165.624C115.487 168.301 118.164 171.1 119.138 174.508Z" fill="url(#paint3_linear_475_1893)"/>
<path d="M108.064 171.709C111.836 181.201 112.81 191.667 110.863 201.767C105.751 201.889 100.64 201.524 95.6509 200.55C97.7197 190.45 101.979 180.106 108.064 171.709Z" fill="#FFC761"/>
<path d="M143.841 107.82C158.079 113.904 169.032 128.873 167.45 142.381C166.598 149.561 162.947 155.645 157.958 160.148C151.021 166.354 141.651 171.1 130.455 168.666C129.117 168.423 127.778 167.936 126.439 167.449C133.376 168.91 140.434 167.084 145.058 163.068C151.265 157.592 153.577 148.952 153.942 140.068C154.064 133.862 153.212 126.926 149.074 121.084C143.963 113.783 134.958 109.645 126.683 108.793C122.667 108.307 118.773 108.55 115.122 109.158C122.91 104.291 133.254 103.195 143.841 107.82Z" fill="#7EB2DB"/>
<path d="M148.952 120.963C153.09 126.804 154.064 133.741 153.82 139.947C153.577 148.831 151.143 157.592 144.937 162.947C140.312 167.084 133.254 168.788 126.317 167.328C118.286 164.407 110.862 158.201 106.36 150.656C101.37 142.259 100.153 132.645 102.466 124.735C104.413 118.042 108.915 112.444 114.757 108.915C118.529 108.307 122.423 108.185 126.317 108.55C134.836 109.524 143.841 113.783 148.952 120.963ZM128.265 132.159C129.238 128.751 128.021 123.883 125.466 120.719C123.519 118.407 121.085 117.19 118.407 117.069C118.286 114.27 118.407 111.592 119.259 109.037C117.556 111.349 116.46 114.148 116.095 117.312C111.958 118.286 109.037 122.058 107.942 125.587C107.698 126.439 107.455 127.291 107.455 128.143C107.333 130.942 108.307 133.862 110.254 136.053C111.836 137.878 113.783 138.973 115.974 139.338C116.339 139.338 116.825 139.46 117.191 139.46C117.799 148.222 122.058 157.471 128.873 164.772C123.153 156.862 119.989 147.979 119.746 139.338C123.64 138.608 127.169 135.931 128.265 132.159Z" fill="url(#paint4_linear_475_1893)"/>
<path d="M125.466 120.719C128.143 123.883 129.36 128.751 128.264 132.158C127.169 135.809 123.64 138.608 119.503 139.338C119.746 147.978 122.91 156.862 128.63 164.772C121.815 157.47 117.555 148.222 116.947 139.46C116.582 139.46 116.095 139.46 115.73 139.338C113.54 138.973 111.593 137.878 110.011 136.052C108.063 133.862 107.09 130.941 107.212 128.142C107.212 127.412 107.455 126.56 107.698 125.587C108.794 122.058 111.836 118.285 115.852 117.312C116.217 114.269 117.312 111.349 119.016 109.037C118.286 111.592 118.042 114.269 118.164 117.068C121.085 117.19 123.518 118.529 125.466 120.719ZM127.534 129.724C127.656 128.629 127.534 127.412 127.169 126.195C127.169 126.074 127.048 125.952 127.048 125.83C127.048 125.709 126.926 125.587 126.926 125.465C126.926 125.343 126.804 125.222 126.804 125.1C126.682 124.857 126.561 124.613 126.561 124.37C126.561 124.37 126.561 124.248 126.439 124.248C126.439 124.127 126.317 124.005 126.196 123.761C126.074 123.518 125.831 123.153 125.709 122.91C125.587 122.666 125.344 122.423 125.222 122.179C124.735 121.571 124.127 120.963 123.518 120.476C123.397 120.354 123.275 120.232 123.153 120.232C121.936 119.381 120.598 118.894 119.016 119.015C114.635 119.137 111.349 123.031 110.254 126.682C110.011 127.412 109.889 128.142 109.889 128.873C109.645 132.645 112.079 137.148 116.46 137.878C118.164 138.121 119.989 137.878 121.571 137.391C122.18 137.148 122.667 136.904 123.153 136.661C123.64 136.418 124.005 136.174 124.37 135.809C125.709 134.714 126.804 133.254 127.291 131.672C127.413 131.428 127.413 131.185 127.413 130.941C127.534 130.333 127.534 130.09 127.534 129.724Z" fill="#7EB2DB"/>
<path d="M127.169 126.195C127.534 127.412 127.656 128.629 127.534 129.725C127.534 130.09 127.534 130.333 127.413 130.698C127.413 130.942 127.291 131.185 127.291 131.428C126.804 133.01 125.831 134.471 124.37 135.566C124.005 135.931 123.519 136.174 123.154 136.418C122.667 136.661 122.058 136.904 121.572 137.148C120.233 137.635 118.773 137.878 117.191 137.756C114.635 136.053 113.418 132.767 113.54 129.968C113.54 129.36 113.661 128.629 113.905 127.778C115.122 124.127 118.408 120.233 122.667 120.111C122.788 120.111 123.032 120.111 123.154 120.111C123.275 120.233 123.397 120.354 123.519 120.354C124.127 120.841 124.736 121.449 125.222 122.058C125.344 122.301 125.587 122.545 125.709 122.788C125.831 123.031 126.074 123.397 126.196 123.64C126.318 123.762 126.318 123.883 126.439 124.127C126.439 124.127 126.439 124.248 126.561 124.248C126.683 124.492 126.804 124.735 126.804 124.979C126.804 125.1 126.926 125.222 126.926 125.344C126.926 125.465 127.048 125.587 127.048 125.709C127.048 125.952 127.169 126.074 127.169 126.195Z" fill="#CFEAE4"/>
<path d="M123.275 120.111C123.153 120.111 122.91 120.111 122.788 120.111C118.407 120.232 115.122 124.126 114.026 127.777C113.783 128.507 113.661 129.238 113.661 129.968C113.54 132.767 114.757 136.052 117.312 137.756C118.772 137.878 120.354 137.634 121.693 137.148C120.111 137.756 118.407 137.999 116.582 137.634C112.201 136.904 109.767 132.402 110.011 128.629C110.011 128.021 110.254 127.29 110.376 126.439C111.593 122.788 114.878 118.894 119.138 118.772C120.598 118.772 122.058 119.259 123.275 120.111Z" fill="#578AB4"/>
<path d="M125.831 129.116C125.466 130.455 124.37 131.672 123.032 132.037C121.693 132.524 119.868 132.159 118.407 131.185C116.947 130.211 115.974 128.508 116.095 126.926C115.73 128.386 115.365 130.211 115.974 131.672C116.582 133.254 117.921 134.714 119.503 135.323C121.45 136.053 123.397 135.444 124.492 134.106C125.709 133.01 125.587 130.82 125.831 129.116Z" fill="#ACDDD7"/>
<path d="M122.18 128.507C123.519 128.142 124.979 127.169 124.492 125.465C124.127 124.005 122.18 123.031 120.841 123.275C117.799 123.64 118.286 129.603 122.18 128.507Z" fill="#EDF7F7"/>
<path d="M137.391 118.772C139.095 121.206 139.339 124.127 138.73 126.561C138 128.994 136.418 130.942 134.714 132.645C130.698 136.661 125.466 139.582 119.746 141.285C119.746 140.677 119.624 139.947 119.624 139.338C123.762 138.73 127.291 135.931 128.386 132.158C129.36 128.751 128.143 123.883 125.587 120.719C123.64 118.407 121.206 117.19 118.529 117.069C118.407 115 118.529 112.931 118.894 110.984C123.275 111.106 128.021 112.323 131.915 114.27C133.984 115.487 136.053 116.947 137.391 118.772ZM111.836 142.989C113.783 142.746 115.608 142.502 117.434 142.016C117.312 141.164 117.19 140.312 117.19 139.582C116.825 139.582 116.339 139.582 115.973 139.46C113.783 139.095 111.836 138 110.254 136.174C108.307 133.984 107.333 131.063 107.455 128.264C107.455 127.534 107.698 126.682 107.942 125.709C109.037 122.18 112.079 118.407 116.095 117.434C116.339 115.121 117.069 113.053 118.042 111.106C115.243 111.106 112.566 111.592 110.376 112.566C106.725 115.852 104.048 120.111 102.709 124.979C101.37 129.725 101.249 135.201 102.466 140.555C102.831 140.92 103.196 141.285 103.561 141.529C105.995 143.233 109.159 143.233 111.836 142.989Z" fill="url(#paint5_linear_475_1893)"/>
<path d="M156.863 190.084C157.958 194.222 159.54 198.116 161.609 201.889C159.418 201.767 157.349 201.524 155.281 201.159C155.281 197.386 155.889 193.857 156.863 190.084Z" fill="#FAA747"/>
<path d="M178.889 188.138C180.106 192.64 180.593 196.291 181.566 200.794C174.873 201.524 168.302 202.133 161.609 202.011C159.54 198.238 157.958 194.344 156.863 190.207C156.863 190.085 156.984 189.841 156.984 189.72C158.445 185.461 159.783 180.836 162.582 177.307C163.921 175.603 165.868 174.265 168.058 174.508C175.117 175.36 177.307 182.297 178.889 188.138Z" fill="#FFC761"/>
<path d="M156.863 190.084C155.889 193.735 155.281 197.386 155.159 201.159C153.942 200.915 152.725 200.672 151.508 200.55C151.143 190.084 153.212 180.106 154.064 169.762C154.915 176.577 155.402 183.391 156.863 190.084Z" fill="#7EB2DB"/>
<path d="M184.609 200.307C183.635 200.429 182.54 200.55 181.566 200.672C180.593 196.291 180.106 192.64 178.889 188.016C177.307 182.296 174.995 175.238 168.058 174.265C165.868 174.021 163.921 175.36 162.582 177.064C159.783 180.593 158.445 185.217 156.984 189.476C156.984 189.598 156.863 189.841 156.863 189.963C155.281 183.27 154.915 176.455 154.185 169.64C154.429 165.746 154.064 161.852 153.942 157.958C153.942 155.889 154.429 153.942 156.376 152.968C158.445 151.995 160.757 151.995 162.947 152.847C165.138 153.698 167.45 154.915 169.275 156.741C182.175 169.397 184.974 182.783 184.609 200.307Z" fill="url(#paint6_linear_475_1893)"/>
<path d="M158.079 133.254C159.175 138.73 159.905 143.719 158.079 149.561C155.767 156.619 150.535 162.825 143.963 166.233C141.529 159.661 136.661 153.577 130.455 150.169C127.169 148.344 123.519 150.413 119.99 151.021C118.408 151.264 108.672 153.333 107.699 152.116C104.413 147.492 102.709 141.772 102.831 136.174C106.725 130.577 113.053 126.804 119.503 124.735C128.021 121.936 137.027 120.963 145.91 121.693C149.074 121.936 152.603 122.423 155.159 124.37C157.228 125.952 156.984 127.534 157.471 129.846C157.593 131.063 157.836 132.159 158.079 133.254Z" fill="#7EB2DB"/>
<path d="M136.296 66.9309C135.201 82.1425 129.238 96.7457 122.91 110.74C119.503 112.809 115.974 115.121 112.566 117.19C110.984 124.492 111.106 132.037 112.688 139.338C96.9894 141.042 81.0476 140.312 65.836 137.148C63.6455 129.846 62.5503 124.248 61.4551 116.095C58.1693 113.904 51.1111 107.941 51.1111 107.941C51.1111 107.941 48.9207 94.9203 48.4339 90.5394C47.4603 81.2907 47.7037 71.7986 49.6508 62.6716C53.0582 47.2166 62.0635 32.6134 75.6932 24.5817C89.3228 16.6716 107.82 16.4283 120.355 25.9203C132.524 35.169 137.392 51.7193 136.296 66.9309Z" fill="url(#paint7_radial_475_1893)"/>
<path d="M69.4869 92.365C67.2964 92.365 65.106 92.4867 62.9155 92.8518C61.8203 88.9576 60.6033 84.8201 60.3599 80.8042C59.9949 76.7883 60.6033 72.5291 62.6721 69.1217C63.6456 67.5396 64.9843 66.0793 66.688 65.5926C67.6615 65.3492 68.7568 65.5925 69.6086 66.0793C69.0001 74.8412 68.5134 83.7248 69.4869 92.365Z" fill="#CFEAE4"/>
<path d="M62.9154 92.8515C65.1058 92.4864 67.2963 92.3647 69.4868 92.3647C69.4868 92.8515 69.6085 93.3383 69.6085 93.7033C66.2011 94.0684 62.9154 94.5552 59.508 95.1637C55.8572 86.2801 54.7619 76.5446 56.709 67.1742C57.4392 63.5234 58.7778 59.8727 60.7249 56.5869C61.3334 55.6134 62.0635 54.6398 63.0371 53.9097C64.0106 53.1795 65.2275 52.8145 66.3228 52.9361C67.9048 53.1795 69 54.6399 69.4868 56.2219C69.9736 57.8039 69.8519 59.3859 69.7302 60.9679C69.6085 62.6716 69.4868 64.2536 69.3651 65.9573C68.5132 65.4705 67.418 65.2272 66.4445 65.4705C64.6191 65.8356 63.2804 67.4176 62.4286 68.9996C60.3598 72.5287 59.873 76.6663 60.1164 80.6822C60.6032 84.8197 61.8201 88.9573 62.9154 92.8515Z" fill="#58C2B2"/>
<path d="M165.624 66.3225C163.069 76.1796 157.958 85.6717 153.212 94.7986C151.873 97.3542 150.534 100.031 149.196 102.709C148.587 102.587 148.101 102.222 147.492 101.735C145.18 99.5447 144.572 96.259 144.572 92.8516C144.572 92.7299 144.572 92.6082 144.572 92.4865C146.884 89.0791 149.196 85.7933 151.386 82.2642C155.159 76.1796 158.445 69.7299 160.392 62.915C162.095 62.7934 163.799 63.4018 164.894 64.8621C165.259 65.3489 165.503 65.8357 165.624 66.3225Z" fill="#FAA747"/>
<path d="M166.72 68.6348C166.72 67.0528 166.598 65.4708 166.233 64.0104C165.989 63.2803 165.624 62.5501 165.138 61.9417C164.164 60.7247 162.825 60.1163 161.243 59.9946C160.026 59.8729 158.688 59.9946 157.593 60.4813C155.037 61.4549 152.968 63.6454 151.265 65.8358C145.18 73.8676 142.016 84.3332 142.624 94.4337C142.624 94.6771 142.624 94.9205 142.624 95.1639C142.868 98.693 143.841 102.1 146.762 104.413C147.249 104.778 147.614 105.021 148.101 105.264C150.656 106.36 152.725 104.291 154.672 101.979C157.714 98.3279 160.148 94.1903 162.095 89.9311C165.016 83.1163 166.598 75.9364 166.72 68.6348ZM154.185 99.7882C152.603 101.614 151.021 103.074 149.196 102.709C148.587 102.587 148.101 102.222 147.492 101.735C145.18 99.5448 144.571 96.2591 144.571 92.8517C144.571 92.73 144.571 92.6083 144.571 92.4866C144.693 83.603 147.857 74.7194 153.212 67.9046C154.794 65.9575 156.497 64.1321 158.688 63.402C159.175 63.1586 159.783 63.0369 160.392 63.0369C162.095 62.9152 163.799 63.5237 164.894 64.984C165.138 65.4708 165.381 65.9575 165.624 66.4443C165.989 67.7829 165.989 69.3649 165.868 70.8253C165.259 81.4126 161 91.8782 154.185 99.7882Z" fill="#7EB2DB"/>
<path d="M165.868 70.8252C165.138 81.4125 160.878 91.8781 154.185 99.7882C152.603 101.614 151.021 103.074 149.196 102.709C150.413 100.032 151.751 97.3543 153.212 94.7987C157.958 85.6718 163.069 76.3014 165.624 66.3226C165.989 67.7829 165.989 69.2432 165.868 70.8252ZM153.333 67.7829C147.979 74.5977 144.815 83.4813 144.693 92.3649C147.005 88.9575 149.317 85.6718 151.508 82.1427C155.28 76.058 158.566 69.6083 160.513 62.7935C159.905 62.7935 159.418 62.9152 158.81 63.1585C156.619 64.1321 154.794 65.9575 153.333 67.7829Z" fill="#FFC761"/>
<path d="M63.1588 136.418C62.1852 136.174 61.2117 135.931 60.2381 135.688C58.291 130.576 56.344 125.344 54.5186 120.233C57.926 125.222 60.9683 130.698 63.1588 136.418ZM140.069 14.7246C153.698 21.5394 162.704 36.7511 162.217 51.9627C162.095 54.6399 161.73 57.3172 161.122 59.9944C162.582 60.1161 164.042 60.8463 165.016 61.9415C165.503 62.55 165.868 63.2802 166.111 64.0103C166.841 60.6029 167.206 57.0738 167.206 53.5447C167.085 36.8728 155.646 20.931 140.069 14.7246ZM142.624 95.2855C139.46 99.9098 136.296 104.534 133.619 109.402C128.873 117.92 125.344 127.534 125.587 137.27C130.942 136.174 136.296 134.714 141.529 133.01C141.164 123.518 144.085 114.148 148.101 105.264C147.614 105.143 147.249 104.778 146.762 104.412C143.963 102.222 142.989 98.8146 142.624 95.2855Z" fill="#7EB2DB"/>
<path d="M170.005 42.1057C167.572 32.857 162.339 24.0951 154.915 18.1322C147.37 12.1692 137.878 9.00518 128.386 7.66655C110.132 5.23269 90.053 6.57132 74.1112 16.5502C61.3334 24.5819 51.8414 37.6031 48.1906 52.2062C45.0265 64.3755 45.3916 78.0052 46.7303 90.6613C46.9736 92.6083 47.217 94.5554 47.4604 96.3808C48.799 106.725 51.598 116.947 55.4922 126.439C55.9789 127.778 58.2911 134.958 59.508 135.323C59.7514 135.444 59.9948 135.444 60.2382 135.566C58.2911 130.455 56.344 125.222 54.5186 120.111C58.0477 125.1 61.09 130.577 63.1588 136.296C64.1324 136.54 64.9842 136.783 65.9578 136.905C63.7673 129.603 62.672 124.005 61.5768 115.852C58.2911 113.661 51.2329 107.698 51.2329 107.698C51.2329 107.698 48.9207 94.9205 48.434 90.5396C47.4604 81.2909 47.7038 71.7988 49.6509 62.6718C53.0583 47.2168 62.0636 32.6136 75.6932 24.5819C89.3228 16.6718 107.82 16.4285 120.355 25.9205C132.524 35.1692 137.392 51.7195 136.296 66.9311C135.201 82.1427 129.238 96.7459 122.91 110.741C119.503 112.809 115.974 115.122 112.566 117.19C110.984 124.492 111.106 132.037 112.688 139.339C117.069 138.852 121.328 138.243 125.587 137.27C125.344 127.534 128.873 117.921 133.619 109.402C136.296 104.534 139.46 99.9099 142.624 95.2856C142.624 95.0422 142.624 94.7988 142.624 94.5554C142.016 84.3332 145.18 73.9893 151.265 65.9576C152.968 63.6454 155.037 61.5766 157.593 60.6031C158.688 60.1163 160.027 59.9946 161.243 60.1163C161.852 57.5607 162.217 54.8835 162.339 52.0845C162.825 36.8729 153.82 21.6613 140.191 14.8464C155.767 20.9311 167.206 36.9946 167.328 53.6665C167.328 57.1957 166.963 60.7248 166.233 64.1322C166.72 65.5925 166.72 67.1745 166.72 68.7565C166.72 76.0581 165.016 83.3597 162.095 89.9311C160.148 94.312 157.714 98.3279 154.672 101.979C152.725 104.413 150.656 106.36 148.101 105.264C144.085 114.148 141.164 123.518 141.529 133.01C143.841 132.28 146.154 131.428 148.466 130.455C150.656 116.46 157.714 103.561 163.556 90.4179C166.355 83.9681 168.91 77.3967 170.37 70.5819C172.318 61.2115 172.439 51.3544 170.005 42.1057Z" fill="url(#paint8_linear_475_1893)"/>
<path d="M93.7039 80.439C101.127 71.312 111.106 64.3755 122.302 60.603C117.434 67.0528 112.81 73.6242 108.064 80.0739C112.08 82.021 115.852 83.7247 119.868 85.5501C111.349 87.2538 101.736 83.8464 93.7039 80.439Z" fill="#58C2B2"/>
<path d="M111.349 92.8516C109.281 98.5711 103.683 102.83 97.7197 103.317C102.587 104.656 108.064 103.074 111.106 98.9362C112.201 97.2325 112.566 94.5553 111.349 92.8516Z" fill="#58C2B2"/>
<path d="M57.561 74.1108L58.778 79.1003H71.069V74.1108H57.561Z" fill="#ACDDD7"/>
<path d="M85.3069 42.349C69.7302 30.058 47.0953 32.7352 34.8043 48.3119C22.5133 63.8887 25.1905 86.5236 40.7673 98.8146C56.344 111.106 78.9789 108.428 91.2699 92.8516C103.561 77.2749 100.884 54.64 85.3069 42.349ZM44.4181 94.0686C31.3969 83.8463 29.2064 64.9839 39.4286 52.0844C49.6509 39.185 68.5133 36.8728 81.5345 47.095C94.5556 57.3172 96.7461 76.1797 86.5239 89.2008C76.3017 102.222 57.4392 104.412 44.4181 94.0686Z" fill="#2D3C52"/>
<path d="M57.5608 105.143C57.5608 105.143 59.1428 127.169 63.037 138.609C63.037 138.609 68.3915 141.894 73.2592 137.757L71.7989 104.656L57.5608 105.143Z" fill="url(#paint9_radial_475_1893)"/>
<path opacity="0.5" d="M70.4604 131.185C70.4604 131.185 68.3917 113.783 67.1747 111.471C67.1747 111.471 63.889 111.836 61.2118 113.296C58.4128 114.757 58.8996 136.418 58.8996 136.418C58.8996 136.418 57.0742 117.677 58.2911 107.09C58.2911 107.09 67.2964 108.672 72.2858 108.55L70.4604 131.185Z" fill="url(#paint10_linear_475_1893)"/>
<path opacity="0.5" d="M87.3755 87.9841C77.5184 100.518 59.021 102.344 45.9999 92.1216C32.9787 81.8994 30.4232 63.402 40.402 50.9893C50.2591 38.455 68.7565 36.6296 81.7777 46.8518C94.6771 57.074 97.2327 75.5714 87.3755 87.9841Z" fill="url(#paint11_radial_475_1893)"/>
<path d="M87.0106 39.6717C71.4338 27.3807 48.7989 30.058 36.5079 45.6347C24.0952 61.2114 26.7725 83.8463 42.3492 96.259C57.9259 108.672 80.5608 105.873 92.8518 90.2961C105.265 74.7193 102.587 52.0844 87.0106 39.6717ZM46.1217 91.513C33.1005 81.2908 30.91 62.4283 41.1323 49.4072C51.3545 36.386 70.2169 34.1955 83.2381 44.4178C96.2592 54.64 98.4497 73.5024 88.2275 86.5236C77.8836 99.5447 59.0212 101.735 46.1217 91.513Z" fill="url(#paint12_linear_475_1893)"/>
<path d="M132.767 144.937C135.566 143.476 138.122 141.164 139.582 138.365C139.582 140.069 138.974 141.651 138.487 143.476C137.635 146.519 135.323 149.074 132.646 150.778C129.968 152.482 126.926 153.577 123.762 154.307C110.376 157.714 96.1377 156.619 82.9949 152.482C81.5345 151.995 80.0742 151.386 78.7356 150.535C81.0478 150.535 83.2382 149.926 85.307 148.831C87.0107 147.857 88.471 146.519 89.5663 145.058C99.4234 148.222 110.011 149.318 120.355 148.222C124.614 147.736 128.995 147.005 132.767 144.937Z" fill="#7EB2DB"/>
<path d="M139.339 136.175C139.582 136.905 139.582 137.635 139.582 138.244C138.122 141.043 135.566 143.355 132.767 144.815C128.995 146.884 124.614 147.614 120.355 148.101C110.011 149.196 99.4233 148.101 89.5662 144.937C90.5397 143.72 91.2699 142.381 91.8783 141.043C93.3387 137.879 93.8254 134.35 94.0688 130.942C94.3122 125.831 93.582 120.598 92.1217 115.73C96.2593 120.111 100.64 123.275 106.482 125.101C113.053 127.048 119.624 128.387 126.561 128.873C129.36 128.995 132.159 129.117 134.593 130.334C136.783 131.551 138.608 133.619 139.339 136.175Z" fill="url(#paint13_linear_475_1893)"/>
<path d="M89.5662 145.058C88.3493 146.64 86.889 147.857 85.307 148.831C83.3599 149.926 81.0477 150.535 78.7355 150.535C74.598 147.979 71.5557 143.841 70.0953 139.217C67.1747 138.122 64.2541 136.783 61.3334 135.688C60.9684 133.741 61.09 131.672 61.5768 129.847C65.471 130.09 69.2435 130.212 73.1377 130.455C73.1377 129.968 73.1377 129.725 73.1377 129.238C68.1482 128.508 63.0371 128.143 57.926 128.386C57.5609 126.439 57.8043 124.127 58.2911 122.18C62.4287 120.963 66.9313 120.476 71.1906 120.841C71.0689 118.894 70.9472 116.826 70.8255 114.878C67.053 114.392 63.2805 114.392 59.6297 114.878C58.1694 112.688 57.926 109.767 59.0213 107.455C64.8625 104.9 71.3123 102.709 77.3969 101.492C82.9948 104.9 86.889 110.254 91.2699 115C91.5133 115.244 91.7567 115.487 91.8784 115.73C93.4604 120.598 94.0689 125.831 93.8255 130.942C93.7038 134.349 93.0953 137.878 91.635 141.042C91.2699 142.503 90.5398 143.841 89.5662 145.058Z" fill="url(#paint14_linear_475_1893)"/>
<path d="M61.2117 134.593C61.09 133.011 61.2117 131.307 61.5768 129.847C65.471 130.09 69.2435 130.212 73.1377 130.455C73.1377 130.212 73.1377 130.09 73.1377 129.847C73.7461 129.968 74.2329 129.968 74.8414 130.09C74.8414 132.524 74.2329 134.958 73.2594 137.27C69.4869 135.688 65.3493 134.836 61.2117 134.593ZM71.1906 119.868C71.1906 120.233 71.1906 120.598 71.3123 120.963C67.053 120.598 62.5504 121.085 58.4128 122.302C58.0477 123.397 57.926 124.614 57.926 125.831C58.0477 125.953 58.0477 126.074 58.1694 126.196C63.5239 125.831 69.1218 125.831 74.4763 125.587C74.8414 123.762 75.4498 121.815 75.8149 119.868C74.2329 119.746 72.7726 119.746 71.1906 119.868ZM78.0054 101.857C77.8837 101.736 77.6403 101.614 77.5186 101.492C71.434 102.831 64.8625 105.021 59.143 107.455C58.8996 107.942 58.7779 108.429 58.6562 109.037C58.6562 110.132 58.7779 111.228 59.143 112.323C64.6191 112.079 70.217 111.836 75.6932 111.593C76.9102 108.429 77.762 105.265 78.0054 101.857Z" fill="#4387A1"/>
<defs>
<linearGradient id="paint0_linear_475_1893" x1="72.7191" y1="164.139" x2="95.3172" y2="164.139" gradientUnits="userSpaceOnUse">
<stop stop-color="#367992"/>
<stop offset="1" stop-color="#2D3C52"/>
</linearGradient>
<linearGradient id="paint1_linear_475_1893" x1="88.1724" y1="150.322" x2="107.193" y2="150.322" gradientUnits="userSpaceOnUse">
<stop stop-color="#FFEEC5"/>
<stop offset="1" stop-color="#ADDCF6"/>
</linearGradient>
<linearGradient id="paint2_linear_475_1893" x1="79.2768" y1="152.241" x2="109.792" y2="147.767" gradientUnits="userSpaceOnUse">
<stop stop-color="#BDBE9A"/>
<stop offset="0.3011" stop-color="#777765"/>
<stop offset="0.7849" stop-color="#282925"/>
<stop offset="1" stop-color="#010101"/>
</linearGradient>
<linearGradient id="paint3_linear_475_1893" x1="113.813" y1="168.613" x2="114.434" y2="201.548" gradientUnits="userSpaceOnUse">
<stop stop-color="#FFEEC5"/>
<stop offset="1" stop-color="#ADDCF6"/>
</linearGradient>
<linearGradient id="paint4_linear_475_1893" x1="106.901" y1="116.419" x2="151.228" y2="159.09" gradientUnits="userSpaceOnUse">
<stop stop-color="#FFEEC5"/>
<stop offset="1" stop-color="#ADDCF6"/>
</linearGradient>
<linearGradient id="paint5_linear_475_1893" x1="108.342" y1="116.328" x2="134.198" y2="150.525" gradientUnits="userSpaceOnUse">
<stop stop-color="#BDBE9A"/>
<stop offset="0.3011" stop-color="#777765"/>
<stop offset="0.7849" stop-color="#282925"/>
<stop offset="1" stop-color="#010101"/>
</linearGradient>
<linearGradient id="paint6_linear_475_1893" x1="167.967" y1="149.107" x2="170.245" y2="201.719" gradientUnits="userSpaceOnUse">
<stop stop-color="#FFEEC5"/>
<stop offset="1" stop-color="#ADDCF6"/>
</linearGradient>
<radialGradient id="paint7_radial_475_1893" cx="0" cy="0" r="1" gradientUnits="userSpaceOnUse" gradientTransform="translate(74.8358 49.9647) rotate(-2.76283) scale(77.3669 77.3669)">
<stop stop-color="#367992"/>
<stop offset="1" stop-color="#2D3C52"/>
</radialGradient>
<linearGradient id="paint8_linear_475_1893" x1="90.5265" y1="9.08477" x2="126.568" y2="133.367" gradientUnits="userSpaceOnUse">
<stop stop-color="#FFEEC5"/>
<stop offset="1" stop-color="#ADDCF6"/>
</linearGradient>
<radialGradient id="paint9_radial_475_1893" cx="0" cy="0" r="1" gradientUnits="userSpaceOnUse" gradientTransform="translate(65.4124 122.263) scale(13.6048 13.6048)">
<stop stop-color="#367992"/>
<stop offset="1" stop-color="#2D3C52"/>
</radialGradient>
<linearGradient id="paint10_linear_475_1893" x1="52.9373" y1="130.4" x2="73.7171" y2="110.004" gradientUnits="userSpaceOnUse">
<stop stop-color="#90A3D3"/>
<stop offset="1" stop-color="#745FA9"/>
</linearGradient>
<radialGradient id="paint11_radial_475_1893" cx="0" cy="0" r="1" gradientUnits="userSpaceOnUse" gradientTransform="translate(64.1962 69.4365) rotate(38.791) scale(29.6906 28.6372)">
<stop stop-color="#898989"/>
<stop offset="0.515625" stop-color="#D7F8FB"/>
<stop offset="1" stop-color="#8ED5E3"/>
</radialGradient>
<linearGradient id="paint12_linear_475_1893" x1="44.8026" y1="85.8702" x2="105.58" y2="31.1044" gradientUnits="userSpaceOnUse">
<stop stop-color="#367992"/>
<stop offset="0.9001" stop-color="#8198A5"/>
</linearGradient>
<linearGradient id="paint13_linear_475_1893" x1="114.078" y1="121.253" x2="114.785" y2="149.517" gradientUnits="userSpaceOnUse">
<stop stop-color="#FFEEC5"/>
<stop offset="1" stop-color="#ADDCF6"/>
</linearGradient>
<linearGradient id="paint14_linear_475_1893" x1="55.3009" y1="111.224" x2="121.547" y2="154.238" gradientUnits="userSpaceOnUse">
<stop stop-color="#367992"/>
<stop offset="1" stop-color="#2D3C52"/>
</linearGradient>
</defs>
</svg>
