<svg width="85" height="86" viewBox="0 0 85 86" fill="none" xmlns="http://www.w3.org/2000/svg">
<g clip-path="url(#clip0_679_2228)">
<path d="M43.5314 85.9145C42.7836 85.6902 41.9581 85.1364 42.191 84.1551C42.3224 83.7478 42.5899 83.3973 42.9491 83.1615C43.3082 82.9258 43.7377 82.8188 44.1663 82.8584C45.923 83.1248 45.7466 86.5944 43.5314 85.9145Z" fill="#EDF7F7"/>
<path d="M32.0602 75.9473C38.3589 79.0359 45.4021 80.3107 52.3925 79.6272C51.3609 78.1004 49.9743 76.8429 48.35 75.9613C45.4716 76.1716 42.833 75.3936 39.9828 74.945C37.302 74.4278 34.525 74.7792 32.0602 75.9473Z" fill="#FF70F1"/>
<path d="M39.0022 35.9097V36.4915C39.1503 40.2134 39.63 44.1667 39.8488 47.9378C42.1665 47.9291 44.4696 48.3034 46.6638 49.0452C47.8326 46.1182 48.6266 43.0568 49.0272 39.9331C49.3588 36.8349 48.8367 33.5195 46.9107 31.0452C45.7961 29.5802 44.2792 28.7321 42.5931 29.7414C41.0992 30.7172 39.9903 32.1756 39.4537 33.87C39.2448 34.5358 39.0938 35.2182 39.0022 35.9097Z" fill="#FCD5FF"/>
<path d="M63.9978 52.9566C65.2483 53.1229 66.481 53.402 67.6805 53.7907C68.7271 51.6732 69.5635 49.4595 70.178 47.1808C70.7747 44.9261 70.6764 42.5453 69.8958 40.3467C69.7352 39.8465 69.4759 39.3831 69.1331 38.9836C68.7903 38.584 68.3709 38.2563 67.8992 38.0196C67.6322 37.9134 67.3463 37.8623 67.0588 37.8696C66.7714 37.8768 66.4884 37.9422 66.2272 38.0617C65.7757 43.0593 65.2748 48.1341 63.9978 52.9566Z" fill="#FCD5FF"/>
<path d="M50.3041 55.0874C51.2039 58.3575 52.956 61.3338 55.3837 63.7159C57.1686 62.4963 58.7348 60.3725 59.9764 58.6201C56.5197 58.2059 53.2078 56.9963 50.3041 55.0874Z" fill="#FABFFB"/>
<path d="M46.6849 49.0453C44.4907 48.3035 42.1876 47.9292 39.8699 47.9379C39.8699 48.3794 39.9263 48.814 39.9404 49.2556C42.9741 49.564 45.9959 49.9659 49.006 50.4612C51.9953 44.5307 53.2051 37.8712 52.4912 31.2766C52.3625 29.6252 51.9347 28.0105 51.2283 26.5102C50.8709 25.7621 50.3675 25.0919 49.7475 24.5384C49.1274 23.9849 48.403 23.5592 47.6162 23.2859C46.6067 23.0348 45.5488 23.0481 44.546 23.3246C43.5432 23.601 42.6297 24.131 41.8946 24.863C40.4397 26.3538 39.5007 28.2664 39.2138 30.3233C38.9478 32.1801 38.8769 34.0594 39.0021 35.9308C39.1091 35.2476 39.2743 34.5746 39.496 33.9191C40.0326 32.2247 41.1415 30.7664 42.6354 29.7906C44.3215 28.7813 45.8384 29.6294 46.953 31.0943C48.8579 33.5687 49.3799 36.8841 49.0695 39.9822C48.658 43.0902 47.857 46.1349 46.6849 49.0453Z" fill="#FABFFB"/>
<path d="M67.6804 53.7906C66.4809 53.4019 65.2483 53.1227 63.9978 52.9564C63.9366 53.2181 63.8661 53.4775 63.7861 53.7345C65.6698 54.2532 67.5464 54.8209 69.4301 55.4237C72.2967 50.7335 73.6736 45.2935 73.3808 39.8139C73.2849 37.6496 72.8222 35.5168 72.0122 33.5054C71.7658 32.8767 71.4073 32.2974 70.9539 31.7952C70.7253 31.5445 70.4467 31.344 70.1357 31.2064C69.8247 31.0688 69.4883 30.9972 69.1479 30.9961C68.6869 31.0458 68.2477 31.2169 67.8757 31.4917C67.5036 31.7665 67.2121 32.135 67.0314 32.5592C66.6852 33.4093 66.4918 34.3132 66.4599 35.2298C66.3753 36.176 66.2906 37.1223 66.213 38.0756C66.4742 37.9561 66.7572 37.8907 67.0447 37.8835C67.3321 37.8762 67.6181 37.9273 67.885 38.0335C68.3567 38.2702 68.7761 38.598 69.1189 38.9975C69.4617 39.397 69.721 39.8604 69.8816 40.3606C70.6622 42.5592 70.7605 44.94 70.1638 47.1947C69.553 49.4681 68.7213 51.6771 67.6804 53.7906Z" fill="#FABFFB"/>
<path d="M39.0021 35.9098C38.8769 34.0384 38.9478 32.1592 39.2138 30.3024C39.5007 28.2455 40.4397 26.3329 41.8946 24.8421C42.6297 24.1101 43.5432 23.58 44.546 23.3036C45.5488 23.0272 46.6067 23.0139 47.6162 23.2649C48.403 23.5383 49.1274 23.964 49.7475 24.5175C50.3675 25.0709 50.8709 25.7411 51.2283 26.4893C51.9347 27.9895 52.3625 29.6042 52.4912 31.2556C53.2051 37.8502 51.9953 44.5097 49.006 50.4403C45.9912 49.9449 42.9694 49.5431 39.9404 49.2347C39.9404 48.7931 39.8981 48.3585 39.8699 47.9169C39.6512 44.1459 39.1644 40.2066 39.0233 36.4706L39.0021 35.9098ZM63.9977 52.9566C65.2747 48.1342 65.7756 43.0594 66.2271 38.0617C66.3047 37.1084 66.3894 36.1622 66.474 35.2159C66.5059 34.2994 66.6993 33.3955 67.0455 32.5453C67.2262 32.1212 67.5177 31.7526 67.8898 31.4778C68.2618 31.203 68.701 31.032 69.162 30.9823C69.5024 30.9834 69.8388 31.055 70.1498 31.1926C70.4608 31.3302 70.7394 31.5307 70.968 31.7813C71.4229 32.2877 71.7815 32.872 72.0263 33.5056C72.8363 35.517 73.299 37.6497 73.3949 39.8141C73.6828 45.2982 72.2985 50.741 69.423 55.4309C67.5605 54.8281 65.6839 54.2604 63.779 53.7417C63.859 53.48 63.9319 53.2183 63.9977 52.9566ZM28.1164 32.8748C27.4109 41.5944 29.5908 50.3491 31.9754 58.7674C33.718 60.2043 35.5734 61.8445 37.3089 63.2744C37.5505 67.5347 36.8771 71.7972 35.3336 75.7791C44.0651 78.109 53.1167 79.0296 62.1423 78.5058C63.8902 74.7778 65.3295 70.9146 66.4458 66.9543C68.4847 65.987 73.0139 63.2043 73.0139 63.2043C73.0139 63.2043 75.4338 56.1319 76.0828 53.6926C77.5005 48.5226 78.0722 43.1597 77.776 37.8094C77.1693 28.7883 73.3244 19.7533 66.2412 14.0827C59.1581 8.4121 48.6744 6.70882 40.6883 11.0406C32.9913 15.2322 28.8077 24.1551 28.1164 32.8748ZM55.3837 63.716C52.956 61.3339 51.2039 58.3575 50.3041 55.0875C53.2104 56.9865 56.5221 58.1864 59.9764 58.5922C58.7348 60.3725 57.1686 62.4964 55.3837 63.716Z" fill="url(#paint0_radial_679_2228)"/>
<path d="M11.4809 30.0009C12.0805 35.8117 14.1547 41.5664 16.0807 47.1528C16.6239 48.7299 17.1601 50.3351 17.6539 51.9542C18.0434 51.9243 18.4158 51.7831 18.7263 51.5477C20.2642 50.4893 20.8428 48.6879 21.1461 46.7603C21.1461 46.6832 21.1461 46.6061 21.1461 46.529C20.109 44.4262 19.079 42.3234 18.1478 40.1855C16.4499 36.4668 15.2794 32.5321 14.6697 28.4939C14.1973 28.3613 13.6978 28.3563 13.2228 28.4795C12.7478 28.6027 12.3145 28.8497 11.9676 29.1948C11.7645 29.437 11.6003 29.7089 11.4809 30.0009Z" fill="#FAA747"/>
<path d="M10.6484 31.2064C10.7436 30.3282 10.9818 29.4712 11.3539 28.669C11.5461 28.2648 11.8143 27.9007 12.1441 27.5966C12.4646 27.3159 12.8377 27.1007 13.2421 26.9636C13.6464 26.8265 14.0741 26.7701 14.5004 26.7975C15.2214 26.8133 15.9261 27.0137 16.5464 27.3793C17.8937 28.276 18.9713 29.5186 19.6646 30.9751C22.4625 36.1599 23.3318 42.1584 22.1197 47.9168C22.1197 48.0569 22.0563 48.1901 22.028 48.3233C21.5483 50.328 20.7088 52.1504 18.9027 53.1878C18.6457 53.3396 18.3675 53.4529 18.0773 53.5243C16.5464 53.8958 15.5163 52.585 14.5992 51.071C13.211 48.7351 12.1455 46.2243 11.4315 43.606C10.3303 39.5678 10.0639 35.3497 10.6484 31.2064ZM15.0507 49.8864C15.7562 51.0429 16.5746 52.0453 17.6187 51.9892C18.0081 51.9593 18.3806 51.8181 18.6911 51.5827C20.229 50.5242 20.8075 48.7228 21.1109 46.7953C21.1109 46.7182 21.1109 46.6411 21.1109 46.564C21.7915 41.5105 20.8011 36.3742 18.2889 31.9284C17.6798 30.6878 16.7467 29.6323 15.5869 28.8723C15.3 28.7117 14.991 28.5936 14.6697 28.5218C14.1973 28.3892 13.6978 28.3843 13.2229 28.5075C12.7479 28.6307 12.3146 28.8776 11.9677 29.2228C11.757 29.4545 11.5834 29.7169 11.4527 30.0008C11.1235 30.7868 10.9371 31.6245 10.9024 32.4751C10.3992 38.5731 11.8646 44.6718 15.086 49.8864H15.0507Z" fill="#FF70F1"/>
<path d="M10.9306 32.5033C10.425 38.5889 11.8803 44.6766 15.086 49.8865C15.7915 51.0431 16.6098 52.0454 17.654 51.9893C17.1601 50.3702 16.6239 48.765 16.0807 47.1879C14.1547 41.5804 12.0806 35.8468 11.4809 30.036C11.1525 30.8198 10.9662 31.6551 10.9306 32.5033ZM18.3524 31.9215C20.8646 36.3673 21.8549 41.5036 21.1744 46.5571C20.1373 44.4543 19.1073 42.3515 18.176 40.2136C16.4782 36.4949 15.3077 32.5602 14.698 28.522C15.0192 28.5938 15.3282 28.7118 15.6151 28.8724C16.7869 29.6257 17.7325 30.6791 18.3524 31.9215Z" fill="#FFC761"/>
<path d="M63.8214 78.3654C64.3952 78.3234 64.9666 78.2673 65.5357 78.1972L70.1497 69.9612C67.6847 72.4801 65.5576 75.3049 63.8214 78.3654ZM30.4022 3.02173C26.2304 4.43666 22.54 6.98225 19.7475 10.371C16.955 13.7598 15.1718 17.8568 14.5991 22.1994C14.4217 23.7256 14.3886 25.2651 14.5004 26.7975C14.074 26.77 13.6464 26.8265 13.242 26.9636C12.8376 27.1007 12.4645 27.3158 12.144 27.5966C11.8142 27.9007 11.546 28.2647 11.3539 28.669C11.2143 26.663 11.3042 24.6478 11.622 22.662C13.167 13.2274 21.0544 5.15258 30.4022 3.02173ZM22.028 48.3233C23.439 51.2041 24.85 54.085 25.9646 57.078C27.9471 62.321 29.1182 68.0617 28.1375 73.529C25.1579 72.4537 22.246 71.2014 19.4177 69.7789C20.4759 64.4378 19.587 58.9074 18.0772 53.5242C18.3675 53.4529 18.6456 53.3395 18.9026 53.1878C20.7299 52.1504 21.5694 50.328 22.0491 48.3233H22.028Z" fill="#FF70F1"/>
<path d="M11.0505 15.912C13.2114 10.7972 16.9548 6.49855 21.7387 3.6386C26.529 0.876912 32.2083 -0.0763622 37.7464 0.00775024C48.3288 0.168966 59.6872 2.64328 67.8639 9.65965C74.4738 15.3846 78.6578 23.3831 79.5751 32.0476C80.2806 39.1971 78.9542 46.8934 77.1058 53.9519C76.8307 55.0313 76.5344 56.0967 76.231 57.1411C74.5691 62.8768 72.1644 68.3737 69.0773 73.494C68.654 74.1949 66.7633 78.1061 66.0014 78.1832L65.5358 78.2253L70.1497 69.9893C67.6768 72.5091 65.5426 75.3363 63.8002 78.4005C63.25 78.4426 62.6997 78.4846 62.1494 78.5127C63.8973 74.7847 65.3366 70.9215 66.4529 66.9612C68.4918 65.9939 73.021 63.2112 73.021 63.2112C73.021 63.2112 75.4409 56.1388 76.0899 53.6995C77.5076 48.5295 78.0793 43.1666 77.7831 37.8163C77.1764 28.7952 73.3315 19.7602 66.2483 14.0896C59.1652 8.41899 48.6815 6.71572 40.6953 11.0475C32.9349 15.2531 28.7866 24.162 28.0952 32.8817C27.4039 41.6013 29.5909 50.328 31.9754 58.7393C33.718 60.1762 35.5735 61.8164 37.309 63.2463C37.5603 67.5155 36.8892 71.7888 35.3407 75.779C32.9138 75.1388 30.5245 74.3888 28.1728 73.529C29.1535 68.0617 27.9824 62.314 25.9999 57.078C24.8711 54.085 23.4813 51.2042 22.0633 48.3233C22.0633 48.1902 22.1268 48.057 22.155 47.9168C23.367 42.1584 22.4978 36.1599 19.6999 30.9751C19.0065 29.5186 17.9289 28.276 16.5816 27.3793C15.9614 27.0137 15.2567 26.8133 14.5357 26.7976C14.4239 25.2651 14.4569 23.7257 14.6344 22.1994C15.2041 17.861 16.9821 13.7668 19.768 10.3784C22.554 6.99006 26.237 4.44211 30.4022 3.02178C21.0333 5.12459 13.1458 13.2274 11.622 22.648C11.3031 24.6384 11.2132 26.6584 11.3539 28.6691C10.9818 29.4713 10.7435 30.3282 10.6484 31.2065C10.0593 35.3488 10.3209 39.5668 11.4174 43.606C12.1314 46.2243 13.1968 48.7351 14.585 51.071C15.5022 52.585 16.5322 53.8747 18.0631 53.5243C19.5729 58.9075 20.4618 64.4379 19.4036 69.779C18.1478 69.1482 16.8991 68.4753 15.6856 67.7743C15.6856 59.6435 12.7014 51.7789 10.5426 43.8373C9.41289 39.997 8.68705 36.0507 8.37671 32.0616C7.98988 26.545 8.90549 21.0148 11.0505 15.912Z" fill="url(#paint1_linear_679_2228)"/>
<path style="mix-blend-mode:screen" d="M35.3407 0.855987C33.492 3.23478 32.4785 6.14978 32.4552 9.15508C32.4326 12.1501 32.9957 15.121 34.1131 17.9028C36.6459 24.5897 41.2386 30.3374 46.7132 34.8304C52.1879 39.3234 58.5303 42.6178 65.0561 45.2393C66.9274 46.0761 68.9162 46.6245 70.954 46.8655C71.976 46.9754 73.0099 46.8813 73.9948 46.5888C74.9797 46.2964 75.896 45.8113 76.6896 45.1622C80.6968 41.5664 79.5681 33.7019 78.5663 29.0407C77.2991 23.1052 74.5147 17.5941 70.4813 13.0383C61.9801 3.50553 47.8491 -0.300559 35.3407 0.855987Z" fill="url(#paint2_linear_679_2228)"/>
<path style="mix-blend-mode:screen" d="M51.1861 10.6339C50.4646 10.5963 49.7433 10.711 49.0696 10.9704C48.7281 11.1057 48.4298 11.3302 48.2063 11.6202C47.9827 11.9102 47.8423 12.2548 47.7997 12.6176C47.8116 12.9917 47.9238 13.356 48.1247 13.6727C48.3256 13.9893 48.608 14.247 48.9426 14.419C49.6066 14.7618 50.3209 14.9984 51.0591 15.1199C54.2911 15.8411 57.4112 16.9891 60.3363 18.5335L71.0951 24.0989C71.4055 24.2602 71.8006 24.4214 72.0828 24.2251C72.365 24.0288 72.2944 23.3629 72.0828 22.9564C69.0615 17.6912 64.1746 13.7329 58.3751 11.8536C56.0614 11.0613 53.6332 10.6493 51.1861 10.6339Z" fill="url(#paint3_linear_679_2228)"/>
<path d="M23.4672 21.9822C25.1046 21.8386 26.7208 21.5142 28.2858 21.0149C29.8693 20.5023 31.2591 19.5247 32.2718 18.2111C32.7696 17.5551 33.0996 16.7889 33.2336 15.9782C33.3675 15.1675 33.3014 14.3366 33.0408 13.5569C32.7538 12.7859 32.2166 12.1318 31.5141 11.6978C30.8115 11.2637 29.9834 11.0744 29.1606 11.1597C27.9911 11.4433 26.9491 12.1039 26.1975 13.0382C25.8397 12.1709 25.1729 11.4648 24.3244 11.055C23.4759 10.6451 22.5052 10.5601 21.5977 10.8162C20.9 11.0783 20.2885 11.5264 19.8305 12.1113C19.3724 12.6962 19.0856 13.3953 19.0015 14.1317C18.8657 15.6111 19.236 17.0928 20.0527 18.3373C20.8428 19.641 22.4372 20.8887 23.4672 21.9822Z" fill="#E83332"/>
</g>
<defs>
<radialGradient id="paint0_radial_679_2228" cx="0" cy="0" r="1" gradientUnits="userSpaceOnUse" gradientTransform="translate(62.0083 26.0056) rotate(180) scale(44.3755 44.0889)">
<stop stop-color="#923689"/>
<stop offset="1" stop-color="#FF00D6"/>
</radialGradient>
<linearGradient id="paint1_linear_679_2228" x1="80.3652" y1="19.2134" x2="-3.15976" y2="69.5622" gradientUnits="userSpaceOnUse">
<stop stop-color="#FFEEC5"/>
<stop offset="1" stop-color="#ECADF6"/>
</linearGradient>
<linearGradient id="paint2_linear_679_2228" x1="68.6329" y1="-1.26084" x2="45.1431" y2="44.9982" gradientUnits="userSpaceOnUse">
<stop stop-color="#BDBE9A"/>
<stop offset="0.16" stop-color="#9D9E80"/>
<stop offset="0.74" stop-color="#2D2E25"/>
<stop offset="1" stop-color="#010101"/>
</linearGradient>
<linearGradient id="paint3_linear_679_2228" x1="65.6275" y1="9.60356" x2="57.8953" y2="21.4603" gradientUnits="userSpaceOnUse">
<stop stop-color="#BDBE9A"/>
<stop offset="0.16" stop-color="#9D9E80"/>
<stop offset="0.74" stop-color="#2D2E25"/>
<stop offset="1" stop-color="#010101"/>
</linearGradient>
<clipPath id="clip0_679_2228">
<rect width="85" height="86" fill="white" transform="matrix(-1 0 0 1 85 0)"/>
</clipPath>
</defs>
</svg>
