<svg width="20" height="32" viewBox="0 0 20 32" fill="none" xmlns="http://www.w3.org/2000/svg">
<path d="M6.66663 4.35342V0.666748L9.99996 1.33341L13.3333 0.666748V5.33342L9.99996 6.66675L6.66663 5.33342V4.35342Z" fill="#5597E6"/>
<path d="M16 12C16.3536 12 16.6928 12.1405 16.9428 12.3905C17.1929 12.6406 17.3333 12.9797 17.3333 13.3333C17.3333 13.687 17.1929 14.0261 16.9428 14.2761C16.6928 14.5262 16.3536 14.6667 16 14.6667H15.3333L15.2933 14.66C15.3201 14.441 15.3335 14.2206 15.3333 14V12H16Z" fill="#FDDDD7"/>
<path d="M12 18.9467V19.3333C12 19.8638 11.7892 20.3725 11.4142 20.7475C11.0391 21.1226 10.5304 21.3333 9.99996 21.3333C9.46953 21.3333 8.96082 21.1226 8.58575 20.7475C8.21067 20.3725 7.99996 19.8638 7.99996 19.3333V18.9467C9.28346 19.4622 10.7165 19.4622 12 18.9467ZM4.70663 14.66L4.66663 14.6667H3.99996C3.64634 14.6667 3.3072 14.5262 3.05715 14.2761C2.8071 14.0261 2.66663 13.687 2.66663 13.3333C2.66663 12.9797 2.8071 12.6406 3.05715 12.3905C3.3072 12.1405 3.64634 12 3.99996 12H4.66663V14C4.66647 14.2206 4.67982 14.441 4.70663 14.66Z" fill="#F2CAC1"/>
<path d="M12 18.9468C11.1902 19.2754 10.3121 19.3999 9.44294 19.3092C8.57377 19.2185 7.74023 18.9155 7.01576 18.4268C6.29128 17.9381 5.6981 17.2787 5.28845 16.5068C4.87881 15.7349 4.66528 14.8741 4.66667 14.0002V11.3335H4C4.22667 11.3335 4.45333 11.3335 4.66667 11.3202C12 11.1068 12 7.3335 12 7.3335C11.9445 8.29166 12.2597 9.23445 12.8802 9.96665C13.5007 10.6989 14.3791 11.1644 15.3333 11.2668V14.0002C15.3335 14.2208 15.3201 14.4412 15.2933 14.6602C15.1761 15.6033 14.809 16.498 14.23 17.2517C13.651 18.0053 12.8811 18.5906 12 18.9468Z" fill="#F2CAC1"/>
<path d="M15.9999 9.33352V11.3335C15.7763 11.3279 15.5535 11.3056 15.3332 11.2668C14.379 11.1644 13.5006 10.6989 12.8801 9.96667C12.2596 9.23447 11.9444 8.29168 11.9999 7.33352C11.9999 7.33352 11.9999 11.1068 4.66657 11.3202C4.45324 11.3335 4.22657 11.3335 3.9999 11.3335V9.33352C3.99705 8.34749 4.23925 7.37621 4.70471 6.50695C5.17017 5.6377 5.84432 4.89772 6.66657 4.35352V5.33352L9.9999 6.66685L13.3332 5.33352V4.35352C14.1555 4.89772 14.8296 5.6377 15.2951 6.50695C15.7606 7.37621 16.0028 8.34749 15.9999 9.33352Z" fill="#606676"/>
<path d="M13.3333 22C13.3333 23.4733 11.84 24.6667 9.99996 24.6667C8.15996 24.6667 6.66663 23.4733 6.66663 22C7.01992 21.9989 7.35845 21.8581 7.60827 21.6083C7.85809 21.3585 7.9989 21.02 7.99996 20.6667V19.3333C7.99996 19.8638 8.21067 20.3725 8.58575 20.7475C8.96082 21.1226 9.46953 21.3333 9.99996 21.3333C10.5304 21.3333 11.0391 21.1226 11.4142 20.7475C11.7892 20.3725 12 19.8638 12 19.3333V20.6667C12.001 21.02 12.1418 21.3585 12.3916 21.6083C12.6415 21.8581 12.98 21.9989 13.3333 22ZM17.9933 18C17.9933 18 18.3666 21.88 14.06 22C14.06 22 13.2066 18.1333 17.9933 18Z" fill="#5597E6"/>
<path d="M14.6333 22.0402C15.0599 22.3469 17.4933 24.3069 14.6199 27.3335C13.9641 26.753 13.5226 25.9687 13.3666 25.1069C13.3079 24.5369 13.3842 23.9611 13.5892 23.4261C13.7942 22.891 14.1221 22.4117 14.5466 22.0269C14.5737 22.028 14.6006 22.0325 14.6266 22.0402H14.6333Z" fill="#64A6F0"/>
<path d="M14.06 22C14.2267 22 14.3867 22.0133 14.5467 22.0267C14.1222 22.4115 13.7942 22.8908 13.5892 23.4259C13.3842 23.9609 13.308 24.5367 13.3667 25.1067L13.3333 25.1133L12 31.3333H8L6 22H6.66667C6.66667 23.4733 8.16 24.6667 10 24.6667C11.84 24.6667 13.3333 23.4733 13.3333 22H14.06Z" fill="#5597E6"/>
<path d="M5.99996 22L7.99996 31.3333H0.666626V27.3333C0.666626 25.9188 1.22853 24.5623 2.22872 23.5621C3.22892 22.5619 4.58547 22 5.99996 22ZM19.3333 27.3333V31.3333H12L13.3333 25.1133L13.3666 25.1067C13.5226 25.9685 13.9641 26.7528 14.62 27.3333C17.4933 24.3067 15.06 22.3467 14.6333 22.04C15.9285 22.1949 17.122 22.8191 17.9881 23.7945C18.8542 24.7699 19.3327 26.0289 19.3333 27.3333Z" fill="#E1E4ED"/>
<path d="M9.33325 19.2868V20.6668C9.3345 20.8718 9.38382 21.0736 9.47725 21.2561C9.77343 21.3415 10.0855 21.3565 10.3885 21.2997C10.6915 21.243 10.977 21.1161 11.2221 20.9292C11.4673 20.7424 11.6653 20.5007 11.8004 20.2236C11.9354 19.9465 12.0038 19.6417 11.9999 19.3334V18.9468C11.1561 19.2914 10.2366 19.4086 9.33325 19.2868Z" fill="#FDDDD7"/>
<path d="M12.1759 5.79618C12.9298 6.82133 13.3354 8.06103 13.3332 9.33352V10.4082C14.1059 10.9833 15.037 11.3064 15.9999 11.3335V9.33352C16.0028 8.34749 15.7606 7.37621 15.2951 6.50695C14.8296 5.6377 14.1555 4.89772 13.3332 4.35352V5.33352L12.1759 5.79618Z" fill="#707789"/>
<path d="M17.9933 18C13.2066 18.1333 14.0599 22 14.0599 22C18.3666 21.88 17.9933 18 17.9933 18Z" fill="#64A6F0"/>
<path d="M13.996 22.7193C14.1607 22.4741 14.3449 22.2424 14.5467 22.0267C14.3867 22.0133 14.2267 22 14.06 22H13.3333C13.3287 22.1263 13.3129 22.2519 13.286 22.3753C13.531 22.472 13.7683 22.587 13.996 22.7193Z" fill="#5597E6"/>
<path d="M14.6333 22.04C15.0656 22.3405 15.4158 22.7443 15.6521 23.2147C15.8883 23.6851 16.0031 24.2072 15.986 24.7334C16.4326 25.5271 16.6671 26.4226 16.6666 27.3334V31.3334H19.3333V27.3334C19.3327 26.0289 18.8542 24.77 17.9881 23.7945C17.122 22.8191 15.9285 22.1949 14.6333 22.04Z" fill="#F6FAFD"/>
<path d="M12.0326 7.9161C12.0326 7.9301 12.0372 7.94276 12.0386 7.9561C12.0372 7.94276 12.0339 7.93343 12.0326 7.9161ZM12.1112 8.4001L12.1266 8.4581C12.1219 8.44076 12.1159 8.4221 12.1112 8.4001ZM11.1872 9.12943C11.2006 9.11476 11.2146 9.1001 11.2266 9.08543C11.2146 9.1001 11.1999 9.11476 11.1872 9.12943ZM11.4472 8.8001L11.4839 8.74743C11.4706 8.76421 11.4583 8.7818 11.4472 8.8001ZM11.7926 8.17476L11.8119 8.12676C11.8059 8.14295 11.7995 8.15895 11.7926 8.17476ZM11.9999 7.37876V7.33276V7.3821V7.37876Z" fill="#F2CAC1"/>
<path d="M13.3333 10.4082V14.0002C13.3335 14.2208 13.3201 14.4412 13.2933 14.6602C13.1761 15.6033 12.809 16.498 12.23 17.2517C11.651 18.0054 10.8811 18.5906 10 18.9469C9.67663 19.0752 9.34179 19.1725 9 19.2375C9.32955 19.301 9.66438 19.3332 10 19.3335C10.6852 19.3328 11.3639 19.2016 12 18.9469C12.8811 18.5906 13.651 18.0054 14.23 17.2517C14.809 16.498 15.1761 15.6033 15.2933 14.6602C15.3201 14.4412 15.3335 14.2208 15.3333 14.0002V11.2669C14.6067 11.1478 13.9201 10.853 13.3333 10.4082Z" fill="#FDDDD7"/>
<path d="M12.3953 9.23539C12.4033 9.25273 12.4126 9.26873 12.4213 9.28539C12.4126 9.26673 12.4033 9.25273 12.3953 9.23539ZM12.5899 9.58673L12.6173 9.62606C12.6086 9.61264 12.5995 9.59952 12.5899 9.58673ZM8.75395 10.6594C8.96817 10.5847 9.16817 10.5056 9.35395 10.4221C9.16861 10.5054 8.96728 10.5847 8.75395 10.6594Z" fill="#F2CAC1"/>
<path d="M14.5467 22.0267C14.3867 22.0133 14.2267 22 14.06 22H13.3333C13.3333 23.4733 11.84 24.6667 10 24.6667C8.16 24.6667 6.66667 23.4733 6.66667 22H6L6.58267 24.7187C7.51627 25.5318 8.70893 25.9859 9.94692 25.9996C11.1849 26.0133 12.3873 25.5856 13.3387 24.7933C13.34 24.2741 13.4479 23.7606 13.6556 23.2847C13.8634 22.8088 14.1667 22.3806 14.5467 22.0267Z" fill="#F6FAFD"/>
<path d="M11.3333 23.3335H12.06C12.2267 23.3335 12.3867 23.3468 12.5467 23.3602C12.5738 23.3613 12.6006 23.3658 12.6267 23.3735H12.6333C12.7 23.3808 12.7593 23.3948 12.8227 23.4048C13.1462 23.0075 13.3261 22.5125 13.3333 22.0002C12.98 21.9991 12.6415 21.8583 12.3917 21.6085C12.1419 21.3587 12.0011 21.0201 12 20.6668V19.3335C12 19.8639 11.7893 20.3726 11.4142 20.7477C11.0391 21.1228 10.5304 21.3335 10 21.3335V22.0002C10.0011 22.3535 10.1419 22.692 10.3917 22.9418C10.6415 23.1916 10.98 23.3324 11.3333 23.3335Z" fill="#64A6F0"/>
<path d="M6.28996 23.352L5.99996 22C4.58547 22 3.22892 22.5619 2.22872 23.5621C1.22853 24.5623 0.666626 25.9188 0.666626 27.3333V28.6667C0.666626 25.8453 3.46663 23.5433 6.28996 23.352Z" fill="#F6FAFD"/>
<path d="M11.3333 1.06675V6.13341L13.3333 5.33342V0.666748L11.3333 1.06675Z" fill="#64A6F0"/>
<path d="M9.33333 19.3334V19.2868C8.87627 19.2304 8.42824 19.1162 8 18.9468V19.3334C8.00275 19.4307 8.01233 19.5276 8.02867 19.6234C8.44806 19.7882 8.88631 19.9002 9.33333 19.9568V19.3334Z" fill="#D6B3AD"/>
<path d="M11.9999 18.9468C11.1561 19.2914 10.2366 19.4086 9.33325 19.2868V19.9534C10.2264 20.073 11.1353 19.9581 11.9706 19.6201C11.9873 19.5254 11.9971 19.4296 11.9999 19.3334V18.9468Z" fill="#F2CAC1"/>
<path d="M2.66663 26.6667H5.33329V28.0001H2.66663V26.6667Z" fill="#F6FAFD"/>
<path d="M18.6566 17.9335C18.6401 17.7691 18.5631 17.6166 18.4405 17.5057C18.3179 17.3949 18.1586 17.3335 17.9933 17.3335H17.9746C16.1966 17.3835 14.8973 17.9188 14.108 18.9248C13.7786 19.3857 13.5465 19.9088 13.4257 20.4623C13.3049 21.0157 13.2979 21.5879 13.4053 22.1442C13.4205 22.1991 13.4429 22.2518 13.472 22.3008C12.8483 23.1304 12.5736 24.1709 12.7066 25.2002C12.8873 26.226 13.4127 27.1595 14.196 27.8462C14.3261 27.9534 14.4922 28.0074 14.6605 27.9971C14.8289 27.9868 14.9871 27.9131 15.1033 27.7908C16.2433 26.5908 16.7646 25.3802 16.6526 24.1908C16.5821 23.5161 16.3198 22.8757 15.8966 22.3455C16.5544 22.1263 17.1439 21.7399 17.6073 21.2242C18.3617 20.3 18.7368 19.1238 18.6566 17.9335ZM14.6 26.3335C14.3016 25.948 14.1036 25.4944 14.024 25.0135C13.9835 24.6441 14.0177 24.2704 14.1247 23.9145C14.2317 23.5587 14.4092 23.228 14.6466 22.9422C15.0189 23.3148 15.2569 23.8004 15.3233 24.3228C15.3456 25.0605 15.0871 25.7791 14.6 26.3335ZM16.606 20.3495C16.0938 20.8851 15.4048 21.2168 14.6666 21.2828C14.6613 20.7303 14.8346 20.1909 15.1606 19.7448C15.432 19.4419 15.7605 19.1955 16.1272 19.0198C16.494 18.8441 16.8918 18.7425 17.298 18.7208C17.2319 19.3186 16.992 19.884 16.608 20.3468L16.606 20.3495Z" fill="#6493F0"/>
<path d="M9.99999 4.66682C9.89657 4.66691 9.79454 4.64295 9.70199 4.59682L8.36865 3.93015L8.96465 2.73682L9.99999 3.25482L11.0353 2.73682L11.6313 3.93015L10.298 4.59682C10.2054 4.64295 10.1034 4.66691 9.99999 4.66682Z" fill="white"/>
</svg>
