<svg width="45" height="66" viewBox="0 0 45 66" fill="none" xmlns="http://www.w3.org/2000/svg">
<path d="M37.4595 52.6103C37.5126 53.0986 37.6478 53.5748 37.8596 54.0198C38.0472 54.3931 38.2951 54.7343 38.5938 55.0302C40.2786 55.5479 42.1213 55.3394 43.3656 53.9047C43.8553 53.3175 44.1603 52.6036 44.2437 51.8499C44.3271 51.0961 44.1853 50.3348 43.8355 49.6584C43.5112 49.0956 43.0534 48.6176 42.5007 48.2646C41.9481 47.9117 41.3169 47.6942 40.6603 47.6305C40.3033 47.5827 39.9509 47.5057 39.6069 47.4004C38.5266 48.3534 37.7998 49.6307 37.5403 51.0319C37.4364 51.5515 37.4092 52.0831 37.4595 52.6103Z" fill="url(#paint0_linear_572_1490)"/>
<path d="M32.5482 43.2187C32.1563 44.8746 32.2401 46.6044 32.7905 48.2165C33.565 50.6471 34.9672 53.1748 37.2834 54.4728C37.6951 54.7032 38.1307 54.89 38.5828 55.0301C38.2841 54.7342 38.0362 54.393 37.8486 54.0197C37.6368 53.5748 37.5016 53.0985 37.4485 52.6103C36.9516 52.3899 36.4981 52.0856 36.1087 51.7114C35.4385 51.0455 34.9161 50.251 34.5744 49.3779C33.5887 46.9847 33.5887 44.3103 34.5744 41.9171C34.3337 41.7599 34.0424 41.6946 33.7558 41.7337C33.0915 41.8452 32.717 42.5679 32.5482 43.2187Z" fill="#7EB2DB"/>
<path d="M34.5854 41.917C33.5997 44.3102 33.5997 46.9846 34.5854 49.3778C34.9271 50.2509 35.4495 51.0454 36.1197 51.7113C36.5091 52.0855 36.9626 52.3898 37.4595 52.6102C37.4007 52.0841 37.4192 51.5526 37.5146 51.0317C37.7741 49.6305 38.5009 48.3533 39.5812 47.4002C38.6586 47.122 37.827 46.6112 37.1696 45.9188C36.6633 45.3737 36.2269 44.7699 35.8701 44.1211C35.5434 43.5494 35.4443 42.8698 35.0479 42.3233C34.9231 42.1589 34.7658 42.0207 34.5854 41.917Z" fill="url(#paint1_linear_572_1490)"/>
<path style="mix-blend-mode:screen" d="M35.5765 44.0635C36.3215 45.6001 37.6063 46.8228 39.1958 47.508C38.4017 48.1388 37.825 48.9937 37.544 49.9566C35.9913 48.7773 35.3416 46.1849 35.5765 44.0635Z" fill="url(#paint2_linear_572_1490)"/>
<path d="M26.3668 57.0726C26.0731 59.967 26.6494 62.8039 27.2881 65.6444C27.9464 65.7618 28.6059 65.8493 29.2666 65.9069C28.8082 64.1525 28.4794 62.3681 28.2829 60.5675C28.1419 59.7179 28.1807 58.849 28.3967 58.0146C28.7234 56.9971 29.4979 56.2168 30.3091 55.4977C30.0461 55.2474 29.7468 55.0366 29.4208 54.8721C29.1116 54.7033 28.7635 54.6147 28.4095 54.6147C28.0555 54.6147 27.7074 54.7033 27.3982 54.8721C26.6751 55.3 26.4475 56.2312 26.3668 57.0726Z" fill="#7EB2DB"/>
<path d="M28.404 58.0179C28.186 58.8506 28.1448 59.7182 28.2828 60.5671C28.4772 62.3664 28.8035 64.1496 29.2592 65.9029C29.8025 65.9533 30.3421 65.982 30.8853 65.9892C30.3278 63.0297 30.624 59.9766 31.7406 57.1729C31.5057 56.8457 31.2524 56.5257 31.0065 56.2201C30.7907 55.9687 30.5616 55.7287 30.3201 55.501C29.5015 56.2093 28.7307 57.0003 28.404 58.0179Z" fill="url(#paint3_linear_572_1490)"/>
<path d="M31.748 57.1768C30.6314 59.9804 30.3352 63.0336 30.8927 65.9931C32.416 66.0247 33.9387 65.9042 35.437 65.6335C34.8283 62.5918 33.5712 59.7101 31.748 57.1768Z" fill="#FFC761"/>
<path style="mix-blend-mode:screen" d="M30.6835 56.4253C32.3223 58.1268 33.5262 60.1846 34.1963 62.4299C33.7253 62.74 33.1707 62.9056 32.6032 62.9056C32.0357 62.9056 31.4811 62.74 31.0102 62.4299C30.5669 62.1045 30.2046 61.6852 29.9503 61.2033C29.6961 60.7213 29.5564 60.1892 29.5419 59.6469C29.4942 58.5611 30.1182 57.3637 30.6835 56.4253Z" fill="url(#paint4_linear_572_1490)"/>
<path d="M18.9814 38.4042C15.1456 40.184 12.8955 44.5886 14.294 48.5653C15.0887 50.6654 16.5095 52.4831 18.3721 53.7824C20.8755 55.6053 24.0176 56.986 27.1817 56.2993C27.567 56.2107 27.944 56.0905 28.3086 55.9397C27.2916 56.1364 26.2439 56.1229 25.2325 55.9C24.2212 55.6771 23.2685 55.2498 22.4355 54.6453C20.2111 53.0489 18.8823 50.4925 18.1959 47.8749C17.7114 46.0376 17.5242 44.0169 18.3464 42.2982C19.3779 40.1588 21.8078 38.94 24.2195 38.6811C25.3888 38.569 26.568 38.6028 27.7286 38.7818C25.0417 37.4047 21.8446 37.0811 18.9814 38.4042Z" fill="#7EB2DB"/>
<path d="M18.3501 42.2985C17.5278 44.0171 17.715 46.0378 18.1996 47.8752C18.886 50.4927 20.2148 53.0492 22.4392 54.6456C23.2722 55.25 24.2248 55.6774 25.2362 55.9003C26.2475 56.1232 27.2952 56.1367 28.3122 55.94C29.421 55.5 30.423 54.8367 31.2533 53.9931C32.0835 53.1494 32.7236 52.1443 33.1318 51.0429C33.5596 49.7972 33.7239 48.4792 33.6147 47.1694C33.5055 45.8595 33.1252 44.5851 32.4968 43.4239C31.4199 41.441 29.7567 39.823 27.7249 38.782C26.5643 38.6031 25.3851 38.5692 24.2158 38.6813C21.8115 38.9402 19.3815 40.1591 18.3501 42.2985ZM25.3243 45.5848C25.0566 45.0604 24.9228 44.4803 24.9343 43.8941C24.9458 43.3079 25.1023 42.7333 25.3904 42.2194C25.5789 41.9002 25.8489 41.6346 26.1739 41.4487C26.4989 41.2627 26.8677 41.1628 27.2441 41.1587C27.1011 40.3406 26.8313 39.5489 26.4439 38.8108C27.1278 39.498 27.6491 40.3241 27.9709 41.2306C29.2739 41.5218 30.4229 42.6329 31.0028 43.6576C31.1382 43.8907 31.2466 44.1379 31.3258 44.3947C31.4463 44.7828 31.4834 45.1912 31.4347 45.594C31.3861 45.9969 31.2528 46.3855 31.0432 46.7354C30.8795 46.9904 30.661 47.2073 30.403 47.3713C30.145 47.5352 29.8537 47.6421 29.5492 47.6846C29.4355 47.7026 29.318 47.7134 29.1822 47.7206C29.6127 50.3286 28.9986 52.9988 27.468 55.1741C28.636 52.8604 28.9822 50.2309 28.4517 47.7026C27.8055 47.5992 27.1911 47.3554 26.6537 46.9889C26.1163 46.6224 25.6696 46.1426 25.3463 45.5848H25.3243Z" fill="url(#paint5_linear_572_1490)"/>
<path d="M25.3978 42.23C25.1097 42.7439 24.9532 43.3186 24.9417 43.9048C24.9302 44.4909 25.064 45.0711 25.3317 45.5954C25.6585 46.1516 26.1084 46.6289 26.6484 46.9923C27.1883 47.3557 27.8046 47.5959 28.4518 47.6953C28.9839 50.2259 28.6377 52.8581 27.468 55.174C29.0017 53.0065 29.6235 50.3434 29.2043 47.7384C29.3254 47.7384 29.4428 47.7204 29.5713 47.7024C29.8758 47.6599 30.1671 47.553 30.4251 47.3891C30.6831 47.2252 30.9015 47.0082 31.0653 46.7532C31.2748 46.4033 31.4081 46.0147 31.4568 45.6118C31.5054 45.209 31.4684 44.8006 31.3479 44.4125C31.2687 44.1558 31.1603 43.9086 31.0249 43.6754C30.4449 42.6507 29.296 41.5397 27.9929 41.2484C27.6711 40.3419 27.1498 39.5158 26.4659 38.8286C26.8534 39.5667 27.1232 40.3585 27.2661 41.1765C26.888 41.1774 26.5166 41.275 26.1889 41.4598C25.8612 41.6446 25.5884 41.9101 25.3978 42.23ZM25.3978 44.8727C25.2974 44.5392 25.254 44.1918 25.2693 43.8444C25.2693 43.8121 25.2693 43.7761 25.2693 43.7401C25.2693 43.7042 25.2693 43.6682 25.2693 43.6359V43.5424C25.2693 43.4669 25.2913 43.395 25.306 43.3195V43.2727C25.3135 43.2288 25.3246 43.1855 25.339 43.1433C25.3611 43.0534 25.3904 42.9671 25.4198 42.8808C25.4492 42.7945 25.4859 42.7262 25.5226 42.6507C25.6158 42.461 25.7398 42.2874 25.8896 42.1365C25.919 42.1042 25.952 42.079 25.9814 42.0502C26.3119 41.7908 26.7298 41.6624 27.1524 41.6907C28.4591 41.7302 29.7218 42.87 30.3128 43.9307C30.4261 44.1308 30.5183 44.3416 30.5881 44.5599C30.9074 45.6602 30.5073 47.0085 29.2299 47.2099C28.7009 47.2823 28.1618 47.228 27.6589 47.0517C27.475 46.9901 27.2959 46.9156 27.123 46.8287C26.975 46.7543 26.8316 46.6715 26.6935 46.5806C26.2164 46.2772 25.824 45.8619 25.5519 45.3725C25.5143 45.3082 25.4823 45.2409 25.4565 45.1712C25.4289 45.0697 25.4093 44.9664 25.3978 44.862V44.8727Z" fill="#7EB2DB"/>
<path d="M25.2693 43.8334C25.254 44.1808 25.2974 44.5282 25.3978 44.8618C25.4249 44.9588 25.4592 45.0537 25.5005 45.1458C25.5264 45.2155 25.5583 45.2829 25.596 45.3471C25.868 45.8366 26.2604 46.2518 26.7375 46.5553C26.8756 46.6461 27.019 46.729 27.167 46.8033C27.3399 46.8902 27.519 46.9647 27.7029 47.0263C28.1364 47.1741 28.5957 47.2352 29.0537 47.206C29.6814 46.6919 29.8466 45.7319 29.608 44.9085C29.5391 44.6893 29.4456 44.4782 29.329 44.2793C28.7307 43.2006 27.4937 42.0788 26.1686 42.0356H26.0254L25.9337 42.1219C25.7838 42.2728 25.6599 42.4465 25.5666 42.6361C25.5299 42.7116 25.4969 42.7871 25.4638 42.8662C25.4308 42.9453 25.4051 43.0388 25.3831 43.1287C25.3686 43.1709 25.3576 43.2142 25.35 43.2581V43.3049C25.35 43.3804 25.3243 43.4523 25.3133 43.5278V43.6213C25.3133 43.6536 25.3133 43.6896 25.3133 43.7256C25.3133 43.7615 25.2693 43.8011 25.2693 43.8334Z" fill="#CFEAE4"/>
<path d="M26.0254 42.0394H26.1685C27.4753 42.0825 28.738 43.2187 29.329 44.283C29.4455 44.482 29.5391 44.693 29.6079 44.9122C29.8465 45.7356 29.6813 46.71 29.0537 47.2098C28.5957 47.239 28.1363 47.1778 27.7029 47.03C28.2058 47.2064 28.7449 47.2607 29.2739 47.1882C30.5513 46.9869 30.9514 45.6385 30.632 44.5383C30.5623 44.32 30.47 44.1091 30.3567 43.9091C29.7548 42.8484 28.5031 41.7086 27.1963 41.6691C26.7723 41.6438 26.3542 41.7761 26.0254 42.0394Z" fill="#578AB4"/>
<path d="M25.8455 44.6715C26.0633 45.0832 26.4378 45.3945 26.888 45.538C27.1124 45.6044 27.3499 45.6172 27.5804 45.5753C27.811 45.5334 28.0279 45.438 28.2131 45.2971C28.3938 45.1495 28.5271 44.9539 28.5968 44.7338C28.6665 44.5137 28.6696 44.2785 28.6059 44.0566C28.8004 44.4809 29.0647 45.0059 28.9729 45.4661C28.9394 45.6976 28.8477 45.9173 28.7061 46.1056C28.5645 46.2938 28.3775 46.4447 28.1617 46.5448C27.8898 46.6333 27.5982 46.6466 27.319 46.5831C27.0399 46.5197 26.784 46.382 26.5797 46.1852C26.1722 45.8257 26.0511 45.1928 25.8455 44.6715Z" fill="#ACDDD7"/>
<path d="M26.9138 44.4881C26.4953 44.3766 25.9961 44.0962 26.0291 43.6072C26.0461 43.5049 26.0834 43.4069 26.1391 43.3187C26.1948 43.2306 26.2677 43.1541 26.3537 43.0937C26.4396 43.0332 26.5369 42.99 26.6399 42.9664C26.743 42.9429 26.8497 42.9395 26.9541 42.9564C27.9158 43.0894 28.1581 44.8297 26.9138 44.4881Z" fill="#EDF7F7"/>
<path style="mix-blend-mode:screen" d="M21.6757 41.6584C21.5208 42.0246 21.4531 42.4206 21.478 42.8162C21.5028 43.2118 21.6194 43.5967 21.8189 43.9416C22.23 44.6362 22.7837 45.2398 23.445 45.7142C24.957 46.8846 26.6894 47.7521 28.5435 48.267C28.5142 48.0729 28.4811 47.8787 28.4407 47.6845C27.7935 47.5852 27.1773 47.345 26.6373 46.9816C26.0974 46.6182 25.6475 46.1409 25.3207 45.5847C25.0539 45.0601 24.9206 44.4801 24.9321 43.8941C24.9436 43.3081 25.0996 42.7335 25.3867 42.2193C25.5752 41.9002 25.8452 41.6346 26.1702 41.4486C26.4953 41.2626 26.8641 41.1627 27.2404 41.1586C27.1294 40.5424 26.951 39.9396 26.7082 39.3608C25.4203 39.3801 24.158 39.7164 23.0375 40.3388C22.4605 40.6373 21.9866 41.0965 21.6757 41.6584ZM31.0322 48.738C30.448 48.6769 29.8682 48.5809 29.296 48.4504C29.274 48.2059 29.2446 47.965 29.2042 47.7313C29.3254 47.7313 29.4428 47.7133 29.5713 47.6953C29.8757 47.6528 30.1671 47.5459 30.4251 47.382C30.6831 47.2181 30.9015 47.0011 31.0653 46.7461C31.2748 46.3962 31.4081 46.0076 31.4568 45.6047C31.5054 45.2019 31.4683 44.7935 31.3479 44.4054C31.2686 44.1487 31.1603 43.9014 31.0249 43.6683C30.4449 42.6436 29.296 41.5326 27.9929 41.2413C27.7534 40.5685 27.4038 39.9382 26.9578 39.3752C27.7769 39.3711 28.5897 39.5162 29.3547 39.8031C30.6672 40.772 31.7462 42.0118 32.5152 43.4346C33.2569 44.841 33.647 46.4 33.6531 47.983C33.5774 48.0881 33.49 48.1846 33.3925 48.2706C32.7795 48.8135 31.8545 48.8243 31.0322 48.738Z" fill="url(#paint6_linear_572_1490)"/>
<path d="M19.0255 62.3433C18.6275 63.5448 18.1035 64.7028 17.4618 65.7986C18.1078 65.7554 18.7539 65.6943 19.3962 65.6152C19.3772 64.5156 19.2531 63.4202 19.0255 62.3433Z" fill="#FAA747"/>
<path d="M12.3596 61.8077C11.8714 63.0302 11.4309 64.2671 11.0528 65.5183C13.1702 65.8611 15.3217 65.9553 17.4618 65.7988C18.1035 64.703 18.6275 63.545 19.0255 62.3435C19.0255 62.2931 19.0035 62.2392 18.9961 62.1888C18.7282 60.9664 18.4015 59.4095 17.6233 58.3847C17.4504 58.1313 17.2161 57.9237 16.9413 57.7807C16.6665 57.6376 16.3598 57.5635 16.0486 57.565C14.0481 57.6908 12.9689 60.2652 12.3596 61.8077Z" fill="#FFC761"/>
<path d="M19.0254 62.3433C19.2518 63.4204 19.3747 64.5158 19.3925 65.6153L20.4717 65.475C20.6772 62.3133 20.5085 59.1389 19.9688 56.0151C20.0252 58.1618 19.7061 60.3021 19.0254 62.3433Z" fill="#7EB2DB"/>
<path d="M10.1388 65.3527C10.4434 65.4139 10.7481 65.4714 11.0528 65.5181C11.4198 64.2669 11.8713 63.03 12.3595 61.8075C12.9688 60.265 14.048 57.6906 16.0302 57.5648C16.3414 57.5633 16.6481 57.6374 16.9229 57.7805C17.1977 57.9236 17.432 58.1311 17.6049 58.3846C18.3831 59.4093 18.7061 60.9662 18.9777 62.1887C18.9777 62.239 18.9961 62.2929 19.0071 62.3433C19.689 60.3022 20.0093 58.162 19.9541 56.0151C19.7449 54.7998 19.4806 53.5917 19.1613 52.4016C19.1024 52.0981 18.9648 51.8147 18.7616 51.5785C18.5585 51.3424 18.2966 51.1615 18.0013 51.0532C17.6858 50.9781 17.3577 50.968 17.0379 51.0237C16.7182 51.0794 16.4137 51.1997 16.144 51.3768C15.6053 51.7308 15.1333 52.1736 14.7491 52.6856C11.8933 56.1805 10.3517 60.8691 10.1388 65.3527Z" fill="url(#paint7_linear_572_1490)"/>
<path style="mix-blend-mode:screen" d="M18.4271 58.5393C18.1592 59.6719 17.671 60.8871 16.6468 61.3797C15.6227 61.8723 14.3013 61.4085 13.5965 60.488C12.3301 58.8341 12.8294 56.5581 13.7103 54.8466C14.3747 53.563 16.3385 50.5787 18.0747 51.5926C18.6547 51.9306 18.8089 52.7109 18.8566 53.3904C18.972 55.118 18.8272 56.8529 18.4271 58.5393Z" fill="url(#paint8_linear_572_1490)"/>
<path d="M11.5593 18.0823C12.1026 22.5444 14.1288 26.7332 16.2027 30.7351C17.2415 31.2816 18.3574 31.9216 19.3925 32.4681C19.9562 34.5898 20.0513 36.8048 19.6715 38.9653C24.378 39.2622 29.1025 38.8155 33.6641 37.6422C34.172 35.5907 34.5072 33.5019 34.6662 31.3967C35.6095 30.7027 37.6357 28.8438 37.6357 28.8438C37.6357 28.8438 38.1423 25.0433 38.223 23.7489C38.4164 21.0034 38.1586 18.2453 37.4595 15.5798C36.2189 11.0998 33.3264 6.95049 29.1235 4.79316C24.9206 2.63583 19.3889 2.84437 15.7586 5.82868C12.2348 8.71232 11.0308 13.6202 11.5593 18.0823Z" fill="url(#paint9_radial_572_1490)"/>
<path d="M2.77175 18.3195C3.6784 21.196 5.34122 23.8746 6.89023 26.4922C7.33071 27.2329 7.76752 27.988 8.18965 28.7574C8.38413 28.6996 8.55912 28.5916 8.6962 28.4446C9.3716 27.7578 9.48906 26.787 9.43033 25.7875C9.43033 25.7479 9.43033 25.712 9.43033 25.6688C8.6962 24.7196 7.94004 23.7632 7.22794 22.7924C5.97584 21.0917 4.97261 19.228 4.24736 17.2552C3.99089 17.2368 3.73409 17.2865 3.50409 17.3991C3.27408 17.5118 3.0794 17.6832 2.9406 17.8952C2.86382 18.028 2.80695 18.1709 2.77175 18.3195Z" fill="#FAA747"/>
<path d="M2.48545 18.992C2.44355 18.5407 2.47452 18.0856 2.57721 17.6437C2.63485 17.4225 2.73447 17.214 2.87087 17.0289C3.14382 16.6775 3.54761 16.4461 3.99409 16.3853C4.36299 16.3231 4.74198 16.354 5.09529 16.4752C5.876 16.7922 6.55457 17.3103 7.05909 17.9745C9.0182 20.3011 10.0798 23.2284 10.058 26.2443C10.058 26.3162 10.058 26.3881 10.058 26.4564C10.0176 27.5135 9.77905 28.5167 8.95682 29.2214C8.84057 29.322 8.71091 29.4067 8.5714 29.4731C7.83727 29.8147 7.16921 29.2573 6.5452 28.585C5.59077 27.5512 4.78665 26.3933 4.1556 25.144C3.18024 23.225 2.61209 21.1322 2.48545 18.992ZM6.66266 27.9558C7.15086 28.4663 7.66475 28.8906 8.18965 28.7576C8.38414 28.6998 8.55913 28.5917 8.6962 28.4448C9.37161 27.758 9.48907 26.7872 9.43034 25.7876C9.43034 25.7481 9.43034 25.7121 9.43034 25.669C9.26164 23.0574 8.23104 20.5702 6.49381 18.5821C6.04896 18.0193 5.45831 17.5836 4.78328 17.3201C4.6204 17.2698 4.45114 17.2419 4.2804 17.2374C4.02393 17.2189 3.76714 17.2687 3.53713 17.3813C3.30712 17.494 3.11244 17.6654 2.97364 17.8774C2.89008 18.0149 2.82821 18.164 2.79011 18.3197C2.70428 18.7475 2.69558 19.1868 2.76441 19.6177C3.12898 22.7314 4.49406 25.6512 6.66266 27.9558Z" fill="#7EB2DB"/>
<path d="M2.74606 19.6177C3.11576 22.7336 4.48738 25.6536 6.66266 27.9557C7.15086 28.4663 7.66475 28.8906 8.18966 28.7575C7.76753 27.9881 7.33072 27.233 6.89024 26.4923C5.33021 23.8748 3.67841 21.1853 2.77176 18.3197C2.68592 18.7475 2.67723 19.1868 2.74606 19.6177ZM6.47546 18.5821C8.21269 20.5701 9.24329 23.0573 9.41199 25.669C8.67785 24.7197 7.9217 23.7633 7.20959 22.7925C5.9575 21.0919 4.95426 19.2281 4.22901 17.2554C4.39975 17.2599 4.56901 17.2877 4.73189 17.3381C5.4168 17.5915 6.01918 18.0213 6.47546 18.5821Z" fill="#FFC761"/>
<path d="M34.49 37.4189C34.7799 37.3398 35.0699 37.2535 35.3526 37.1636C35.842 35.6271 36.3437 34.0894 36.8575 32.5505C35.8597 34.0678 35.064 35.7038 34.49 37.4189ZM9.66161 2.81885C7.6771 3.9495 6.05488 5.60116 4.97816 7.58729C3.90143 9.57343 3.41309 11.8149 3.5683 14.0586C3.63593 14.8453 3.77849 15.6241 3.9941 16.3849C3.54762 16.4457 3.14384 16.6771 2.87088 17.0285C2.73449 17.2136 2.63486 17.4221 2.57722 17.6433C2.30149 16.6476 2.139 15.625 2.0927 14.5943C1.89815 9.68995 5.0953 4.83595 9.66161 2.81885ZM10.058 26.4704C11.0785 27.7792 12.0842 29.0916 12.9725 30.483C14.5252 32.928 15.7145 35.7002 15.7769 38.5515C14.1446 38.3092 12.529 37.9694 10.939 37.5339C10.939 34.7402 9.90387 32.0435 8.57509 29.4871C8.71459 29.4206 8.84425 29.336 8.96051 29.2354C9.77907 28.5307 10.0177 27.5275 10.058 26.4704Z" fill="#7EB2DB"/>
<path d="M1.09799 11.2542C1.67262 8.46174 3.14099 5.92137 5.28989 4.00199C7.45191 2.1323 10.2526 1.0788 13.0937 0.564639C18.5116 -0.413351 24.5682 -0.309079 29.4722 2.40556C33.4368 4.62577 36.3976 8.23242 37.7606 12.5019C38.8618 16.0291 38.9756 20.0525 38.759 23.7775C38.7259 24.3492 38.6856 24.9173 38.6415 25.471C38.3824 28.5263 37.7198 31.5357 36.6704 34.424C36.5309 34.8195 35.9656 36.9804 35.5692 37.0955C35.4921 37.1171 35.415 37.1458 35.3379 37.1638C35.8274 35.6273 36.329 34.0896 36.8429 32.5507C35.845 34.068 35.0494 35.704 34.4753 37.4191C34.2 37.4982 33.9247 37.5737 33.6494 37.642C34.1574 35.5905 34.4925 33.5017 34.6515 31.3965C35.5949 30.7026 37.6211 28.8437 37.6211 28.8437C37.6211 28.8437 38.1276 25.0432 38.2084 23.7488C38.4065 21.004 38.1537 18.2459 37.4596 15.5797C36.2189 11.0996 33.3264 6.95034 29.1235 4.79301C24.9206 2.63568 19.3889 2.84422 15.7586 5.82853C12.2458 8.70498 11.0271 13.6237 11.5704 18.0858C12.1136 22.5479 14.1399 26.7367 16.2138 30.7385C17.2526 31.2851 18.3685 31.9251 19.4036 32.4716C19.9672 34.5932 20.0623 36.8082 19.6826 38.9688C18.3758 38.8897 17.0776 38.7518 15.788 38.5553C15.7256 35.704 14.5363 32.9318 12.9836 30.4868C12.0953 29.0954 11.0895 27.783 10.0691 26.4742C10.0691 26.4059 10.0691 26.334 10.0691 26.2621C10.0908 23.2462 9.02927 20.3189 7.07016 17.9923C6.56565 17.3281 5.88707 16.81 5.10635 16.4929C4.75305 16.3718 4.37406 16.3409 4.00516 16.4031C3.78954 15.6423 3.64699 14.8635 3.57936 14.0767C3.42415 11.8331 3.91248 9.59161 4.98921 7.60548C6.06594 5.61935 7.68816 3.96768 9.67266 2.83703C5.10636 4.85054 1.90921 9.70814 2.10375 14.6125C2.15005 15.6432 2.31255 16.6658 2.58828 17.6615C2.48558 18.1034 2.45462 18.5585 2.49651 19.0098C2.62233 21.1551 3.19179 23.253 4.17033 25.1762C4.80138 26.4255 5.60551 27.5834 6.55994 28.6172C7.18395 29.2895 7.84467 29.8468 8.58614 29.5053C9.91492 32.0617 10.9354 34.7584 10.95 37.5521C10.2416 37.3615 9.53684 37.1494 8.84309 36.9193C7.99516 32.824 5.66796 29.1637 3.74454 25.3812C2.77436 23.5592 1.99702 21.6448 1.42468 19.6678C0.646614 16.9267 0.534733 14.0453 1.09799 11.2542Z" fill="url(#paint10_linear_572_1490)"/>
<path style="mix-blend-mode:screen" d="M11.9557 1.24081C11.2593 2.6252 11.0428 4.19428 11.339 5.71009C11.6376 7.22067 12.2322 8.66026 13.09 9.94925C15.0684 13.0522 18.005 15.4864 21.2719 17.2015C24.5387 18.9166 28.1103 19.9377 31.7222 20.5993C32.7639 20.8326 33.836 20.9078 34.901 20.8222C35.4349 20.7755 35.9538 20.6241 36.4267 20.3771C36.8996 20.13 37.317 19.7923 37.654 19.384C39.3352 17.1691 37.9477 13.3255 36.9566 11.0854C35.6953 8.22396 33.7046 5.72794 31.1753 3.8368C25.8308 -0.103926 18.2179 -0.600113 11.9557 1.24081Z" fill="url(#paint11_linear_572_1490)"/>
<path d="M18.7392 24.4895C18.7979 24.7088 18.8567 24.9246 18.908 25.1439C20.4913 24.9929 22.0819 24.8922 23.6799 24.8419C24.5941 21.5553 24.524 18.0805 23.478 14.8318C23.2454 14.0127 22.8609 13.2424 22.3438 12.5595C22.0803 12.2177 21.7497 11.931 21.3715 11.7161C20.9933 11.5012 20.5751 11.3625 20.1414 11.3082C19.5996 11.2828 19.0603 11.3956 18.5764 11.6358C18.0925 11.8759 17.6806 12.2351 17.381 12.6781C16.7904 13.5735 16.5086 14.6309 16.5772 15.6948C16.6317 16.6537 16.788 17.6044 17.0433 18.5317C17.381 20.0023 18.4272 22.5263 18.7392 24.4895ZM31.1827 16.8705C31.124 16.3815 31.0689 15.8961 31.0176 15.4107C30.9313 14.9471 30.9313 14.4721 31.0176 14.0085C31.0662 13.7776 31.1763 13.5635 31.3369 13.3879C31.4975 13.2123 31.7026 13.0816 31.9316 13.0089C32.1053 12.9769 32.2838 12.9802 32.4562 13.0186C32.6286 13.0569 32.7911 13.1295 32.9336 13.2318C33.2195 13.4376 33.4625 13.6951 33.6494 13.9905C34.2726 14.922 34.7294 15.9507 35.0002 17.0323C35.7176 19.767 35.5717 22.6504 34.5818 25.3021C33.5687 25.187 32.5556 25.09 31.5388 25.0181C31.5388 24.8778 31.5571 24.7412 31.5645 24.6046C31.5658 22.0217 31.4347 19.4405 31.1717 16.8705H31.1827Z" fill="#58C2B2"/>
<path d="M21.0994 17.3271C21.311 17.6483 21.4847 17.9921 21.6169 18.3518C21.8466 18.9967 22.0258 19.6578 22.1528 20.3294C22.3977 21.5034 22.4914 22.7029 22.4318 23.8997C22.4356 24.2333 22.4099 24.5665 22.3547 24.8957C21.2021 24.9532 20.0495 25.0359 18.897 25.1438C18.8456 24.9245 18.7868 24.7087 18.7281 24.4894C18.4271 22.5262 17.381 20.0022 17.0433 18.5208C17.0433 18.4525 17.0139 18.3842 16.9956 18.3194C17.1466 17.7958 17.4192 17.3134 17.7921 16.91C18.8419 15.8349 20.2992 16.1405 21.0994 17.3271Z" fill="#CFEAE4"/>
<path d="M31.7589 16.7016C31.9228 16.6719 32.0916 16.6823 32.2504 16.7319C32.4092 16.7814 32.5531 16.8686 32.6693 16.9856C32.9002 17.2204 33.0812 17.4978 33.2015 17.8018C33.5819 18.6369 33.8449 19.5186 33.9834 20.423C34.2073 21.8612 34.2403 23.7956 33.6163 25.1871C32.9299 25.1152 32.2435 25.0504 31.557 25.0037C31.557 24.8635 31.5754 24.7268 31.5827 24.5902C31.5827 22.4077 31.4653 19.5564 31.2157 17.1294C31.3368 16.9262 31.5303 16.7739 31.7589 16.7016Z" fill="#CFEAE4"/>
<path d="M25.8896 26.0825C26.9911 26.6225 28.2352 26.8182 29.4539 26.6434C29.3531 28.0131 28.897 29.3348 28.1287 30.4835C28.0407 30.6093 27.9269 30.746 27.7617 30.7531C27.6954 30.747 27.6311 30.7279 27.5725 30.697C27.5138 30.6662 27.4621 30.6241 27.4203 30.5734C26.3191 29.5235 25.8272 27.5962 25.8896 26.0825Z" fill="#58C2B2"/>
<path style="mix-blend-mode:screen" d="M32.1664 8.52184C32.4086 8.75248 32.5517 9.06501 32.5665 9.39556C32.5298 9.87017 31.9829 10.1722 31.4984 10.1398C31.0183 10.06 30.5643 9.87024 30.1733 9.58612C27.5243 7.97522 24.5932 6.8597 21.5288 6.29619C21.1404 6.25205 20.7655 6.12963 20.4276 5.93663C20.265 5.83428 20.141 5.68254 20.0747 5.50461C20.0084 5.32669 20.0034 5.1324 20.0606 4.95145C20.2221 4.5919 20.6846 4.45527 21.092 4.39774C23.1448 4.07971 25.2468 4.293 27.1894 5.01643C29.1321 5.73987 30.8478 6.94831 32.1664 8.52184Z" fill="url(#paint12_linear_572_1490)"/>
<path d="M10.9023 53.1749C10.4492 53.4502 9.97836 53.6964 9.49274 53.912C9.86366 54.2963 10.2597 54.6566 10.6784 54.9906C11.6297 55.8097 12.7954 56.3526 14.0444 56.5583C15.553 56.7309 16.6762 55.7385 17.3737 54.534C17.5453 54.2787 17.6596 53.9905 17.709 53.6886C17.7583 53.3867 17.7416 53.078 17.66 52.783C17.3212 51.9076 16.7388 51.1428 15.9788 50.5753C15.887 50.4962 15.2997 50.0683 14.7161 49.6836C13.7021 51.0907 12.4041 52.279 10.9023 53.1749Z" fill="url(#paint13_linear_572_1490)"/>
<path d="M6.626 49.1371C6.57094 49.2378 6.84624 49.7879 6.89029 49.8994C7.47844 51.3948 8.36718 52.7593 9.5038 53.912C9.98942 53.6964 10.4602 53.4502 10.9133 53.1749C9.57872 52.0563 8.48659 50.687 7.7015 49.1479C8.16006 47.5421 8.81319 45.9958 9.64695 44.542C8.53104 46.0023 7.52155 47.5378 6.626 49.1371Z" fill="#7EB2DB"/>
<path d="M9.63592 44.542C8.80216 45.9958 8.14903 47.5421 7.69047 49.1479C8.47556 50.687 9.56769 52.0564 10.9023 53.1749C12.3988 52.2775 13.6917 51.0893 14.7014 49.6837C14.1141 49.2881 13.5342 48.9322 13.4828 49.0185C14.7645 46.9923 15.5288 44.6933 15.7109 42.3164C15.7512 41.7195 15.1419 41.2377 14.4775 41.1802C13.8173 41.1841 13.1751 41.3917 12.6422 41.7734C11.4893 42.5254 10.4732 43.4612 9.63592 44.542Z" fill="url(#paint14_linear_572_1490)"/>
<path style="mix-blend-mode:screen" d="M10.8656 49.6404C12.0856 47.2167 13.5977 44.9448 15.3695 42.8735C15.1492 45.1048 14.3796 47.2504 13.1267 49.1262C13.5723 49.2392 13.9854 49.4508 14.3344 49.7446C13.935 50.3839 13.3928 50.926 12.7486 51.3303C12.1706 50.7161 11.5407 50.1508 10.8656 49.6404Z" fill="url(#paint15_linear_572_1490)"/>
<defs>
<linearGradient id="paint0_linear_572_1490" x1="44.2466" y1="51.3447" x2="37.4302" y2="51.3447" gradientUnits="userSpaceOnUse">
<stop stop-color="#367992"/>
<stop offset="1" stop-color="#2D3C52"/>
</linearGradient>
<linearGradient id="paint1_linear_572_1490" x1="39.5848" y1="47.2636" x2="33.8476" y2="47.2636" gradientUnits="userSpaceOnUse">
<stop stop-color="#FFEEC5"/>
<stop offset="1" stop-color="#ADDCF6"/>
</linearGradient>
<linearGradient id="paint2_linear_572_1490" x1="42.2681" y1="47.828" x2="33.0739" y2="46.454" gradientUnits="userSpaceOnUse">
<stop stop-color="#BDBE9A"/>
<stop offset="0.16" stop-color="#9D9E80"/>
<stop offset="0.74" stop-color="#2D2E25"/>
<stop offset="1" stop-color="#010101"/>
</linearGradient>
<linearGradient id="paint3_linear_572_1490" x1="29.942" y1="55.4902" x2="30.0793" y2="65.9569" gradientUnits="userSpaceOnUse">
<stop stop-color="#FFEEC5"/>
<stop offset="1" stop-color="#ADDCF6"/>
</linearGradient>
<linearGradient id="paint4_linear_572_1490" x1="31.7443" y1="55.7817" x2="31.9591" y2="64.9865" gradientUnits="userSpaceOnUse">
<stop stop-color="#BDBE9A"/>
<stop offset="0.16" stop-color="#9D9E80"/>
<stop offset="0.74" stop-color="#2D2E25"/>
<stop offset="1" stop-color="#010101"/>
</linearGradient>
<linearGradient id="paint5_linear_572_1490" x1="31.1937" y1="39.2818" x2="20.7444" y2="54.4176" gradientUnits="userSpaceOnUse">
<stop stop-color="#FFEEC5"/>
<stop offset="1" stop-color="#ADDCF6"/>
</linearGradient>
<linearGradient id="paint6_linear_572_1490" x1="30.2247" y1="40.9249" x2="24.1583" y2="50.5457" gradientUnits="userSpaceOnUse">
<stop stop-color="#BDBE9A"/>
<stop offset="0.16" stop-color="#9D9E80"/>
<stop offset="0.74" stop-color="#2D2E25"/>
<stop offset="1" stop-color="#010101"/>
</linearGradient>
<linearGradient id="paint7_linear_572_1490" x1="15.296" y1="49.6582" x2="14.9826" y2="65.4033" gradientUnits="userSpaceOnUse">
<stop stop-color="#FFEEC5"/>
<stop offset="1" stop-color="#ADDCF6"/>
</linearGradient>
<linearGradient id="paint8_linear_572_1490" x1="16.7056" y1="51.4596" x2="15.031" y2="62.4869" gradientUnits="userSpaceOnUse">
<stop stop-color="#BDBE9A"/>
<stop offset="0.16" stop-color="#9D9E80"/>
<stop offset="0.74" stop-color="#2D2E25"/>
<stop offset="1" stop-color="#010101"/>
</linearGradient>
<radialGradient id="paint9_radial_572_1490" cx="0" cy="0" r="1" gradientUnits="userSpaceOnUse" gradientTransform="translate(28.1616 11.2173) rotate(168.886) scale(23.0961 22.659)">
<stop stop-color="#367992"/>
<stop offset="1" stop-color="#2D3C52"/>
</radialGradient>
<linearGradient id="paint10_linear_572_1490" x1="24.1351" y1="0.636551" x2="15.9656" y2="37.5528" gradientUnits="userSpaceOnUse">
<stop stop-color="#FFEEC5"/>
<stop offset="1" stop-color="#ADDCF6"/>
</linearGradient>
<linearGradient id="paint11_linear_572_1490" x1="28.7376" y1="-3.17566" x2="21.6492" y2="22.5106" gradientUnits="userSpaceOnUse">
<stop stop-color="#BDBE9A"/>
<stop offset="0.16" stop-color="#9D9E80"/>
<stop offset="0.74" stop-color="#2D2E25"/>
<stop offset="1" stop-color="#010101"/>
</linearGradient>
<linearGradient id="paint12_linear_572_1490" x1="32.9923" y1="0.316783" x2="22.3574" y2="11.8263" gradientUnits="userSpaceOnUse">
<stop stop-color="#BDBE9A"/>
<stop offset="0.16" stop-color="#9D9E80"/>
<stop offset="0.74" stop-color="#2D2E25"/>
<stop offset="1" stop-color="#010101"/>
</linearGradient>
<linearGradient id="paint13_linear_572_1490" x1="17.7444" y1="53.1317" x2="9.49274" y2="53.1317" gradientUnits="userSpaceOnUse">
<stop stop-color="#367992"/>
<stop offset="1" stop-color="#2D3C52"/>
</linearGradient>
<linearGradient id="paint14_linear_572_1490" x1="15.7256" y1="47.174" x2="7.69047" y2="47.174" gradientUnits="userSpaceOnUse">
<stop stop-color="#FFEEC5"/>
<stop offset="1" stop-color="#ADDCF6"/>
</linearGradient>
<linearGradient id="paint15_linear_572_1490" x1="20.2882" y1="45.9909" x2="10.0352" y2="47.8957" gradientUnits="userSpaceOnUse">
<stop stop-color="#BDBE9A"/>
<stop offset="0.16" stop-color="#9D9E80"/>
<stop offset="0.74" stop-color="#2D2E25"/>
<stop offset="1" stop-color="#010101"/>
</linearGradient>
</defs>
</svg>
