<svg width="16" height="16" viewBox="0 0 16 16" fill="none" xmlns="http://www.w3.org/2000/svg">
<g clip-path="url(#clip0_325_2019)">
<path d="M8.63274 10.2362L6.78546 8.4107L6.80728 8.38889C8.07273 6.97796 8.97454 5.35616 9.50547 3.63978H11.6364V2.18161H6.54546V0.727051H5.0909V2.18161H0V3.62887H8.12363C7.63272 5.0325 6.86544 6.36341 5.81816 7.52707C5.1418 6.77434 4.58179 5.95616 4.13816 5.09069H2.68364C3.21454 6.27613 3.94183 7.39616 4.8509 8.40706L1.15272 12.0616L2.18182 13.0907L5.8182 9.45433L8.08003 11.7162L8.63274 10.2362ZM12.7273 6.54525H11.2727L7.99998 15.2725H9.45454L10.2727 13.0907H13.7273L14.5454 15.2725H16L12.7273 6.54525ZM10.8182 11.6361L12 8.48342L13.1818 11.6361H10.8182Z" fill="#5C89FE"/>
</g>
<defs>
<clipPath id="clip0_325_2019">
<rect width="16" height="16" fill="white"/>
</clipPath>
</defs>
</svg>
