<svg width="105" height="139" viewBox="0 0 105 139" fill="none" xmlns="http://www.w3.org/2000/svg">
<path fill-rule="evenodd" clip-rule="evenodd" d="M77.8369 99.0644C76.3772 94.7711 73.7353 90.424 70.1708 87.1369C67.7582 84.9144 64.6391 83.1981 62.6619 80.6254C60.4834 77.7868 60.0849 73.6266 62.0703 70.9021C64.0534 68.1836 67.4742 67.5385 70.9172 67.0802C87.9646 64.8185 93.2406 52.7555 96.3224 38.9571C97.3107 34.5369 98.0091 29.9888 98.4837 25.4737L32.3851 8.67375C30.6464 12.8678 29.0884 17.1974 27.8453 21.5526C23.9649 35.1483 22.8409 48.2666 36.7394 58.3934C39.5457 60.4403 42.244 62.6404 42.6875 65.9757C43.1315 69.3174 40.7955 72.7825 37.5245 74.2364C34.5603 75.5528 31.0001 75.5718 27.8187 76.3725C23.1174 77.5587 18.7207 80.1168 15.3877 83.1919C10.1992 87.9832 8.7454 95.9262 7.30651 102.361C6.31923 106.781 5.62044 111.331 5.14589 115.845L71.2445 132.645C72.9829 128.452 74.5414 124.121 75.7836 119.766C77.5934 113.425 80.1084 105.752 77.8369 99.0644Z" fill="#F1854F"/>
<path fill-rule="evenodd" clip-rule="evenodd" d="M62.5436 85.7919C61.3053 87.2523 63.5892 89.0637 64.8268 87.6031C66.066 86.1419 63.782 84.3302 62.5436 85.7919ZM73.92 109.966C72.6817 111.426 74.9648 113.239 76.2026 111.777C77.4408 110.316 75.1581 108.504 73.92 109.966ZM66.3975 90.3633C70.6813 94.5594 74.1942 100.25 73.9511 106.422C73.8938 107.855 76.1745 107.824 76.2317 106.396C76.4988 99.6479 72.7218 93.374 68.0299 88.7766C67.0069 87.7739 65.3751 89.3607 66.3975 90.3633ZM45.8476 59.1459C46.7905 57.4801 44.2069 56.1263 43.2656 57.7949C42.3221 59.462 44.9051 60.8142 45.8476 59.1459ZM30.1451 37.5312C31.0876 35.8629 28.5049 34.5118 27.5636 36.1792C26.6205 37.8474 29.2027 39.1971 30.1451 37.5312ZM41.2062 55.3773C36.2117 52.0571 31.6955 47.1247 30.7776 41.0183C30.5658 39.5993 28.3314 40.0562 28.5427 41.4713C29.5449 48.1484 34.4295 53.6057 39.899 57.2416C41.0926 58.0348 42.3981 56.1713 41.2062 55.3773Z" fill="white"/>
<path d="M59.742 59.6724C58.1895 59.2778 57.5772 61.6868 59.1297 62.0813C60.6836 62.4763 61.2959 60.0673 59.742 59.6724ZM92.8359 34.8836C91.2825 34.4888 90.6708 36.8954 92.2242 37.2902C93.776 37.6846 94.3877 35.278 92.8359 34.8836Z" fill="white"/>
<path fill-rule="evenodd" clip-rule="evenodd" d="M57.9413 31.2732L55.4405 41.8055C54.3929 42.8234 53.106 43.6334 51.6258 44.141C46.2903 45.9695 40.4653 43.1746 38.6183 37.8995C36.7693 32.623 39.5971 26.8624 44.9335 25.0326C46.3473 24.5463 47.8499 24.3736 49.3372 24.5264L57.9413 31.2732Z" fill="white"/>
<path fill-rule="evenodd" clip-rule="evenodd" d="M49.337 24.5274C46.4932 25.8619 44.3867 28.5908 44.0123 31.9144C43.4422 36.9799 47.1089 41.5112 52.2032 42.0356C53.2871 42.1477 54.3823 42.0693 55.4392 41.8041C58.1702 39.1504 59.2765 35.0856 57.9411 31.273C56.5995 27.4413 53.1623 24.9227 49.337 24.5274Z" fill="#074785"/>
<path fill-rule="evenodd" clip-rule="evenodd" d="M81.7968 35.2954L80.221 46.0059C79.2657 47.1107 78.0543 48.0288 76.6243 48.6626C71.4668 50.9489 65.4213 48.6734 63.1226 43.5759C60.8227 38.4809 63.1397 32.498 68.2959 30.2102C69.6621 29.6024 71.1443 29.2993 72.6395 29.3221L81.7968 35.2954Z" fill="white"/>
<path fill-rule="evenodd" clip-rule="evenodd" d="M72.6399 29.3231C69.9228 30.9022 68.0605 33.8021 67.9774 37.1465C67.8483 42.2419 71.8944 46.4383 77.0162 46.5167C78.1058 46.5346 79.19 46.3614 80.2198 46.005C82.7109 43.1245 83.4602 38.9791 81.797 35.2959C80.1281 31.5957 76.4833 29.3864 72.6399 29.3231ZM83.5294 31.0026C82.3925 28.5993 80.2626 27.0584 77.6009 26.8602C76.2657 26.7612 76.22 28.8346 77.5498 28.9323C79.4948 29.0763 80.8876 30.2602 81.7022 31.9818C82.276 33.1931 84.0991 32.2064 83.5294 31.0026ZM49.7732 21.0061C47.2984 20.0367 44.6905 20.3709 42.6173 22.0517C41.5763 22.8941 42.9631 24.4361 43.9983 23.5959C45.5145 22.3693 47.3393 22.2763 49.112 22.9725C50.3604 23.4605 51.0111 21.4939 49.7732 21.0061Z" fill="#074785"/>
<path d="M45.9299 47.973C45.5493 49.5136 43.4614 50.3241 41.2679 49.7805C39.0735 49.2393 37.6035 47.5498 37.9846 46.0081C38.3654 44.4676 40.4528 43.657 42.6472 44.1995C44.8407 44.7433 46.3112 46.4304 45.9299 47.973ZM77.6571 55.0097C77.2755 56.5525 75.189 57.3596 72.9956 56.8171C70.7998 56.2755 69.331 54.5875 69.7111 53.0456C70.0937 51.5031 72.18 50.6947 74.3748 51.2373C76.568 51.7785 78.0384 53.4681 77.6571 55.0097Z" fill="#FFA4AC"/>
<path d="M56.5883 31.8718C56.0337 30.4959 55.2462 29.285 54 28.4432C53.4403 28.0656 52.9172 28.9714 53.4718 29.3478C54.4732 30.0236 55.1339 31.0432 55.5787 32.1505C55.8276 32.7665 56.8398 32.4988 56.5883 31.8718ZM52.5443 27.4075C52.3944 27.3327 52.248 27.255 52.0989 27.1807C51.8431 27.0537 51.5341 27.1093 51.3819 27.369C51.2466 27.6015 51.3154 27.9568 51.5703 28.0836C51.7193 28.1582 51.8664 28.2373 52.0149 28.3105C52.2715 28.4377 52.5798 28.3819 52.7317 28.1234C52.8681 27.8897 52.7988 27.533 52.5443 27.4075ZM56.8634 33.8207C56.8119 33.5407 56.4752 33.3854 56.2197 33.4559C55.9271 33.5372 55.804 33.8183 55.8543 34.0982C55.8548 34.0921 55.8557 34.0886 55.8579 34.0801C55.7997 34.3602 55.9417 34.6429 56.2281 34.7207C56.4912 34.7914 56.8108 34.6284 56.8687 34.3483C56.9067 34.1633 56.8967 34.0063 56.8634 33.8207Z" fill="white"/>
<path d="M55.8501 34.0959C55.8508 34.1036 55.8496 34.1135 55.8494 34.1209C55.8519 34.1141 55.8529 34.1053 55.8547 34.0983C55.8281 33.9511 55.8489 34.0601 55.8501 34.0959ZM55.8494 34.1209C55.8352 34.1958 55.847 34.1608 55.8494 34.1209V34.1209ZM80.5424 36.0143C79.9888 34.6374 79.2005 33.4287 77.9541 32.5857C77.3947 32.2081 76.8715 33.1151 77.4259 33.4902C78.4273 34.166 79.0882 35.1869 79.5337 36.2931C79.7822 36.9091 80.7941 36.6412 80.5424 36.0143ZM76.4983 31.5512C76.349 31.4752 76.2028 31.3976 76.0535 31.3242C75.7982 31.1961 75.4893 31.2503 75.3363 31.5102C75.2016 31.7441 75.2692 32.1004 75.5247 32.2248C75.6741 32.3008 75.8212 32.3799 75.97 32.4532C76.226 32.5802 76.5338 32.5255 76.6871 32.2646C76.8226 32.0322 76.7538 31.6756 76.4983 31.5512ZM80.817 37.9642C80.7667 37.6831 80.4297 37.5292 80.1742 37.5984C79.8819 37.6811 79.7582 37.962 79.8079 38.2405C79.8094 38.2346 79.81 38.2323 79.8117 38.2225C79.7538 38.5026 79.8957 38.7866 80.1831 38.8634C80.4465 38.9341 80.7646 38.7708 80.8237 38.4922C80.8605 38.3079 80.8507 38.1499 80.817 37.9642Z" fill="white"/>
<path d="M79.8048 38.2381C79.8054 38.2457 79.8044 38.2545 79.8044 38.2632C79.8059 38.2573 79.8069 38.2474 79.808 38.2401C79.7826 38.0933 79.8031 38.2024 79.8048 38.2381ZM79.8044 38.2632C79.7897 38.3379 79.8006 38.3027 79.8044 38.2632V38.2632Z" fill="white"/>
<path fill-rule="evenodd" clip-rule="evenodd" d="M62.2313 49.2555C62.2575 47.6501 59.7587 47.2644 59.734 48.8876C59.7139 50.1782 59.4035 51.5379 57.8497 51.2921C56.3687 51.0587 56.4433 49.672 56.6018 48.4938C56.8173 46.8799 54.3188 46.5117 54.1033 48.1257C53.7307 50.8942 54.5859 53.1081 57.4826 53.7912C60.3663 54.4689 62.1923 51.8229 62.2313 49.2555Z" fill="#074785"/>
<path d="M68.5134 111.897C68.2583 108.364 66.1123 105.709 64.2818 102.85C62.1779 99.5652 62.2913 96.4624 61.2579 92.833C60.2561 89.3203 56.5541 87.6533 55.2176 84.3731C54.6431 82.9632 53.67 81.6656 53.1462 80.0611C52.2502 77.7356 51.7293 73.2104 51.8536 70.5052C50.671 72.9414 48.0521 76.6686 46.1552 78.2842C44.9304 79.4445 43.4547 80.1195 42.2765 81.0839C39.5354 83.3277 35.4875 83.025 32.9304 85.6331C30.289 88.3273 28.9062 91.1086 25.4903 92.991C22.5157 94.6288 19.3631 95.9366 17.453 98.9191C16.0067 101.174 13.9702 104.251 16.3172 106.642C18.8736 109.25 24.5794 109.504 27.9956 109.415C31.7468 109.318 33.0452 111.54 35.8444 113.723C37.3795 114.969 38.8439 115.594 40.3506 115.764C41.756 116.334 43.341 116.484 45.2845 116.123C48.7861 115.541 50.9881 114.208 54.2372 116.086C57.1972 117.794 62.3314 120.296 65.8232 119.225C69.0265 118.245 68.7055 114.571 68.5134 111.897Z" fill="#F9D555"/>
<path fill-rule="evenodd" clip-rule="evenodd" d="M75.8498 128.923C75.9233 131.702 73.2148 134.047 69.8439 133.967C47.8071 133.446 26.1736 127.947 6.5624 117.883C3.56196 116.343 2.30209 112.99 3.69337 110.583C5.08749 108.17 8.42918 107.465 11.185 108.876C29.4372 118.245 49.5724 123.362 70.0828 123.846C73.1779 123.922 75.7772 126.137 75.8498 128.923ZM28.8744 9.80185C28.8013 7.02125 31.5095 4.67669 34.8799 4.75768C56.9168 5.27823 78.5505 10.7768 98.1616 20.8417C101.161 22.3797 102.421 25.7326 101.03 28.1414C99.6358 30.554 96.2943 31.2597 93.5388 29.8472C75.2863 20.4797 55.1514 15.3621 34.6412 14.8774C31.546 14.8029 28.9466 12.5872 28.8744 9.80185Z" fill="#FFA4AC"/>
<path d="M23.8909 85.1901C23.7482 84.8844 24.2366 81.2165 23.8515 81.1489C23.4651 81.0824 22.2369 84.5303 22.0009 84.7185C21.5271 85.0953 18.8453 84.764 18.7513 85.2222C18.6579 85.6792 21.1542 86.5426 21.403 87.0741C21.5416 87.3712 21.057 91.0513 21.4424 91.119C21.8284 91.1879 23.0477 87.7465 23.293 87.5532C23.7507 87.19 26.4571 87.5058 26.5514 87.0465C26.6454 86.5873 24.1295 85.7063 23.8909 85.1901ZM87.3912 49.962C87.2638 49.6892 87.6985 46.4227 87.356 46.3634C87.0123 46.3028 85.9187 49.3726 85.7086 49.5406C85.2862 49.876 82.8988 49.5831 82.8154 49.9907C82.7314 50.3969 84.9545 51.1646 85.1766 51.6384C85.2996 51.9038 84.868 55.1798 85.2113 55.2391C85.5554 55.3 86.64 52.2392 86.8588 52.0644C87.2663 51.7404 89.6754 52.0236 89.7588 51.6148C89.8441 51.2054 87.6034 50.4207 87.3912 49.962Z" fill="white"/>
<path d="M59.0618 109.766C57.5094 109.372 56.8977 111.778 58.4501 112.173C60.0035 112.568 60.6152 110.161 59.0618 109.766ZM50.4583 101.854C48.9049 101.459 48.2923 103.87 49.8458 104.264C51.3989 104.659 52.0115 102.249 50.4583 101.854ZM40.4059 87.6276C38.853 87.2329 38.2407 89.6418 39.7936 90.0365C41.347 90.4314 41.9593 88.0224 40.4059 87.6276Z" fill="#FD6085"/>
<path d="M41.0681 102.627C39.5156 102.233 38.903 104.643 40.4555 105.037C42.0089 105.432 42.6215 103.022 41.0681 102.627ZM48.9212 83.7568C47.3678 83.362 46.7558 85.7698 48.3092 86.1646C49.8621 86.5594 50.4741 84.1515 48.9212 83.7568ZM29.2394 100.338C27.6863 99.9435 27.0743 102.351 28.6275 102.746C30.1802 103.141 30.7921 100.733 29.2394 100.338Z" fill="#074785"/>
<path d="M37.8513 95.7285C36.2983 95.3338 35.6863 97.7416 37.2393 98.1363C38.7922 98.531 39.4042 96.1232 37.8513 95.7285ZM47.7105 93.3976C46.1576 93.0029 45.5459 95.4095 47.0989 95.8042C48.652 96.199 49.2637 93.7923 47.7105 93.3976ZM43.9615 109.754C42.4083 109.36 41.7964 111.767 43.3495 112.162C44.9022 112.557 45.5142 110.149 43.9615 109.754Z" fill="white"/>
<path fill-rule="evenodd" clip-rule="evenodd" d="M41.5022 123.899C39.99 123.145 38.7393 125.423 40.3541 126.228C41.9909 126.999 43.0341 124.621 41.5022 123.899ZM61.126 127.491C56.0702 127.517 51.0139 126.908 46.1478 125.469C44.5758 124.987 43.7497 127.385 45.427 127.901C50.5288 129.408 55.8336 130.054 61.1367 130.026C62.8902 129.999 62.7688 127.464 61.126 127.491ZM66.2118 127.134C64.5703 127.172 64.5304 129.71 66.2837 129.668C68.0432 129.59 67.8624 127.06 66.2118 127.134ZM61.6262 15.216C63.1209 16.002 64.4202 13.7512 62.8234 12.9115C61.2037 12.105 60.1096 14.4612 61.6262 15.216ZM42.0827 11.2028C47.139 11.286 52.1811 12.0033 57.0153 13.5456C58.5754 14.0623 59.4537 11.6805 57.7876 11.1291C52.7192 9.5145 47.4301 8.75466 42.1276 8.6684C40.3735 8.65936 40.4405 11.1955 42.0827 11.2028ZM36.9909 11.451C38.6333 11.4484 38.7265 8.91371 36.9743 8.91489C35.2132 8.95581 35.3394 11.4893 36.9909 11.451ZM31.593 91.1723C30.9777 92.1155 30.2792 93.0147 29.3736 93.6979C28.4078 94.4292 27.276 94.8512 26.1342 95.2152C23.7208 95.9822 21.7264 97.5464 20.7903 99.9327C20.4007 100.927 22.0107 101.322 22.3956 100.341C22.8613 99.1535 23.7477 98.2665 24.8186 97.6061C25.8595 96.9636 27.0562 96.702 28.1764 96.2403C30.2873 95.3687 31.7983 93.8866 33.0329 91.9924C33.6186 91.0949 32.1736 90.2824 31.593 91.1723ZM34.0341 88.1742C32.9989 87.9111 32.5911 89.5156 33.6262 89.7787C34.6614 90.0418 35.0692 88.4373 34.0341 88.1742ZM20.5807 102.102C19.5446 101.839 19.1365 103.445 20.1725 103.708C21.2081 103.971 21.6163 102.366 20.5807 102.102ZM62.0446 103.767C60.7577 101.92 60.6174 99.7715 60.3549 97.606C60.0851 95.3789 59.4789 93.3447 57.9427 91.6511C57.2232 90.857 56.066 92.0444 56.7802 92.8322C58.2743 94.4809 58.5834 96.561 58.8183 98.6908C59.0488 100.786 59.3879 102.846 60.6198 104.613C61.2291 105.484 62.6559 104.643 62.0446 103.767ZM63.0736 105.744C62.0384 105.481 61.631 107.084 62.6661 107.347C63.7017 107.611 64.1092 106.007 63.0736 105.744ZM55.7462 89.1822C54.7104 88.9189 54.3026 90.5235 55.3384 90.7867C56.3731 91.0495 56.7809 89.4451 55.7462 89.1822Z" fill="white"/>
</svg>
