<svg width="119" height="184" viewBox="0 0 119 184" fill="none" xmlns="http://www.w3.org/2000/svg">
<g clip-path="url(#clip0_366_1815)">
<path d="M18.48 146.32C18.3355 147.678 17.9672 149.002 17.39 150.24C16.8815 151.283 16.2059 152.235 15.39 153.06C10.8 154.49 5.77998 153.91 2.38998 149.92C1.05609 148.287 0.225078 146.301 -0.00214166 144.205C-0.229361 142.108 0.156986 139.991 1.10998 138.11C1.99204 136.544 3.23907 135.215 4.74505 134.235C6.25103 133.255 7.97142 132.653 9.75997 132.48C10.7319 132.342 11.6916 132.128 12.63 131.84C15.5728 134.486 17.5531 138.036 18.26 141.93C18.543 143.375 18.6171 144.854 18.48 146.32Z" fill="url(#paint0_linear_366_1815)"/>
<path d="M31.8699 120.21C32.9378 124.812 32.7094 129.62 31.2099 134.1C29.0999 140.87 25.2799 147.89 18.9699 151.51C17.8471 152.148 16.6607 152.668 15.4299 153.06C16.2459 152.235 16.9215 151.283 17.4299 150.24C18.0071 149.002 18.3755 147.678 18.5199 146.32C19.8758 145.711 21.1119 144.864 22.1699 143.82C23.9951 141.969 25.4212 139.764 26.3599 137.34C29.0396 130.679 29.0396 123.24 26.3599 116.58C27.0168 116.145 27.8104 115.967 28.5899 116.08C30.3899 116.39 31.4099 118.39 31.8699 120.21Z" fill="#7EB2DB"/>
<path d="M26.32 116.58C28.9997 123.241 28.9997 130.679 26.32 137.34C25.3813 139.764 23.9552 141.969 22.13 143.82C21.0719 144.864 19.8358 145.711 18.48 146.32C18.6402 144.857 18.5896 143.379 18.33 141.93C17.6367 138.042 15.6744 134.494 12.75 131.84C15.2644 131.064 17.5302 129.639 19.32 127.71C20.7015 126.193 21.8935 124.514 22.87 122.71C23.75 121.12 24.03 119.24 25.1 117.76C25.4264 117.291 25.8408 116.891 26.32 116.58Z" fill="url(#paint1_linear_366_1815)"/>
<path style="mix-blend-mode:screen" d="M23.62 122.55C21.5933 126.826 18.0925 130.227 13.76 132.13C15.919 133.888 17.4891 136.264 18.26 138.94C22.46 135.66 24.26 128.45 23.62 122.55Z" fill="url(#paint2_linear_366_1815)"/>
<path d="M48.75 158.73C49.54 166.79 47.9699 174.68 46.2299 182.58C44.4399 182.9 42.65 183.14 40.84 183.31C42.0768 178.427 42.9558 173.461 43.47 168.45C43.8539 166.087 43.7484 163.67 43.16 161.35C42.28 158.53 40.16 156.35 37.96 154.35C38.6732 153.652 39.4852 153.062 40.3699 152.6C41.2147 152.132 42.1644 151.887 43.13 151.887C44.0955 151.887 45.0452 152.132 45.89 152.6C47.87 153.8 48.49 156.39 48.75 158.73Z" fill="#7EB2DB"/>
<path d="M43.16 161.36C43.7485 163.681 43.854 166.097 43.47 168.46C42.9455 173.468 42.0565 178.431 40.81 183.31C39.33 183.44 37.8601 183.52 36.3801 183.55C37.8988 175.319 37.0919 166.828 34.05 159.03C34.69 158.11 35.38 157.23 36.05 156.38C36.6345 155.659 37.2623 154.975 37.93 154.33C40.17 156.33 42.28 158.54 43.16 161.36Z" fill="url(#paint3_linear_366_1815)"/>
<path d="M34.05 159.03C37.0919 166.827 37.8988 175.319 36.38 183.55C32.2304 183.627 28.0833 183.292 24 182.55C25.6566 174.09 29.0814 166.075 34.05 159.03Z" fill="#FFC761"/>
<path style="mix-blend-mode:screen" d="M36.96 156.94C32.4864 161.667 29.2026 167.392 27.38 173.64C28.6631 174.502 30.174 174.963 31.72 174.963C33.266 174.963 34.7769 174.502 36.06 173.64C37.2675 172.735 38.2545 171.569 38.9472 170.228C39.64 168.888 40.0204 167.408 40.06 165.9C40.19 162.87 38.46 159.54 36.96 156.94Z" fill="url(#paint4_linear_366_1815)"/>
<path d="M68.8299 106.82C79.2899 111.76 85.4099 124.01 81.5999 135.08C79.4327 140.914 75.5707 145.967 70.5099 149.59C63.6799 154.66 55.1199 158.5 46.5099 156.59C45.4603 156.344 44.4333 156.009 43.4399 155.59C46.2105 156.138 49.065 156.1 51.8203 155.481C54.5756 154.861 57.1709 153.672 59.4399 151.99C65.4999 147.55 69.1199 140.43 70.9999 133.15C72.3199 128.05 72.8299 122.42 70.5799 117.64C67.7799 111.7 61.1499 108.3 54.5799 107.58C51.3941 107.273 48.1824 107.367 45.0199 107.86C52.3199 104.03 61.0299 103.13 68.8299 106.82Z" fill="#7EB2DB"/>
<path d="M70.55 117.64C72.8 122.42 72.29 128.05 70.97 133.15C69.09 140.43 65.47 147.55 59.41 151.99C57.141 153.672 54.5457 154.86 51.7904 155.48C49.035 156.1 46.1806 156.138 43.41 155.59C40.3891 154.364 37.6593 152.517 35.3975 150.169C33.1356 147.822 31.3922 145.025 30.28 141.96C29.1149 138.497 28.6675 134.833 28.9649 131.192C29.2623 127.551 30.2984 124.008 32.01 120.78C34.9421 115.262 39.4735 110.758 45.01 107.86C48.1724 107.367 51.3842 107.273 54.57 107.58C61.12 108.3 67.75 111.7 70.55 117.64ZM51.55 126.79C52.2793 125.332 52.6439 123.718 52.6125 122.088C52.5812 120.458 52.1548 118.859 51.37 117.43C50.8663 116.541 50.1412 115.797 49.265 115.272C48.3888 114.746 47.3915 114.456 46.37 114.43C46.7627 112.159 47.4977 109.961 48.55 107.91C46.6891 109.819 45.2692 112.113 44.39 114.63C40.84 115.45 37.71 118.54 36.13 121.39C35.7638 122.04 35.4688 122.727 35.25 123.44C34.9212 124.518 34.8207 125.653 34.955 126.772C35.0893 127.891 35.4554 128.97 36.03 129.94C36.4735 130.65 37.0664 131.255 37.7676 131.713C38.4688 132.171 39.2613 132.47 40.09 132.59C40.4 132.59 40.72 132.67 41.09 132.69C39.8978 139.952 41.5682 147.394 45.75 153.45C42.5595 147.018 41.6126 139.703 43.06 132.67C44.8217 132.386 46.4972 131.71 47.9631 130.692C49.4289 129.675 50.6478 128.341 51.53 126.79H51.55Z" fill="url(#paint5_linear_366_1815)"/>
<path d="M51.3499 117.45C52.1347 118.879 52.5611 120.478 52.5925 122.108C52.6238 123.738 52.2592 125.352 51.5299 126.81C50.6391 128.355 49.4131 129.681 47.942 130.69C46.471 131.699 44.7925 132.366 43.0299 132.64C41.5848 139.686 42.5425 147.012 45.7499 153.45C41.5632 147.429 39.8649 140.023 41.0099 132.78C40.6799 132.78 40.3599 132.73 40.0099 132.68C39.1812 132.56 38.3887 132.261 37.6875 131.803C36.9863 131.345 36.3934 130.74 35.9499 130.03C35.3753 129.06 35.0092 127.981 34.8749 126.862C34.7406 125.743 34.8411 124.608 35.1699 123.53C35.3887 122.817 35.6837 122.13 36.0499 121.48C37.6299 118.63 40.7599 115.54 44.3099 114.72C45.1891 112.203 46.609 109.909 48.4699 108C47.4176 110.051 46.6826 112.249 46.2899 114.52C47.3148 114.529 48.3199 114.803 49.2069 115.317C50.0939 115.83 50.8323 116.565 51.3499 117.45ZM51.3499 124.79C51.624 123.866 51.7423 122.903 51.6999 121.94C51.7049 121.843 51.7049 121.747 51.6999 121.65C51.6999 121.55 51.6999 121.45 51.6999 121.35V121.1C51.6771 120.892 51.6438 120.685 51.5999 120.48V120.34C51.5999 120.22 51.5999 120.1 51.5199 119.98C51.4399 119.86 51.3699 119.49 51.2899 119.25C51.2099 119.01 51.1099 118.83 51.0099 118.62C50.7585 118.088 50.4206 117.601 50.0099 117.18L49.7599 116.95C48.8596 116.228 47.721 115.871 46.5699 115.95C43.0099 116.07 39.5699 119.23 37.9599 122.19C37.6496 122.746 37.3982 123.332 37.2099 123.94C36.3399 127 37.4299 130.74 40.9099 131.3C42.3512 131.502 43.8198 131.351 45.1899 130.86C45.6906 130.692 46.1785 130.488 46.6499 130.25C47.0324 130.006 47.3997 129.739 47.7499 129.45C49.0461 128.598 50.1166 127.446 50.8699 126.09C50.9634 125.908 51.0468 125.721 51.1199 125.53C51.2151 125.283 51.292 125.029 51.3499 124.77V124.79Z" fill="#7EB2DB"/>
<path d="M51.75 121.92C51.7924 122.883 51.6741 123.846 51.4 124.77C51.3278 125.043 51.2341 125.311 51.12 125.57C51.0469 125.761 50.9635 125.948 50.87 126.13C50.1115 127.471 49.0414 128.61 47.75 129.45C47.3743 129.703 46.9836 129.934 46.58 130.14C46.1086 130.378 45.6207 130.582 45.12 130.75C43.9431 131.164 42.6952 131.337 41.45 131.26C39.73 129.82 39.28 127.16 39.94 124.87C40.1194 124.256 40.3711 123.665 40.69 123.11C42.33 120.16 45.74 116.99 49.3 116.88H49.69L49.94 117.11C50.3507 117.531 50.6886 118.018 50.94 118.55C51.04 118.76 51.13 118.97 51.22 119.18C51.31 119.39 51.38 119.66 51.45 119.91C51.52 120.16 51.51 120.15 51.53 120.27V120.41C51.53 120.61 51.6 120.82 51.63 121.03V121.28C51.63 121.38 51.63 121.48 51.63 121.58C51.6773 121.691 51.7173 121.804 51.75 121.92Z" fill="#CFEAE4"/>
<path d="M49.64 116.93H49.25C45.69 117.04 42.25 120.21 40.64 123.16C40.3211 123.715 40.0694 124.306 39.89 124.92C39.23 127.21 39.68 129.87 41.4 131.31C42.6451 131.387 43.8931 131.214 45.07 130.8C43.6999 131.291 42.2313 131.442 40.79 131.24C37.31 130.68 36.22 126.94 37.09 123.88C37.2783 123.272 37.5297 122.686 37.84 122.13C39.48 119.13 42.84 116.01 46.45 115.89C47.6064 115.823 48.7456 116.194 49.64 116.93Z" fill="#578AB4"/>
<path d="M50.14 124.24C49.5469 125.389 48.5218 126.256 47.29 126.65C46.6792 126.841 46.0311 126.879 45.4019 126.763C44.7728 126.646 44.1817 126.377 43.68 125.98C43.1875 125.572 42.8241 125.03 42.6342 124.419C42.4442 123.808 42.4358 123.155 42.61 122.54C42.08 123.72 41.36 125.18 41.61 126.45C41.7022 127.094 41.9523 127.704 42.3379 128.228C42.7235 128.751 43.2327 129.171 43.82 129.45C44.5604 129.7 45.3557 129.738 46.1169 129.562C46.8781 129.385 47.5752 129 48.13 128.45C49.24 127.45 49.57 125.69 50.14 124.24Z" fill="#ACDDD7"/>
<path d="M47.22 123.74C48.36 123.42 49.72 122.65 49.63 121.28C49.5343 120.706 49.2156 120.194 48.7434 119.855C48.2712 119.516 47.684 119.377 47.11 119.47C44.51 119.84 43.83 124.68 47.22 123.74Z" fill="#EDF7F7"/>
<path style="mix-blend-mode:screen" d="M61.46 115.87C61.8843 116.888 62.0697 117.99 62.0021 119.09C61.9345 120.191 61.6156 121.262 61.07 122.22C59.9471 124.147 58.439 125.822 56.64 127.14C52.5224 130.398 47.8021 132.811 42.75 134.24C42.83 133.7 42.92 133.16 43.03 132.62C44.7925 132.346 46.4711 131.679 47.9421 130.671C49.4131 129.662 50.6392 128.336 51.53 126.79C52.2593 125.332 52.6239 123.718 52.5925 122.088C52.5612 120.458 52.1348 118.859 51.35 117.43C50.8463 116.541 50.1211 115.798 49.2449 115.272C48.3688 114.746 47.3715 114.456 46.35 114.43C46.6565 112.717 47.1425 111.041 47.8 109.43C51.3094 109.479 54.7494 110.415 57.8 112.15C59.3606 113.001 60.6342 114.296 61.46 115.87ZM36 135.56C37.5947 135.389 39.1776 135.122 40.74 134.76C40.74 134.08 40.87 133.4 40.98 132.76C40.65 132.76 40.33 132.71 39.98 132.66C39.1513 132.54 38.3588 132.241 37.6576 131.783C36.9564 131.325 36.3634 130.72 35.92 130.01C35.3454 129.04 34.9793 127.962 34.845 126.842C34.7107 125.723 34.8111 124.588 35.14 123.51C35.3587 122.797 35.6538 122.11 36.02 121.46C37.6 118.61 40.73 115.52 44.28 114.7C44.9326 112.829 45.885 111.076 47.1 109.51C44.8677 109.502 42.6534 109.909 40.57 110.71C36.9921 113.403 34.0522 116.851 31.96 120.81C29.9393 124.718 28.8767 129.051 28.86 133.45C29.0609 133.747 29.2996 134.016 29.57 134.25C31.24 135.76 33.75 135.8 36 135.56Z" fill="url(#paint6_linear_366_1815)"/>
<path d="M68.75 173.39C69.8367 176.731 71.2642 179.951 73.01 183C71.25 182.88 69.5 182.71 67.74 182.5C67.7913 179.439 68.1294 176.389 68.75 173.39Z" fill="#FAA747"/>
<path d="M86.88 171.91C88.2 175.31 89.3999 178.74 90.4299 182.23C84.6608 183.176 78.7999 183.434 72.97 183C71.2242 179.951 69.7967 176.731 68.71 173.39L68.8 172.97C69.52 169.56 70.41 165.24 72.53 162.38C73.0041 161.678 73.6432 161.103 74.3911 160.706C75.139 160.308 75.973 160.1 76.82 160.1C82.27 160.45 85.21 167.61 86.88 171.91Z" fill="#FFC761"/>
<path d="M68.75 173.39C68.1328 176.389 67.798 179.439 67.75 182.5C66.75 182.38 65.75 182.24 64.81 182.1C64.2503 173.307 64.71 164.478 66.18 155.79C66.0259 161.76 66.8951 167.713 68.75 173.39Z" fill="#7EB2DB"/>
<path d="M92.92 181.76C92.09 181.94 91.26 182.1 90.43 182.23C89.43 178.74 88.2 175.31 86.88 171.91C85.21 167.61 82.27 160.45 76.82 160.1C75.973 160.1 75.139 160.308 74.3911 160.706C73.6432 161.103 73.0042 161.678 72.53 162.38C70.41 165.24 69.53 169.56 68.8 172.97L68.71 173.39C66.8517 167.714 65.9791 161.761 66.13 155.79C66.6967 152.41 67.4166 149.06 68.29 145.74C68.4453 144.895 68.8186 144.106 69.3729 143.45C69.9271 142.794 70.6431 142.294 71.45 142C72.309 141.789 73.2025 141.759 74.0737 141.912C74.9449 142.065 75.7746 142.398 76.51 142.89C77.9779 143.878 79.2636 145.113 80.31 146.54C88.15 156.26 92.34 169.3 92.92 181.76Z" fill="url(#paint7_linear_366_1815)"/>
<path style="mix-blend-mode:screen" d="M70.34 162.81C71.07 165.97 72.4 169.35 75.2 170.71C78 172.07 81.58 170.8 83.5 168.23C86.95 163.63 85.59 157.3 83.19 152.55C81.38 148.98 76.03 140.67 71.3 143.55C69.72 144.49 69.3 146.66 69.17 148.55C68.8612 153.335 69.2554 158.14 70.34 162.81Z" fill="url(#paint8_linear_366_1815)"/>
<path d="M89.05 50.2901C87.57 62.7001 82.0499 74.3501 76.4 85.4801C73.57 87.0101 70.53 88.7801 67.71 90.3101C66.1799 96.2083 65.9208 102.364 66.95 108.37C54.1288 109.194 41.2585 107.955 28.83 104.7C27.4502 98.9904 26.5372 93.1779 26.1 87.3201C23.53 85.4001 18.01 80.2301 18.01 80.2301C18.01 80.2301 16.63 69.6501 16.42 66.0601C15.8947 58.4231 16.6038 50.7514 18.52 43.3401C21.9 30.8801 29.78 19.3401 41.23 13.3401C52.68 7.34011 67.75 7.9201 77.64 16.2201C87.22 24.2301 90.53 37.8901 89.05 50.2901Z" fill="url(#paint9_radial_366_1815)"/>
<path d="M112.99 50.9598C110.52 58.9598 105.99 66.4098 101.77 73.6898C100.57 75.7498 99.38 77.8498 98.23 79.9798C97.6967 79.8268 97.218 79.525 96.85 79.1098C95.01 77.1998 94.69 74.5098 94.85 71.7298V71.3998C96.85 68.7498 98.85 66.0898 100.8 63.3998C104.206 58.6655 106.942 53.4831 108.93 47.9998C109.626 47.9471 110.324 48.0838 110.949 48.3954C111.574 48.707 112.103 49.1819 112.48 49.7698C112.707 50.1397 112.878 50.5405 112.99 50.9598Z" fill="#FAA747"/>
<path d="M113.75 52.8201C113.863 51.568 113.779 50.306 113.5 49.0801C113.341 48.4626 113.07 47.8795 112.7 47.3601C112.333 46.876 111.873 46.4695 111.348 46.164C110.823 45.8584 110.242 45.66 109.64 45.5801C108.635 45.4071 107.603 45.4932 106.64 45.8301C104.511 46.703 102.661 48.1416 101.29 49.9901C95.9507 56.4604 93.0553 64.6014 93.11 72.9901C93.11 73.2001 93.11 73.3901 93.11 73.5901C93.22 76.5301 93.87 79.3101 96.11 81.2701C96.4242 81.5531 96.7779 81.7889 97.16 81.9701C99.16 82.9201 100.99 81.3701 102.68 79.5101C105.278 76.6297 107.469 73.4062 109.19 69.9301C111.855 64.5953 113.407 58.7738 113.75 52.8201ZM102.37 77.7601C101.04 79.1701 99.64 80.3601 98.21 79.9801C97.6767 79.8271 97.198 79.5253 96.83 79.1101C94.99 77.2001 94.67 74.5101 94.83 71.7301V71.4001C95.286 64.1328 98.094 57.2111 102.83 51.6801C104.043 50.1178 105.652 48.9092 107.49 48.1801C107.937 48.0391 108.402 47.9617 108.87 47.9501C109.566 47.8974 110.264 48.0341 110.889 48.3457C111.514 48.6573 112.043 49.1322 112.42 49.7201C112.648 50.1061 112.816 50.5241 112.92 50.9601C113.154 52.1501 113.178 53.3719 112.99 54.5701C112.002 63.2278 108.291 71.3481 102.39 77.7601H102.37Z" fill="#7EB2DB"/>
<path d="M113.06 54.57C112.053 63.236 108.316 71.3573 102.39 77.76C101.06 79.17 99.66 80.36 98.23 79.98C99.38 77.85 100.57 75.75 101.77 73.69C106.02 66.41 110.52 58.93 112.99 50.96C113.224 52.15 113.248 53.3718 113.06 54.57ZM102.9 51.68C98.164 57.211 95.356 64.1327 94.9 71.4C96.9 68.75 98.9 66.09 100.85 63.4C104.256 58.6657 106.992 53.4833 108.98 48C108.512 48.0116 108.047 48.089 107.6 48.23C105.753 48.9389 104.13 50.1303 102.9 51.68Z" fill="#FFC761"/>
<path d="M26.58 104.08C25.79 103.85 25.01 103.62 24.23 103.37C22.8967 99.0898 21.53 94.8132 20.13 90.5398C22.8505 94.7586 25.0182 99.3091 26.58 104.08ZM94.22 7.83984C99.6288 10.9843 104.05 15.5794 106.983 21.1054C109.917 26.6314 111.246 32.868 110.82 39.1098C110.635 41.2978 110.247 43.4638 109.66 45.5798C110.262 45.6597 110.843 45.8582 111.368 46.1637C111.893 46.4692 112.353 46.8758 112.72 47.3598C113.09 47.8793 113.361 48.4623 113.52 49.0798C114.271 46.3105 114.714 43.4665 114.84 40.5998C115.37 26.9598 106.66 13.4498 94.22 7.83984ZM93.14 73.6298C90.37 77.2598 87.62 80.9098 85.2 84.7898C80.97 91.5798 77.73 99.2898 77.56 107.22C82.0082 106.561 86.4128 105.636 90.75 104.45C90.75 96.6798 93.57 89.1798 97.19 82.0598C96.8079 81.8787 96.4542 81.6429 96.14 81.3598C93.9 79.3498 93.25 76.5698 93.14 73.6298Z" fill="#7EB2DB"/>
<path d="M117.55 31.31C115.987 23.5425 111.986 16.4765 106.13 11.14C100.24 5.93 92.6099 3 84.8699 1.57C70.1099 -1.15 53.61 -0.860003 40.25 6.69C29.4512 12.8672 21.3857 22.8972 17.67 34.77C14.67 44.58 14.36 55.77 14.95 66.14C15.04 67.73 15.15 69.3 15.27 70.85C15.9781 79.3469 17.7831 87.7165 20.64 95.75C21.03 96.84 22.56 102.85 23.64 103.18L24.27 103.37C22.9366 99.09 21.57 94.8133 20.17 90.54C22.8904 94.7588 25.0582 99.3093 26.62 104.08L28.87 104.7C27.4902 98.9903 26.5772 93.1778 26.14 87.32C23.57 85.4 18.05 80.23 18.05 80.23C18.05 80.23 16.67 69.65 16.46 66.06C15.9347 58.423 16.6438 50.7513 18.56 43.34C21.94 30.88 29.82 19.34 41.27 13.34C52.72 7.34 67.79 7.92 77.68 16.22C87.2599 24.22 90.57 37.9 89.09 50.3C87.6099 62.7 82.09 74.36 76.44 85.49C73.61 87.02 70.57 88.79 67.75 90.32C66.2199 96.2181 65.9608 102.374 66.99 108.38C70.55 108.16 74.0866 107.777 77.6 107.23C77.77 99.3 81.01 91.59 85.24 84.8C87.66 80.92 90.41 77.27 93.1799 73.64C93.1799 73.44 93.1799 73.25 93.1799 73.04C93.1253 64.6513 96.0206 56.5103 101.36 50.04C102.731 48.1915 104.581 46.7529 106.71 45.88C107.672 45.5431 108.705 45.457 109.71 45.63C110.296 43.514 110.685 41.348 110.87 39.16C111.296 32.9181 109.967 26.6816 107.033 21.1555C104.1 15.6295 99.6787 11.0345 94.27 7.89C106.71 13.5 115.42 27.01 114.89 40.65C114.764 43.5167 114.321 46.3606 113.57 49.13C113.849 50.3559 113.933 51.6179 113.82 52.87C113.482 58.8373 111.931 64.673 109.26 70.02C107.535 73.4786 105.344 76.685 102.75 79.55C101.06 81.41 99.2599 82.96 97.2299 82.01C93.6099 89.13 90.8299 96.63 90.7899 104.4C92.7199 103.87 94.64 103.28 96.53 102.63C98.84 91.25 105.18 81.07 110.42 70.55C113.069 65.4819 115.187 60.1536 116.74 54.65C118.83 47.0402 119.108 39.0464 117.55 31.31Z" fill="url(#paint10_linear_366_1815)"/>
<path style="mix-blend-mode:screen" d="M87.97 3.45021C89.8672 7.30049 90.457 11.6644 89.65 15.8802C88.8366 20.0815 87.2168 24.0853 84.88 27.6702C79.48 36.3302 71.47 43.1002 62.59 47.8602C53.71 52.6202 43.97 55.4702 34.13 57.3102C31.2899 57.9669 28.3652 58.1794 25.46 57.9402C24.0061 57.8081 22.5934 57.3861 21.3053 56.6991C20.0171 56.0121 18.8797 55.074 17.96 53.9402C13.39 47.7802 17.17 37.0802 19.87 30.8602C23.2963 22.8988 28.7175 15.9553 35.61 10.7002C50.18 -0.289792 70.91 -1.66979 87.97 3.45021Z" fill="url(#paint11_linear_366_1815)"/>
<path d="M69.5199 68.1102C69.3599 68.7202 69.1999 69.3302 69.0599 69.9402C64.7466 69.5202 60.4133 69.2369 56.0599 69.0902C53.5744 59.9489 53.7653 50.2862 56.6099 41.2502C57.2652 38.9707 58.3291 36.8293 59.7499 34.9302C61.1858 33.0334 63.3142 31.7822 65.6699 31.4502C67.1458 31.3814 68.6142 31.6962 69.9321 32.364C71.2501 33.0317 72.3725 34.0295 73.1899 35.2602C74.798 37.7546 75.5654 40.6982 75.3799 43.6602C75.237 46.3244 74.8113 48.9659 74.1099 51.5402C73.1899 55.6402 70.3399 62.6602 69.5199 68.1102ZM35.6199 46.9202C35.7799 45.5602 35.9299 44.2102 36.0799 42.9202C36.2938 41.6274 36.2769 40.307 36.0299 39.0202C35.9004 38.3769 35.6013 37.7799 35.1635 37.2911C34.7257 36.8023 34.1651 36.4395 33.5399 36.2402C33.0668 36.1476 32.5796 36.155 32.1094 36.2618C31.6393 36.3685 31.1967 36.5724 30.8099 36.8602C30.0313 37.4287 29.3693 38.1417 28.8599 38.9602C27.1622 41.551 25.9178 44.4118 25.1799 47.4202C23.2362 55.0268 23.6336 63.043 26.3199 70.4202C29.0799 70.0902 31.8499 69.8302 34.6099 69.6202C34.6099 69.2402 34.5599 68.8602 34.5399 68.4802C34.5299 62.1102 34.8899 53.8302 35.6199 46.9202Z" fill="#58C2B2"/>
<path d="M63.06 48.1902C62.4853 49.0882 62.0124 50.0475 61.65 51.0502C61.0229 52.8433 60.5348 54.6821 60.19 56.5502C59.5229 59.8121 59.2675 63.1447 59.43 66.4702C59.4196 67.4012 59.4899 68.3313 59.64 69.2502C62.78 69.3969 65.92 69.6269 69.06 69.9402C69.2 69.3302 69.36 68.7202 69.52 68.1102C70.34 62.6602 73.19 55.6402 74.11 51.5102C74.11 51.3202 74.2 51.1402 74.24 50.9502C73.8284 49.4938 73.0858 48.1522 72.07 47.0302C69.21 44.0502 65.24 44.9002 63.06 48.1902Z" fill="#CFEAE4"/>
<path d="M34.02 46.4498C33.5744 46.3661 33.115 46.3935 32.6824 46.5295C32.2499 46.6655 31.8575 46.9061 31.54 47.2298C30.9131 47.8845 30.4205 48.6557 30.09 49.4998C29.0536 51.8223 28.3371 54.2746 27.96 56.7898C27.35 60.7898 27.26 66.1798 28.96 70.0398C30.83 69.8498 32.7 69.6698 34.57 69.5298C34.57 69.1498 34.52 68.7698 34.5 68.3898C34.5 62.3098 34.82 54.3898 35.5 47.6398C35.1729 47.072 34.6448 46.6474 34.02 46.4498Z" fill="#CFEAE4"/>
<path d="M50.01 72.5498C47.0069 74.0438 43.619 74.5845 40.3 74.0998C40.5807 77.9109 41.8227 81.5888 43.91 84.7898C44.15 85.1398 44.46 85.5198 44.91 85.5298C45.0901 85.515 45.2653 85.464 45.4251 85.3798C45.5849 85.2956 45.7261 85.1799 45.84 85.0398C48.84 82.1098 50.18 76.7498 50.01 72.5498Z" fill="#58C2B2"/>
<path style="mix-blend-mode:screen" d="M32.9099 23.6998C32.2512 24.3461 31.8618 25.2179 31.8199 26.1398C31.9199 27.4598 33.4099 28.2998 34.7299 28.1998C36.0402 27.9862 37.279 27.4578 38.3399 26.6598C45.5606 22.1878 53.5441 19.0859 61.8899 17.5098C62.9503 17.3965 63.9737 17.0554 64.8899 16.5098C65.3349 16.2292 65.6743 15.8091 65.8553 15.3152C66.0362 14.8213 66.0484 14.2814 65.8899 13.7798C65.4599 12.7798 64.1899 12.3998 63.0899 12.2298C57.4961 11.3465 51.7686 11.9402 46.4749 13.9521C41.1812 15.964 36.5051 19.3242 32.9099 23.6998Z" fill="url(#paint12_linear_366_1815)"/>
<path d="M90.84 147.89C92.0764 148.655 93.3588 149.343 94.68 149.95C93.6723 151.022 92.5932 152.024 91.45 152.95C88.8607 155.231 85.684 156.742 82.28 157.31C78.17 157.8 75.12 155.03 73.21 151.68C72.7438 150.971 72.4332 150.171 72.2987 149.334C72.1643 148.496 72.209 147.639 72.43 146.82C73.3501 144.384 74.9373 142.256 77.01 140.68C77.26 140.46 78.86 139.27 80.45 138.19C83.2134 142.1 86.7497 145.401 90.84 147.89Z" fill="url(#paint13_linear_366_1815)"/>
<path d="M102.52 136.67C102.67 136.95 101.92 138.48 101.8 138.79C100.193 142.947 97.7722 146.741 94.68 149.95C93.3588 149.343 92.0763 148.655 90.84 147.89C94.478 144.781 97.4537 140.972 99.59 136.69C98.3389 132.228 96.5596 127.931 94.29 123.89C97.3324 127.95 100.083 132.221 102.52 136.67Z" fill="#7EB2DB"/>
<path d="M94.29 123.89C96.5596 127.93 98.3389 132.227 99.59 136.69C97.4537 140.972 94.478 144.781 90.84 147.89C86.7487 145.398 83.2124 142.093 80.45 138.18C82.05 137.09 83.63 136.1 83.77 136.33C80.2908 130.692 78.2255 124.297 77.75 117.69C77.63 116.03 79.3 114.69 81.1 114.53C82.9004 114.54 84.6512 115.121 86.1 116.19C89.2453 118.275 92.0145 120.879 94.29 123.89Z" fill="url(#paint14_linear_366_1815)"/>
<path style="mix-blend-mode:screen" d="M90.9499 138.07C87.6194 131.33 83.5006 125.009 78.6799 119.24C79.2715 125.446 81.3652 131.415 84.7799 136.63C83.5784 136.95 82.4665 137.542 81.5299 138.36C82.6118 140.137 84.0861 141.642 85.8399 142.76C87.4088 141.056 89.1181 139.488 90.9499 138.07Z" fill="url(#paint15_linear_366_1815)"/>
</g>
<defs>
<linearGradient id="paint0_linear_366_1815" x1="-2.37081e-05" y1="142.81" x2="18.57" y2="142.81" gradientUnits="userSpaceOnUse">
<stop stop-color="#367992"/>
<stop offset="1" stop-color="#2D3C52"/>
</linearGradient>
<linearGradient id="paint1_linear_366_1815" x1="12.7" y1="131.45" x2="28.33" y2="131.45" gradientUnits="userSpaceOnUse">
<stop stop-color="#FFEEC5"/>
<stop offset="1" stop-color="#ADDCF6"/>
</linearGradient>
<linearGradient id="paint2_linear_366_1815" x1="5.39001" y1="133.03" x2="30.47" y2="129.35" gradientUnits="userSpaceOnUse">
<stop stop-color="#BDBE9A"/>
<stop offset="0.16" stop-color="#9D9E80"/>
<stop offset="0.74" stop-color="#2D2E25"/>
<stop offset="1" stop-color="#010101"/>
</linearGradient>
<linearGradient id="paint3_linear_366_1815" x1="38.97" y1="154.34" x2="38.58" y2="183.45" gradientUnits="userSpaceOnUse">
<stop stop-color="#FFEEC5"/>
<stop offset="1" stop-color="#ADDCF6"/>
</linearGradient>
<linearGradient id="paint4_linear_366_1815" x1="34.06" y1="155.15" x2="33.46" y2="180.74" gradientUnits="userSpaceOnUse">
<stop stop-color="#BDBE9A"/>
<stop offset="0.16" stop-color="#9D9E80"/>
<stop offset="0.74" stop-color="#2D2E25"/>
<stop offset="1" stop-color="#010101"/>
</linearGradient>
<linearGradient id="paint5_linear_366_1815" x1="35.56" y1="109.26" x2="64.83" y2="150.79" gradientUnits="userSpaceOnUse">
<stop stop-color="#FFEEC5"/>
<stop offset="1" stop-color="#ADDCF6"/>
</linearGradient>
<linearGradient id="paint6_linear_366_1815" x1="38.2" y1="113.82" x2="55.22" y2="140.26" gradientUnits="userSpaceOnUse">
<stop stop-color="#BDBE9A"/>
<stop offset="0.16" stop-color="#9D9E80"/>
<stop offset="0.74" stop-color="#2D2E25"/>
<stop offset="1" stop-color="#010101"/>
</linearGradient>
<linearGradient id="paint7_linear_366_1815" x1="78.87" y1="138.11" x2="79.76" y2="181.9" gradientUnits="userSpaceOnUse">
<stop stop-color="#FFEEC5"/>
<stop offset="1" stop-color="#ADDCF6"/>
</linearGradient>
<linearGradient id="paint8_linear_366_1815" x1="75.03" y1="143.12" x2="79.78" y2="173.77" gradientUnits="userSpaceOnUse">
<stop stop-color="#BDBE9A"/>
<stop offset="0.16" stop-color="#9D9E80"/>
<stop offset="0.74" stop-color="#2D2E25"/>
<stop offset="1" stop-color="#010101"/>
</linearGradient>
<radialGradient id="paint9_radial_366_1815" cx="0" cy="0" r="1" gradientUnits="userSpaceOnUse" gradientTransform="translate(43.8175 31.1986) rotate(11.34) scale(62.97 62.97)">
<stop stop-color="#367992"/>
<stop offset="1" stop-color="#2D3C52"/>
</radialGradient>
<linearGradient id="paint10_linear_366_1815" x1="54.7899" y1="1.78" x2="77.9399" y2="104.25" gradientUnits="userSpaceOnUse">
<stop stop-color="#FFEEC5"/>
<stop offset="1" stop-color="#ADDCF6"/>
</linearGradient>
<linearGradient id="paint11_linear_366_1815" x1="42.2579" y1="-8.82941" x2="62.3224" y2="62.4066" gradientUnits="userSpaceOnUse">
<stop stop-color="#BDBE9A"/>
<stop offset="0.16" stop-color="#9D9E80"/>
<stop offset="0.74" stop-color="#2D2E25"/>
<stop offset="1" stop-color="#010101"/>
</linearGradient>
<linearGradient id="paint12_linear_366_1815" x1="30.6599" y1="0.889786" x2="60.2799" y2="32.2898" gradientUnits="userSpaceOnUse">
<stop stop-color="#BDBE9A"/>
<stop offset="0.16" stop-color="#9D9E80"/>
<stop offset="0.74" stop-color="#2D2E25"/>
<stop offset="1" stop-color="#010101"/>
</linearGradient>
<linearGradient id="paint13_linear_366_1815" x1="72.21" y1="147.77" x2="94.68" y2="147.77" gradientUnits="userSpaceOnUse">
<stop stop-color="#367992"/>
<stop offset="1" stop-color="#2D3C52"/>
</linearGradient>
<linearGradient id="paint14_linear_366_1815" x1="77.7" y1="131.21" x2="99.59" y2="131.21" gradientUnits="userSpaceOnUse">
<stop stop-color="#FFEEC5"/>
<stop offset="1" stop-color="#ADDCF6"/>
</linearGradient>
<linearGradient id="paint15_linear_366_1815" x1="65.2699" y1="127.92" x2="93.2399" y2="133" gradientUnits="userSpaceOnUse">
<stop stop-color="#BDBE9A"/>
<stop offset="0.16" stop-color="#9D9E80"/>
<stop offset="0.74" stop-color="#2D2E25"/>
<stop offset="1" stop-color="#010101"/>
</linearGradient>
<clipPath id="clip0_366_1815">
<rect width="118.53" height="183.56" fill="white"/>
</clipPath>
</defs>
</svg>
