<svg width="29" height="29" viewBox="0 0 29 29" fill="none" xmlns="http://www.w3.org/2000/svg">
<circle cx="14.5" cy="14.5" r="13.5" fill="#D9D9D9" stroke="#F2F3F3" stroke-width="2"/>
<g clip-path="url(#clip0_325_2027)">
<path d="M15.0122 10.4487C12.7476 10.4487 10.8975 12.2989 10.8975 14.5634C10.8975 15.7475 11.4155 16.8872 12.2888 17.6569C12.94 18.3081 12.8808 19.6994 12.866 19.7142C12.866 19.7882 12.8808 19.8474 12.94 19.9066C12.9844 19.951 13.0584 19.9806 13.1176 19.9806H16.8919C16.9659 19.9806 17.0251 19.951 17.0695 19.9066C17.1139 19.8622 17.1435 19.7882 17.1435 19.7142C17.1435 19.6994 17.0695 18.3081 17.7208 17.6569L17.7652 17.6125C18.6236 16.828 19.1269 15.7179 19.1269 14.5634C19.1269 12.2989 17.2767 10.4487 15.0122 10.4487ZM17.3803 17.272C17.3655 17.2868 17.3359 17.3164 17.3359 17.3312C16.7587 17.9529 16.6551 18.9742 16.6403 19.4626H13.3692C13.3544 18.9742 13.2508 17.9085 12.6292 17.272C11.8447 16.5912 11.3859 15.5995 11.3859 14.5486C11.3859 12.5505 12.9992 10.9372 14.9974 10.9372C16.9955 10.9372 18.6088 12.5505 18.6088 14.5486C18.6088 15.5995 18.1648 16.5912 17.3803 17.272Z" fill="#F2F3F3"/>
<path d="M14.9974 11.4995C14.8641 11.4995 14.7457 11.6179 14.7457 11.7512C14.7457 11.8844 14.8641 12.0028 14.9974 12.0028C16.4923 12.0028 17.6912 13.2165 17.6912 14.6966C17.6912 14.8298 17.8096 14.9482 17.9428 14.9482C18.076 14.9482 18.1944 14.8298 18.1944 14.6966C18.2092 12.9352 16.7735 11.4995 14.9974 11.4995ZM16.6403 20.2618H13.3544C13.014 20.2618 12.7328 20.543 12.7328 20.8834C12.7328 21.2239 13.014 21.5051 13.3544 21.5051H16.6255C16.9807 21.4903 17.2619 21.2239 17.2619 20.8834C17.2619 20.543 16.9807 20.2618 16.6403 20.2618ZM16.6403 20.987H13.3544C13.2952 20.987 13.236 20.9426 13.236 20.8686C13.236 20.7946 13.2804 20.7502 13.3544 20.7502H16.6255C16.6847 20.7502 16.7439 20.7946 16.7439 20.8686C16.7439 20.9426 16.6995 20.987 16.6403 20.987ZM16.1518 21.7567H13.8429C13.5024 21.7567 13.2212 22.0379 13.2212 22.3784C13.2212 22.7188 13.5024 23 13.8429 23H16.1518C16.4923 23 16.7735 22.7188 16.7735 22.3784C16.7735 22.0231 16.4923 21.7567 16.1518 21.7567ZM16.1518 22.482H13.8429C13.7837 22.482 13.7245 22.4376 13.7245 22.3636C13.7245 22.2895 13.7689 22.2451 13.8429 22.2451H16.1518C16.2111 22.2451 16.2703 22.2895 16.2703 22.3636C16.2703 22.4376 16.2111 22.482 16.1518 22.482ZM14.9974 9.22017C15.1454 9.22017 15.249 9.10176 15.249 8.96855V7.25162C15.249 7.11841 15.1306 7 14.9974 7C14.8641 7 14.7457 7.11841 14.7457 7.25162V8.96855C14.7457 9.10176 14.8641 9.22017 14.9974 9.22017ZM19.1861 8.2729C19.0677 8.18409 18.9197 8.22849 18.8456 8.3321L17.8984 9.75301C17.8096 9.87142 17.8392 10.0342 17.9576 10.1082C18.002 10.1378 18.0464 10.1526 18.0908 10.1526C18.1796 10.1526 18.2536 10.1082 18.298 10.0342L19.2453 8.61332C19.3341 8.50971 19.3045 8.3469 19.1861 8.2729ZM11.9927 10.0934C12.0371 10.0934 12.0815 10.0786 12.1259 10.049C12.2444 9.97502 12.274 9.81221 12.1999 9.6938L11.2823 8.25809C11.2083 8.13969 11.0455 8.11008 10.9271 8.18409C10.8086 8.25809 10.779 8.42091 10.853 8.53932L11.7707 9.97502C11.8299 10.0638 11.9039 10.0934 11.9927 10.0934ZM10.2018 11.6623L8.70689 10.8483C8.58848 10.7891 8.42567 10.8335 8.36646 10.9519C8.29246 11.0703 8.33686 11.2331 8.47007 11.2923L9.96498 12.1064C10.0094 12.1212 10.039 12.136 10.0834 12.136C10.1722 12.136 10.261 12.0916 10.3054 12.0028C10.3646 11.8844 10.3202 11.7216 10.2018 11.6623ZM21.6431 10.9519C21.5839 10.8335 21.421 10.7891 21.3026 10.8483L19.7929 11.6623C19.6745 11.7216 19.6301 11.8844 19.6893 12.0028C19.7337 12.0916 19.8225 12.136 19.9113 12.136C19.9557 12.136 20.0001 12.1212 20.0297 12.1064L21.5394 11.2923C21.6579 11.2331 21.7023 11.0703 21.6431 10.9519Z" fill="#F2F3F3"/>
</g>
<defs>
<clipPath id="clip0_325_2027">
<rect width="16" height="16" fill="white" transform="translate(7 7)"/>
</clipPath>
</defs>
</svg>
