<svg width="20" height="20" viewBox="0 0 20 20" fill="none" xmlns="http://www.w3.org/2000/svg">
<path d="M19.4608 8.69902L19.4594 8.69766L11.301 0.53957C10.9532 0.191602 10.4909 0 9.99911 0C9.50732 0 9.04497 0.191484 8.69708 0.539414L0.542902 8.69336C0.540168 8.69609 0.537433 8.69898 0.534699 8.70176C-0.179442 9.41996 -0.178192 10.5853 0.538214 11.3017C0.86548 11.6291 1.29778 11.8188 1.75997 11.8386C1.77872 11.8405 1.79767 11.8414 1.81673 11.8414H2.14189V17.8453C2.14189 19.0334 3.10853 20 4.29689 20H7.48868C7.8122 20 8.07462 19.7377 8.07462 19.4141V14.707C8.07462 14.1649 8.51564 13.7239 9.05779 13.7239H10.9404C11.4826 13.7239 11.9235 14.1649 11.9235 14.707V19.4141C11.9235 19.7377 12.1858 20 12.5095 20H15.7013C16.8897 20 17.8563 19.0334 17.8563 17.8453V11.8414H18.1578C18.6495 11.8414 19.1118 11.6499 19.4599 11.302C20.177 10.5844 20.1773 9.41711 19.4608 8.69902Z" fill="#BDBDBD"/>
</svg>
