<svg width="28" height="28" viewBox="0 0 28 28" fill="none" xmlns="http://www.w3.org/2000/svg">
<path d="M27.2451 12.1786L27.2431 12.1767L15.8214 0.755398C15.3345 0.268242 14.6872 0 13.9988 0C13.3102 0 12.663 0.268078 12.1759 0.75518L0.760063 12.1707C0.756234 12.1745 0.752406 12.1786 0.748578 12.1825C-0.251219 13.1879 -0.249469 14.8194 0.7535 15.8224C1.21167 16.2808 1.8169 16.5463 2.46396 16.5741C2.49021 16.5767 2.51673 16.5779 2.54342 16.5779H2.99864V24.9834C2.99864 26.6467 4.35194 28 6.01564 28H10.4842C10.9371 28 11.3045 27.6328 11.3045 27.1797V20.5898C11.3045 19.8308 11.9219 19.2135 12.6809 19.2135H15.3166C16.0756 19.2135 16.6929 19.8309 16.6929 20.5898V27.1797C16.6929 27.6328 17.0602 28 17.5133 28H21.9818C23.6455 28 24.9988 26.6467 24.9988 24.9834V16.578H25.421C26.1092 16.578 26.7565 16.3099 27.2438 15.8228C28.2479 14.8182 28.2482 13.184 27.2451 12.1786Z" fill="#003865"/>
</svg>
