<svg width="71" height="71" viewBox="0 0 71 71" fill="none" xmlns="http://www.w3.org/2000/svg">
<path d="M65.5885 38.8511C65.471 38.8512 65.3551 38.8242 65.2498 38.7723C65.1445 38.7203 65.0526 38.6448 64.9812 38.5516C64.9098 38.4583 64.8608 38.3499 64.8381 38.2347C64.8154 38.1194 64.8196 38.0005 64.8503 37.8872C66.5493 31.6084 65.6836 25.0541 62.4129 19.4316C59.142 13.8092 53.8722 9.8168 47.5743 8.19004C42.1158 6.77994 36.4928 6.1086 30.8557 6.194C24.3519 6.29232 18.2903 8.9318 13.7877 13.6261C9.28519 18.3204 6.90087 24.4868 7.07379 30.9891C7.0792 31.1917 7.00389 31.3882 6.86445 31.5352C6.72501 31.6823 6.53284 31.768 6.33023 31.7734C5.90853 31.7864 5.55728 31.4518 5.5459 31.0299C5.36203 24.1161 7.89722 17.5595 12.6846 12.5682C17.472 7.57683 23.9172 4.77025 30.8324 4.66583C36.6061 4.57849 42.3654 5.2661 47.9562 6.71027C54.6527 8.43993 60.2558 12.6848 63.7337 18.6631C67.2115 24.6414 68.132 31.6103 66.3254 38.2864C66.2816 38.4484 66.1857 38.5915 66.0526 38.6936C65.9194 38.7956 65.7563 38.851 65.5885 38.8511Z" fill="#678490"/>
<path d="M58.4373 32.6909C58.3308 24.4495 52.5148 17.1477 44.288 15.2695C40.5136 14.4067 36.6605 13.9336 32.7894 13.8577C24.1878 13.6872 16.7138 19.3934 14.5797 27.4649C13.5055 26.7833 13.6273 43.154 15.4071 41.7119C16.8725 44.6278 19.4397 46.9247 22.631 47.9906C24.4223 48.5893 26.2415 49.1011 28.0823 49.5241C22.6258 49.9139 18.4425 52.1463 18.4425 54.8422C18.4425 57.8127 23.5214 60.2207 29.7864 60.2207C32.1841 60.2207 34.4066 59.8673 36.2386 59.2651C37.4177 59.4621 38.685 59.5702 40.0061 59.5702C46.2712 59.5702 51.3501 57.1622 51.3501 54.1917C51.3501 52.682 50.0364 51.3184 47.9238 50.3416C50.3794 49.6567 52.5751 48.2553 54.2306 46.3165C55.6206 48.1549 59.6354 32.2874 58.4373 32.6909Z" fill="#D4AFB7"/>
<path d="M21.4369 51.6771C21.2698 51.6774 21.1072 51.6228 20.974 51.5219C20.8409 51.421 20.7445 51.2792 20.6996 51.1182C20.6547 50.9572 20.6638 50.786 20.7256 50.6307C20.7873 50.4754 20.8982 50.3447 21.0414 50.2585C21.7881 49.8079 22.6034 49.3732 23.4645 48.9663C23.6471 48.8847 23.8543 48.8778 24.0419 48.9472C24.2294 49.0166 24.3823 49.1567 24.4677 49.3375C24.5532 49.5183 24.5643 49.7253 24.4989 49.9143C24.4334 50.1032 24.2965 50.259 24.1175 50.3482C23.3028 50.7331 22.5335 51.1432 21.8308 51.5671C21.712 51.639 21.5758 51.6771 21.4369 51.6771ZM58.4372 33.4549C58.2362 33.4549 58.0434 33.3757 57.9004 33.2345C57.7574 33.0934 57.6758 32.9016 57.6732 32.7007C57.6237 28.8689 56.2528 25.0951 53.8133 22.074C51.3577 19.0332 47.9145 16.8811 44.118 16.0144C40.3941 15.165 36.5932 14.6983 32.7744 14.6216C28.8046 14.5427 24.8759 15.807 21.7186 18.1812C18.5845 20.5379 16.3116 23.9043 15.3185 27.6602C15.2667 27.8562 15.1392 28.0235 14.964 28.1254C14.7889 28.2273 14.5804 28.2555 14.3844 28.2037C14.1885 28.1519 14.0212 28.0244 13.9192 27.8492C13.8173 27.674 13.7892 27.4655 13.841 27.2696C14.9214 23.1833 17.3928 19.5218 20.8002 16.9597C24.2292 14.3811 28.4907 13.0086 32.8048 13.0936C36.7279 13.1724 40.6327 13.6518 44.4583 14.5244C48.5877 15.4672 52.3324 17.8073 55.0025 21.1138C57.6564 24.4002 59.1477 28.5081 59.2017 32.6808C59.2043 32.8835 59.1262 33.0789 58.9848 33.224C58.8434 33.3692 58.6501 33.4522 58.4474 33.4549H58.4372ZM42.1865 51.7105C41.9858 51.7099 41.7933 51.6304 41.6508 51.4891C41.5082 51.3478 41.427 51.1561 41.4246 50.9554C41.4222 50.7547 41.4989 50.5611 41.638 50.4164C41.7772 50.2718 41.9677 50.1877 42.1683 50.1823C43.2511 50.156 44.3536 50.098 45.4455 50.01C48.6478 49.7513 51.5615 48.2633 53.6495 45.8197C53.7147 45.7434 53.7943 45.6807 53.8837 45.6352C53.9731 45.5896 54.0707 45.5622 54.1707 45.5543C54.2708 45.5465 54.3714 45.5584 54.4668 45.5894C54.5622 45.6205 54.6506 45.67 54.7269 45.7352C54.8032 45.8004 54.8659 45.88 54.9115 45.9694C54.957 46.0588 54.9845 46.1563 54.9923 46.2564C55.0002 46.3564 54.9882 46.4571 54.9572 46.5525C54.9262 46.6479 54.8766 46.7363 54.8114 46.8126C52.459 49.5654 49.1764 51.2419 45.5684 51.5334C44.443 51.6242 43.3152 51.6833 42.1865 51.7105Z" fill="#B78E98"/>
<path d="M27.2356 50.088C27.1752 50.088 27.114 50.0808 27.0528 50.0658C25.4805 49.6791 23.9246 49.2285 22.389 48.7153C19.0434 47.5979 16.3214 45.2327 14.7245 42.055C14.6334 41.8739 14.6181 41.6641 14.6818 41.4717C14.7455 41.2794 14.883 41.1201 15.0641 41.0291C15.2451 40.9381 15.455 40.9228 15.6473 40.9865C15.8397 41.0502 15.9989 41.1877 16.09 41.3687C17.5043 44.183 19.9133 46.2772 22.8731 47.2658C24.3693 47.7657 25.8852 48.2047 27.4171 48.5815C27.5983 48.6261 27.757 48.7356 27.8631 48.8891C27.9692 49.0427 28.0155 49.2298 27.9931 49.4151C27.9708 49.6004 27.8814 49.7712 27.7419 49.8951C27.6023 50.0191 27.4222 50.0877 27.2356 50.088Z" fill="#B78E98"/>
<path d="M42.5099 48.1464C36.9359 48.5184 31.4854 47.8566 26.1584 46.1609C22.8893 45.1203 20.5112 42.4165 20.0504 39.2402C19.8094 37.5785 19.7713 35.941 19.936 34.3279C20.5813 28.0112 26.3761 23.3596 33.2069 23.5431C35.9724 23.6169 38.7246 23.9541 41.4261 24.5503C47.8669 25.97 52.2884 31.6871 51.5619 37.7728C51.365 39.4218 50.9553 41.0454 50.3326 42.6436C49.1176 45.7622 46.0812 47.908 42.5099 48.1464Z" fill="#FAEAC0"/>
<path d="M27.2933 36.289C27.1809 37.3477 26.3707 38.1297 25.4833 38.0355C24.596 37.9414 23.9678 37.0069 24.0801 35.9481C24.1924 34.8893 25.0027 34.1074 25.89 34.2015C26.7774 34.2957 27.4056 35.2302 27.2933 36.289ZM47.4538 38.4277C47.3415 39.4865 46.5311 40.2684 45.6438 40.1743C44.7566 40.0801 44.1284 39.1456 44.2406 38.0868C44.353 37.0281 45.1634 36.2461 46.0506 36.3403C46.9378 36.4344 47.566 37.3691 47.4538 38.4277ZM38.5698 42.0115C38.2515 42.0115 37.903 41.9719 37.5235 41.8774C37.1286 41.7791 36.8484 41.4004 36.9172 40.9994C36.9349 40.895 36.974 40.7954 37.0321 40.707C37.0902 40.6185 37.1661 40.5431 37.2549 40.4854C37.3437 40.4278 37.4435 40.3893 37.548 40.3723C37.6525 40.3553 37.7594 40.3601 37.8619 40.3866C37.9795 40.4169 38.8664 40.627 39.52 40.2561C39.787 40.1045 40.116 40.1157 40.3614 40.3002C40.7941 40.6252 40.7555 41.2853 40.2883 41.5584C39.8748 41.7999 39.3034 42.0115 38.5698 42.0115Z" fill="#605C5D"/>
<path d="M37.6709 41.1262C35.2862 42.0906 29.9893 41.027 30.3124 37.9493C30.6355 34.8716 34.771 35.5497 34.9908 38.0348C35.2106 40.5201 37.6709 41.1262 37.6709 41.1262Z" fill="#FD80A6"/>
<path d="M35.5775 42.2287C33.9864 42.2287 32.1985 41.8061 30.9717 40.882C29.9194 40.0894 29.4287 39.0477 29.5525 37.8697C29.7285 36.1935 30.8789 35.121 32.4935 35.1324C34.4484 35.1484 35.6315 36.6052 35.752 37.9678C35.9195 39.8622 37.7788 40.3651 37.8578 40.3854C38.0137 40.4258 38.153 40.5142 38.2559 40.6382C38.3588 40.7621 38.4201 40.9152 38.4311 41.0759C38.442 41.2362 38.4021 41.3958 38.3171 41.5321C38.232 41.6683 38.1061 41.7743 37.9573 41.8348C37.3199 42.0926 36.4804 42.2287 35.5775 42.2287ZM32.4657 36.6607C31.9917 36.6607 31.197 36.8422 31.0725 38.0293C31.0061 38.6624 31.2738 39.1962 31.8913 39.6613C32.8001 40.3458 34.1991 40.6843 35.449 40.7065C34.8546 40.1313 34.3352 39.2956 34.2296 38.1023C34.1506 37.2083 33.2785 36.6672 32.481 36.6607H32.4657Z" fill="#FE518E"/>
<path d="M8.47632 26.4146L8.72163 41.6306C5.26759 41.6862 2.41261 38.3251 2.34494 34.125C2.27713 29.9217 5.02228 26.4702 8.47632 26.4146Z" fill="#6EE3CE"/>
<path d="M12.1698 44.2398C10.2886 44.2702 8.7391 42.7697 8.70873 40.8885L8.48741 27.1583C8.45705 25.2771 9.95747 23.7276 11.8387 23.6972C13.7199 23.6669 15.2694 25.1673 15.2998 27.0485L15.5211 40.7787C15.5514 42.6599 14.0509 44.2094 12.1698 44.2398Z" fill="#91A2B5"/>
<path d="M8.63468 42.3962C6.76802 42.3963 5.01216 41.537 3.68049 39.969C2.36186 38.4166 1.61608 36.3452 1.58058 34.1365C1.54508 31.9277 2.2236 29.8335 3.49148 28.2393C4.79444 26.601 6.56001 25.6819 8.46328 25.6513L8.47576 25.6511C8.57611 25.6504 8.67563 25.6694 8.76865 25.707C8.86166 25.7447 8.94633 25.8003 9.01785 25.8707C9.08936 25.9411 9.1463 26.0249 9.18543 26.1174C9.22455 26.2098 9.24509 26.309 9.24588 26.4093C9.24666 26.5097 9.22767 26.6092 9.18999 26.7022C9.15231 26.7952 9.09668 26.8799 9.02628 26.9514C8.95588 27.0229 8.87208 27.0799 8.77966 27.119C8.68725 27.1581 8.58804 27.1787 8.48769 27.1794C7.05022 27.2026 5.70066 27.9168 4.68753 29.1905C3.63944 30.5083 3.07879 32.2561 3.10861 34.1117C3.13842 35.9674 3.75523 37.696 4.8452 38.9795C5.89869 40.2199 7.26557 40.8885 8.70818 40.8672L8.7208 40.8671C8.92346 40.8655 9.11846 40.9444 9.2629 41.0866C9.40734 41.2288 9.48938 41.4225 9.49098 41.6252C9.49258 41.8278 9.41361 42.0228 9.27143 42.1673C9.12926 42.3117 8.93553 42.3938 8.73286 42.3954C8.70027 42.3959 8.66741 42.3962 8.63468 42.3962Z" fill="#4ECAB3"/>
<path d="M12.1141 45.0045C9.84515 45.0048 7.9814 43.1778 7.94465 40.9009L7.72333 27.1707C7.6863 24.8712 9.5269 22.9702 11.8264 22.9332C12.9411 22.9146 13.9945 23.3322 14.7949 24.1072C15.5953 24.8822 16.046 25.9224 16.0639 27.0364L16.2852 40.7666C16.3222 43.066 14.4816 44.9669 12.1822 45.0041C12.1596 45.0044 12.1366 45.0045 12.1141 45.0045ZM11.8949 24.4611L11.851 24.4615C11.5039 24.4662 11.1611 24.5396 10.8426 24.6776C10.524 24.8156 10.236 25.0155 9.99519 25.2655C9.75302 25.5143 9.56259 25.8085 9.43493 26.1314C9.30727 26.4542 9.24492 26.7991 9.25149 27.1462L9.47281 40.8764C9.49625 42.3331 10.7013 43.4923 12.1575 43.4761C13.6144 43.4525 14.7805 42.2481 14.757 40.7914L14.5357 27.0612C14.5311 26.7141 14.4576 26.3713 14.3196 26.0528C14.1816 25.7342 13.9819 25.4462 13.7318 25.2053C13.2404 24.7266 12.5809 24.4595 11.8949 24.4611Z" fill="#678490"/>
<path d="M64.2183 33.0696L60.3977 47.8001C63.7415 48.6674 67.3076 46.0727 68.3622 42.0067C69.4175 37.9377 67.562 33.9368 64.2183 33.0696Z" fill="#6EE3CE"/>
<path d="M56.4321 49.5242C58.2533 49.9965 60.1126 48.9031 60.5849 47.0819L64.0324 33.7898C64.5047 31.9687 63.4113 30.1093 61.5901 29.637C59.769 29.1647 57.9097 30.2581 57.4373 32.0793L53.9898 45.3714C53.5175 47.1926 54.6109 49.0519 56.4321 49.5242Z" fill="#91A2B5"/>
<path d="M61.6989 48.7312C61.2017 48.7312 60.7021 48.6695 60.2063 48.5409C60.0106 48.4897 59.8431 48.3629 59.7407 48.1883C59.6383 48.0137 59.6093 47.8057 59.6601 47.6098C59.7109 47.4139 59.8374 47.2461 60.0117 47.1433C60.186 47.0405 60.394 47.0111 60.59 47.0615C63.5203 47.8215 66.6751 45.4676 67.6228 41.8143C68.5702 38.1609 66.9572 34.5703 64.0269 33.8104C63.9297 33.7852 63.8385 33.7411 63.7584 33.6807C63.6783 33.6202 63.6108 33.5446 63.56 33.4581C63.5091 33.3716 63.4757 33.2759 63.4618 33.1765C63.448 33.0771 63.4538 32.9759 63.479 32.8788C63.5042 32.7816 63.5482 32.6904 63.6087 32.6103C63.6691 32.5302 63.7448 32.4627 63.8313 32.4119C63.9178 32.361 64.0135 32.3276 64.1129 32.3138C64.2123 32.2999 64.3134 32.3057 64.4106 32.3309C68.1565 33.3024 70.2612 37.7288 69.1021 42.198C68.0965 46.0756 64.9586 48.7311 61.6989 48.7312Z" fill="#4ECAB3"/>
<path d="M57.2945 50.3992C56.9431 50.3992 56.5894 50.3545 56.2403 50.2639C55.162 49.9841 54.257 49.3012 53.6922 48.3409C53.1274 47.3805 52.9704 46.2579 53.2501 45.1795L56.6977 31.8874C56.9774 30.8091 57.6602 29.9041 58.6205 29.3393C59.5808 28.7746 60.7035 28.6176 61.7819 28.8972C64.008 29.4746 65.3494 31.7555 64.7721 33.9816L61.3246 47.2737C61.0449 48.3522 60.3621 49.257 59.4018 49.8218C58.7522 50.2039 58.0285 50.3992 57.2945 50.3992ZM60.7304 30.291C60.2653 30.291 59.8068 30.4148 59.3954 30.6568C59.0957 30.8319 58.8337 31.0648 58.6245 31.3419C58.4154 31.619 58.2634 31.9348 58.1772 32.2711L54.7296 45.5632C54.6416 45.899 54.621 46.2489 54.6691 46.5928C54.7171 46.9366 54.8329 47.2674 55.0098 47.5662C55.1849 47.8659 55.4178 48.1279 55.6948 48.337C55.9719 48.5461 56.2878 48.6982 56.624 48.7844C56.9598 48.8725 57.3098 48.8931 57.6536 48.845C57.9974 48.7969 58.3283 48.6811 58.627 48.5043C58.9267 48.3292 59.1888 48.0963 59.3979 47.8192C59.607 47.5421 59.759 47.2263 59.8452 46.89L63.2928 33.5979C63.6586 32.1875 62.8087 30.7425 61.3984 30.3767C61.1802 30.32 60.9558 30.2912 60.7304 30.291Z" fill="#678490"/>
<path d="M42.1683 70.2358H22.3621L24.3864 55.0808H40.144L42.1683 70.2358Z" fill="white"/>
<path d="M42.1683 71H22.3621C22.2532 71 22.1455 70.9767 22.0463 70.9317C21.9471 70.8867 21.8587 70.8211 21.787 70.7391C21.7152 70.6572 21.6618 70.5608 21.6304 70.4566C21.5989 70.3523 21.5901 70.2425 21.6045 70.1345L23.6289 54.9796C23.6534 54.7961 23.7437 54.6278 23.883 54.5058C24.0223 54.3839 24.2011 54.3167 24.3863 54.3167H40.1438C40.329 54.3167 40.5078 54.3839 40.6471 54.5058C40.7864 54.6278 40.8767 54.7961 40.9013 54.9796L42.9256 70.1345C42.9401 70.2425 42.9313 70.3523 42.8999 70.4565C42.8684 70.5608 42.8151 70.6572 42.7434 70.7391C42.6716 70.8211 42.5832 70.8868 42.484 70.9317C42.3849 70.9767 42.2772 71 42.1683 71ZM23.2352 69.4715H41.2952L39.475 55.8451H25.0552L23.2352 69.4715Z" fill="#E3E3E3"/>
<path d="M32.0173 60.0849L32.7022 60.2011C33.0401 60.2584 33.3873 60.1881 33.6764 60.0038C33.9655 59.8195 34.1758 59.5345 34.2665 59.2039L34.4503 58.534C34.5998 57.9888 34.6335 57.4183 34.5491 56.8593C34.4647 56.3003 34.2641 55.7652 33.9602 55.2885L26.55 43.6643C25.7264 42.3724 24.0116 41.9928 22.7197 42.8163C21.4279 43.6399 21.0482 45.3547 21.8717 46.6467L29.282 58.2709C29.5859 58.7475 29.9863 59.1552 30.4574 59.4676C30.9286 59.7801 31.4599 59.9903 32.0173 60.0849Z" fill="#6EE3CE"/>
<path d="M32.9389 60.9854C32.8186 60.9854 32.6967 60.9754 32.5744 60.9546L31.8895 60.8385C31.227 60.7257 30.5955 60.4755 30.0354 60.104C29.4753 59.7326 28.9992 59.2481 28.6375 58.6816L21.2273 47.0576C20.7194 46.2605 20.552 45.3135 20.7563 44.3908C20.9605 43.4679 21.512 42.68 22.3088 42.172C23.1058 41.6639 24.0528 41.4964 24.9756 41.701C25.8984 41.9052 26.6864 42.4566 27.1944 43.2537L34.6046 54.8778C34.9654 55.4448 35.2036 56.0809 35.304 56.7454C35.4043 57.4099 35.3646 58.088 35.1873 58.7363L35.0034 59.4063C34.8804 59.8597 34.6116 60.26 34.2385 60.5454C33.8653 60.8308 33.4086 60.9854 32.9389 60.9854ZM24.207 43.1448C23.8285 43.1448 23.4573 43.2523 23.1305 43.4607C22.9074 43.602 22.7146 43.7861 22.5632 44.0025C22.4118 44.2188 22.3048 44.463 22.2484 44.721C22.1906 44.9786 22.1845 45.2452 22.2305 45.5053C22.2764 45.7653 22.3735 46.0137 22.516 46.236L29.9262 57.8601C30.173 58.2465 30.4978 58.5771 30.8799 58.8305C31.262 59.0839 31.6929 59.2546 32.1448 59.3316L32.8299 59.4478C32.9811 59.4739 33.1366 59.4428 33.266 59.3603C33.3954 59.2778 33.4893 59.15 33.5295 59.0019L33.7134 58.3319C33.8343 57.8896 33.8614 57.4269 33.793 56.9736C33.7245 56.5202 33.562 56.0862 33.3158 55.6993L25.9054 44.0752C25.7641 43.8522 25.5799 43.6594 25.3636 43.508C25.1472 43.3567 24.903 43.2497 24.645 43.1934C24.5013 43.1611 24.3543 43.1448 24.207 43.1448Z" fill="#4ECAB3"/>
<path d="M37.5374 67.7382H26.9295C26.7268 67.7382 26.5325 67.6577 26.3891 67.5144C26.2458 67.3711 26.1653 67.1767 26.1653 66.974C26.1653 66.7713 26.2458 66.5769 26.3891 66.4336C26.5325 66.2903 26.7268 66.2098 26.9295 66.2098H37.5374C37.74 66.2098 37.9344 66.2903 38.0778 66.4336C38.2211 66.5769 38.3016 66.7713 38.3016 66.974C38.3016 67.1767 38.2211 67.3711 38.0778 67.5144C37.9344 67.6577 37.74 67.7382 37.5374 67.7382ZM34.7481 64.4952H27.3207C27.118 64.4952 26.9236 64.4147 26.7803 64.2714C26.637 64.1281 26.5565 63.9337 26.5565 63.731C26.5565 63.5283 26.637 63.3339 26.7803 63.1906C26.9236 63.0473 27.118 62.9668 27.3207 62.9668H34.7481C34.9508 62.9668 35.1452 63.0473 35.2885 63.1906C35.4318 63.3339 35.5123 63.5283 35.5123 63.731C35.5123 63.9337 35.4318 64.1281 35.2885 64.2714C35.1452 64.4147 34.9508 64.4952 34.7481 64.4952Z" fill="#00D4D7"/>
<path d="M20.8246 51.3147C13.3208 55.6482 14.7106 60.3971 17.4374 61.0683C20.3816 61.793 35.1016 57.0786 32.2652 52.6293C29.4288 48.18 20.2084 55.0809 20.2084 55.0809C20.2084 55.0809 21.4223 50.9695 20.8246 51.3147Z" fill="#D4AFB7"/>
<path d="M18.1526 61.8977C17.7966 61.8977 17.4939 61.8694 17.2547 61.8106C15.9866 61.4984 15.1012 60.466 14.8859 59.0489C14.6887 57.7506 15.0922 56.2422 16.0224 54.8021C17.0865 53.1545 18.7751 51.626 21.0412 50.2588C21.1272 50.207 21.2225 50.1725 21.3217 50.1575C21.4209 50.1425 21.5221 50.1472 21.6195 50.1713C21.717 50.1954 21.8087 50.2384 21.8895 50.298C21.9703 50.3575 22.0385 50.4324 22.0904 50.5183C22.1422 50.6043 22.1766 50.6996 22.1916 50.7988C22.2067 50.898 22.202 50.9992 22.1779 51.0966C22.1538 51.1941 22.1107 51.2858 22.0512 51.3666C21.9916 51.4473 21.9168 51.5156 21.8308 51.5675C19.069 53.2337 15.9889 56.1327 16.397 58.8196C16.5179 59.6158 16.9637 60.1651 17.6199 60.3267C19.5164 60.7932 29.1093 58.1366 31.4398 54.8882C32.0774 53.9992 31.8715 53.4338 31.6208 53.0406C31.2411 52.445 30.704 52.0911 29.9788 51.9586C27.1324 51.4392 22.2915 54.4782 20.666 55.6932C20.5035 55.8105 20.3014 55.8593 20.1033 55.8291C19.9051 55.7988 19.7268 55.6919 19.6067 55.5314C19.4867 55.3709 19.4344 55.1697 19.4613 54.9711C19.4882 54.7725 19.5921 54.5924 19.7505 54.4696C19.8147 54.4215 21.348 53.2792 23.3791 52.2081C26.1901 50.7257 28.5022 50.1357 30.2521 50.455C31.4031 50.665 32.2971 51.2585 32.9095 52.2189C33.4088 53.0023 33.7745 54.2556 32.6816 55.7791C30.2646 59.1484 21.6592 61.8973 18.1526 61.8977Z" fill="#B78E98"/>
<path d="M50.1382 51.3007C54.0768 54.0922 55.6589 58.6463 51.2321 61.1425C45.5747 64.3327 39.8683 62.4472 40.0061 58.764C40.144 55.0809 49.5003 56.7125 49.5003 56.7125C49.5003 56.7125 49.0434 50.5248 50.1382 51.3007Z" fill="#D4AFB7"/>
<path d="M45.4277 63.5417C43.9253 63.5417 42.5368 63.2027 41.408 62.5145C39.9745 61.6404 39.1858 60.2631 39.2436 58.7361C39.2726 57.9541 39.6183 57.2729 40.2435 56.7668C42.6569 54.8133 48.9252 55.8378 49.6319 55.9611C49.7308 55.9783 49.8253 56.0149 49.91 56.0686C49.9947 56.1223 50.0681 56.1923 50.1258 56.2743C50.1835 56.3564 50.2245 56.4491 50.2464 56.547C50.2683 56.6449 50.2707 56.7462 50.2535 56.8451C50.2363 56.9439 50.1998 57.0384 50.146 57.1231C50.0923 57.2079 50.0223 57.2812 49.9403 57.3389C49.8582 57.3967 49.7655 57.4376 49.6676 57.4596C49.5697 57.4815 49.4684 57.4839 49.3695 57.4667C49.3535 57.4639 47.7442 57.1871 45.9 57.1287C43.6197 57.0563 41.952 57.3499 41.205 57.9551C40.9215 58.1847 40.7835 58.451 40.7709 58.7933C40.7236 60.0394 41.5239 60.7949 42.2037 61.2095C43.9625 62.2822 47.3197 62.4716 50.8557 60.4775C52.4088 59.6021 53.1755 58.4521 53.1346 57.0598C53.0701 54.8661 51.0258 52.4105 48.0412 50.9358L48.0269 50.9299C47.8881 50.8714 47.7697 50.7732 47.6864 50.6477C47.6031 50.5222 47.5586 50.3749 47.5585 50.2242C47.5585 50.0221 47.6386 49.8282 47.7812 49.685C47.9238 49.5418 48.1174 49.4609 48.3195 49.46C48.438 49.4585 48.5552 49.4851 48.6613 49.5377C52.1696 51.2521 54.5813 54.2568 54.6624 57.015C54.7196 58.9632 53.6344 60.6658 51.6063 61.8089C49.5715 62.9565 47.4014 63.5417 45.4277 63.5417Z" fill="#B78E98"/>
<path d="M30.7442 0.76416H22.0639C17.9903 0.76416 14.688 4.06649 14.688 8.13998V11.9454C14.688 15.3742 17.0278 18.256 20.1977 19.0826C19.1106 20.6898 18.0006 22.8934 19.5752 23.4916C21.5744 24.251 25.9103 21.7986 28.0788 19.3212H30.7442C34.8179 19.3212 38.1201 16.0189 38.1201 11.9453V8.13998C38.1202 4.06635 34.8179 0.76416 30.7442 0.76416Z" fill="#93F6F8"/>
<path d="M20.4248 24.3938C20.0196 24.3938 19.6425 24.3348 19.3038 24.2061C18.7107 23.9808 18.3036 23.5658 18.1264 23.0058C17.8532 22.1428 18.1483 20.9908 19.0277 19.5003C15.9778 18.2771 13.9239 15.3022 13.9239 11.9455V8.14004C13.9239 3.65151 17.5756 0 22.0639 0H30.7442C35.2328 0 38.8843 3.65165 38.8843 8.14004V11.9455C38.8843 16.4339 35.2326 20.0857 30.7442 20.0857H28.4173C26.5057 22.1254 22.9354 24.3935 20.4248 24.3938ZM22.0639 1.5283C18.4183 1.5283 15.4522 4.49436 15.4522 8.14004V11.9455C15.4522 14.9541 17.4829 17.585 20.3905 18.3431C20.5087 18.374 20.6178 18.4328 20.7087 18.5145C20.7995 18.5963 20.8695 18.6987 20.9126 18.813C20.9557 18.9274 20.9707 19.0505 20.9565 19.1719C20.9422 19.2933 20.899 19.4095 20.8306 19.5107C19.7218 21.1501 19.4593 22.1528 19.5832 22.5446C19.5999 22.5974 19.6309 22.6956 19.8463 22.7774C21.3459 23.3474 25.353 21.2746 27.5036 18.8182C27.5753 18.7363 27.6637 18.6706 27.7629 18.6256C27.862 18.5806 27.9697 18.5574 28.0786 18.5573H30.744C34.3897 18.5573 37.3557 15.5913 37.3557 11.9456V8.14004C37.3557 4.49436 34.3898 1.5283 30.744 1.5283H22.0639Z" fill="#65E1E9"/>
<path d="M32.4623 5.77258H22.0437C21.841 5.77258 21.6466 5.69207 21.5033 5.54875C21.36 5.40543 21.2795 5.21105 21.2795 5.00836C21.2795 4.80568 21.36 4.6113 21.5033 4.46798C21.6466 4.32466 21.841 4.24414 22.0437 4.24414H32.4623C32.6649 4.24414 32.8593 4.32466 33.0026 4.46798C33.146 4.6113 33.2265 4.80568 33.2265 5.00836C33.2265 5.21105 33.146 5.40543 33.0026 5.54875C32.8593 5.69207 32.6649 5.77258 32.4623 5.77258ZM32.4623 8.9827H20.3459C20.1433 8.9827 19.9489 8.90218 19.8056 8.75886C19.6622 8.61554 19.5817 8.42116 19.5817 8.21848C19.5817 8.01579 19.6622 7.82141 19.8056 7.67809C19.9489 7.53477 20.1433 7.45426 20.3459 7.45426H32.4623C32.6649 7.45426 32.8593 7.53477 33.0026 7.67809C33.146 7.82141 33.2265 8.01579 33.2265 8.21848C33.2265 8.42116 33.146 8.61554 33.0026 8.75886C32.8593 8.90218 32.6649 8.9827 32.4623 8.9827ZM32.4623 12.1928H20.3459C20.1433 12.1928 19.9489 12.1123 19.8056 11.969C19.6622 11.8257 19.5817 11.6313 19.5817 11.4286C19.5817 11.2259 19.6622 11.0315 19.8056 10.8882C19.9489 10.7449 20.1433 10.6644 20.3459 10.6644H32.4623C32.6649 10.6644 32.8593 10.7449 33.0026 10.8882C33.146 11.0315 33.2265 11.2259 33.2265 11.4286C33.2265 11.6313 33.146 11.8257 33.0026 11.969C32.8593 12.1123 32.6649 12.1928 32.4623 12.1928ZM27.3229 15.4029H20.3459C20.1433 15.4029 19.9489 15.3224 19.8056 15.1791C19.6622 15.0358 19.5817 14.8414 19.5817 14.6387C19.5817 14.436 19.6622 14.2416 19.8056 14.0983C19.9489 13.955 20.1433 13.8745 20.3459 13.8745H27.3231C27.4234 13.8745 27.5228 13.8943 27.6155 13.9327C27.7082 13.9711 27.7925 14.0274 27.8634 14.0984C27.9344 14.1693 27.9907 14.2536 28.0291 14.3463C28.0675 14.439 28.0872 14.5384 28.0872 14.6388C28.0872 14.7391 28.0674 14.8385 28.029 14.9312C27.9906 15.0239 27.9343 15.1082 27.8633 15.1791C27.7924 15.2501 27.7081 15.3064 27.6154 15.3448C27.5227 15.3832 27.4233 15.4029 27.3229 15.4029Z" fill="#605C5D"/>
</svg>
