<svg width="54" height="54" viewBox="0 0 54 54" fill="none" xmlns="http://www.w3.org/2000/svg">
<g clip-path="url(#clip0_667_1985)">
<path d="M50.5806 20.4087C49.1744 29.2769 47.7681 38.1451 46.3691 47.0143C46.3036 47.4165 45.9235 47.6983 45.5212 47.6329C31.5844 45.4397 17.5794 43.6704 3.53497 42.3286C3.12908 42.292 2.83098 41.9244 2.86759 41.5185C3.70383 32.5783 4.55449 23.6399 5.39794 14.7006C5.43547 14.2875 5.81743 13.9912 6.23684 14.0368C20.8531 15.4362 35.4281 17.2775 49.9404 19.5581C50.357 19.6254 50.6461 20.0064 50.5806 20.4087Z" fill="#FE515E"/>
<path d="M6.68801 21.4316C6.2623 21.3779 5.83401 21.2284 5.39593 20.9825C5.37536 20.9712 5.3573 20.9558 5.34284 20.9373C5.32837 20.9189 5.3178 20.8976 5.31176 20.8749C5.30572 20.8523 5.30434 20.8286 5.30769 20.8054C5.31105 20.7821 5.31908 20.7598 5.3313 20.7398C5.37923 20.6505 5.48571 20.62 5.57404 20.6751C6.0662 20.9572 6.56216 21.0932 7.03033 21.101C7.74928 21.0966 8.58339 20.6448 8.74495 19.8882C8.78491 19.688 8.78248 19.4751 8.77466 19.2468C8.76434 18.8644 8.75493 18.4746 8.97459 18.1285C9.19424 17.7824 9.61039 17.5638 10.2068 17.4852C10.3412 17.4655 10.4675 17.4521 10.601 17.4397C10.9051 17.4121 11.1865 17.389 11.4555 17.2911C12.3625 16.9585 12.7347 15.8693 12.5581 15.004C12.5562 14.9777 12.5495 14.952 12.5384 14.9282C12.5286 14.907 12.5233 14.8839 12.5228 14.8606C12.5223 14.8372 12.5267 14.814 12.5356 14.7924C12.5445 14.7709 12.5578 14.7513 12.5747 14.7351C12.5915 14.7189 12.6115 14.7064 12.6334 14.6983C12.7263 14.6587 12.8309 14.7012 12.8633 14.7933C12.8867 14.8402 12.9019 14.8935 12.9028 14.9449C13.099 15.9446 12.658 17.2304 11.5669 17.6277C11.2528 17.7346 10.9335 17.7676 10.6222 17.7942L10.2433 17.8343C9.90765 17.8799 9.46729 18.0002 9.2657 18.3193C9.11653 18.5716 9.12693 18.8955 9.13551 19.2338C9.14242 19.4692 9.1475 19.7191 9.09486 19.9617C8.89152 20.933 7.87961 21.4576 7.02895 21.46C6.91981 21.4536 6.80345 21.4462 6.68801 21.4316ZM49.8238 20.3057C49.6483 21.4051 49.4728 22.5045 49.3044 23.6048C49.2684 23.6002 49.2404 23.5893 49.2115 23.5857C48.6272 23.4532 48.1109 22.9555 48.0468 22.361C48.0014 21.9081 48.1915 21.3896 47.915 21.0248C47.6007 20.6112 46.9665 20.6997 46.456 20.6206C45.9446 20.5486 45.4687 20.2539 45.1761 19.8431C44.9841 19.5779 44.8713 19.2637 44.8507 18.937C46.2993 19.076 47.7432 19.2511 49.1755 19.4614C49.594 19.5142 49.8902 19.8962 49.8238 20.3057Z" fill="#F83B4D"/>
<path d="M48.563 27.7334C48.0507 27.6687 47.5783 27.4624 47.2098 27.1299C46.3223 26.3214 46.1384 24.876 46.8045 23.8973C46.8759 23.7963 46.9545 23.6963 47.0331 23.5963C47.1713 23.4305 47.2942 23.2701 47.3684 23.0888C47.4716 22.8526 47.4467 22.527 47.2268 22.4112C47.014 22.2964 46.7089 22.4484 46.5898 22.5213C46.5266 22.5573 46.4697 22.6014 46.4065 22.6374C46.2151 22.7599 46.0228 22.8895 45.7819 22.9397C45.2251 23.0526 44.6339 22.6847 44.2045 21.9634C44.1496 21.8758 44.1028 21.782 44.0488 21.6872C43.8167 21.262 43.5962 20.8603 43.2103 20.6649C42.756 20.4316 42.2218 20.54 41.657 20.6593C41.3186 20.7265 40.9721 20.8 40.6275 20.8005C39.8942 20.8031 39.1684 20.4548 38.72 19.8851C38.5222 19.6333 38.3796 19.3428 38.3013 19.0323C38.2231 18.7219 38.211 18.3984 38.2659 18.083C38.2849 17.9901 38.3743 17.9208 38.4744 17.9408C38.5745 17.9607 38.6367 18.0492 38.6167 18.1493C38.5213 18.6724 38.6622 19.24 38.9972 19.6635C39.3754 20.1511 39.9984 20.4424 40.6217 20.4405C40.9293 20.4427 41.2605 20.3746 41.5844 20.3056C42.1862 20.1837 42.8034 20.0564 43.3749 20.3485C43.8563 20.5999 44.1128 21.0648 44.363 21.5216C44.4107 21.6083 44.4575 21.7021 44.5124 21.7897C44.7779 22.2411 45.2346 22.6873 45.7156 22.5941C45.8888 22.5574 46.0477 22.4602 46.2156 22.3494C46.2797 22.3062 46.3439 22.263 46.4152 22.2207C46.7871 22.0038 47.1372 21.96 47.4049 22.1038C47.8033 22.3154 47.8685 22.8441 47.702 23.2336C47.6079 23.4563 47.4597 23.6428 47.3124 23.8221C47.2419 23.9159 47.1652 24.0015 47.101 24.1033C46.5334 24.9406 46.6842 26.1839 47.4473 26.874C47.8105 27.1911 48.2919 27.3839 48.8025 27.4044C48.8981 27.4018 48.9746 27.4922 48.9772 27.5878C48.9726 27.6825 48.8895 27.76 48.7948 27.7553C48.7145 27.7525 48.6423 27.7434 48.563 27.7334ZM47.0167 42.9321L46.3682 47.0213C46.3027 47.4235 45.9225 47.7054 45.5203 47.6399C31.5835 45.4467 17.5784 43.6774 3.53404 42.3356C3.12816 42.299 2.83005 41.9315 2.86667 41.5256C3.37815 36.0263 3.89593 30.5352 4.42093 25.045C4.98647 25.0944 5.59483 25.5011 5.80429 26.0481C6.0695 26.734 5.89184 27.386 5.80342 28.0859C5.71326 28.7415 5.33364 29.3094 5.27051 29.9831C5.2048 30.5613 5.38077 31.1993 5.85569 31.5598C6.07017 31.7189 6.32264 31.8094 6.5037 32.0009C6.89105 32.4163 6.75759 33.0665 6.54583 33.5823C6.29966 34.1962 5.98224 34.7939 5.89208 35.4496C5.80191 36.1053 6.0075 36.857 6.57356 37.1924C7.02425 37.4546 7.62776 37.4355 7.99172 37.804C8.30972 38.1301 8.31806 38.6443 8.30393 39.1043C8.27855 39.8855 8.1498 40.3824 8.68305 40.9775C9.17125 41.523 9.75432 41.9559 10.5038 42.0579C12.1823 42.2919 13.6592 40.7558 15.3569 40.7211C17.7294 40.6836 19.2728 43.4956 21.6042 43.8414C23.9572 44.19 26.0927 41.9088 28.4774 42.1807C30.4716 42.4107 32.0251 44.3882 34.0215 44.3106C35.7301 44.2479 37.2052 42.6676 38.9017 42.9332C40.3041 43.147 41.2278 44.5393 42.5731 44.9731C44.0799 45.464 46.7026 44.4905 47.0167 42.9321Z" fill="#F83B4D"/>
<path d="M3.48329 42.5054C2.99265 42.4434 2.63781 42.0027 2.67906 41.5021L5.21662 14.685C5.23949 14.446 5.35524 14.2261 5.54307 14.0739C5.73994 13.9081 5.99081 13.8372 6.25239 13.8556C20.8109 15.2477 35.5158 17.1054 49.9631 19.3777C50.2148 19.4169 50.4329 19.547 50.5842 19.7421C50.7346 19.9444 50.7992 20.1871 50.761 20.4315L49.3174 29.5369C49.3047 29.6379 49.209 29.6992 49.1152 29.6873C49.0142 29.6745 48.9529 29.5788 48.9648 29.485L50.4083 20.3796C50.4347 20.229 50.3943 20.0846 50.2997 19.9627C50.2052 19.8408 50.0691 19.7577 49.9112 19.7304C35.4712 17.4589 20.7734 15.6021 6.22215 14.211C6.05529 14.1972 5.90277 14.2439 5.77274 14.3448C5.65714 14.4475 5.58932 14.5782 5.57109 14.7225L3.04074 41.5405C3.00876 41.8516 3.25917 42.1325 3.5496 42.1545C15.0153 43.2512 26.6114 44.6502 38.0051 46.3168C38.1061 46.3296 38.1682 46.4181 38.1555 46.5191C38.1436 46.6129 38.0542 46.6822 37.9604 46.6704C26.5739 45.0046 14.9851 43.6066 3.51937 42.5099L3.48329 42.5054Z" fill="black"/>
<path d="M46.0354 26.3292C45.305 30.9505 44.5736 35.5789 43.836 40.1993C43.8023 40.4076 43.6217 40.5607 43.4097 40.5559C41.9214 40.4999 40.5795 41.5472 40.1761 43.0576C40.128 43.2642 39.9213 43.392 39.7057 43.3574C29.9094 41.8706 20.0676 40.6272 10.194 39.6364C10.1275 39.6281 10.0667 39.5947 10.0242 39.5429C9.9816 39.4912 9.9605 39.4251 9.96519 39.3583C10.0134 37.7003 8.89668 36.2691 7.34097 35.9919C7.27549 35.9803 7.21666 35.9447 7.17589 35.8922C7.13512 35.8396 7.11533 35.7738 7.12034 35.7075C7.56679 30.955 8.02046 26.2035 8.46782 21.4439C8.47884 21.2986 8.60165 21.1969 8.74057 21.1998C10.357 21.228 11.7667 20.05 12.0539 18.4149C12.0785 18.2787 12.2022 18.1697 12.3393 18.1871C22.5746 19.2162 32.7772 20.5052 42.9406 22.0457C43.1561 22.0803 43.3237 22.2627 43.3108 22.481C43.2456 24.0415 44.2486 25.4437 45.714 25.8561C45.9403 25.9213 46.069 26.1209 46.0354 26.3292Z" fill="white"/>
<path d="M25.8611 41.711C20.6581 40.8851 15.4306 40.1954 10.193 39.6436C10.0559 39.6263 9.96136 39.5044 9.97238 39.3592C10.035 37.7031 8.912 36.2637 7.34907 35.9856C7.28358 35.974 7.22475 35.9384 7.18399 35.8859C7.14322 35.8333 7.12343 35.7675 7.12844 35.7012C7.51358 31.6081 7.89873 27.515 8.29109 23.4228C8.66835 23.2798 9.1293 23.2868 9.48626 23.4785C10.2011 23.8547 10.5139 24.6859 10.5265 25.4572C10.5399 26.2213 10.3125 26.9769 10.2023 27.7327C10.0894 28.5688 10.1099 29.451 10.4751 30.2155C10.8394 30.9873 11.5882 31.617 12.4451 31.6813C13.2794 31.75 14.1199 31.3064 14.9306 31.5041C15.8404 31.729 16.3723 32.6832 16.5146 33.5882C16.664 34.4941 16.5464 35.4249 16.7266 36.32C16.9139 37.216 17.5234 38.136 18.4326 38.2508C19.891 38.4277 21.0436 36.4988 22.4901 36.8282C23.0817 36.9616 23.524 37.4646 23.7867 37.9963C24.0566 38.5288 24.1794 39.1235 24.4024 39.6794C24.7235 40.4611 25.223 41.1569 25.8611 41.711Z" fill="#F4EDED"/>
<path d="M39.6975 43.5398L39.683 43.538C31.3901 42.2777 22.9527 41.1751 14.6142 40.2757C14.5706 40.2661 14.5321 40.2406 14.5064 40.2041C14.4806 40.1676 14.4695 40.1228 14.4751 40.0785C14.4806 40.0342 14.5026 39.9936 14.5366 39.9646C14.5707 39.9357 14.6143 39.9205 14.6589 39.9221C23.0046 40.8225 31.4492 41.926 39.7493 43.1872L39.7565 43.1881C39.8792 43.2036 39.9912 43.1298 40.0202 43.0161C40.4327 41.4335 41.863 40.3241 43.4317 40.383C43.5552 40.3912 43.6546 40.3012 43.6773 40.1794L45.8767 26.3093C45.8869 26.2499 45.8741 26.1888 45.841 26.1384C45.808 26.088 45.757 26.052 45.6985 26.0376C44.1339 25.598 43.094 24.1398 43.1638 22.4846C43.1712 22.3682 43.0685 22.2526 42.9386 22.2362C32.8194 20.6939 22.5294 19.4013 12.3445 18.3785C12.294 18.3721 12.2588 18.419 12.2533 18.4623C11.947 20.1902 10.4786 21.4268 8.76022 21.393C8.71602 21.3948 8.66908 21.4182 8.66179 21.4759L7.9885 28.6041C7.97574 28.7051 7.89356 28.7753 7.79255 28.7626C7.68431 28.7489 7.62128 28.6676 7.63404 28.5666L8.2938 21.4294C8.30539 21.3175 8.35843 21.2139 8.44248 21.1391C8.52654 21.0642 8.63554 21.0235 8.74808 21.025C10.2698 21.0486 11.6154 19.9138 11.8817 18.386C11.9262 18.1497 12.1303 17.9849 12.3612 18.0141C22.5533 19.0378 32.8496 20.3386 42.977 21.8746C43.2863 21.921 43.5169 22.1847 43.5003 22.4905C43.4397 23.9562 44.3914 25.3007 45.772 25.6877C46.0696 25.7693 46.2532 26.0564 46.2077 26.3585L44.0083 40.2286C43.9628 40.5307 43.7009 40.7468 43.3951 40.7302C41.9943 40.6779 40.7174 41.6748 40.3466 43.1014C40.2804 43.3935 40.0005 43.5781 39.6975 43.5398Z" fill="black"/>
<path d="M19.8667 24.6947C19.8549 24.7298 19.8359 24.7641 19.8034 24.7893L18.8635 25.4403L18.3407 25.8067C18.1231 25.9625 17.9064 26.1111 17.6888 26.2668C17.641 26.2974 17.6201 26.3461 17.6201 26.4048C17.6191 26.4706 17.6253 26.5374 17.6252 26.596L17.6346 27.0443C17.6405 27.3456 17.6545 27.6406 17.6605 27.9419L17.6698 28.3903L17.688 28.9424C17.6932 29.075 17.5362 29.1578 17.4289 29.0783C17.0126 28.7764 16.5962 28.4746 16.1717 28.179C15.9086 27.9992 15.6535 27.813 15.3903 27.6332L15.3498 27.606C15.3288 27.589 15.3035 27.5782 15.2768 27.5749C15.25 27.5715 15.2228 27.5756 15.1983 27.5869L15.1522 27.6031C14.8526 27.7118 14.5521 27.8278 14.2596 27.9375C13.775 28.1182 13.2967 28.307 12.8183 28.4958C12.6947 28.5461 12.5631 28.4269 12.6012 28.2997C12.6528 28.123 12.7045 27.9463 12.7489 27.7686L12.8694 27.3367C12.9501 27.0463 13.0371 26.7641 13.1177 26.4737L13.2383 26.0418C13.2537 25.9778 13.2763 25.9146 13.2908 25.8578C13.3054 25.801 13.2901 25.7478 13.2586 25.7071C13.0865 25.5021 12.9145 25.2972 12.7416 25.0994L12.3264 24.6144L11.5779 23.7502C11.5527 23.7176 11.5356 23.6788 11.5401 23.6428C11.5357 23.5616 11.6044 23.4823 11.7 23.4797C12.3261 23.4562 12.9521 23.4326 13.5854 23.41C13.8353 23.4049 14.0861 23.3926 14.336 23.3875C14.3639 23.3859 14.391 23.3781 14.4155 23.3647C14.44 23.3513 14.4613 23.3327 14.4777 23.3101C14.6223 23.0938 14.7669 22.8775 14.9188 22.6621C15.0092 22.5269 15.1077 22.3854 15.1981 22.2502C15.4412 21.8924 15.6834 21.5419 15.9265 21.1841C15.9997 21.0687 16.1873 21.0924 16.2368 21.2233C16.3842 21.6231 16.5307 22.0301 16.6772 22.4371C16.7311 22.5905 16.7914 22.7521 16.8453 22.9055C16.9316 23.151 17.0178 23.3965 17.1113 23.6429C17.1266 23.6961 17.1734 23.7313 17.2293 23.7531C17.4701 23.8201 17.7109 23.8872 17.9507 23.9615C18.5522 24.1328 19.1599 24.3122 19.7596 24.4979C19.8516 24.5242 19.8911 24.6171 19.8667 24.6947Z" fill="#509DFF"/>
<path d="M16.8443 22.9128C16.203 22.8245 15.5609 22.7433 14.9178 22.6694C15.0082 22.5342 15.1067 22.3927 15.1971 22.2575L16.6762 22.4444C16.7364 22.606 16.7904 22.7594 16.8443 22.9128ZM19.8666 24.6948C17.1068 24.2581 14.3289 23.9072 11.5473 23.6437C11.5429 23.5626 11.6115 23.4833 11.7072 23.4807C12.3332 23.4571 12.9593 23.4336 13.5926 23.411C15.0456 23.5726 16.5031 23.7567 17.9507 23.9616C18.5521 24.1328 19.1599 24.3123 19.7595 24.498C19.8515 24.5242 19.8911 24.6172 19.8666 24.6948ZM18.8634 25.4404L18.3406 25.8068C16.4845 25.5283 14.6221 25.3004 12.7487 25.1004L12.3335 24.6154C14.5198 24.833 16.6917 25.1073 18.8634 25.4404ZM17.6417 27.0453C16.1373 26.826 14.6365 26.6364 13.1249 26.4747L13.2454 26.0428C14.7057 26.2053 16.1704 26.3903 17.6252 26.5961C17.6358 26.744 17.6383 26.8983 17.6417 27.0453ZM12.8766 27.3377C13.636 27.419 14.3945 27.5075 15.1594 27.6041C14.8597 27.7128 14.5592 27.8288 14.2668 27.9385C13.768 27.8828 13.2629 27.819 12.7633 27.7705C12.7968 27.6208 12.8367 27.4792 12.8766 27.3377ZM17.6769 28.3913L16.1716 28.1791C15.9085 27.9993 15.6534 27.8131 15.3903 27.6332C16.1479 27.729 16.9046 27.8319 17.6676 27.9429L17.6769 28.3913Z" fill="#EF253D"/>
<path d="M39.6176 28.7953C34.2279 27.9385 28.7514 27.2466 23.3253 26.737C23.2242 26.7242 23.154 26.6421 23.1667 26.5411C23.1795 26.44 23.2617 26.3698 23.3627 26.3825C28.7961 26.893 34.2798 27.5858 39.6695 28.4426C39.7705 28.4554 39.8317 28.5511 39.8198 28.6449C39.8008 28.7378 39.7186 28.808 39.6176 28.7953ZM39.2411 31.7752C33.8514 30.9184 28.375 30.2265 22.9488 29.717C22.8478 29.7042 22.7775 29.622 22.7903 29.521C22.803 29.42 22.8852 29.3497 22.9862 29.3625C28.4196 29.873 33.9033 30.5658 39.293 31.4226C39.394 31.4354 39.4552 31.5311 39.4434 31.6249C39.4234 31.725 39.3421 31.788 39.2411 31.7752ZM38.8637 34.7624C30.0812 33.3743 21.1485 32.2458 12.3111 31.4079C12.211 31.3879 12.1399 31.313 12.1526 31.2119C12.1654 31.1109 12.2476 31.0407 12.3486 31.0534C21.2004 31.8932 30.1403 33.0226 38.9156 34.4098C39.0166 34.4225 39.0778 34.5182 39.066 34.612C39.046 34.7121 38.9647 34.7752 38.8637 34.7624ZM38.4863 37.7496C29.7038 36.3615 20.7712 35.233 11.9338 34.3951C11.8337 34.3751 11.7625 34.3001 11.7753 34.1991C11.788 34.0981 11.8702 34.0278 11.9712 34.0406C20.823 34.8803 29.7629 36.0097 38.5382 37.3969C38.6392 37.4097 38.7005 37.5054 38.6886 37.5992C38.6695 37.6921 38.5874 37.7623 38.4863 37.7496Z" fill="black"/>
<path d="M12.1574 13.1864C11.9463 11.8403 11.7342 10.5013 11.5159 9.15425C11.4783 8.92958 11.6509 8.72414 11.8972 8.68928C12.1435 8.65442 12.3661 8.80717 12.3974 9.0237C12.5941 10.368 12.7826 11.7187 12.9793 13.063C13.0097 13.2868 12.8525 13.4868 12.6278 13.5244C12.4041 13.5548 12.1887 13.403 12.1574 13.1864ZM16.549 12.8909C15.7457 11.9379 14.9118 11.0111 14.0485 10.112L14.3805 12.8809C14.4036 13.1037 14.2392 13.3028 14.0154 13.3332C13.7917 13.3636 13.5844 13.2055 13.554 12.9817C13.3727 11.632 13.1914 10.2822 13.0163 8.94062C12.9913 8.73221 13.1432 8.51682 13.412 8.47748C13.5465 8.45781 13.6943 8.50581 13.7916 8.60607C14.6725 9.50418 15.5263 10.4285 16.3517 11.3779C16.278 10.4523 16.1971 9.52573 16.1235 8.60011C16.1075 8.37818 16.2864 8.18086 16.5453 8.16226C16.7898 8.14183 17.0034 8.30809 17.0184 8.53724L17.2963 12.6041C17.3132 12.8189 17.1406 13.0243 16.9115 13.0393C16.7635 13.05 16.631 12.9966 16.549 12.8909ZM19.5497 12.6396C18.9536 11.2925 18.3225 9.9613 17.6569 8.64723C17.6326 8.60283 17.6188 8.55343 17.6165 8.50285C17.606 8.29626 17.7723 8.08268 18.0384 8.06499C18.2152 8.05801 18.3874 8.14574 18.463 8.30189C18.9713 9.32641 19.4498 10.3545 19.913 11.388C20.3249 10.3331 20.7502 9.28725 21.2116 8.24597C21.2831 8.08639 21.4492 7.99009 21.6251 7.99032C21.8957 7.99519 22.0678 8.20018 22.0648 8.39773C22.0656 8.44915 22.0593 8.49966 22.0312 8.54743C21.4278 9.90065 20.8532 11.2575 20.3291 12.6208C20.2657 12.774 20.1131 12.8794 19.9508 12.8882C19.8666 12.892 19.7833 12.8704 19.7117 12.826C19.6401 12.7816 19.5836 12.7166 19.5497 12.6396ZM22.5826 12.4803C22.6151 11.1209 22.6403 9.76062 22.6728 8.40124C22.6794 8.17483 22.8844 8.0028 23.1262 8.00402C23.3742 8.01336 23.5634 8.19854 23.5568 8.42495C23.5099 9.78251 23.4549 11.1464 23.408 12.5039C23.4014 12.7303 23.2108 12.9042 22.9844 12.8976C22.9305 12.8972 22.8771 12.886 22.8275 12.8646C22.778 12.8433 22.7332 12.8123 22.6957 12.7735C22.6583 12.7346 22.629 12.6886 22.6096 12.6383C22.5902 12.5879 22.581 12.5342 22.5826 12.4803ZM27.2997 8.27471C27.5459 8.29848 27.7333 8.49809 27.705 8.72177C27.6831 8.95357 27.4583 9.10843 27.2192 9.08556C26.9297 9.05632 26.6393 9.03429 26.3497 9.00504C26.2471 10.2236 26.1517 11.4431 26.0491 12.6616C26.028 12.8862 25.8239 13.051 25.5993 13.03C25.5457 13.0268 25.4932 13.0129 25.445 12.9891C25.3968 12.9653 25.3539 12.9321 25.3187 12.8914C25.2836 12.8508 25.2569 12.8035 25.2403 12.7524C25.2236 12.7013 25.2174 12.6474 25.222 12.5938C25.3029 11.3725 25.3911 10.1521 25.4712 8.93804C25.1808 8.916 24.8822 8.90028 24.5909 8.88546C24.3509 8.86981 24.1617 8.68464 24.1693 8.45101C24.1831 8.22551 24.3881 8.05349 24.628 8.06914C25.5156 8.12262 26.4095 8.18423 27.2997 8.27471ZM31.0107 13.1345C31.026 13.1878 31.0187 13.2455 31.0132 13.2888C30.9796 13.4971 30.7827 13.6628 30.5383 13.6246C30.458 13.6109 30.3836 13.5738 30.3241 13.5181C30.2647 13.4624 30.223 13.3904 30.2041 13.3112C30.1422 13.0468 30.074 12.7743 30.0121 12.5099C29.3717 12.4143 28.7305 12.326 28.0802 12.2512L27.6814 12.9705C27.6321 13.0683 27.546 13.1425 27.442 13.1768C27.338 13.2111 27.2246 13.2026 27.1268 13.1533C27.0291 13.104 26.9549 13.0179 26.9206 12.9139C26.8863 12.8099 26.8947 12.6966 26.944 12.5988C27.6286 11.2998 28.3483 10.0126 29.1023 8.74435C29.1864 8.60103 29.3732 8.51468 29.5527 8.54468C29.7259 8.56656 29.8781 8.69575 29.9239 8.85548C30.3316 10.2705 30.6861 11.7007 31.0107 13.1345ZM29.7904 11.6535C29.654 11.1085 29.5104 10.5626 29.3586 10.0229C29.0702 10.507 28.7881 10.9991 28.5069 11.4841C28.9399 11.5388 29.3656 11.5925 29.7904 11.6535ZM34.4111 9.37104C34.6537 9.42368 34.8167 9.6422 34.7667 9.86314C34.7159 10.0913 34.4794 10.2227 34.244 10.171C33.9582 10.1129 33.6732 10.0475 33.3864 9.99664L32.6681 13.5932C32.6255 13.815 32.4025 13.9554 32.1806 13.9128C31.9587 13.8701 31.8093 13.6606 31.852 13.4387C32.0773 12.2357 32.2953 11.0317 32.5206 9.82862L31.653 9.67503C31.5976 9.66783 31.544 9.6497 31.4956 9.62169C31.4472 9.59367 31.4048 9.55633 31.3708 9.51183C31.3369 9.46732 31.3122 9.41654 31.298 9.3624C31.2838 9.30827 31.2806 9.25186 31.2883 9.19645C31.3238 8.97368 31.5477 8.82604 31.7912 8.87146C32.6597 9.01784 33.5327 9.18677 34.4111 9.37104ZM34.4375 13.978L35.3574 10.0037C35.4073 9.78279 35.6438 9.6514 35.8855 9.71126C36.1272 9.77111 36.2748 9.99502 36.2186 10.2078C35.8903 11.5298 35.5702 12.8455 35.2419 14.1675C35.1848 14.3876 34.9636 14.5136 34.7499 14.4646C34.6973 14.4533 34.6475 14.4318 34.6033 14.4012C34.5591 14.3706 34.5214 14.3316 34.4923 14.2863C34.4633 14.2411 34.4435 14.1906 34.4341 14.1376C34.4247 14.0847 34.4258 14.0304 34.4375 13.978ZM36.3024 12.3296C36.6289 11.022 38.0182 10.2373 39.3879 10.6522C40.7576 11.0672 41.4946 12.4871 41.041 13.7566C40.5874 15.0261 39.2189 15.7036 37.9755 15.3339C36.732 14.9642 35.9751 13.6444 36.3024 12.3296ZM37.1321 12.5517C36.8973 13.4237 37.3868 14.3066 38.2056 14.5566C39.0316 14.8076 39.9333 14.3424 40.2177 13.484C40.5012 12.6328 40.0252 11.7003 39.1424 11.4349C38.9371 11.3725 38.7214 11.3521 38.508 11.3749C38.2947 11.3976 38.0881 11.463 37.9005 11.5672C37.713 11.6714 37.5483 11.8122 37.4163 11.9814C37.2842 12.1505 37.1876 12.3445 37.1321 12.5517ZM43.6218 17.1761C43.346 15.9611 43.0314 14.7552 42.6785 13.5603C42.3562 14.4286 42.0258 15.3031 41.7035 16.1714C41.6257 16.3815 41.3784 16.4822 41.1683 16.4043C40.9582 16.3265 40.8412 16.0918 40.9191 15.8817C41.3745 14.5978 41.8363 13.3219 42.2917 12.038C42.3605 11.8414 42.6033 11.7182 42.8558 11.8087C42.9892 11.8549 43.0928 11.9633 43.1341 12.1004C43.5087 13.3133 43.8391 14.5279 44.1334 15.738C44.4908 14.8815 44.8482 14.025 45.2066 13.1613C45.2917 12.9521 45.5444 12.8668 45.7815 12.9627C46.0114 13.0577 46.1193 13.3059 46.0342 13.5151C45.495 14.7665 44.9566 16.0106 44.4101 17.2611C44.3259 17.463 44.0796 17.5565 43.8704 17.4714C43.8086 17.4453 43.7538 17.405 43.7106 17.3537C43.6674 17.3023 43.637 17.2415 43.6218 17.1761Z" fill="#1B38AB"/>
<path d="M43.3143 43.806C42.9554 43.746 42.6097 43.8709 42.3451 44.1087C42.0732 44.3456 41.8897 44.6963 41.8377 45.1075C41.9479 44.2931 41.4546 43.5564 40.7303 43.4869C41.0929 43.518 41.4313 43.3922 41.6959 43.1544C41.9615 42.9094 42.1586 42.5677 42.2105 42.1565C42.1586 42.5677 42.2645 42.9477 42.4608 43.251C42.6516 43.539 42.9544 43.7532 43.3143 43.806ZM43.948 45.5208C43.7758 45.4917 43.607 45.551 43.4823 45.6672C43.3505 45.7825 43.2637 45.9474 43.2382 46.1495C43.2874 45.7598 43.0542 45.4005 42.7061 45.3712C42.8801 45.3859 43.0417 45.3256 43.1735 45.2103C43.2982 45.0941 43.3931 44.9229 43.4177 44.728C43.3931 44.9229 43.4425 45.1124 43.5415 45.2568C43.6343 45.3932 43.7758 45.4917 43.948 45.5208ZM24.8434 17.7362C24.7952 18.06 24.0544 18.2376 23.1741 18.1264C22.301 18.0161 21.6132 17.658 21.647 17.3324C21.6736 17.0059 22.4217 16.8292 23.3164 16.9422C24.2039 17.0543 24.8845 17.4115 24.8434 17.7362ZM26.2577 17.9149C26.2322 18.0583 25.9939 18.1455 25.727 18.1117C25.4528 18.0771 25.2509 17.9343 25.2691 17.79C25.2874 17.6457 25.5256 17.5585 25.7998 17.5932C26.0731 17.635 26.2822 17.7787 26.2577 17.9149Z" fill="white"/>
</g>
<defs>
<clipPath id="clip0_667_1985">
<rect width="48" height="48" fill="white" transform="translate(6.01624) rotate(7.20025)"/>
</clipPath>
</defs>
</svg>
