<svg width="14" height="16" viewBox="0 0 14 16" fill="none" xmlns="http://www.w3.org/2000/svg">
<path d="M7.01217 3.44873C4.7476 3.44873 2.89746 5.29887 2.89746 7.56344C2.89746 8.74753 3.4155 9.88721 4.28877 10.6569C4.94001 11.3081 4.88081 12.6994 4.86601 12.7142C4.86601 12.7882 4.88081 12.8474 4.94001 12.9066C4.98442 12.951 5.05842 12.9806 5.11763 12.9806H8.89191C8.96592 12.9806 9.02512 12.951 9.06952 12.9066C9.11393 12.8622 9.14353 12.7882 9.14353 12.7142C9.14353 12.6994 9.06952 11.3081 9.72077 10.6569L9.76518 10.6125C10.6236 9.82801 11.1269 8.71793 11.1269 7.56344C11.1269 5.29887 9.27674 3.44873 7.01217 3.44873ZM9.38035 10.272C9.36555 10.2868 9.33594 10.3164 9.33594 10.3312C8.7587 10.9529 8.65509 11.9742 8.64029 12.4626H5.36925C5.35444 11.9742 5.25084 10.9085 4.62919 10.272C3.84473 9.59119 3.3859 8.59952 3.3859 7.54864C3.3859 5.55049 4.99922 3.93717 6.99737 3.93717C8.99552 3.93717 10.6088 5.55049 10.6088 7.54864C10.6088 8.59952 10.1648 9.59119 9.38035 10.272Z" fill="#F2F3F3"/>
<path d="M6.99736 4.49954C6.86415 4.49954 6.74574 4.61795 6.74574 4.75116C6.74574 4.88437 6.86415 5.00278 6.99736 5.00278C8.49227 5.00278 9.69116 6.21647 9.69116 7.69658C9.69116 7.82979 9.80957 7.9482 9.94278 7.9482C10.076 7.9482 10.1944 7.82979 10.1944 7.69658C10.2092 5.93525 8.77349 4.49954 6.99736 4.49954ZM8.64028 13.2618H5.35444C5.01401 13.2618 4.73279 13.543 4.73279 13.8834C4.73279 14.2239 5.01401 14.5051 5.35444 14.5051H8.62548C8.98071 14.4903 9.26193 14.2239 9.26193 13.8834C9.26193 13.543 8.98071 13.2618 8.64028 13.2618ZM8.64028 13.987H5.35444C5.29523 13.987 5.23603 13.9426 5.23603 13.8686C5.23603 13.7946 5.28043 13.7502 5.35444 13.7502H8.62548C8.68469 13.7502 8.74389 13.7946 8.74389 13.8686C8.74389 13.9426 8.69949 13.987 8.64028 13.987ZM8.15185 14.7567H5.84287C5.50245 14.7567 5.22123 15.0379 5.22123 15.3784C5.22123 15.7188 5.50245 16 5.84287 16H8.15185C8.49227 16 8.77349 15.7188 8.77349 15.3784C8.77349 15.0231 8.49227 14.7567 8.15185 14.7567ZM8.15185 15.482H5.84287C5.78367 15.482 5.72446 15.4376 5.72446 15.3636C5.72446 15.2895 5.76887 15.2451 5.84287 15.2451H8.15185C8.21105 15.2451 8.27025 15.2895 8.27025 15.3636C8.27025 15.4376 8.21105 15.482 8.15185 15.482ZM6.99736 2.22017C7.14537 2.22017 7.24898 2.10176 7.24898 1.96855V0.251619C7.24898 0.118409 7.13057 0 6.99736 0C6.86415 0 6.74574 0.118409 6.74574 0.251619V1.96855C6.74574 2.10176 6.86415 2.22017 6.99736 2.22017ZM11.1861 1.2729C11.0677 1.18409 10.9197 1.22849 10.8456 1.3321L9.89838 2.75301C9.80957 2.87142 9.83917 3.03423 9.95758 3.10823C10.002 3.13784 10.0464 3.15264 10.0908 3.15264C10.1796 3.15264 10.2536 3.10823 10.298 3.03423L11.2453 1.61332C11.3341 1.50971 11.3045 1.3469 11.1861 1.2729ZM3.99273 3.09343C4.03714 3.09343 4.08154 3.07863 4.12594 3.04903C4.24435 2.97502 4.27395 2.81221 4.19995 2.6938L3.28228 1.25809C3.20827 1.13969 3.04546 1.11008 2.92705 1.18409C2.80864 1.25809 2.77904 1.42091 2.85305 1.53932L3.77072 2.97502C3.82992 3.06383 3.90393 3.09343 3.99273 3.09343ZM2.2018 4.66235L0.706887 3.84829C0.588478 3.78908 0.425666 3.83349 0.366462 3.9519C0.292456 4.07031 0.336859 4.23312 0.470069 4.29232L1.96498 5.10638C2.00938 5.12118 2.03899 5.13599 2.08339 5.13599C2.1722 5.13599 2.261 5.09158 2.30541 5.00278C2.36461 4.88437 2.32021 4.72155 2.2018 4.66235ZM13.6431 3.9519C13.5839 3.83349 13.421 3.78908 13.3026 3.84829L11.7929 4.66235C11.6745 4.72155 11.6301 4.88437 11.6893 5.00278C11.7337 5.09158 11.8225 5.13599 11.9113 5.13599C11.9557 5.13599 12.0001 5.12118 12.0297 5.10638L13.5394 4.29232C13.6579 4.23312 13.7023 4.07031 13.6431 3.9519Z" fill="#F2F3F3"/>
</svg>
