<svg width="74" height="90" viewBox="0 0 74 90" fill="none" xmlns="http://www.w3.org/2000/svg">
<g clip-path="url(#clip0_679_2203)">
<path d="M42.1617 89.9197C42.8139 89.722 43.5337 89.2339 43.3306 88.369C43.216 88.01 42.9828 87.7011 42.6695 87.4933C42.3563 87.2855 41.9818 87.1912 41.608 87.2261C40.0761 87.4609 40.2299 90.5189 42.1617 89.9197Z" fill="#EDF7F7"/>
<path d="M52.1654 81.1348C46.6726 83.8571 40.5304 84.9806 34.4344 84.3783C35.334 83.0325 36.5432 81.9242 37.9597 81.1472C40.4699 81.3325 42.7708 80.6468 45.2564 80.2514C47.5942 79.7956 50.0159 80.1053 52.1654 81.1348Z" fill="#7EB2DB"/>
<path d="M46.1115 45.8465V46.3592C45.9823 49.6397 45.564 53.1241 45.3733 56.4478C43.352 56.4402 41.3436 56.77 39.4301 57.4239C38.4109 54.844 37.7185 52.1458 37.3691 49.3926C37.0799 46.662 37.5352 43.7398 39.2148 41.559C40.1869 40.2678 41.5096 39.5203 42.98 40.4099C44.2828 41.2699 45.2498 42.5553 45.7178 44.0487C45.8999 44.6356 46.0317 45.237 46.1115 45.8465Z" fill="#CFEAE4"/>
<path d="M24.3139 60.8712C23.2234 61.0178 22.1484 61.2639 21.1024 61.6064C20.1897 59.7401 19.4603 57.789 18.9245 55.7806C18.4041 53.7933 18.4898 51.6949 19.1706 49.7571C19.3106 49.3163 19.5367 48.9079 19.8357 48.5557C20.1346 48.2036 20.5004 47.9147 20.9117 47.7061C21.1445 47.6125 21.3938 47.5675 21.6445 47.5738C21.8952 47.5802 22.142 47.6378 22.3698 47.7431C22.7635 52.148 23.2003 56.6208 24.3139 60.8712Z" fill="#CFEAE4"/>
<path d="M36.2555 62.7493C35.4709 65.6314 33.9429 68.2547 31.8258 70.3543C30.2693 69.2793 28.9035 67.4074 27.8207 65.8629C30.8352 65.4979 33.7233 64.4317 36.2555 62.7493Z" fill="#58C2B2"/>
<path d="M39.4116 57.4239C41.3251 56.77 43.3336 56.4401 45.3548 56.4478C45.3548 56.837 45.3056 57.22 45.2933 57.6092C42.6478 57.881 40.0125 58.2352 37.3875 58.6718C34.7807 53.4448 33.7257 47.5752 34.3483 41.7628C34.4605 40.3073 34.8335 38.8842 35.4496 37.5618C35.7613 36.9025 36.2002 36.3117 36.7409 35.8239C37.2816 35.3361 37.9134 34.9609 38.5995 34.72C39.4799 34.4987 40.4024 34.5104 41.2769 34.7541C42.1514 34.9977 42.9481 35.4649 43.5891 36.11C44.8578 37.424 45.6767 39.1097 45.9269 40.9226C46.1589 42.5592 46.2207 44.2156 46.1115 45.865C46.0182 45.2628 45.8741 44.6696 45.6809 44.0919C45.2129 42.5985 44.2458 41.3132 42.9431 40.4531C41.4727 39.5635 40.1499 40.311 39.1779 41.6022C37.5167 43.783 37.0615 46.7052 37.3322 49.4358C37.691 52.1751 38.3896 54.8587 39.4116 57.4239Z" fill="#58C2B2"/>
<path d="M21.1024 61.6062C22.1484 61.2637 23.2234 61.0176 24.3139 60.8711C24.3672 61.1017 24.4287 61.3303 24.4985 61.5568C22.8558 62.014 21.2193 62.5144 19.5766 63.0457C17.0767 58.9118 15.876 54.1171 16.1313 49.2875C16.215 47.3799 16.6185 45.5001 17.3249 43.7273C17.5397 43.1732 17.8523 42.6625 18.2477 42.2199C18.4471 41.999 18.6901 41.8223 18.9613 41.701C19.2325 41.5797 19.5259 41.5166 19.8227 41.5156C20.2247 41.5594 20.6077 41.7102 20.9322 41.9524C21.2566 42.1946 21.5108 42.5194 21.6684 42.8933C21.9703 43.6426 22.139 44.4393 22.1668 45.2471C22.2406 46.0811 22.3144 46.9151 22.3821 47.7553C22.1543 47.65 21.9075 47.5924 21.6568 47.586C21.4061 47.5797 21.1568 47.6246 20.924 47.7183C20.5127 47.9269 20.1469 48.2158 19.8479 48.5679C19.549 48.9201 19.3229 49.3285 19.1829 49.7693C18.5021 51.7071 18.4164 53.8055 18.9368 55.7928C19.4694 57.7965 20.1947 59.7435 21.1024 61.6062Z" fill="#58C2B2"/>
<path d="M46.1115 45.8465C46.2207 44.1971 46.1589 42.5408 45.9269 40.9042C45.6767 39.0913 44.8578 37.4056 43.589 36.0916C42.948 35.4464 42.1514 34.9792 41.2769 34.7356C40.4024 34.492 39.4799 34.4802 38.5995 34.7016C37.9133 34.9424 37.2816 35.3177 36.7409 35.8055C36.2002 36.2933 35.7612 36.884 35.4495 37.5434C34.8335 38.8657 34.4604 40.2889 34.3483 41.7444C33.7257 47.5568 34.7807 53.4263 37.3875 58.6534C40.0166 58.2168 42.6518 57.8626 45.2932 57.5908C45.2932 57.2016 45.3301 56.8185 45.3547 56.4293C45.5455 53.1056 45.97 49.6336 46.093 46.3408L46.1115 45.8465ZM24.3138 60.8712C23.2003 56.6208 22.7635 52.148 22.3697 47.7431C22.302 46.903 22.2282 46.0689 22.1544 45.2349C22.1266 44.4271 21.9579 43.6304 21.656 42.8811C21.4984 42.5073 21.2442 42.1824 20.9198 41.9402C20.5953 41.698 20.2123 41.5472 19.8103 41.5034C19.5135 41.5044 19.2201 41.5676 18.9489 41.6888C18.6777 41.8101 18.4347 41.9868 18.2354 42.2077C17.8387 42.6541 17.526 43.169 17.3125 43.7275C16.6061 45.5003 16.2026 47.38 16.119 49.2876C15.8679 54.1212 17.0751 58.9184 19.5827 63.052C21.2069 62.5207 22.8434 62.0203 24.5046 61.5632C24.4348 61.3325 24.3713 61.1019 24.3138 60.8712ZM55.6045 43.1715C56.2197 50.8568 54.3187 58.573 52.2392 65.9927C50.7196 67.2592 49.1015 68.7048 47.588 69.9651C47.3774 73.7201 47.9646 77.477 49.3107 80.9866C41.6963 83.0401 33.8027 83.8515 25.9319 83.3898C24.4076 80.104 23.1525 76.699 22.179 73.2086C20.401 72.356 16.4512 69.9034 16.4512 69.9034C16.4512 69.9034 14.3409 63.6698 13.7749 61.5199C12.5387 56.9632 12.0401 52.2364 12.2984 47.5207C12.8275 39.5698 16.1805 31.6064 22.3574 26.6085C28.5343 21.6105 37.6767 20.1093 44.6411 23.9272C51.3532 27.6216 55.0016 35.4861 55.6045 43.1715ZM31.8258 70.3544C33.9429 68.2548 35.4708 65.6315 36.2555 62.7493C33.7211 64.4231 30.8331 65.4807 27.8207 65.8383C28.9035 67.4075 30.2693 69.2794 31.8258 70.3544Z" fill="url(#paint0_radial_679_2203)"/>
<path d="M70.1117 40.6385C69.5887 45.76 67.7799 50.8321 66.1003 55.7559C65.6266 57.1459 65.159 58.5607 64.7284 59.9878C64.3888 59.9614 64.064 59.837 63.7932 59.6294C62.452 58.6966 61.9475 57.1088 61.683 55.4099C61.683 55.342 61.683 55.274 61.683 55.206C62.5874 53.3527 63.4856 51.4993 64.2977 49.615C65.7784 46.3374 66.7991 42.8695 67.3308 39.3102C67.7428 39.1934 68.1784 39.189 68.5926 39.2976C69.0068 39.4062 69.3847 39.6238 69.6871 39.928C69.8643 40.1415 70.0075 40.3811 70.1117 40.6385Z" fill="#FAA747"/>
<path d="M70.8377 41.701C70.7547 40.9269 70.5469 40.1716 70.2224 39.4645C70.0549 39.1082 69.821 38.7874 69.5334 38.5193C69.2539 38.2719 68.9285 38.0823 68.5759 37.9614C68.2232 37.8406 67.8503 37.7908 67.4785 37.815C66.8497 37.829 66.2352 38.0056 65.6943 38.3278C64.5194 39.1181 63.5796 40.2133 62.975 41.4971C60.5351 46.0668 59.777 51.3538 60.834 56.4291C60.834 56.5527 60.8894 56.6701 60.914 56.7874C61.3323 58.5543 62.0645 60.1606 63.6395 61.0749C63.8636 61.2087 64.1062 61.3086 64.3593 61.3715C65.6943 61.6989 66.5926 60.5436 67.3924 59.2092C68.603 57.1504 69.5321 54.9374 70.1548 52.6297C71.1151 49.0705 71.3474 45.3528 70.8377 41.701ZM66.9986 58.1651C66.3834 59.1845 65.6697 60.0679 64.7592 60.0185C64.4196 59.9921 64.0948 59.8677 63.824 59.6602C62.4828 58.7273 61.9783 57.1396 61.7138 55.4407C61.7138 55.3727 61.7138 55.3047 61.7138 55.2368C61.1203 50.7828 61.9839 46.2557 64.1747 42.3373C64.7059 41.2438 65.5196 40.3136 66.531 39.6437C66.7812 39.5022 67.0507 39.3981 67.3308 39.3348C67.7428 39.2179 68.1784 39.2136 68.5926 39.3222C69.0068 39.4308 69.3847 39.6484 69.6872 39.9526C69.8709 40.1568 70.0223 40.3881 70.1363 40.6384C70.4234 41.3311 70.5859 42.0695 70.6162 42.8192C71.055 48.1938 69.7771 53.5691 66.9679 58.1651H66.9986Z" fill="#7EB2DB"/>
<path d="M70.5915 42.844C71.0324 48.2078 69.7634 53.5734 66.9678 58.1653C66.3526 59.1846 65.6389 60.0681 64.7284 60.0187C65.159 58.5916 65.6266 57.1768 66.1003 55.7868C67.7799 50.8444 69.5887 45.7909 70.1116 40.6694C70.3981 41.3602 70.5605 42.0964 70.5915 42.844ZM64.1193 42.3313C61.9285 46.2497 61.0649 50.7767 61.6584 55.2308C62.5628 53.3774 63.461 51.524 64.2731 49.6397C65.7537 46.3622 66.7745 42.8942 67.3062 39.335C67.026 39.3982 66.7566 39.5023 66.5064 39.6439C65.4845 40.3078 64.6598 41.2362 64.1193 42.3313Z" fill="#FFC761"/>
<path d="M24.4677 83.2661C23.9673 83.2291 23.469 83.1796 22.9727 83.1179L18.9491 75.8588C21.0987 78.0789 22.9536 80.5686 24.4677 83.2661ZM53.6112 16.8596C57.2492 18.1067 60.4675 20.3504 62.9027 23.3372C65.3379 26.324 66.893 29.935 67.3924 33.7624C67.5472 35.1077 67.576 36.4645 67.4785 37.8151C67.8503 37.7909 68.2233 37.8407 68.5759 37.9615C68.9285 38.0824 69.2539 38.272 69.5334 38.5194C69.821 38.7875 70.0549 39.1083 70.2225 39.4646C70.3442 37.6966 70.2658 35.9204 69.9887 34.1702C68.6413 25.8547 61.763 18.7377 53.6112 16.8596ZM60.914 56.7876C59.6835 59.3267 58.4531 61.8658 57.481 64.5038C55.7522 69.1249 54.7309 74.1846 55.5861 79.0034C58.1845 78.0557 60.7239 76.9519 63.1904 75.6982C62.2675 70.9906 63.0427 66.1162 64.3593 61.3716C64.1062 61.3087 63.8636 61.2088 63.6395 61.075C62.046 60.1607 61.3139 58.5544 60.8956 56.7876H60.914Z" fill="#7EB2DB"/>
<path d="M70.487 28.2209C68.6026 23.7128 65.3381 19.9241 61.1663 17.4034C56.9889 14.9693 52.0363 14.1291 47.2067 14.2032C37.9782 14.3453 28.073 16.5261 20.9425 22.7102C15.1782 27.7561 11.5295 34.8058 10.7296 42.4425C10.1144 48.744 11.271 55.5273 12.883 61.7485C13.1229 62.6999 13.3813 63.6389 13.6458 64.5595C15.0952 69.6147 17.1922 74.4596 19.8843 78.9726C20.2534 79.5903 21.9022 83.0376 22.5667 83.1056L22.9727 83.1427L18.9491 75.8836C21.1057 78.1045 22.9668 80.5964 24.4862 83.2971C24.9661 83.3342 25.446 83.3712 25.9258 83.396C24.4015 80.1102 23.1464 76.7052 22.1729 73.2147C20.3949 72.3622 16.4451 69.9095 16.4451 69.9095C16.4451 69.9095 14.3349 63.676 13.7689 61.5261C12.5326 56.9693 12.0341 52.2426 12.2923 47.5269C12.8214 39.5759 16.1744 31.6126 22.3514 26.6146C28.5283 21.6167 37.6706 20.1155 44.635 23.9334C51.4026 27.6402 55.0201 35.4923 55.6231 43.1777C56.226 50.863 54.3188 58.5545 52.2393 65.968C50.7197 67.2345 49.1016 68.6801 47.5881 69.9404C47.369 73.7033 47.9542 77.4696 49.3046 80.9866C51.421 80.4223 53.5046 79.7613 55.5554 79.0034C54.7002 74.1847 55.7215 69.1188 57.4503 64.5039C58.4347 61.8659 59.6467 59.3268 60.8833 56.7876C60.8833 56.6702 60.8279 56.5529 60.8033 56.4293C59.7463 51.354 60.5044 46.067 62.9443 41.4973C63.5489 40.2135 64.4887 39.1183 65.6636 38.328C66.2045 38.0058 66.819 37.8291 67.4478 37.8152C67.5453 36.4646 67.5164 35.1077 67.3617 33.7625C66.8649 29.9387 65.3143 26.3302 62.8849 23.3437C60.4554 20.3573 57.2435 18.1116 53.6113 16.8597C61.7815 18.7131 68.6598 25.8548 69.9887 34.1579C70.2668 35.9122 70.3452 37.6926 70.2225 39.4647C70.547 40.1718 70.7548 40.9271 70.8377 41.7011C71.3515 45.3521 71.1233 49.0698 70.1671 52.6299C69.5445 54.9376 68.6153 57.1506 67.4047 59.2094C66.6049 60.5438 65.7067 61.6805 64.3717 61.3716C63.0551 66.1163 62.2799 70.9907 63.2027 75.6983C64.2978 75.1422 65.3868 74.5492 66.445 73.9314C66.445 66.765 69.0474 59.8333 70.93 52.8338C71.9152 49.449 72.5481 45.9707 72.8188 42.4548C73.1561 37.5926 72.3576 32.7184 70.487 28.2209Z" fill="url(#paint1_linear_679_2203)"/>
<path style="mix-blend-mode:screen" d="M49.3045 14.9506C50.9167 17.0472 51.8005 19.6164 51.8208 22.2652C51.8406 24.905 51.3495 27.5235 50.375 29.9753C48.1664 35.869 44.1612 40.9349 39.387 44.895C34.6128 48.855 29.0819 51.7586 23.391 54.0692C21.7591 54.8067 20.0247 55.29 18.2477 55.5025C17.3564 55.5993 16.4548 55.5164 15.5959 55.2586C14.737 55.0008 13.938 54.5733 13.2458 54.0012C9.75133 50.8319 10.7357 43.9003 11.6093 39.792C12.7143 34.5606 15.1425 29.7032 18.6599 25.6878C26.0734 17.2858 38.3965 13.9312 49.3045 14.9506Z" fill="url(#paint2_linear_679_2203)"/>
<path style="mix-blend-mode:screen" d="M35.4865 23.5689C36.1157 23.5357 36.7448 23.6368 37.3322 23.8654C37.63 23.9847 37.8902 24.1826 38.0851 24.4382C38.28 24.6937 38.4025 24.9975 38.4396 25.3173C38.4293 25.647 38.3315 25.9681 38.1562 26.2472C37.981 26.5263 37.7348 26.7534 37.443 26.905C36.8639 27.2071 36.241 27.4156 35.5973 27.5228C32.7788 28.1584 30.0579 29.1702 27.507 30.5314L18.1247 35.4367C17.854 35.5788 17.5095 35.7209 17.2634 35.5479C17.0173 35.3749 17.0788 34.788 17.2634 34.4297C19.8981 29.789 24.1598 26.3003 29.2173 24.6439C31.2349 23.9455 33.3525 23.5825 35.4865 23.5689Z" fill="url(#paint3_linear_679_2203)"/>
<g style="mix-blend-mode:multiply">
<path d="M12.9444 32.8853L12.2554 35.8939C22.6651 34.8622 41.0051 34.3 72.6403 35.9928V34.9054C72.6403 34.9054 48.9047 27.6649 36.3847 28.1344C20.641 28.709 12.9444 32.8853 12.9444 32.8853Z" fill="#93ABB5"/>
</g>
<path d="M71.2253 14.5984C74.3014 21.1779 74.7136 28.9559 72.9602 36.0049C69.3304 35.0865 65.6656 34.2854 61.966 33.6017C61.6523 33.3299 61.3508 33.0642 60.9878 32.7924L61.3939 30.4448C62.0952 26.1202 62.0091 16.4888 61.1539 11.7566C55.1426 6.57682 48.1691 2.64406 40.636 0.185303C52.0485 2.27344 64.3039 8.55639 71.2253 14.5984Z" fill="#04686E"/>
<path d="M61.1539 11.7566C61.9968 16.4889 62.0952 26.1265 61.3938 30.4449C52.6676 26.3762 43.3795 23.654 33.8438 22.3703C33.4008 15.9515 35.1173 9.58819 38.1873 3.21875C34.5653 8.8913 32.4143 15.3838 31.9304 22.1047C27.6541 21.62 23.3491 21.4404 19.0475 21.5672C19.6627 18.8551 21.9329 13.4185 21.9329 13.4185C26.4795 8.08696 32.6441 3.02106 39.5901 -0.0246582L40.6359 0.160679C48.171 2.62684 55.1447 6.56809 61.1539 11.7566Z" fill="url(#paint4_linear_679_2203)"/>
<path d="M61.3938 30.4449L60.9939 32.7925C58.0621 30.6524 54.8157 28.9849 51.3717 27.8501C45.6546 26.0257 39.7637 24.8041 33.7946 24.2052L33.9053 23.1302C33.9053 22.8893 33.8622 22.6421 33.8499 22.395C43.3823 23.6714 52.6681 26.3853 61.3938 30.4449Z" fill="#3FBFB5"/>
<path d="M38.1873 3.21265C35.1112 9.58826 33.4008 15.9515 33.8438 22.3642C33.2286 22.2777 32.5703 22.1974 31.9304 22.1233C32.4103 15.3939 34.5614 8.89243 38.1873 3.21265Z" fill="#04686E"/>
<path d="M19.0475 21.5918C23.3491 21.4651 27.6542 21.6447 31.9304 22.1293C32.5457 22.2035 33.204 22.2838 33.8438 22.3703C33.8438 22.6174 33.8807 22.8645 33.8992 23.1054L33.7884 24.1804C30.9276 23.853 28.0483 23.6429 25.1752 23.507C16.6948 23.0241 8.19347 23.9594 0.0183981 26.2747C-0.0900509 25.6012 -0.0112834 24.9107 0.246031 24.2792C6.39186 22.6726 12.6993 21.7711 19.0475 21.5918Z" fill="#3FBFB5"/>
<path d="M60.9939 32.7925C61.3385 33.0643 61.6584 33.33 61.9721 33.6018C48.7995 31.1862 35.3903 30.3299 22.019 31.0503C18.9429 31.2171 15.7191 31.5075 13.1043 33.089C8.41627 31.631 3.37137 30.2595 0.0921884 26.7814C0.0921884 26.6207 0.0552734 26.4539 0.0429688 26.2748C8.21804 23.9595 16.7194 23.0242 25.1998 23.5071C28.0545 23.643 30.9337 23.853 33.813 24.1804C39.7822 24.7794 45.673 26.001 51.3902 27.8254C54.8292 28.9696 58.0694 30.6454 60.9939 32.7925Z" fill="#04686E"/>
</g>
<defs>
<radialGradient id="paint0_radial_679_2203" cx="0" cy="0" r="1" gradientUnits="userSpaceOnUse" gradientTransform="translate(26.0488 37.1171) scale(38.698 38.8591)">
<stop stop-color="#367992"/>
<stop offset="1" stop-color="#2D3C52"/>
</radialGradient>
<linearGradient id="paint1_linear_679_2203" x1="10.0406" y1="31.1307" x2="83.2901" y2="74.8184" gradientUnits="userSpaceOnUse">
<stop stop-color="#FFEEC5"/>
<stop offset="1" stop-color="#ADDCF6"/>
</linearGradient>
<linearGradient id="paint2_linear_679_2203" x1="20.2718" y1="13.0848" x2="41.1048" y2="53.6778" gradientUnits="userSpaceOnUse">
<stop stop-color="#BDBE9A"/>
<stop offset="0.16" stop-color="#9D9E80"/>
<stop offset="0.74" stop-color="#2D2E25"/>
<stop offset="1" stop-color="#010101"/>
</linearGradient>
<linearGradient id="paint3_linear_679_2203" x1="22.8928" y1="22.6607" x2="29.7368" y2="33.0445" gradientUnits="userSpaceOnUse">
<stop stop-color="#BDBE9A"/>
<stop offset="0.16" stop-color="#9D9E80"/>
<stop offset="0.74" stop-color="#2D2E25"/>
<stop offset="1" stop-color="#010101"/>
</linearGradient>
<linearGradient id="paint4_linear_679_2203" x1="40.3496" y1="-2.14847" x2="40.4542" y2="21.0009" gradientUnits="userSpaceOnUse">
<stop stop-color="#91D1B6"/>
<stop offset="1" stop-color="#00B2A3"/>
</linearGradient>
<clipPath id="clip0_679_2203">
<rect width="74" height="90" fill="white"/>
</clipPath>
</defs>
</svg>
