<svg width="90" height="90" viewBox="0 0 90 90" fill="none" xmlns="http://www.w3.org/2000/svg">
<g clip-path="url(#clip0_641_2014)">
<path d="M24.276 41.6729C25.4861 51.9565 30.0384 61.6103 34.6895 70.8332C37.0109 72.0927 39.5134 73.5677 41.843 74.8273C43.101 79.718 43.3115 84.8222 42.4604 89.801C53.0153 90.4853 63.6108 89.4557 73.8407 86.7516C74.9703 82.0224 75.7164 77.2087 76.0715 72.3579C78.1789 70.7586 82.7312 66.4745 82.7312 66.4745C82.7312 66.4745 83.8672 57.7156 84.0401 54.7324C84.4732 48.4036 83.8867 42.0458 82.3031 35.9054C79.529 25.5804 73.0339 16.0178 63.6083 11.0459C54.1828 6.07395 41.7772 6.55456 33.6358 13.4324C25.7825 20.0782 23.0495 31.3976 24.276 41.6729Z" fill="url(#paint0_radial_641_2014)"/>
<path d="M4.56874 42.2281C6.5938 48.8573 10.3311 55.0308 13.7968 61.0634C14.7846 62.7621 15.7724 64.5023 16.7109 66.2756C17.1484 66.1455 17.5416 65.896 17.8469 65.5547C19.3698 63.9719 19.6332 61.7429 19.4933 59.4309C19.4933 59.3398 19.4933 59.2569 19.4933 59.1575C17.8469 56.9698 16.1511 54.7656 14.5541 52.4868C11.7461 48.5674 9.49623 44.2721 7.86976 39.7255C7.29483 39.6848 6.71957 39.8001 6.20407 40.0596C5.68856 40.3191 5.25172 40.7131 4.93918 41.2005C4.76101 41.5205 4.63589 41.8676 4.56874 42.2281Z" fill="#FAA747"/>
<path d="M3.91841 43.7694C3.82783 42.7286 3.90005 41.6801 4.13244 40.6619C4.25534 40.1514 4.47627 39.67 4.78277 39.2449C5.39611 38.4364 6.30105 37.9036 7.30174 37.7616C8.12931 37.6244 8.97775 37.6955 9.77133 37.9688C11.5218 38.7003 13.0434 39.8941 14.1754 41.4243C18.5727 46.7842 20.9539 53.5321 20.9009 60.4833C20.9009 60.649 20.9009 60.8147 20.9009 60.9722C20.8186 63.4084 20.2753 65.7204 18.4314 67.3445C18.1692 67.5784 17.8754 67.7737 17.5588 67.9246C15.9124 68.7118 14.4142 67.4274 13.0147 65.8778C10.8797 63.4911 9.07684 60.8232 7.65572 57.9476C5.47483 53.5228 4.20367 48.7005 3.91841 43.7694ZM13.2864 64.4277C14.3895 65.6044 15.5337 66.5822 16.7109 66.2756C17.1484 66.1455 17.5416 65.896 17.8469 65.5546C19.3698 63.9719 19.6332 61.7428 19.4933 59.4309C19.4933 59.3397 19.4933 59.2569 19.4933 59.1575C19.112 53.1392 16.8011 47.408 12.9077 42.8247C11.9064 41.5279 10.5792 40.5238 9.06338 39.9161C8.6981 39.8001 8.31851 39.7359 7.93561 39.7255C7.36068 39.6847 6.78542 39.8001 6.26992 40.0596C5.75441 40.319 5.31757 40.7131 5.00503 41.2005C4.81538 41.5184 4.67909 41.8656 4.60166 42.2281C4.40626 43.2137 4.38397 44.2261 4.53581 45.2195C5.35738 52.3938 8.42157 59.1199 13.2864 64.4277Z" fill="#7EB2DB"/>
<path d="M4.50289 45.2196C5.33367 52.3977 8.40959 59.1243 13.2864 64.4277C14.3895 65.6044 15.5337 66.5822 16.7109 66.2756C15.7724 64.5023 14.7846 62.7621 13.7968 61.0634C10.3064 55.0308 6.59381 48.8242 4.56874 42.2281C4.37334 43.2137 4.35105 44.2262 4.50289 45.2196ZM12.8748 42.8248C16.7682 47.408 19.0791 53.1393 19.4604 59.1575C17.814 56.9699 16.1182 54.7656 14.5212 52.4868C11.7132 48.5674 9.4633 44.2721 7.83683 39.7256C8.21974 39.736 8.59933 39.8001 8.96461 39.9162C10.5044 40.5135 11.8554 41.5185 12.8748 42.8248Z" fill="#FFC761"/>
<path d="M75.7011 86.2379C76.3432 86.0555 76.9935 85.8567 77.6274 85.6495L81.0107 75.0179C78.7695 78.5128 76.985 82.2839 75.7011 86.2379ZM20.0119 6.49658C15.5614 9.10444 11.9235 12.9126 9.50895 17.4912C7.09435 22.0698 5.99912 27.2366 6.34685 32.4086C6.50256 34.2185 6.82219 36.0103 7.30175 37.7617C6.30105 37.9036 5.39612 38.4364 4.78277 39.2449C4.47627 39.6701 4.25535 40.1514 4.13245 40.6619C3.51006 38.3679 3.14557 36.0109 3.04583 33.635C2.60954 22.3321 9.77134 11.1288 20.0119 6.49658ZM20.9174 61.0054C23.2059 64.0217 25.4615 67.0463 27.4536 70.2614C30.9357 75.888 33.6029 82.2769 33.7428 88.8481C30.078 88.2974 26.4494 87.5254 22.8766 86.5362C22.8766 80.0975 20.5552 73.8826 17.5752 67.9826C17.8919 67.8318 18.1857 67.6365 18.4478 67.4026C20.2753 65.7536 20.8186 63.4416 20.9174 61.0054Z" fill="#7EB2DB"/>
<path d="M0.806798 25.9368C2.1026 19.5018 5.39777 13.6485 10.2159 9.22283C15.0645 4.91383 21.3455 2.48588 27.7171 1.30091C39.8674 -0.953027 53.4502 -0.712716 64.4481 5.54361C73.3419 10.6572 79.9829 18.9706 83.0358 28.8122C85.5054 36.9413 85.7606 46.2139 85.2749 54.7987C85.2091 56.1163 85.1185 57.4256 85.0115 58.7017C84.433 65.7426 82.9499 72.6783 80.5992 79.3352C80.2781 80.2467 79.0104 85.2269 78.1296 85.4921C77.9567 85.5501 77.7838 85.6081 77.6027 85.6495L81.0108 75.0179C78.7696 78.5128 76.985 82.2839 75.7011 86.2378C75.0838 86.4201 74.4663 86.5942 73.8407 86.7516C74.9704 82.0224 75.7165 77.2087 76.0716 72.3579C78.179 70.7586 82.7312 66.4745 82.7312 66.4745C82.7312 66.4745 83.8672 57.7156 84.0401 54.7324C84.4733 48.4036 83.8867 42.0458 82.3032 35.9055C79.529 25.5804 73.034 16.0178 63.6084 11.0459C54.1828 6.07395 41.7772 6.55457 33.6358 13.4324C25.7579 20.0616 23.0249 31.4059 24.2514 41.6812C25.478 51.9565 30.0138 61.6186 34.6648 70.8415C36.9862 72.101 39.4888 73.576 41.8184 74.8356C43.0764 79.7263 43.2869 84.8305 42.4358 89.8093C39.5052 89.627 36.5939 89.3094 33.7017 88.8564C33.5618 82.2852 30.8946 75.8962 27.4125 70.2697C25.4203 67.0545 23.1648 64.0299 20.8763 61.0136C20.8763 60.8562 20.8763 60.6905 20.8763 60.5247C20.9293 53.5735 18.5481 46.8256 14.1508 41.4657C13.0188 39.9356 11.4971 38.7417 9.74671 38.0102C8.95313 37.737 8.10468 37.6658 7.27712 37.8031C6.79756 36.0517 6.47792 34.2599 6.32221 32.45C5.97448 27.278 7.06972 22.1112 9.48431 17.5326C11.8989 12.954 15.5367 9.14585 19.9873 6.538C9.74671 11.1785 2.5849 22.3736 3.0212 33.6764C3.12094 36.0523 3.48543 38.4094 4.10781 40.7034C3.87542 41.7215 3.8032 42.7701 3.89378 43.8108C4.1798 48.7544 5.45668 53.5885 7.64755 58.0222C9.06867 60.8978 10.8715 63.5657 13.0066 65.9524C14.406 67.502 15.8877 68.7864 17.5506 67.9992C20.5306 73.8992 22.8273 80.1141 22.852 86.5527C21.2632 86.1053 19.6827 85.6163 18.1268 85.086C16.2335 75.6477 11.0144 67.212 6.70088 58.4945C4.5225 54.2958 2.77647 49.8837 1.49005 45.3272C-0.238484 39.0061 -0.472483 32.3653 0.806798 25.9368Z" fill="url(#paint1_linear_641_2014)"/>
<path style="mix-blend-mode:screen" d="M25.1569 2.84217C23.5992 6.03397 23.1138 9.6488 23.7739 13.1423C24.4436 16.625 25.78 19.9433 27.7088 22.9121C32.1458 30.0883 38.7396 35.69 46.0496 39.6427C53.3595 43.5953 61.3857 45.9321 69.486 47.4734C71.8223 48.0097 74.226 48.1858 76.6148 47.9955C77.8123 47.8839 78.9758 47.5334 80.0372 46.9643C81.0987 46.3952 82.0368 45.6189 82.797 44.6809C86.559 39.5847 83.4474 30.7181 81.2247 25.5556C78.3961 18.9608 73.9316 13.2083 68.2594 8.84991C56.3148 -0.240415 39.2006 -1.38396 25.1569 2.84217Z" fill="url(#paint2_linear_641_2014)"/>
<path d="M40.3531 56.4394C40.4848 56.9449 40.6083 57.4421 40.7317 57.9476C44.2715 57.6079 47.8359 57.3758 51.4333 57.2515C53.4862 49.6779 53.3319 41.6697 50.9887 34.1818C50.4636 32.2952 49.6017 30.5206 48.4451 28.9448C47.8601 28.16 47.1271 27.4992 46.2881 27.0001C45.449 26.501 44.5203 26.1734 43.5553 26.0362C42.3402 25.9776 41.1307 26.2377 40.0455 26.7912C38.9603 27.3446 38.0366 28.1724 37.3648 29.1933C36.0481 31.2604 35.4169 33.6946 35.562 36.1457C35.6832 38.3564 36.0364 40.548 36.6158 42.6838C37.3319 46.0979 39.678 51.915 40.3531 56.4394ZM68.2512 38.8803L67.8807 35.516C67.6912 34.4472 67.6912 33.353 67.8807 32.2842C67.9902 31.7533 68.2377 31.2612 68.5978 30.858C68.9578 30.4547 69.4177 30.1548 69.9305 29.9888C70.3208 29.9123 70.7225 29.9178 71.1106 30.0047C71.4987 30.0917 71.8649 30.2584 72.186 30.4943C72.8228 30.971 73.3646 31.5641 73.783 32.2428C75.1872 34.3861 76.2121 36.7579 76.8124 39.2532C78.4212 45.5556 78.094 52.2009 75.8739 58.3122C73.6102 58.047 71.3299 57.8233 69.0497 57.6576C69.0497 57.3344 69.0991 57.0195 69.1155 56.7046C69.1237 50.7524 68.8352 44.8035 68.2512 38.8803Z" fill="#58C2B2"/>
<path d="M45.6627 39.9328C46.1374 40.6731 46.5268 41.4654 46.8234 42.2944C47.3461 43.7818 47.7507 45.3085 48.0335 46.8603C48.5804 49.5636 48.7878 52.3252 48.6509 55.0805C48.6583 55.8489 48.6032 56.6166 48.4862 57.3759C45.8904 57.5085 43.3056 57.6991 40.7317 57.9477C40.6083 57.4422 40.4848 56.945 40.3531 56.4395C39.678 51.9151 37.3319 46.0979 36.5746 42.6839C36.5334 42.5265 36.5005 42.369 36.4594 42.2199C36.7978 41.0111 37.4123 39.8987 38.2539 38.9715C40.6083 36.4939 43.8681 37.1982 45.6627 39.9328Z" fill="#CFEAE4"/>
<path d="M69.5765 38.4743C69.944 38.4082 70.322 38.4332 70.6778 38.5473C71.0335 38.6614 71.3562 38.861 71.618 39.1289C72.136 39.67 72.5418 40.3094 72.8117 41.01C73.6584 42.9363 74.2454 44.9679 74.5568 47.0509C75.0672 50.3655 75.1331 54.8236 73.7337 58.0305C72.2025 57.8648 70.6549 57.7239 69.1155 57.6079C69.1155 57.2847 69.1649 56.9698 69.1814 56.655C69.1814 51.625 68.9097 45.0538 68.3582 39.4604C68.6281 38.9904 69.0626 38.6388 69.5765 38.4743Z" fill="#CFEAE4"/>
<path d="M56.4136 60.1104C58.8833 61.3563 61.6738 61.8076 64.4068 61.403C64.1741 64.5595 63.1488 67.6047 61.4269 70.2531C61.3801 70.4144 61.288 70.5587 61.1615 70.6685C61.035 70.7782 60.8797 70.8487 60.7143 70.8715C60.5488 70.8943 60.3804 70.8684 60.2293 70.7969C60.0782 70.7254 59.9509 70.6113 59.8628 70.4685C57.3768 68.0406 56.3148 63.599 56.4136 60.1104Z" fill="#58C2B2"/>
<path style="mix-blend-mode:screen" d="M70.482 19.6389C71.0275 20.1696 71.3513 20.8898 71.3875 21.6526C71.2725 22.1876 70.9631 22.6601 70.5199 22.9774C70.0768 23.2947 69.5319 23.434 68.992 23.3679C67.913 23.1925 66.8928 22.7544 66.0203 22.0917C60.0769 18.3848 53.5046 15.8143 46.634 14.5096C45.7615 14.4142 44.9194 14.1316 44.1645 13.6809C43.7986 13.446 43.5197 13.0964 43.3709 12.686C43.2221 12.2756 43.2117 11.8273 43.3413 11.4104C43.7035 10.5817 44.7407 10.2669 45.6544 10.1343C50.2568 9.40201 54.9694 9.89391 59.3246 11.5612C63.6798 13.2285 67.5261 16.0132 70.482 19.6389Z" fill="url(#paint3_linear_641_2014)"/>
<path d="M19.8884 22.995C18.6894 24.5234 17.3256 25.913 15.8218 27.1383C14.3059 28.3538 12.4614 29.0814 10.5287 29.2265C9.56509 29.2865 8.60146 29.1097 7.72091 28.7113C6.84035 28.3128 6.0693 27.7047 5.47426 26.9394C4.90307 26.1565 4.60752 25.2042 4.63435 24.2331C4.66119 23.2621 5.00888 22.3278 5.62243 21.578C6.65802 20.6293 7.97334 20.0473 9.36797 19.9207C8.75299 19.0011 8.49689 17.8853 8.64881 16.7873C8.80072 15.6894 9.34995 14.6865 10.1912 13.971C10.8992 13.454 11.736 13.1453 12.6082 13.0795C13.4804 13.0136 14.3537 13.1932 15.1303 13.5981C16.6733 14.4289 17.8918 15.7606 18.5878 17.3768C19.271 18.8932 19.5097 21.288 19.8884 22.995Z" fill="#E83332"/>
<path d="M18.8018 21.7852C19.1035 23.6986 19.6171 25.572 20.3329 27.3703C21.0587 29.1803 22.3095 30.7281 23.9221 31.8119C24.7334 32.3399 25.6599 32.6617 26.622 32.7498C27.5841 32.8378 28.5531 32.6894 29.4457 32.3174C30.3221 31.9136 31.0402 31.228 31.4873 30.3685C31.9343 29.509 32.0849 28.5242 31.9153 27.5692C31.4752 26.2217 30.6075 25.0572 29.4457 24.2546C30.4317 23.7597 31.2023 22.917 31.6107 21.887C32.019 20.857 32.0366 19.7117 31.6601 18.6695C31.293 17.8732 30.7142 17.1948 29.9878 16.7092C29.2613 16.2237 28.4156 15.9499 27.5441 15.9183C25.7933 15.873 24.0796 16.4315 22.6873 17.5011C21.329 18.512 19.9543 20.4842 18.8018 21.7852Z" fill="#E83332"/>
<path d="M20.9627 22.1973C21.5748 19.5027 21.3848 17.1602 20.5383 16.9654C19.6918 16.7705 18.5093 18.797 17.8972 21.4917C17.2851 24.1864 17.4751 26.5288 18.3216 26.7237C19.1682 26.9185 20.3506 24.892 20.9627 22.1973Z" fill="#E83332"/>
</g>
<defs>
<radialGradient id="paint0_radial_641_2014" cx="0" cy="0" r="1" gradientUnits="userSpaceOnUse" gradientTransform="translate(61.9218 26.8173) rotate(168.391) scale(51.8608 52.1768)">
<stop stop-color="#367992"/>
<stop offset="1" stop-color="#2D3C52"/>
</radialGradient>
<linearGradient id="paint1_linear_641_2014" x1="52.4788" y1="1.46664" x2="33.1808" y2="86.3239" gradientUnits="userSpaceOnUse">
<stop stop-color="#FFEEC5"/>
<stop offset="1" stop-color="#ADDCF6"/>
</linearGradient>
<linearGradient id="paint2_linear_641_2014" x1="63.094" y1="-6.363" x2="46.5716" y2="52.6785" gradientUnits="userSpaceOnUse">
<stop stop-color="#BDBE9A"/>
<stop offset="0.16" stop-color="#9D9E80"/>
<stop offset="0.74" stop-color="#2D2E25"/>
<stop offset="1" stop-color="#010101"/>
</linearGradient>
<linearGradient id="paint3_linear_641_2014" x1="72.3342" y1="0.729071" x2="47.7888" y2="26.5952" gradientUnits="userSpaceOnUse">
<stop stop-color="#BDBE9A"/>
<stop offset="0.16" stop-color="#9D9E80"/>
<stop offset="0.74" stop-color="#2D2E25"/>
<stop offset="1" stop-color="#010101"/>
</linearGradient>
<clipPath id="clip0_641_2014">
<rect width="90" height="90" fill="white"/>
</clipPath>
</defs>
</svg>
