<svg width="91" height="93" viewBox="0 0 91 93" fill="none" xmlns="http://www.w3.org/2000/svg">
<g clip-path="url(#clip0_641_1977)">
<path d="M66.2823 42.0884C65.512 52.709 61.2584 62.8427 56.9043 72.5315C54.5682 73.9419 52.0562 75.5707 49.7201 76.9812C48.6482 82.0622 48.6653 87.3136 49.7703 92.3875C38.9157 93.5776 27.9408 93.0107 17.2656 90.7083C15.8719 85.9029 14.8694 80.9921 14.268 76.0241C12.0156 74.4793 7.12561 70.2982 7.12561 70.2982C7.12561 70.2982 5.54307 61.3399 5.22489 58.2922C4.49256 51.8341 4.80071 45.3 6.13757 38.94C8.51556 28.2018 14.762 18.0345 24.2572 12.5101C33.7524 6.98564 46.5634 6.86811 55.2799 13.5427C63.7201 19.9655 67.061 31.4677 66.2823 42.0884Z" fill="url(#paint0_radial_641_1977)"/>
<path d="M86.6376 41.7188C84.8541 48.6033 81.3206 55.152 77.9964 61.5076C77.0586 63.3043 76.1208 65.143 75.2333 66.9985C74.7758 66.8894 74.358 66.6538 74.0275 66.3184C72.3529 64.7568 72.0096 62.4815 72.0263 60.1055C72.0263 60.0132 72.0263 59.9208 72.0263 59.8285C73.6507 57.4944 75.2667 55.152 76.7739 52.7424C79.4836 48.579 81.6028 44.0579 83.0706 39.3092C83.6611 39.2433 84.2585 39.3361 84.8014 39.578C85.3444 39.82 85.8134 40.2024 86.1603 40.6861C86.3697 41.0046 86.5306 41.3527 86.6376 41.7188Z" fill="#FAA747"/>
<path d="M87.3744 43.2803C87.4243 42.2071 87.3028 41.1329 87.0144 40.0983C86.8602 39.5787 86.6071 39.094 86.2692 38.671C85.9403 38.2711 85.5357 37.9405 85.0787 37.6984C84.6216 37.4563 84.1212 37.3075 83.6065 37.2605C82.755 37.156 81.891 37.2687 81.0945 37.5879C79.3229 38.4183 77.8093 39.7154 76.7153 41.3408C72.4271 47.0661 70.2868 54.1227 70.6699 61.2724C70.6699 61.4487 70.6699 61.6166 70.6699 61.7846C70.8708 64.3033 71.5072 66.6289 73.5 68.2073C73.7779 68.4369 74.0883 68.6236 74.4211 68.7614C76.1794 69.4919 77.6447 68.1066 79.018 66.4526C81.1083 63.9026 82.8409 61.0778 84.1675 58.0568C86.226 53.4007 87.3171 48.373 87.3744 43.2803ZM78.683 64.9666C77.6029 66.2175 76.4641 67.2838 75.2333 67.0151C74.7758 66.9061 74.358 66.6704 74.0275 66.3351C72.3529 64.7735 72.0096 62.4982 72.0263 60.1222C72.0263 60.0298 72.0263 59.9375 72.0263 59.8451C72.1467 53.6366 74.2741 47.635 78.0885 42.7429C79.0621 41.3668 80.3826 40.2745 81.9151 39.5777C82.2867 39.4403 82.6756 39.3556 83.0706 39.3259C83.6611 39.2599 84.2585 39.3527 84.8014 39.5947C85.3444 39.8367 85.8134 40.2191 86.1603 40.7028C86.3668 41.0218 86.5248 41.3698 86.6292 41.7354C86.8777 42.7396 86.9458 43.7802 86.8301 44.8083C86.316 52.2242 83.4628 59.2839 78.683 64.9666Z" fill="#7EB2DB"/>
<path d="M86.8385 44.8169C86.3203 52.2309 83.4642 59.2875 78.683 64.9668C77.6029 66.2177 76.4641 67.284 75.2333 67.0153C76.1208 65.1599 77.0586 63.3212 77.9964 61.5245C81.3457 55.1605 84.8541 48.6202 86.6376 41.7357C86.8871 42.7425 86.9552 43.786 86.8385 44.8169ZM78.0969 42.7516C74.2824 47.6436 72.1551 53.6452 72.0347 59.8538C73.6591 57.5197 75.2751 55.1773 76.7823 52.7677C79.492 48.6042 81.6112 44.0832 83.079 39.3345C82.684 39.3642 82.2951 39.449 81.9235 39.5863C80.394 40.2761 79.0738 41.3595 78.0969 42.7264V42.7516Z" fill="#FFC761"/>
<path d="M15.323 90.3049C14.6531 90.1454 13.9749 89.9691 13.305 89.7844C11.9821 86.1966 10.6563 82.6088 9.32775 79.021C11.8023 82.5078 13.8174 86.3005 15.323 90.3049ZM69.0371 5.74268C73.7498 8.21142 77.6803 11.952 80.3849 16.5421C83.0896 21.1322 84.4606 26.3891 84.3433 31.7192C84.2702 33.588 84.0235 35.4459 83.6065 37.2688C84.1206 37.3147 84.6206 37.4623 85.0776 37.7029C85.5346 37.9436 85.9396 38.2725 86.2692 38.6709C86.6071 39.094 86.8602 39.5786 87.0144 40.0982C87.548 37.7117 87.8148 35.2731 87.8098 32.8274C87.7261 21.1909 79.8134 10.0329 69.0371 5.74268ZM70.6699 61.7929C68.451 64.9917 66.2656 68.2072 64.3565 71.5991C61.0072 77.5517 58.579 84.2432 58.738 91.0018C62.4885 90.2514 66.1905 89.2758 69.8242 88.08C69.5478 81.4642 71.6244 74.9742 74.4211 68.7698C74.0883 68.6319 73.7779 68.4452 73.5 68.2156C71.5323 66.6456 70.8708 64.2864 70.6699 61.7929Z" fill="#7EB2DB"/>
<path d="M89.7524 24.8097C88.1198 18.259 84.4513 12.3989 79.2775 8.07691C74.0694 3.87902 67.4797 1.67933 60.8565 0.764191C48.2129 -0.973734 34.2129 -0.0753849 23.177 6.85953C14.2428 12.5339 7.78125 21.3884 5.09091 31.6439C2.89713 40.1152 3.08972 49.6192 3.99402 58.4516C4.12799 59.8033 4.28709 61.1382 4.45455 62.4479C5.37817 69.6548 7.23305 76.7105 9.97249 83.4374C10.3409 84.3609 11.8816 89.4152 12.7691 89.6503C12.9534 89.6503 13.1292 89.751 13.3134 89.7846C11.9904 86.1968 10.6647 82.609 9.33613 79.0212C11.8107 82.508 13.8257 86.3007 15.3313 90.3051C15.9844 90.4562 16.6208 90.6074 17.2739 90.7417C15.8802 85.9363 14.8777 81.0255 14.2763 76.0575C12.0239 74.5127 7.13398 70.3316 7.13398 70.3316C7.13398 70.3316 5.55144 61.3733 5.23325 58.3256C4.49455 51.8569 4.7999 45.3111 6.13756 38.9398C8.51555 28.2016 14.762 18.0343 24.2572 12.5099C33.7524 6.98546 46.5634 6.86792 55.2799 13.5426C63.7201 20.0073 67.061 31.5095 66.2823 42.1302C65.5036 52.7508 61.2584 62.8845 56.9043 72.5732C54.5682 73.9837 52.0562 75.6125 49.7201 77.023C48.6482 82.104 48.6653 87.3554 49.7703 92.4293C52.7847 92.1018 55.7823 91.6401 58.738 91.044C58.579 84.3273 61.0323 77.6107 64.3565 71.6413C66.2655 68.283 68.451 65.0339 70.6699 61.8351C70.6699 61.6671 70.6699 61.4992 70.6699 61.3229C70.26 54.1662 72.3799 47.0937 76.6567 41.3494C77.7507 39.724 79.2643 38.4269 81.0359 37.5965C81.8324 37.2772 82.6964 37.1646 83.5479 37.269C83.9649 35.4461 84.2115 33.5882 84.2847 31.7194C84.4075 26.3954 83.0453 21.1428 80.3513 16.5533C77.6574 11.9637 73.7388 8.21968 69.0371 5.74289C79.8134 10.0331 87.7261 21.1911 87.8098 32.8277C87.8148 35.2733 87.548 37.712 87.0143 40.0984C87.3028 41.133 87.4243 42.2073 87.3744 43.2804C87.3171 48.3732 86.226 53.4009 84.1675 58.057C82.8409 61.078 81.1083 63.9027 79.018 66.4527C77.6447 68.1319 76.1794 69.492 74.4211 68.7616C71.6244 74.966 69.5478 81.456 69.8242 88.0719C71.4402 87.5429 73.0479 86.972 74.622 86.3507C76.1459 76.5612 81.128 67.6533 85.1723 58.4851C87.2271 54.0723 88.8209 49.458 89.9282 44.7161C91.4183 38.1576 91.3581 31.3407 89.7524 24.8097Z" fill="url(#paint1_linear_641_1977)"/>
<path style="mix-blend-mode:screen" d="M63.5526 2.22493C65.3152 5.42929 65.9856 9.1233 65.4617 12.7448C64.9409 16.3611 63.7207 19.8405 61.8696 22.9877C57.6244 30.5439 51.0849 36.6392 43.7249 41.0386C36.3648 45.438 28.2093 48.2422 19.9199 50.19C17.5357 50.8481 15.0641 51.1314 12.5933 51.0296C11.3545 50.9777 10.1387 50.6768 9.01823 50.1446C7.89772 49.6124 6.89532 48.8598 6.07057 47.9315C1.94258 42.8941 4.73923 33.6587 6.79066 28.2099C9.38697 21.3004 13.7122 15.1768 19.3505 10.4276C31.3242 0.528982 48.8744 -1.45242 63.5526 2.22493Z" fill="url(#paint2_linear_641_1977)"/>
<path d="M50.39 58.0151C50.2811 58.5356 50.1723 59.0561 50.0718 59.5851C46.4043 59.4004 42.7201 59.3248 39.0443 59.3668C36.5729 51.6812 36.3578 43.4451 38.4246 35.6403C38.8809 33.6787 39.6865 31.8158 40.8026 30.1411C41.9406 28.4668 43.6921 27.311 45.6758 26.9255C46.9257 26.8086 48.1844 27.0187 49.3291 27.5352C50.4737 28.0517 51.4653 28.857 52.2069 29.8724C53.6665 31.9359 54.432 34.4122 54.3924 36.9417C54.3684 39.2017 54.1074 41.453 53.6136 43.6583C53.0275 47.2517 50.8756 53.3386 50.39 58.0151ZM20.7907 41.2907C20.8744 40.1237 20.9498 38.9734 21.0168 37.8232C21.1575 36.7018 21.0951 35.5641 20.8325 34.4649C20.6963 33.9238 20.419 33.4287 20.0291 33.0303C19.6392 32.632 19.1507 32.3448 18.6136 32.198C18.2073 32.1418 17.7938 32.1686 17.3981 32.2768C17.0024 32.385 16.6326 32.5724 16.311 32.8277C15.6763 33.3498 15.1427 33.9844 14.7369 34.7C13.3999 36.9739 12.4545 39.4574 11.9402 42.0463C10.5757 48.6063 11.2267 55.427 13.8074 61.6084C16.1352 61.2334 18.4713 60.9004 20.8158 60.6093C20.7739 60.2819 20.7321 59.9629 20.7069 59.6438C20.4474 54.2621 20.439 47.1929 20.7907 41.2907Z" fill="#58C2B2"/>
<path d="M20.1292 47.5453C19.9336 46.9935 19.5998 46.5014 19.1599 46.1162C18.72 45.7311 18.1888 45.4657 17.6172 45.3456C17.0546 45.3012 16.4901 45.4031 15.9782 45.6414C15.4663 45.8796 15.0244 46.2462 14.695 46.7057C14.0504 47.6347 13.6291 48.7009 13.4641 49.8205C12.7825 53.2171 12.9815 56.7323 14.0419 60.0298C14.2086 60.5889 14.5637 61.0726 15.0467 61.3983C16.9557 61.096 18.8676 60.8162 20.7823 60.5587C20.7404 60.2313 20.6986 59.9122 20.6734 59.5932C20.5227 56.4868 20.4557 52.801 20.4976 49.1069C20.4392 48.5731 20.3155 48.0487 20.1292 47.5453Z" fill="#CFEAE4"/>
<path d="M43.817 41.979C43.1382 42.0102 42.473 42.1805 41.8624 42.4794C41.2518 42.7783 40.7087 43.1995 40.2667 43.717C38.2153 45.9754 38.0813 48.5529 38.2321 51.4495C38.3693 54.1344 38.8304 56.7929 39.6053 59.3667C42.441 59.3667 45.2795 59.4115 48.1208 59.501C48.1627 57.7043 48.2548 53.5652 48.2715 53.1118C48.3385 50.7862 49.1089 48.6033 48.506 46.2441C47.945 44.0276 46.0861 41.9706 43.817 41.979Z" fill="#CFEAE4"/>
<path d="M40.4761 64.127C37.7515 65.9909 34.5609 67.0524 31.2655 67.1914C31.1567 67.544 30.8888 68.1149 30.7883 68.4676C34.4809 68.9377 38.1399 67.0487 40.4761 64.127Z" fill="#58C2B2"/>
<path style="mix-blend-mode:screen" d="M43.5323 10.3104C44.6121 10.4052 45.654 10.7563 46.5718 11.3347C47.0262 11.6299 47.3847 12.0517 47.6034 12.5483C47.8221 13.045 47.8913 13.5949 47.8026 14.1305C47.6151 14.6668 47.2795 15.1386 46.8347 15.4909C46.3899 15.8433 45.8544 16.0615 45.2907 16.1203C44.176 16.2329 43.0521 16.216 41.9414 16.0699C32.2368 15.5493 25.7057 23.1643 16.8636 25.3052C16.5851 25.41 16.2871 25.4523 15.9905 25.4291C15.6939 25.4059 15.4061 25.3177 15.1471 25.1709C14.3098 24.4992 14.9043 23.1307 15.6077 22.2912C22.4318 14.0969 32.6974 8.71518 43.5323 10.3104Z" fill="url(#paint3_linear_641_1977)"/>
</g>
<defs>
<radialGradient id="paint0_radial_641_1977" cx="0" cy="0" r="1" gradientUnits="userSpaceOnUse" gradientTransform="translate(27.1442 27.5933) rotate(8.75317) scale(53.5332 53.6709)">
<stop stop-color="#367992"/>
<stop offset="1" stop-color="#2D3C52"/>
</radialGradient>
<linearGradient id="paint1_linear_641_1977" x1="33.451" y1="0.739004" x2="61.2358" y2="91.5899" gradientUnits="userSpaceOnUse">
<stop stop-color="#FFEEC5"/>
<stop offset="1" stop-color="#ADDCF6"/>
</linearGradient>
<linearGradient id="paint2_linear_641_1977" x1="24.2724" y1="-6.42673" x2="44.1628" y2="53.4151" gradientUnits="userSpaceOnUse">
<stop stop-color="#BDBE9A"/>
<stop offset="0.16" stop-color="#9D9E80"/>
<stop offset="0.74" stop-color="#2D2E25"/>
<stop offset="1" stop-color="#010101"/>
</linearGradient>
<linearGradient id="paint3_linear_641_1977" x1="23.6292" y1="2.34279" x2="35.6559" y2="28.0426" gradientUnits="userSpaceOnUse">
<stop stop-color="#BDBE9A"/>
<stop offset="0.16" stop-color="#9D9E80"/>
<stop offset="0.74" stop-color="#2D2E25"/>
<stop offset="1" stop-color="#010101"/>
</linearGradient>
<clipPath id="clip0_641_1977">
<rect width="91" height="93" fill="white"/>
</clipPath>
</defs>
</svg>
