<svg width="21" height="27" viewBox="0 0 21 27" fill="none" xmlns="http://www.w3.org/2000/svg">
<path d="M20.7985 26.4647V21.9972C20.7985 20.0419 19.4738 18.335 17.5797 17.8497L13.9313 16.915C13.7011 16.856 13.4971 16.7221 13.3514 16.5344C13.2057 16.3467 13.1266 16.1158 13.1266 15.8781V13.4673H7.8732V15.8781C7.8732 16.367 7.54202 16.7937 7.06847 16.915L3.42009 17.8498C1.52598 18.3351 0.201294 20.0419 0.201294 21.9973V26.4648C0.201294 26.7604 0.440919 27 0.736495 27H20.2634C20.5589 26.9999 20.7985 26.7603 20.7985 26.4647Z" fill="#9DC7FB"/>
<path d="M7.87323 13.4673V15.8781C7.87323 16.2326 7.69852 16.5538 7.42224 16.7502C8.11928 17.6922 9.23815 18.3032 10.5 18.3032C11.7618 18.3032 12.8807 17.6922 13.5777 16.7502C13.3014 16.5538 13.1267 16.2326 13.1267 15.8781V13.4673H7.87323Z" fill="#FFCBBE"/>
<path d="M7.8732 13.4673V15.8781C7.8732 15.9968 7.85321 16.1116 7.81677 16.2194C8.59155 16.7146 9.51218 17.0016 10.4999 17.0016C11.4876 17.0016 12.4082 16.7146 13.183 16.2194C13.1457 16.1095 13.1267 15.9942 13.1266 15.8781V13.4673H7.8732Z" fill="#EAAC9D"/>
<path d="M5.51099 10.4073V6.00439H15.489V10.4073C15.489 13.1626 13.2553 15.3963 10.5 15.3963C7.74466 15.3963 5.51099 13.1626 5.51099 10.4073Z" fill="#FFCBBE"/>
<path d="M13.8834 6.00439V10.4073C13.8834 12.8893 12.0708 14.9477 9.69714 15.3317C9.96257 15.3747 10.231 15.3963 10.4999 15.3963C13.2552 15.3963 15.4889 13.1627 15.4889 10.4073V6.00439H13.8834Z" fill="#EAAC9D"/>
<path d="M16.7847 24.8306H20.7985V26.4649C20.7985 26.7604 20.5589 27.0001 20.2633 27.0001H16.7847V24.8306Z" fill="#FFCBBE"/>
<path d="M16.7847 27.0001C16.7319 27.0001 16.6797 26.9897 16.631 26.9696C16.5823 26.9494 16.5381 26.9198 16.5008 26.8826C16.4635 26.8453 16.434 26.801 16.4138 26.7523C16.3937 26.7036 16.3833 26.6514 16.3833 26.5987V24.3221C16.3845 24.2164 16.4273 24.1155 16.5025 24.0412C16.5776 23.967 16.679 23.9253 16.7847 23.9253C16.8904 23.9253 16.9918 23.967 17.0669 24.0412C17.142 24.1155 17.1849 24.2164 17.1861 24.3221V26.5987C17.1861 26.6514 17.1757 26.7036 17.1555 26.7523C17.1354 26.801 17.1058 26.8453 17.0685 26.8826C17.0312 26.9198 16.987 26.9494 16.9383 26.9696C16.8896 26.9897 16.8374 27.0001 16.7847 27.0001Z" fill="#80B5FB"/>
<path d="M0.201347 24.8306H4.21522V27.0001H0.736495C0.440919 27.0001 0.201294 26.7604 0.201294 26.4649L0.201347 24.8306Z" fill="#FFCBBE"/>
<path d="M4.21526 26.9998C4.16254 26.9998 4.11034 26.9894 4.06164 26.9693C4.01294 26.9491 3.96869 26.9195 3.93142 26.8823C3.89415 26.845 3.86458 26.8007 3.84442 26.752C3.82425 26.7033 3.81388 26.6511 3.8139 26.5984V24.0275C3.81303 23.9743 3.82278 23.9214 3.84256 23.8719C3.86234 23.8225 3.89177 23.7775 3.92912 23.7395C3.96648 23.7015 4.01102 23.6714 4.06014 23.6508C4.10927 23.6302 4.16199 23.6196 4.21526 23.6196C4.26852 23.6196 4.32125 23.6302 4.37037 23.6508C4.4195 23.6714 4.46403 23.7015 4.50139 23.7395C4.53875 23.7775 4.56817 23.8225 4.58795 23.8719C4.60774 23.9214 4.61748 23.9743 4.61662 24.0275V26.5984C4.61662 26.6511 4.60625 26.7033 4.58608 26.752C4.56591 26.8007 4.53635 26.845 4.49908 26.8822C4.46181 26.9195 4.41756 26.9491 4.36886 26.9693C4.32016 26.9894 4.26797 26.9998 4.21526 26.9998Z" fill="#80B5FB"/>
<path d="M7.00856 22.4177C7.03027 22.5045 7.08034 22.5815 7.15082 22.6366C7.22131 22.6917 7.30817 22.7217 7.39763 22.7218C7.45867 22.7219 7.51891 22.708 7.57378 22.6813C7.62865 22.6545 7.67669 22.6156 7.71427 22.5675C7.75184 22.5194 7.77795 22.4634 7.79062 22.4037C7.80328 22.344 7.80216 22.2822 7.78734 22.223L6.49756 17.0638C6.49735 17.0631 6.49703 17.0623 6.49688 17.0615L5.71936 17.2607L7.00856 22.4177ZM13.4049 23.1079C13.5082 23.1337 13.6175 23.1174 13.7087 23.0627C13.8 23.0079 13.8658 22.9192 13.8917 22.8159L15.2805 17.2607L14.503 17.0615C14.5027 17.0623 14.5024 17.0631 14.5023 17.0638L13.1129 22.6212C13.0871 22.7244 13.1033 22.8337 13.1581 22.925C13.2129 23.0163 13.3016 23.0821 13.4049 23.1079Z" fill="#766D78"/>
<path d="M4.50537 6.87561H16.4944C16.7509 6.87561 16.9038 6.58979 16.7616 6.37638L15.4889 4.46729H5.51091L4.23816 6.37638C4.09594 6.58979 4.24892 6.87561 4.50537 6.87561Z" fill="#E2A66F"/>
<path d="M16.7617 6.37637L15.489 4.46729H13.8834L15.1562 6.37637C15.2984 6.58979 15.1455 6.87561 14.889 6.87561H16.4945C16.751 6.87561 16.9039 6.58974 16.7617 6.37637Z" fill="#D5995C"/>
<path d="M15.489 4.46739H5.51099L6.43901 3.77046L5.7995 2.86184L6.15545 0.881033C6.24711 0.371092 6.69081 0 7.20893 0H13.791C14.3091 0 14.7528 0.371092 14.8444 0.881033L15.2004 2.86184L14.5421 3.66551L15.489 4.46739Z" fill="#E2A66F"/>
<path d="M14.8445 0.881086C14.7528 0.371145 14.3091 0 13.791 0H12.1854C12.7035 0 13.1473 0.371145 13.2389 0.881086L13.5949 2.86189H15.2004L14.8445 0.881086Z" fill="#D5995C"/>
<path d="M5.51099 4.46737H15.489L15.2005 2.86182H5.7995L5.51099 4.46737Z" fill="#EDBB87"/>
<path d="M15.2004 2.86182H13.5948L13.8834 4.46737H15.4889L15.2004 2.86182Z" fill="#E3A670"/>
<path d="M12.1024 21.4608V21.0623C12.1024 20.9771 12.0686 20.8955 12.0084 20.8353C11.9481 20.775 11.8665 20.7412 11.7813 20.7412H9.21868C9.13352 20.7412 9.05185 20.775 8.99163 20.8353C8.93142 20.8955 8.89758 20.9771 8.89758 21.0623V21.4608C8.89758 21.546 8.86375 21.6277 8.80354 21.6879C8.74332 21.7481 8.66165 21.7819 8.57648 21.7819H6.78167C6.69651 21.7819 6.61484 21.8158 6.55462 21.876C6.4944 21.9362 6.46057 22.0179 6.46057 22.103V26.2775C6.46057 26.3626 6.4944 26.4443 6.55462 26.5045C6.61484 26.5647 6.69651 26.5986 6.78167 26.5986H14.2183C14.3034 26.5986 14.3851 26.5647 14.4453 26.5045C14.5055 26.4443 14.5394 26.3626 14.5394 26.2775V22.103C14.5394 22.0179 14.5055 21.9362 14.4453 21.876C14.3851 21.8158 14.3034 21.7819 14.2183 21.7819H12.4235C12.3813 21.7819 12.3396 21.7736 12.3006 21.7575C12.2617 21.7414 12.2263 21.7177 12.1964 21.6879C12.1666 21.6581 12.143 21.6227 12.1268 21.5837C12.1107 21.5448 12.1024 21.503 12.1024 21.4608Z" fill="#655E67"/>
<path d="M14.2182 21.7822H12.6127C12.6978 21.7822 12.7795 21.8161 12.8397 21.8763C12.8999 21.9365 12.9338 22.0182 12.9338 22.1033V26.2778C12.9338 26.3629 12.8999 26.4446 12.8397 26.5048C12.7795 26.565 12.6978 26.5989 12.6127 26.5989H14.2182C14.3034 26.5989 14.3851 26.565 14.4453 26.5048C14.5055 26.4446 14.5393 26.3629 14.5393 26.2778V22.1033C14.5393 22.0182 14.5055 21.9365 14.4453 21.8763C14.3851 21.8161 14.3034 21.7822 14.2182 21.7822Z" fill="#544F56"/>
<path d="M6.46057 23.7891V24.5918H14.5394V23.7891H6.46057Z" fill="#766D78"/>
<path d="M14.5394 23.7891H12.9338V24.5918H14.5394V23.7891Z" fill="#655E67"/>
<path d="M10.4999 25.3087C11.1175 25.3087 11.6182 24.8081 11.6182 24.1905C11.6182 23.5729 11.1175 23.0723 10.4999 23.0723C9.88236 23.0723 9.38171 23.5729 9.38171 24.1905C9.38171 24.8081 9.88236 25.3087 10.4999 25.3087Z" fill="#F7F6F7"/>
<path d="M10.4999 23.0723C10.3265 23.0723 10.163 23.1129 10.0166 23.1833C10.3918 23.3637 10.6515 23.7463 10.6515 24.1904C10.6515 24.6346 10.3918 25.0172 10.0166 25.1976C10.1673 25.2705 10.3325 25.3085 10.4999 25.3086C11.1175 25.3086 11.6181 24.808 11.6181 24.1904C11.6181 23.5729 11.1175 23.0723 10.4999 23.0723Z" fill="#E2DFE3"/>
</svg>
