<svg width="71" height="71" viewBox="0 0 71 71" fill="none" xmlns="http://www.w3.org/2000/svg">
<g clip-path="url(#clip0_525_2035)">
<path d="M67.0082 26.8833C66.0785 22.2254 61.5513 19.2075 56.8964 20.1366C55.6048 20.3944 54.4348 20.9288 53.4451 21.6681C50.8417 14.0373 43.2125 9.0154 34.9903 9.76659C31.208 10.116 27.5006 10.8402 23.8697 11.9482C16.3738 14.2346 11.3393 20.9599 11.0558 28.4565C7.01403 29.8123 4.51101 33.9923 5.36828 38.285C6.29779 42.9388 10.8243 45.9588 15.4786 45.0325C16.1966 44.8895 16.8934 44.6553 17.552 44.3355C19.6096 45.8723 22.1336 46.7631 24.794 46.7799C26.566 46.7916 28.3376 46.7212 30.103 46.569C30.0811 46.859 30.0697 47.1497 30.0686 47.4405C30.0686 53.5502 34.6204 58.5031 40.2352 58.5031C45.8501 58.5031 50.4018 53.5503 50.4018 47.4405C50.4018 45.2291 49.8032 43.1713 48.776 41.443C50.9722 40.0563 52.6836 38.0219 53.6738 35.6207C55.5241 36.9081 57.8761 37.4714 60.2615 36.9952C64.9162 36.066 67.9372 31.5381 67.0082 26.8833Z" fill="#D4AFB7"/>
<path d="M40.7752 40.9988C35.7045 43.0388 30.4345 44.0796 24.9648 44.1217C21.6084 44.1474 18.575 42.3555 17.1812 39.5417C16.452 38.0696 15.919 36.5583 15.5819 35.008C14.2623 28.9374 18.2377 22.8502 24.6461 20.945C27.2405 20.1732 29.9025 19.6504 32.5961 19.3838C39.0174 18.7468 44.867 22.72 46.0407 28.6004C46.3588 30.1939 46.4712 31.8282 46.3777 33.504C46.1958 36.7734 44.0242 39.6918 40.7752 40.9988Z" fill="#F9E9BF"/>
<path d="M17.6563 37.2933C17.4666 37.2932 17.2837 37.2228 17.1429 37.0956C17.0022 36.9684 16.9136 36.7935 16.8943 36.6048C16.875 36.4161 16.9264 36.227 17.0385 36.0739C17.1506 35.9209 17.3155 35.8149 17.5012 35.7764C19.294 35.4041 20.1051 35.2468 20.8305 35.1909C20.2275 34.7831 19.5297 34.3909 18.8591 34.1978C18.7624 34.1699 18.6721 34.1233 18.5934 34.0606C18.5147 33.9978 18.4492 33.9202 18.4005 33.8321C18.3518 33.744 18.3209 33.6472 18.3097 33.5472C18.2984 33.4472 18.3069 33.346 18.3348 33.2493C18.3626 33.1525 18.4092 33.0622 18.4719 32.9835C18.5347 32.9048 18.6123 32.8392 18.7004 32.7905C18.7885 32.7418 18.8853 32.7109 18.9853 32.6996C19.0853 32.6884 19.1866 32.6969 19.2833 32.7248C21.3716 33.3262 23.4719 35.3275 23.5602 35.4124C23.6717 35.5195 23.7482 35.6578 23.7797 35.8092C23.8111 35.9606 23.796 36.118 23.7363 36.2607C23.6143 36.5527 23.3238 36.7378 23.0089 36.7312C22.8221 36.7262 22.6521 36.721 22.4955 36.7165C20.8575 36.6681 20.7596 36.665 17.813 37.2768C17.7603 37.2881 17.7078 37.2933 17.6563 37.2933Z" fill="#605C5D"/>
<path d="M67.7604 26.7317C67.2708 24.2793 65.8557 22.1644 63.7755 20.7763C61.6953 19.3884 59.199 18.8938 56.7468 19.383C55.7042 19.5912 54.7255 19.9643 53.8256 20.496C52.4198 17.017 49.9327 14.001 46.7421 11.9305C43.2505 9.66477 39.0525 8.62515 34.9216 9.00414C31.0973 9.35534 27.3189 10.0964 23.6452 11.2157C19.605 12.4479 16.0538 15.0229 13.646 18.4666C11.6917 21.2615 10.5424 24.5494 10.3159 27.9123C6.16508 29.5688 3.73166 33.997 4.61681 38.4346C5.10646 40.8865 6.5216 43.0012 8.6014 44.3896C10.1587 45.4289 11.9484 45.9677 13.7779 45.9677C14.3923 45.9677 15.0115 45.9068 15.6275 45.7838C16.2562 45.6591 16.8703 45.47 17.4602 45.2194C19.6045 46.7146 22.1377 47.5287 24.7897 47.5459H24.7947C24.9979 47.5465 25.1931 47.4664 25.3373 47.3231C25.4815 47.1799 25.5629 46.9852 25.5635 46.7819C25.5642 46.5786 25.4841 46.3834 25.3408 46.2392C25.1975 46.095 25.0028 46.0137 24.7995 46.013C21.7668 45.9935 18.9082 44.7919 16.745 42.6289C16.7336 42.6157 16.7217 42.6031 16.7093 42.5909C15.7756 41.6639 14.9752 40.4824 14.3297 39.0776C13.3818 37.0269 12.6639 34.8993 12.1954 32.7527C12.01 31.9108 11.8886 31.0159 11.8347 30.0938C11.8341 30.0836 11.8333 30.0734 11.8322 30.0633C11.6221 26.2827 12.7118 22.4771 14.902 19.3448C17.1143 16.1807 20.3781 13.8144 24.0922 12.6817C27.6657 11.5929 31.3412 10.8719 35.0612 10.5302C38.8513 10.1837 42.7032 11.1369 45.9076 13.2162C49.0911 15.282 51.5102 18.3717 52.7193 21.9163C52.7584 22.0306 52.8239 22.134 52.9105 22.2182C52.9971 22.3024 53.1024 22.3649 53.2178 22.4007C53.3331 22.4365 53.4553 22.4445 53.5744 22.4241C53.6934 22.4037 53.806 22.3555 53.9029 22.2834C54.8379 21.586 55.8956 21.1159 57.0466 20.8861C59.0975 20.4767 61.1848 20.8905 62.9246 22.0512C64.6642 23.2119 65.8477 24.9807 66.257 27.0313C66.6664 29.0823 66.2526 31.1697 65.0919 32.9092C63.9312 34.6489 62.1624 35.8324 60.1116 36.2416C58.0073 36.6618 55.876 36.2171 54.1106 34.9899C54.0165 34.9244 53.9089 34.8809 53.7958 34.8626C53.6827 34.8442 53.5668 34.8514 53.4569 34.8838C53.3469 34.9161 53.2456 34.9727 53.1604 35.0494C53.0752 35.1261 53.0083 35.2209 52.9646 35.3268C51.7672 38.2294 49.5134 40.4953 46.6184 41.707C43.3641 43.069 39.9984 44.1213 36.6149 44.8342C36.5164 44.8549 36.423 44.8948 36.34 44.9517C36.2569 45.0085 36.1859 45.0812 36.1309 45.1655C36.0759 45.2498 36.0381 45.3441 36.0196 45.4431C36.0011 45.542 36.0023 45.6436 36.0231 45.7421C36.065 45.941 36.1842 46.1151 36.3545 46.2261C36.5248 46.3371 36.7322 46.3759 36.9311 46.334C40.4087 45.6013 43.8672 44.5202 47.2103 43.1209C50.203 41.8683 52.5892 39.619 54.0101 36.7341C55.9549 37.8281 58.1959 38.1871 60.4119 37.7449C62.8641 37.2553 64.9791 35.8402 66.367 33.76C67.7549 31.6802 68.2499 29.1839 67.7604 26.7317ZM12.9375 39.7195C13.6513 41.2728 14.545 42.5927 15.5942 43.6438C15.6039 43.6548 15.6139 43.6654 15.6242 43.6758C15.7662 43.8188 15.9114 43.9585 16.0597 44.0949C15.8193 44.1672 15.5762 44.2316 15.3285 44.2806C13.2787 44.6901 11.1918 44.276 9.45229 43.1148C7.71293 41.9537 6.52937 40.1851 6.12001 38.1348C5.42374 34.644 7.18182 31.1596 10.281 29.6058C10.2859 29.7978 10.2928 29.9899 10.3039 30.1818C10.3044 30.1929 10.3054 30.2042 10.3065 30.2152C10.3661 31.2069 10.498 32.1715 10.6983 33.0813C11.1901 35.335 11.9438 37.5692 12.9375 39.7195Z" fill="#B68D97"/>
<path d="M39.5435 34.1714C40.4044 34.0268 40.9562 33.0396 40.776 31.9663C40.5958 30.8931 39.7519 30.1402 38.891 30.2847C38.0301 30.4292 37.4783 31.4164 37.6585 32.4897C37.8386 33.563 38.6826 34.3159 39.5435 34.1714Z" fill="#605C5D"/>
<path d="M42.2774 53.9733C41.9137 53.8715 41.5998 53.6402 41.3948 53.3229L37.7211 47.6556C37.2548 46.9359 37.4599 45.974 38.1796 45.5074C38.8994 45.0406 39.8616 45.2463 40.328 45.966L44.0017 51.6334C44.4681 52.3531 44.263 53.3149 43.5432 53.7815C43.3581 53.9018 43.1494 53.9811 42.9311 54.0142C42.7128 54.0473 42.4899 54.0334 42.2774 53.9733Z" fill="#91A2B5"/>
<path d="M42.6983 54.7978C42.3114 54.798 41.9305 54.7013 41.5905 54.5166C41.2505 54.3318 40.9621 54.0648 40.7518 53.74L37.0781 48.0725C36.3825 46.9992 36.6897 45.56 37.7629 44.8643C38.0182 44.6979 38.304 44.5838 38.6038 44.5285C38.9035 44.4732 39.2112 44.4779 39.5092 44.5422C39.8074 44.605 40.0902 44.7264 40.3412 44.8992C40.5922 45.0721 40.8064 45.293 40.9714 45.5492L44.645 51.2166C45.3406 52.2901 45.0333 53.7291 43.9602 54.4248C43.5844 54.6683 43.1462 54.7979 42.6983 54.7978ZM42.4848 53.2355C42.5925 53.2659 42.7054 53.2729 42.816 53.2562C42.9266 53.2394 43.0324 53.1993 43.1263 53.1385C43.3012 53.0248 43.4239 52.8464 43.4674 52.6423C43.511 52.4383 43.4718 52.2254 43.3585 52.0502L39.685 46.3828C39.629 46.2959 39.5563 46.2209 39.4711 46.1623C39.3859 46.1037 39.29 46.0625 39.1888 46.0412C39.0878 46.0193 38.9834 46.0176 38.8818 46.0364C38.7801 46.0551 38.6832 46.0938 38.5967 46.1504C38.4218 46.2641 38.2991 46.4425 38.2555 46.6465C38.2119 46.8506 38.251 47.0636 38.3643 47.2388L42.0378 52.9062C42.1419 53.0666 42.3007 53.1837 42.4848 53.2355Z" fill="#67838F"/>
<path d="M48.0473 41.7803C56.2762 43.5034 55.2126 53.5584 53.9036 55.5656C52.2091 58.1638 38.1936 58.864 38.8937 52.7039C39.5678 46.7734 49.4822 51.9738 49.4822 51.9738L48.0473 41.7803Z" fill="#D4AFB7"/>
<path d="M46.9224 58.2361C45.0128 58.2361 43.1804 57.9659 41.7626 57.4554C39.1729 56.5232 37.8836 54.8051 38.1323 52.6174C38.3335 50.8467 39.2644 50.0043 40.0099 49.6092C41.416 48.8641 43.519 48.9344 46.2605 49.8178C48.2123 50.4469 49.7727 51.2608 49.8381 51.295C50.0181 51.3894 50.1532 51.5515 50.2137 51.7455C50.2742 51.9395 50.2552 52.1496 50.1608 52.3295C50.1141 52.4187 50.0503 52.4978 49.973 52.5622C49.8958 52.6267 49.8066 52.6754 49.7105 52.7054C49.6144 52.7354 49.5134 52.7461 49.4132 52.7371C49.3129 52.7281 49.2155 52.6994 49.1263 52.6526C47.5051 51.8038 42.8358 49.8455 40.7268 50.964C40.1081 51.2921 39.7575 51.8895 39.6552 52.7905C39.4902 54.2422 40.3738 55.3264 42.2816 56.0132C46.3939 57.4937 52.4825 56.3416 53.2615 55.1471C53.909 54.1543 54.4613 50.5154 53.1636 47.3871C52.1484 44.94 50.2672 43.4129 47.5721 42.8485C47.1577 42.7619 47.472 41.2612 47.8863 41.3484C51.0614 42.0132 53.3758 43.8983 54.5795 46.7999C56.0142 50.2582 55.5266 54.4801 54.5455 55.9845C53.5741 57.474 50.4451 57.97 49.145 58.1141C48.4055 58.1959 47.6582 58.2361 46.9224 58.2361Z" fill="#B68D97"/>
<path d="M31.5668 32.6895L30.1618 33.1931C25.6913 34.7959 23.3665 39.7193 24.9693 44.1898C26.572 48.6604 31.4954 50.9853 35.9661 49.3825L37.3711 48.8787C41.8417 47.2759 44.1664 42.3525 42.5637 37.8819C40.9608 33.4115 36.0374 31.0867 31.5668 32.6895Z" fill="#FFFF9D"/>
<path d="M33.0728 50.654C29.2291 50.6542 25.6174 48.2692 24.2476 44.4485C22.5048 39.5872 25.0418 34.2145 29.9031 32.4716L31.3081 31.9679C33.663 31.1238 36.2056 31.247 38.4679 32.315C40.7299 33.3832 42.4408 35.2684 43.2851 37.6231C44.9982 42.4017 42.5762 47.6743 37.8762 49.508C37.8602 49.5153 37.844 49.5222 37.8276 49.5286L37.8278 49.529L37.8002 49.539L37.7972 49.5401L37.6679 49.5865C37.6658 49.5873 37.6636 49.5881 37.6615 49.5888L37.6374 49.5975L37.6295 49.6005L36.2247 50.1041C35.2136 50.4675 34.1473 50.6535 33.0728 50.654ZM34.4741 32.9471C33.5711 32.9479 32.6751 33.1048 31.8255 33.4108L30.4202 33.9145C26.3547 35.372 24.2329 39.8654 25.6905 43.931C27.1481 47.9966 31.6413 50.1188 35.7072 48.661L37.1175 48.1554C41.1797 46.6957 43.2989 42.2045 41.842 38.1406C41.1359 36.1711 39.7051 34.5946 37.8132 33.7012C36.7512 33.1996 35.6148 32.9471 34.4741 32.9471Z" fill="#FFCB6B"/>
<path d="M34.9177 46.4581C32.0666 47.4802 28.9153 45.9924 27.8933 43.1413C26.8711 40.2902 28.3592 37.1392 31.2103 36.117C34.0614 35.0949 37.2123 36.5828 38.2345 39.4338C39.2566 42.2849 37.7688 45.4359 34.9177 46.4581Z" fill="#93F6F8"/>
<path d="M35.8859 43.387C35.7568 43.3869 35.6298 43.3542 35.5166 43.2919C35.4035 43.2295 35.308 43.1396 35.2389 43.0305C35.1698 42.9214 35.1294 42.7966 35.1215 42.6677C35.1135 42.5388 35.1383 42.41 35.1934 42.2932C35.463 41.7223 35.4949 41.0827 35.2831 40.4921C34.9481 39.5576 34.0542 38.9298 33.0588 38.9298C32.791 38.9298 32.5251 38.9766 32.2683 39.0685C32.0769 39.1371 31.8662 39.1269 31.6824 39.0402C31.4986 38.9534 31.3568 38.7972 31.2882 38.6058C31.2196 38.4145 31.2298 38.2038 31.3166 38.02C31.4033 37.8362 31.5596 37.6944 31.7509 37.6258C32.1704 37.4746 32.6129 37.3972 33.0588 37.397C34.6995 37.397 36.1731 38.4329 36.726 39.9746C37.0759 40.9506 37.0239 42.0064 36.5796 42.9476C36.5175 43.0791 36.4193 43.1902 36.2965 43.268C36.1737 43.3458 36.0313 43.3871 35.8859 43.387Z" fill="white"/>
<path d="M34.9177 47.2247C34.7372 47.2246 34.5626 47.1608 34.4245 47.0446C34.2864 46.9284 34.1937 46.7672 34.1628 46.5893C34.1319 46.4115 34.1647 46.2285 34.2555 46.0725C34.3463 45.9165 34.4892 45.7975 34.6591 45.7366C37.1123 44.8571 38.3926 42.1457 37.5131 39.6926C37.0878 38.5064 36.2241 37.5558 35.0811 37.0161C33.9381 36.4759 32.6554 36.4132 31.4691 36.8384C31.3743 36.8724 31.2738 36.8873 31.1733 36.8825C31.0728 36.8776 30.9742 36.8529 30.8832 36.81C30.6993 36.7232 30.5575 36.5669 30.489 36.3755C30.4204 36.1842 30.4306 35.9734 30.5174 35.7896C30.6042 35.6058 30.7605 35.464 30.9518 35.3954C32.5235 34.8318 34.2224 34.9152 35.7356 35.6299C37.2489 36.3445 38.3926 37.6035 38.956 39.175C40.1208 42.4238 38.4253 46.0146 35.1765 47.1794C35.0935 47.2093 35.0059 47.2246 34.9177 47.2247Z" fill="#FFCB6B"/>
<path d="M52.3337 25.42C54.2595 23.1659 58.741 22.555 63.0337 25.8925C67.2309 29.0167 71.2395 36.0891 70.0093 44.2784C69.1474 52.5145 63.4931 58.3558 58.6467 60.3279C53.6541 62.4823 49.4691 60.7673 48.1696 58.1022C45.4259 52.4105 51.6041 49.5361 52.5105 42.049C53.5102 34.5736 48.2506 30.2419 52.3337 25.42Z" fill="#FFFF9D"/>
<path d="M52.8646 56.9261C52.6921 56.9263 52.5246 56.8683 52.3891 56.7614C52.2537 56.6545 52.1583 56.5051 52.1183 56.3373C52.0783 56.1695 52.0962 55.9931 52.1689 55.8366C52.2416 55.6802 52.365 55.5528 52.5191 55.4752C52.5446 55.4623 55.0999 54.1583 57.6645 51.6723C61.0514 48.3896 62.8561 44.705 63.0286 40.7205C63.2599 35.3753 60.5867 31.5895 58.3035 29.3551C58.2316 29.2847 58.1742 29.2009 58.1347 29.1083C58.0952 29.0158 58.0743 28.9163 58.0732 28.8157C58.0721 28.715 58.0909 28.6152 58.1284 28.5218C58.1659 28.4284 58.2214 28.3433 58.2918 28.2714C58.3622 28.1995 58.4461 28.1421 58.5386 28.1026C58.6312 28.063 58.7306 28.0421 58.8313 28.0411C58.9319 28.04 59.0318 28.0587 59.1252 28.0963C59.2186 28.1338 59.3036 28.1893 59.3756 28.2598C61.8818 30.7123 64.8158 34.8768 64.5601 40.7868C64.3722 45.1282 62.3448 49.2845 58.6972 52.8062C55.967 55.4422 53.3199 56.7882 53.2085 56.8442C53.1019 56.8981 52.9841 56.9262 52.8646 56.9261Z" fill="#FFE4A6"/>
<path d="M54.2321 62.0718C53.2765 62.0718 52.4667 61.9354 51.8245 61.7627C49.8333 61.2276 48.2502 60.016 47.481 58.4383C45.7375 54.8218 47.2681 52.1615 48.8886 49.3449C50.0563 47.3156 51.3797 45.0153 51.7499 41.957C52.1594 38.8942 51.455 36.3358 50.8337 34.0785C49.9713 30.9455 49.1567 27.9864 51.7489 24.9251C51.7495 24.9241 51.7503 24.9233 51.7511 24.9225C52.8911 23.588 54.7274 22.812 56.7893 22.7933C58.3709 22.7797 60.8153 23.1993 63.4981 25.2827C67.8885 28.5548 72.0328 35.9213 70.7701 44.3755C69.8733 52.8761 64.0139 58.9681 58.943 61.0348C57.1363 61.8135 55.5466 62.0718 54.2321 62.0718ZM52.9175 25.9167C50.8493 28.3603 51.4625 30.5883 52.3113 33.6717C52.9716 36.07 53.7198 38.7884 53.2703 42.1508C52.8637 45.5094 51.4577 47.9531 50.2171 50.1094C48.622 52.8819 47.4695 54.885 48.8602 57.7698C50.037 60.1832 53.9068 61.5393 58.3431 59.6245C58.348 59.6223 58.353 59.6204 58.358 59.6183C63.0239 57.7199 68.4218 52.0848 69.2472 44.1991C69.2484 44.1877 69.2498 44.1763 69.2515 44.165C70.4292 36.3239 66.6169 29.5155 62.5761 26.5079C62.5718 26.5047 62.5675 26.5014 62.5634 26.498C59.5682 24.1692 55.1416 23.3159 52.9175 25.9167Z" fill="#FFCB6B"/>
<path d="M53.7205 29.4159C52.6192 29.3431 51.6441 28.7697 51.0451 27.8427L48.5532 23.9861C48.3639 23.6948 48.2342 23.3689 48.1717 23.0272C48.1092 22.6855 48.1151 22.3348 48.189 21.9954C48.2611 21.6556 48.3999 21.3335 48.5973 21.0477C48.7947 20.7619 49.0469 20.5182 49.3392 20.3305C50.2681 19.7302 51.4853 19.775 52.3675 20.4416L56.0316 23.2089H56.0318C56.407 23.4934 56.7204 23.8512 56.9529 24.2606C57.1855 24.67 57.3323 25.1224 57.3844 25.5904C57.4349 26.0585 57.3896 26.532 57.2513 26.9821C57.113 27.4322 56.8845 27.8494 56.5798 28.2083C55.9153 28.9886 54.9693 29.4239 53.9557 29.4239C53.8772 29.4237 53.7988 29.4211 53.7205 29.4159ZM53.9553 40.7839C53.7538 40.7839 53.5604 40.7046 53.417 40.5631C53.2735 40.4216 53.1916 40.2293 53.1889 40.0278C53.1862 39.8264 53.2629 39.6319 53.4025 39.4866C53.542 39.3413 53.7332 39.2568 53.9346 39.2513L56.4594 39.1819L56.4809 39.1816C56.6824 39.1816 56.8758 39.2609 57.0192 39.4024C57.1627 39.5439 57.2446 39.7362 57.2473 39.9377C57.2501 40.1392 57.1733 40.3336 57.0338 40.4789C56.8942 40.6242 56.703 40.7088 56.5016 40.7142L53.9768 40.7837C53.9696 40.7838 53.9625 40.7839 53.9553 40.7839ZM62.6858 40.5435C62.4843 40.5435 62.2909 40.4642 62.1475 40.3227C62.004 40.1811 61.9221 39.9888 61.9194 39.7874C61.9167 39.5859 61.9934 39.3915 62.133 39.2461C62.2725 39.1008 62.4637 39.0163 62.6651 39.0109L65.1899 38.9414L65.2114 38.9411C65.4129 38.9411 65.6063 39.0204 65.7497 39.162C65.8932 39.3035 65.9751 39.4958 65.9778 39.6972C65.9806 39.8987 65.9038 40.0931 65.7643 40.2385C65.6247 40.3838 65.4335 40.4683 65.2321 40.4737L62.7073 40.5432L62.6858 40.5435ZM60.9287 42.3333H58.3366C58.1359 42.3295 57.9447 42.2471 57.804 42.1038C57.6634 41.9604 57.5846 41.7677 57.5846 41.5669C57.5846 41.3661 57.6634 41.1733 57.804 41.03C57.9447 40.8867 58.1359 40.8043 58.3366 40.8004H60.9287C61.1294 40.8043 61.3207 40.8867 61.4613 41.03C61.6019 41.1733 61.6807 41.3661 61.6807 41.5669C61.6807 41.7677 61.6019 41.9604 61.4613 42.1038C61.3207 42.2471 61.1294 42.3295 60.9287 42.3333Z" fill="#605C5D"/>
<path d="M43.1066 56.2153H33.3437L30.2176 43.6507C30.0889 43.1332 29.7907 42.6737 29.3706 42.3452C28.9505 42.0168 28.4326 41.8384 27.8994 41.8384H3.15673C1.60388 41.8384 0.463719 43.2968 0.838411 44.8037L4.11883 57.9985C4.60155 59.94 6.34493 61.3032 8.34569 61.3032H34.6093L34.609 61.3018H43.1064C44.511 61.3018 45.6497 60.1632 45.6497 58.7584C45.6498 57.354 44.5112 56.2153 43.1066 56.2153Z" fill="#91A2B5"/>
<path d="M46.4147 58.6572C46.3616 56.8881 44.8299 55.4487 42.9999 55.4487H33.9427L30.981 43.5442C30.6319 42.1419 29.4148 41.1261 28.0212 41.0741C27.9912 41.073 27.9615 41.0737 27.9317 41.0734C27.9209 41.073 27.9102 41.0718 27.8993 41.0718H3.15673C2.17909 41.0718 1.27301 41.5134 0.670899 42.2838C0.0687854 43.0538 -0.141302 44.0398 0.0945784 44.9886L3.37514 58.1833C3.64966 59.2937 4.28854 60.28 5.18964 60.9845C6.09074 61.689 7.20203 62.071 8.34583 62.0695L43.1066 62.0681C44.0095 62.0681 44.853 61.7111 45.4819 61.0633C46.1105 60.4155 46.4418 59.561 46.4147 58.6572ZM44.3818 59.9958C44.2166 60.1671 44.0185 60.3033 43.7993 60.396C43.5801 60.4888 43.3444 60.5362 43.1064 60.5353L32.6725 60.5367C31.9897 60.5376 31.3264 60.3096 30.7885 59.8891C30.2506 59.4685 29.8692 58.8798 29.7053 58.217C29.6529 58.0235 29.5267 57.8582 29.3538 57.7566C29.1809 57.655 28.9751 57.6252 28.7805 57.6736C28.5859 57.722 28.418 57.8447 28.3128 58.0154C28.2076 58.1861 28.1735 58.3913 28.2178 58.5869C28.3971 59.3109 28.7505 59.9802 29.2472 60.5367H8.34583C7.54432 60.5378 6.7656 60.27 6.13417 59.7764C5.50274 59.2827 5.05505 58.5916 4.86267 57.8135L1.58211 44.6187C1.52193 44.3797 1.51734 44.13 1.56872 43.8889C1.62009 43.6477 1.72605 43.4216 1.87845 43.2278C2.02971 43.0332 2.22359 42.8758 2.44519 42.7678C2.66679 42.6598 2.91021 42.604 3.15673 42.6048H25.1936C24.7635 43.3174 24.6323 44.164 24.8372 44.9886L26.8427 53.0555C26.8918 53.2527 27.0172 53.4224 27.1914 53.5272C27.3655 53.632 27.5742 53.6633 27.7714 53.6144C27.9687 53.5653 28.1384 53.4399 28.2432 53.2657C28.348 53.0915 28.3793 52.8828 28.3303 52.6855L26.3246 44.6184C26.2629 44.3744 26.2593 44.1192 26.3141 43.8735C26.369 43.6277 26.4807 43.3983 26.6403 43.2036C26.9646 42.8043 27.4471 42.5857 27.9639 42.6058C28.6793 42.6324 29.3083 43.1704 29.4933 43.9141L32.5998 56.4C32.6411 56.566 32.7368 56.7134 32.8716 56.8187C33.0063 56.9241 33.1725 56.9813 33.3435 56.9813H42.9999C44.0095 56.9813 44.854 57.7536 44.8825 58.7029C44.8907 58.9411 44.8505 59.1784 44.7644 59.4006C44.6784 59.6228 44.5482 59.8252 44.3818 59.9958Z" fill="#67838F"/>
</g>
<defs>
<clipPath id="clip0_525_2035">
<rect width="71" height="71" fill="white"/>
</clipPath>
</defs>
</svg>
