<svg width="196" height="207" viewBox="0 0 196 207" fill="none" xmlns="http://www.w3.org/2000/svg">
<path d="M103 178.429C103.857 187.572 102.143 196.429 100.143 205.429C98.143 205.857 96.143 206 94.0002 206.286C95.4287 200.714 96.4287 195.143 97.0002 189.572C97.2859 186.857 97.4287 184.143 96.7144 181.572C95.7144 178.429 93.2859 175.857 90.8573 173.572C91.7144 172.857 92.5716 172.143 93.5716 171.572C95.5716 170.572 98.0002 170.429 99.8573 171.572C102 172.857 102.714 175.857 103 178.429Z" fill="#7EB2DB"/>
<path d="M96.7144 181.429C97.5716 184 97.2859 186.714 97.0001 189.429C96.4287 195.143 95.4287 200.714 94.0001 206.143C92.2858 206.286 90.7144 206.429 89.0001 206.429C90.7144 197.143 89.8573 187.429 86.4287 178.714C87.143 177.714 88.0001 176.714 88.7144 175.714C89.4287 174.857 90.143 174.143 90.8573 173.429C93.2859 175.714 95.7144 178.286 96.7144 181.429Z" fill="url(#paint0_linear_667_2991)"/>
<path d="M86.4287 178.714C89.8573 187.429 90.8573 197.143 89.0001 206.429C84.2858 206.571 79.5716 206.143 75.0001 205.286C76.8573 196.143 80.8573 186.571 86.4287 178.714Z" fill="#FFC761"/>
<path d="M89.7144 176.429C84.7144 181.714 81.0002 188.286 78.8573 195.286C81.5716 197.286 85.8573 197.143 88.7144 195.286C91.4287 193.286 93.0002 190 93.2859 186.572C93.2859 183.143 91.4287 179.286 89.7144 176.429Z" fill="#D9D9D9" fill-opacity="0.27"/>
<path d="M125.714 119.714C137.571 125.286 144.429 139.143 140.143 151.572C137.857 158.143 133.143 163.857 127.571 168C119.857 173.714 110.143 178 100.429 175.857C99.2857 175.572 98.1429 175.286 97 174.714C103.143 176.143 110 174.429 115.143 170.714C122 165.714 126.143 157.714 128.143 149.429C129.571 143.714 130.143 137.286 127.714 131.857C124.571 125.143 117 121.286 109.714 120.429C106.143 120 102.571 120.286 98.8571 120.714C107 116.572 116.857 115.572 125.714 119.714Z" fill="#7EB2DB"/>
<path d="M127.571 132C130.143 137.429 129.571 143.714 128 149.571C125.857 157.857 121.857 165.857 115 170.857C109.857 174.571 103 176.286 96.8572 174.857C90.0001 172.143 84.5715 166.429 82.0001 159.429C79.2858 151.714 80.1429 142.857 84.0001 135.429C87.2858 129.286 92.5715 124.143 98.7143 120.857C102.286 120.286 105.857 120.143 109.571 120.571C117 121.429 124.429 125.286 127.571 132ZM106.143 142.286C107.857 139.143 107.714 134.714 106 131.714C104.714 129.571 102.714 128.429 100.286 128.429C100.714 125.857 101.429 123.429 102.714 121C100.571 123.143 99.0001 125.714 98.0001 128.571C94.0001 129.429 90.4286 133 88.7143 136.143C88.2858 137 88.0001 137.714 87.7144 138.429C87.0001 141 87.2858 143.714 88.5715 145.714C89.5715 147.286 91.1429 148.429 93.1429 148.714C93.4286 148.714 93.8572 148.857 94.2858 148.857C93.0001 157 95.0001 165.571 99.5715 172.286C96.0001 165 94.8572 156.857 96.5715 148.857C100.429 148.286 104.286 145.714 106.143 142.286Z" fill="url(#paint1_linear_667_2991)"/>
<path d="M106 131.714C107.857 134.714 107.857 139.143 106.143 142.286C104.286 145.714 100.571 148.286 96.5715 148.857C95 156.857 96 165 99.5715 172.286C94.8572 165.571 92.8572 157 94.2857 148.857C93.8572 148.857 93.5715 148.857 93.1429 148.714C91.1429 148.429 89.5715 147.429 88.5715 145.714C87.2857 143.714 87 141 87.7143 138.429C87.8572 137.714 88.2857 136.857 88.7143 136.143C90.4286 132.857 94 129.429 98 128.571C99 125.714 100.571 123.143 102.714 121C101.429 123.286 100.714 125.714 100.286 128.429C102.714 128.571 104.714 129.714 106 131.714ZM106 140C106.286 139 106.429 137.857 106.429 136.714C106.429 136.571 106.429 136.429 106.429 136.429C106.429 136.286 106.429 136.143 106.429 136.143C106.429 136 106.429 136 106.429 135.857C106.429 135.571 106.429 135.429 106.286 135.143V135C106.286 134.857 106.286 134.714 106.143 134.571C106 134.286 106 134 105.857 133.714C105.714 133.429 105.714 133.286 105.571 133C105.286 132.429 104.857 131.857 104.429 131.429C104.286 131.286 104.286 131.286 104.143 131.143C103.286 130.429 102 129.857 100.571 130C96.5715 130.143 92.7143 133.714 90.8572 137C90.4286 137.714 90.1429 138.429 90 139C89 142.429 90.2857 146.714 94.1429 147.286C95.7143 147.571 97.4286 147.286 99 146.857C99.5715 146.714 100.143 146.429 100.714 146.143C101.143 145.857 101.571 145.714 102 145.429C103.429 144.429 104.714 143.143 105.571 141.571C105.714 141.429 105.714 141.143 105.857 141C105.714 140.714 105.857 140.429 106 140Z" fill="#7EB2DB"/>
<path d="M106.286 136.857C106.286 138 106.143 139 105.857 140.143C105.714 140.429 105.714 140.714 105.571 141C105.429 141.286 105.429 141.429 105.286 141.572C104.571 143 103.286 144.429 101.714 145.429C101.286 145.714 100.857 146 100.429 146.143C99.8572 146.429 99.2858 146.714 98.7143 146.857C97.2858 147.286 96.0001 147.572 94.5715 147.429C92.5715 145.857 92.1429 142.857 92.8572 140.143C93.0001 139.572 93.2858 138.857 93.7143 138.143C95.5715 134.857 99.4286 131.286 103.429 131.143C103.571 131.143 103.714 131.143 103.857 131.143C104 131.286 104 131.286 104.143 131.429C104.571 131.857 105 132.429 105.286 133C105.429 133.286 105.571 133.429 105.571 133.714C105.714 134 105.714 134.286 105.857 134.572C105.857 134.714 106 134.857 106 135V135.143C106 135.429 106.143 135.572 106.143 135.857C106.143 136 106.143 136 106.143 136.143C106.143 136.286 106.143 136.429 106.143 136.429C106.286 136.572 106.286 136.714 106.286 136.857Z" fill="#CFEAE4"/>
<path d="M104 131.143C103.857 131.143 103.714 131.143 103.571 131.143C99.5714 131.286 95.7143 134.857 93.8572 138.143C93.4286 138.857 93.1429 139.571 93 140.143C92.2857 142.714 92.7143 145.714 94.7143 147.429C96.1429 147.571 97.5714 147.286 98.8572 146.857C97.2857 147.429 95.5714 147.571 94 147.286C90 146.714 88.8572 142.429 89.8572 139C90 138.429 90.2857 137.714 90.7143 137C92.5714 133.714 96.4286 130.143 100.429 130C101.857 130 103.143 130.429 104 131.143Z" fill="#578AB4"/>
<path d="M104.571 139.429C103.857 140.715 102.714 141.715 101.429 142.143C100 142.572 98.4286 142.286 97.2857 141.429C96.1429 140.572 95.5714 138.857 96 137.572C95.4286 138.857 94.5715 140.572 94.8572 142C95.1429 143.429 96 144.857 97.2857 145.429C98.8572 146.143 100.857 145.429 102.143 144.286C103.571 143.143 103.857 141.143 104.571 139.429Z" fill="#ACDDD7"/>
<path d="M101.286 138.857C102.571 138.429 104.143 137.571 104 136.143C103.857 134.857 102.429 133.857 101.143 134.143C98.1429 134.571 97.4286 140 101.286 138.857Z" fill="#EDF7F7"/>
<path d="M117.286 130C118.286 132.286 118 135 116.857 137.143C115.714 139.286 113.857 141.143 111.857 142.715C107.286 146.429 101.857 149.143 96.1429 150.715C96.2858 150.143 96.2858 149.429 96.4286 148.857C100.429 148.286 104.286 145.715 106 142.286C107.714 139.143 107.571 134.715 105.857 131.715C104.571 129.572 102.571 128.429 100.143 128.429C100.571 126.429 101 124.572 101.714 122.857C105.714 123 109.857 124 113 125.857C114.857 126.857 116.571 128.286 117.286 130ZM88.5715 152.286C90.4286 152.143 92.1429 151.857 93.8572 151.429C93.8572 150.715 94.0001 149.857 94.1429 149.143C93.7143 149.143 93.4286 149.143 93.0001 149C91.0001 148.715 89.4286 147.715 88.4286 146C87.1429 144 86.8572 141.286 87.5715 138.715C87.7143 138 88.1429 137.143 88.5715 136.429C90.2858 133.143 93.8572 129.715 97.8572 128.857C98.5715 126.715 99.7143 124.715 101 123C98.4286 123 95.8572 123.429 93.5715 124.286C89.5715 127.286 86.1429 131.286 83.8572 135.715C81.5715 140.143 80.2858 145.143 80.2858 150.143C80.5715 150.429 80.7143 150.715 81.1429 151C83.1429 152.429 86.0001 152.572 88.5715 152.286Z" fill="#D9D9D9" fill-opacity="0.24"/>
<path d="M125.572 195C126.857 198.714 128.429 202.429 130.429 205.857C128.429 205.714 126.429 205.571 124.429 205.286C124.429 201.857 124.857 198.429 125.572 195Z" fill="#FAA747"/>
<path d="M146 193.286C147.429 197.143 148.857 201 150 205C143.429 206.143 136.857 206.286 130.286 205.857C128.286 202.428 126.714 198.714 125.429 195C125.429 194.857 125.429 194.714 125.572 194.571C126.429 190.714 127.429 185.857 129.857 182.571C131 181 132.857 179.857 134.714 180C140.857 180.428 144.143 188.428 146 193.286Z" fill="#FFC761"/>
<path d="M125.571 195C124.857 198.428 124.429 201.857 124.429 205.285C123.286 205.143 122.286 205 121.143 204.857C120.571 195 121 185 122.714 175.143C122.429 181.857 123.429 188.571 125.571 195Z" fill="#7EB2DB"/>
<path d="M152.857 204.428C151.857 204.571 151 204.857 150 205C148.857 201 147.429 197.143 146 193.286C144.143 188.428 140.857 180.286 134.572 180C132.714 179.857 130.857 181 129.714 182.571C127.286 185.857 126.286 190.714 125.429 194.571C125.429 194.714 125.429 194.857 125.286 195C123.143 188.571 122.143 181.857 122.429 175.143C123 171.286 123.857 167.571 124.857 163.857C125.429 161.857 126.572 160.143 128.429 159.571C130.286 159 132.429 159.571 134.143 160.571C135.857 161.571 137.143 163.143 138.429 164.714C147.429 175.571 152.286 190.428 152.857 204.428Z" fill="url(#paint2_linear_667_2991)"/>
<path d="M127.429 183C128.286 186.571 129.714 190.428 132.857 191.857C136 193.428 140 192 142.286 189C146.143 183.857 144.714 176.714 142 171.286C140 167.286 133.857 157.857 128.571 161C126.857 162 126.286 164.571 126.143 166.714C125.714 172.286 126.143 177.857 127.429 183Z" fill="#D9D9D9" fill-opacity="0.27"/>
<path d="M160.143 61.8572C156.143 75.4286 147.714 87.2858 139.286 98.5715C135.857 99.7143 132.143 101.143 128.714 102.286C125.857 108.571 124.429 115.429 124.429 122.286C110 120.714 95.7144 116.857 82.7144 110.857C82.2859 103.857 82.4287 98.5715 83.0001 91C80.5716 88.4286 75.4287 81.5715 75.4287 81.5715C75.4287 81.5715 76.0001 69.5715 76.4287 65.4286C77.4287 56.8572 79.5716 48.4286 83.143 40.5715C89.2859 27.2858 100.286 16 114.286 11.5715C128.143 7.1429 144.857 10.7143 154.286 21.8572C163.143 32.4286 164.143 48.2858 160.143 61.8572Z" fill="url(#paint3_radial_667_2991)"/>
<path d="M91.7144 67.7141C87.2858 60.8569 85.5715 52.4283 87.0001 44.4283C87.2858 42.2855 88.0001 40.1426 89.2858 38.5712C90.7144 36.9998 93.0001 35.8569 95.0001 36.5712C97.0001 37.2855 98.2858 39.9998 97.0001 41.7141C97.8572 39.8569 99.5715 37.9998 101.143 36.7141C102.714 35.4283 105.143 34.8569 106.857 35.8569C108.143 36.5712 108.857 38.1426 109 39.7141C109.143 41.2855 108.857 42.7141 108.429 44.2855C106 53.1426 98.7144 61.7141 91.7144 67.7141ZM142.286 51.8569C143 49.9998 143.572 48.1426 143.429 46.2855C143.286 44.4283 142.286 42.4283 140.714 41.5712C138.857 40.5712 136.572 41.1426 134.857 42.4283C133.143 43.7141 131.572 45.5712 130.286 47.2855C130.286 45.7141 130.286 44.1426 129.714 42.7141C129.143 41.2855 128 39.9998 126.429 39.5712C124.857 39.1426 123.143 39.9998 121.857 41.1426C120.714 42.2855 120 43.8569 119.429 45.4283C116.429 54.2855 117.714 64.5712 122.714 72.5712C131.143 68.1426 138.714 60.7141 142.286 51.8569ZM112.857 76.7141C108.429 75.1426 103.857 73.9998 99.2858 73.2855C100 73.8569 100.429 74.7141 101 75.2855C99.2858 81.5712 98.8572 90.8569 100.286 97.2855C100.714 99.1426 103.143 99.5712 104.286 98.1426C108.572 92.7141 112 83.4283 112.857 76.7141Z" fill="#58C2B2"/>
<path d="M122.286 84.7143L121.143 85.1429L118.857 79.4286L119 78.5714L119.857 78.7143L122.286 84.7143ZM127 84.4286L123.714 79H123.143L125.857 85.1429L126.714 85.2857L127 84.4286ZM131.429 84.2857L127.714 79L127.572 79.1429L130.286 85L131.429 84.2857ZM88.7144 75.8571L87.5716 71.8571L86.4287 71L87.7144 76.8571L88.4287 77.1429L88.8573 76.7143L88.7144 75.8571ZM91.5716 76L90.143 71.4286L89.5716 71.5714L91.0001 77.1429L91.7144 76.8571L91.5716 76ZM95.2858 77.1429L93.143 72.4286H92.7144L92.0001 72.5714L94.4287 78L95.143 77.7143L95.2858 77.1429Z" fill="#58C2B2"/>
<path d="M121 64.5713C124 62.7141 127 60.857 129.857 58.7141C135.143 54.5713 140.572 48.9998 141.143 41.857C141 41.7141 140.857 41.7141 140.714 41.5713C138.857 40.5713 136.572 41.1427 134.857 42.4284C133.143 43.7141 131.572 45.5713 130.286 47.2856C130.286 45.7141 130.286 44.1427 129.714 42.7141C129.143 41.2856 128 39.9998 126.429 39.5713C124.857 39.1427 123.143 39.9999 121.857 41.1427C120.714 42.2856 120 43.857 119.429 45.4284C117.286 51.857 117.286 58.9998 119.429 65.4284C120 65.1427 120.429 64.857 121 64.5713Z" fill="#CFEAE4"/>
<path d="M94.4287 54.9998C100.714 50.1426 105.143 43.5712 107 35.9998C106.857 35.9998 106.857 35.8569 106.857 35.8569C105.143 34.8569 102.714 35.4283 101.143 36.7141C99.5715 37.9998 98.0001 39.8569 97.0001 41.7141C98.2858 39.9998 97.0001 37.2855 95.0001 36.5712C93.0001 35.8569 90.7144 36.8569 89.2858 38.5712C87.8572 40.1426 87.2858 42.2855 87.0001 44.4283C86.143 49.4283 86.5715 54.5712 88.0001 59.4283C90.1429 58.1426 92.2858 56.5712 94.4287 54.9998Z" fill="#CFEAE4"/>
<path d="M186.572 67.1426C182.286 75.5712 175.857 82.9998 169.714 90.2855C168 92.2855 166.286 94.4284 164.572 96.5712C164.143 96.4284 163.572 95.9998 163.143 95.2855C161.429 92.8569 161.572 89.7141 162.286 86.7141C162.286 86.5712 162.286 86.4284 162.429 86.2855C165.143 83.7141 168 81.1427 170.572 78.4284C175.143 73.7141 179.429 68.5712 182.572 62.8569C184.143 63.1426 185.572 63.9998 186.143 65.5712C186.572 66.1426 186.572 66.7141 186.572 67.1426Z" fill="#FAA747"/>
<path d="M187.143 69.4285C187.429 67.9999 187.714 66.5714 187.572 65.1428C187.572 64.4285 187.286 63.7142 187 63.1428C186.429 61.8571 185.286 60.9999 184 60.5713C182.857 60.1428 181.714 60.1428 180.572 60.2856C178 60.7142 175.857 62.1428 173.857 63.8571C166.714 69.8571 161.857 78.5714 160.286 87.8571C160.286 88.1428 160.286 88.2856 160.143 88.5714C159.714 91.8571 159.857 95.1428 162 97.7142C162.286 98.1428 162.714 98.4285 163 98.7142C165 100.143 167.429 98.8571 169.572 96.9999C173 94.2856 176 91.1428 178.714 87.5713C182.714 82.2856 185.572 75.9999 187.143 69.4285ZM169.714 94.9999C168 96.2856 166.143 97.4285 164.714 96.7142C164.286 96.5714 163.714 96.1428 163.286 95.4285C161.572 92.9999 161.714 89.8571 162.429 86.8571C162.429 86.7142 162.429 86.5714 162.572 86.4285C164.429 78.4285 169.143 70.9999 175.286 65.9999C177 64.5713 179 63.2856 181.143 62.9999C181.714 62.9999 182.143 62.8571 182.714 62.9999C184.286 63.2856 185.714 64.1428 186.286 65.7142C186.429 66.1428 186.572 66.7142 186.572 67.1428C186.714 68.4285 186.286 69.8571 186 71.1428C183.286 80.7142 177.286 89.2856 169.714 94.9999Z" fill="#7EB2DB"/>
<path d="M186 71.2859C183.286 80.7145 177.286 89.2859 169.572 95.0002C167.857 96.2859 166 97.4288 164.572 96.7145C166.286 94.5716 168 92.4288 169.714 90.4288C175.857 83.1431 182.286 75.7145 186.572 67.2859C186.714 68.5716 186.429 69.8574 186 71.2859ZM175.286 66.0002C169 71.0002 164.429 78.4288 162.572 86.4288C165.286 83.8574 168.143 81.2859 170.714 78.5716C175.286 73.8574 179.572 68.7145 182.714 63.0002C182.143 62.8574 181.714 62.8574 181.143 63.0002C179 63.2859 177 64.5716 175.286 66.0002Z" fill="#FFC761"/>
<path d="M80.143 109.571C79.2858 109.143 78.4287 108.714 77.7144 108.286C77.0001 103.286 76.2858 98.2856 75.5715 93.1427C77.8572 98.4284 79.4287 104 80.143 109.571ZM174.143 15.5713C185 24.4284 190.143 39.9999 186.572 53.5713C186 55.9999 185.143 58.2856 184 60.5713C185.286 60.9999 186.429 61.857 187 63.1427C187.286 63.857 187.429 64.4284 187.572 65.1427C188.857 62.1427 190 59.1427 190.714 55.9999C193.857 40.9999 186.857 24.2856 174.143 15.5713ZM160.143 88.5713C156.286 92.1427 152.572 95.5713 149.143 99.4284C143.143 106.143 138 114.143 136.286 122.857C141.429 123 146.429 122.714 151.572 122.286C153.143 113.714 157.714 105.857 163 98.5713C162.714 98.2856 162.286 97.9999 162 97.5713C159.857 95.1427 159.714 91.857 160.143 88.5713Z" fill="#7EB2DB"/>
<path d="M195.572 46.1429C195.286 37.2857 192.286 28.4286 186.714 21.4286C181.143 14.4286 173.286 9.71428 164.857 6.71428C149 0.85714 130.572 -2 114.143 3.71428C101 8.42857 89.8572 18.1429 83.5715 30.5714C78.2858 40.8571 75.8572 53.2857 74.4287 65C74.2858 66.7143 74.0001 68.5714 73.8572 70.2857C73.0001 79.8571 73.4287 89.7143 75.0001 99C75.2858 100.286 75.7144 107.286 76.8572 107.857C77.1429 108 77.2858 108.143 77.5715 108.143C76.8572 103.143 76.1429 98.1429 75.4287 93C77.5715 98.1429 79.1429 103.714 80.0001 109.286C80.8572 109.714 81.5715 110 82.4287 110.429C82.0001 103.429 82.143 98.1429 82.7144 90.5714C80.2858 88 75.1429 81.1428 75.1429 81.1428C75.1429 81.1428 75.7144 69.1429 76.1429 65C77.1429 56.4286 79.2858 48 82.8572 40.1429C89.0001 26.8571 100 15.5714 114 11.1429C127.857 6.71428 144.572 10.2857 154 21.4286C163.143 32.1429 164.143 48 160.143 61.5714C156.143 75.1428 147.714 87 139.286 98.2857C135.857 99.4286 132.143 100.857 128.714 102C125.857 108.286 124.429 115.143 124.429 122C128.429 122.429 132.429 122.714 136.429 122.714C138.143 113.857 143.286 106 149.286 99.2857C152.714 95.4286 156.429 91.8571 160.286 88.4286C160.286 88.1429 160.286 88 160.429 87.7143C162 78.4286 166.857 69.7143 174 63.7143C176 62 178.286 60.5714 180.714 60.1428C181.857 60 183 60 184.143 60.4286C185.143 58.1428 186 55.8571 186.714 53.4286C190.286 39.8571 185.143 24.2857 174.286 15.4286C187 24.1429 194.143 40.8571 190.857 55.8571C190.143 59 189.143 62.1428 187.714 65C187.857 66.4286 187.572 67.8571 187.286 69.2857C185.714 75.8571 182.857 82.1428 178.857 87.4286C176.286 91 173.143 94.1428 169.714 96.8571C167.429 98.5714 165.143 100 163.143 98.5714C157.714 105.857 153.143 113.571 151.714 122.286C154 122 156.286 121.714 158.429 121.429C163.143 109.143 172.286 99.1429 180.143 88.4286C184 83.1429 187.572 77.8571 190.286 72C193.714 64 195.857 55.1429 195.572 46.1429Z" fill="url(#paint4_linear_667_2991)"/>
<path d="M168 9.42853C169.429 14 169.143 19 167.429 23.5714C165.857 28.1428 163 32.1428 159.857 35.7142C152.143 44.2857 142 50.2857 131.143 53.8571C120.286 57.4285 109 58.7142 97.5715 58.8571C94.2858 58.8571 91.0001 58.8571 87.8573 57.8571C84.7144 56.8571 81.7144 55 80.2858 52C76.4287 44.2857 82.7144 33.1428 86.8573 26.7142C92.143 18.5714 99.5715 11.7142 108.286 7.28568C126.572 -2.00004 150 0.428534 168 9.42853Z" fill="#D9D9D9" fill-opacity="0.2"/>
<path d="M133.572 12.5714C137.429 13.1428 141.286 14.4285 143.857 17.2857C144.572 18 145.143 19.2857 144.572 20.1428C144 20.8571 142.714 20.7143 141.857 20.4285C135.286 18.7143 128.429 19.5714 121.857 20.8571C118.857 21.4285 108.857 26 107.143 22.7143C104.857 18.4285 111.714 15.2857 114.429 14.4285C120.286 12.1428 127 11.5714 133.572 12.5714Z" fill="#D9D9D9" fill-opacity="0.5"/>
<path d="M56.0001 102.857C56.2858 104.286 55.8572 105.571 55.0001 106.571L54.8572 106.857C54.1429 107.714 53.0001 108.143 51.8572 108.285L28.7144 108.857C26.4286 108.857 24.4286 107.428 23.7144 105.428L3.85721 43.9998C3.5715 42.9998 3.71435 41.9998 4.28578 41.2855L4.71436 40.7141C5.28578 40.1427 6.14293 39.8569 7.14293 39.8569L41.2858 42.5712C43.2858 42.7141 45.0001 44.2855 45.4286 46.2855L56.0001 102.857ZM50.8572 107.143C53.4286 107 55.2858 104.714 54.8572 102.143L44.8572 47.5712C44.4286 45.5712 42.8572 44.1426 40.8572 43.9998L35.4286 43.5712V43.9998C35.2858 45.2855 34.1429 46.2855 32.8572 46.1426L17.5715 45.1426C16.5715 45.1426 15.7144 44.4284 15.4286 43.5712L14.8572 41.8569L8.71435 41.4284C6.5715 41.2855 5.00007 43.2855 5.71435 45.4284L24.5715 104.571C25.2858 106.571 27.1429 108 29.2858 108L50.8572 107.143Z" fill="#263A4E"/>
<path d="M54.8572 102.143C55.2858 104.714 53.4287 107.143 50.8572 107.143L29.0001 107.857C26.8572 107.857 25.0001 106.571 24.2858 104.428L5.57152 45.2856C4.85723 43.2856 6.57152 41.1427 8.57152 41.2856L14.7144 41.7142L15.2858 43.4284C15.5715 44.2856 16.4287 44.9999 17.4287 44.9999L32.7144 45.857C34.0001 45.9999 35.1429 44.9999 35.2858 43.7142V43.2856L40.7144 43.7142C42.7144 43.857 44.2858 45.2856 44.7144 47.2856L54.8572 102.143Z" fill="#58C2B2"/>
<path d="M54.8572 106.714L54.0001 107.714C52.8572 109 51.2858 109.714 49.7143 109.857L25.7143 111C23.0001 111.143 20.5715 109.428 19.7143 106.857L0.857202 47.1428C0.571488 46.2856 0.714344 45.2856 1.42863 44.5714L4.28577 41.2856C3.8572 41.9999 3.57149 42.9999 3.8572 43.9999L23.7143 105.286C24.4286 107.428 26.4286 108.857 28.7143 108.714L51.8572 108C53.0001 108.143 54.1429 107.571 54.8572 106.714Z" fill="#263A4E"/>
<path d="M12.2858 50.7139L15.8572 60.571H33.1429V52.7139L12.2858 50.7139Z" fill="#FFF0BD"/>
<path d="M30.1429 67.1427L31.8572 73.7141L45.7144 73.2855V65.8569L30.1429 67.1427Z" fill="#FFF0BD"/>
<path d="M23 80.2856L25.4286 85.9999L39.8571 85.4285L39.1429 81.5714L23 80.2856Z" fill="#FFF0BD"/>
<path d="M71.5714 134.286C72 135.429 72.2857 136.714 71.8571 138C71.2857 139.714 69.5714 140.857 67.8571 141.429C64 142.857 59.5714 142.286 55.7143 140.714C51.8571 139.143 48.5714 136.572 45.5714 133.714C40.4286 129 35.8571 123.429 32 117.429C33.1429 118.857 34.5714 119.857 36.1429 120.714C37.5714 121.286 39 121.714 40.5714 121.714C42.5714 125.714 45.2857 129.286 48.5714 132.286C51.8571 135.429 56 138.143 60.5714 138.572C64.7143 139.143 69.1429 137.572 71.5714 134.286Z" fill="#7EB2DB"/>
<path d="M71.2858 133.714C71.4286 133.857 71.4286 134 71.5715 134.143C69.2858 137.429 64.7144 139 60.7144 138.572C56.1429 138 52.0001 135.429 48.7144 132.286C45.4286 129.286 42.7144 125.572 40.7144 121.714C43.4286 121.857 46.1429 121.286 48.5715 120.286C52.4286 118.572 56.2858 116.286 58.8572 113C59.4286 112.143 60.0001 111.286 60.2858 110.429C61.2858 117.714 64.1429 124.714 68.7144 130.429C69.7144 131.429 70.5715 132.572 71.2858 133.714Z" fill="url(#paint5_linear_667_2991)"/>
<path d="M60.2858 110.286C59.8572 111.286 59.4286 112.143 58.8572 112.857C56.2858 116.286 52.4286 118.429 48.5715 120.143C46.1429 121.143 43.2858 121.715 40.7143 121.572C39.1429 121.429 37.7143 121.143 36.2858 120.572C34.7143 119.857 33.1429 118.715 32.1429 117.286C30.7143 115.429 29.8572 113.143 30.4286 110.715L49.8572 109.715C53.4286 108.715 55.8572 106.572 56.1429 102.429L55.1429 102C51.5715 101.572 48.2858 99.5717 46.1429 96.5717C44.8572 94.7145 41.4286 86.8574 44.5715 85.4288C45.5715 85.0002 46.7143 85.4288 47.4286 86.1431C48.1429 86.8574 48.5715 87.8574 48.8572 88.8574C49.1429 89.8574 49.4286 90.8574 50.0001 91.7145C51.4286 93.8574 54.0001 94.7145 56.1429 96.1431C58.7143 97.8574 60.5715 100.715 61.1429 103.857C61.4286 106.143 61.1429 108.286 60.2858 110.286Z" fill="url(#paint6_linear_667_2991)"/>
<path d="M65.4287 128.286C62.4287 124 60.2858 119 59.4287 113.857C57.8572 116.429 55.2858 118.572 52.5715 119.857C55.7144 123.715 60.5715 126.572 65.4287 128.286Z" fill="#D9D9D9" fill-opacity="0.27"/>
<path d="M147.571 124.143C146.143 124.143 144.714 124 143.286 123.714C143.286 123.572 143.143 123.572 143.143 123.429C141.571 121 139.714 118.714 138.571 116.143C137 112.286 137.286 107.857 138.571 104C140 100.143 142.429 96.5716 145.286 93.5716C146.571 92.143 148 90.7144 150 90.4287C152 90.143 154 91.143 155.714 92.2859C161.143 96.0001 164.857 101.857 166.571 108.286C166.857 109.143 167 110.143 167.286 111C165.429 115.429 162.143 119.286 157.857 121.572C154.714 123.286 151.143 124.143 147.571 124.143Z" fill="url(#paint7_linear_667_2991)"/>
<path d="M147.572 124.143C148.429 126.286 148.857 128.571 148.714 130.857C148.572 133.857 147.286 136.714 145 138.571C143 140.286 140 140.857 137.572 140C137.714 139 138.143 138 139.143 137.429C140.286 136.714 141.714 136.714 142.714 136C144.143 135 145.286 133.286 145.429 131.571C145.714 128.857 144.572 126.143 143 123.714C144.714 124 146.143 124.143 147.572 124.143Z" fill="#7EB2DB"/>
<path d="M167.143 110.857C168.286 116.286 168.143 122 167.143 127.572C166.429 132 165.143 136.429 162.857 140.143C160.429 144 157 147.143 152.714 148.429C148.429 149.715 143.429 148.857 140.143 145.857C138.857 144.572 137.429 142 137.571 140C140 140.857 143 140.286 145 138.572C147.286 136.715 148.571 133.715 148.714 130.857C148.857 128.572 148.429 126.286 147.571 124.143C151.143 124.143 154.714 123.286 157.714 121.572C162 119.143 165.286 115.429 167.143 110.857Z" fill="url(#paint8_linear_667_2991)"/>
<path d="M158.857 122.286C162.428 121 165.428 118.286 167 114.714C167.143 120.429 166.571 125.857 165 131.429C164.143 134.429 163 137.572 161.286 140.143C159.571 142.857 157 145 154.143 146.143C153.714 144.286 154.286 142.571 155 141C157.714 135.143 159.428 128.714 158.857 122.286Z" fill="#BDBE9A" fill-opacity="0.24"/>
<defs>
<linearGradient id="paint0_linear_667_2991" x1="88.2527" y1="172.93" x2="95.56" y2="206.197" gradientUnits="userSpaceOnUse">
<stop stop-color="#FFEEC5"/>
<stop offset="1" stop-color="#ADDCF6"/>
</linearGradient>
<linearGradient id="paint1_linear_667_2991" x1="85.7812" y1="126.577" x2="126.741" y2="169.845" gradientUnits="userSpaceOnUse">
<stop stop-color="#FFEEC5"/>
<stop offset="1" stop-color="#ADDCF6"/>
</linearGradient>
<linearGradient id="paint2_linear_667_2991" x1="133.943" y1="156.289" x2="139.712" y2="209.652" gradientUnits="userSpaceOnUse">
<stop stop-color="#FFEEC5"/>
<stop offset="1" stop-color="#ADDCF6"/>
</linearGradient>
<radialGradient id="paint3_radial_667_2991" cx="0" cy="0" r="1" gradientUnits="userSpaceOnUse" gradientTransform="translate(108.167 34.1164) rotate(9.85795) scale(71.4259 71.4259)">
<stop stop-color="#367992"/>
<stop offset="1" stop-color="#2D3C52"/>
</radialGradient>
<linearGradient id="paint4_linear_667_2991" x1="132.947" y1="-1.55586" x2="136.024" y2="124.208" gradientUnits="userSpaceOnUse">
<stop stop-color="#FFEEC5"/>
<stop offset="1" stop-color="#ADDCF6"/>
</linearGradient>
<linearGradient id="paint5_linear_667_2991" x1="64.8818" y1="116.392" x2="50.9293" y2="134.721" gradientUnits="userSpaceOnUse">
<stop stop-color="#FFEEC5"/>
<stop offset="1" stop-color="#ADDCF6"/>
</linearGradient>
<linearGradient id="paint6_linear_667_2991" x1="51.6015" y1="92.6371" x2="34.8715" y2="140.231" gradientUnits="userSpaceOnUse">
<stop stop-color="#367992"/>
<stop offset="1" stop-color="#2D3C52"/>
</linearGradient>
<linearGradient id="paint7_linear_667_2991" x1="146.265" y1="88.8991" x2="156.361" y2="126.686" gradientUnits="userSpaceOnUse">
<stop stop-color="#367992"/>
<stop offset="1" stop-color="#2D3C52"/>
</linearGradient>
<linearGradient id="paint8_linear_667_2991" x1="171.686" y1="106.692" x2="141.524" y2="153.473" gradientUnits="userSpaceOnUse">
<stop stop-color="#FFEEC5"/>
<stop offset="1" stop-color="#ADDCF6"/>
</linearGradient>
</defs>
</svg>
