<svg width="24" height="28" viewBox="0 0 24 28" fill="none" xmlns="http://www.w3.org/2000/svg">
<path d="M11.5035 13.4876C13.3564 13.4876 14.961 12.823 16.272 11.5118C17.583 10.2008 18.2475 8.59675 18.2475 6.74363C18.2475 4.89105 17.583 3.2868 16.2718 1.97535C14.9605 0.664557 13.3562 0 11.5035 0C9.65036 0 8.04622 0.664557 6.73526 1.97557C5.42431 3.28658 4.75948 4.89088 4.75948 6.74363C4.75948 8.59675 5.42425 10.2011 6.73548 11.5121C8.04672 12.8229 9.65102 13.4876 11.5035 13.4876ZM23.3038 21.5305C23.2659 20.9849 23.1895 20.3897 23.0769 19.7613C22.9632 19.1281 22.8169 18.5295 22.6417 17.9824C22.4608 17.417 22.2147 16.8586 21.9105 16.3234C21.5948 15.768 21.2239 15.2844 20.8078 14.8864C20.3726 14.4701 19.8399 14.1354 19.2238 13.8911C18.6099 13.6483 17.9294 13.5253 17.2017 13.5253C16.9158 13.5253 16.6394 13.6425 16.1056 13.9901C15.7261 14.2372 15.3455 14.4826 14.9638 14.7262C14.597 14.9599 14.1001 15.1789 13.4863 15.3771C12.8876 15.5709 12.2796 15.6692 11.6795 15.6692C11.0795 15.6692 10.4717 15.5709 9.87228 15.3771C9.25924 15.1791 8.76235 14.9601 8.39595 14.7264C7.97103 14.4549 7.58658 14.2071 7.2531 13.9898C6.7199 13.6423 6.44324 13.525 6.15744 13.525C5.42939 13.525 4.74925 13.6483 4.1355 13.8914C3.51983 14.1351 2.98685 14.4699 2.55127 14.8866C2.13537 15.2848 1.76432 15.7682 1.44899 16.3234C1.14504 16.8585 0.898951 17.4167 0.717773 17.9826C0.542774 18.5297 0.396486 19.1281 0.282847 19.7613C0.170246 20.3889 0.0937934 20.9842 0.05595 21.5311C0.0183046 22.0814 -0.000354818 22.6329 5.10854e-06 23.1845C5.10854e-06 24.6462 0.464626 25.8294 1.38085 26.702C2.28576 27.5632 3.48308 28 4.93912 28H18.4212C19.8773 28 21.0742 27.5634 21.9793 26.7021C22.8957 25.83 23.3604 24.6466 23.3604 23.1843C23.3601 22.6202 23.3412 22.0637 23.3038 21.5305Z" fill="#003865"/>
</svg>
