<svg width="17" height="20" viewBox="0 0 17 20" fill="none" xmlns="http://www.w3.org/2000/svg">
<path d="M8.21685 9.63406C9.54036 9.63406 10.6864 9.15934 11.6229 8.22274C12.5593 7.28634 13.034 6.14056 13.034 4.8169C13.034 3.49362 12.5593 2.34773 11.6227 1.41097C10.6861 0.474686 9.5402 0 8.21685 0C6.89314 0 5.74732 0.474686 4.81092 1.41113C3.87452 2.34757 3.39964 3.4935 3.39964 4.8169C3.39964 6.14056 3.87448 7.28649 4.81108 8.22294C5.74768 9.15922 6.89361 9.63406 8.21685 9.63406ZM16.6456 15.379C16.6186 14.9893 16.564 14.5641 16.4835 14.1153C16.4024 13.663 16.2979 13.2354 16.1727 12.8446C16.0435 12.4407 15.8677 12.0419 15.6504 11.6596C15.4249 11.2629 15.16 10.9175 14.8628 10.6332C14.5519 10.3358 14.1714 10.0967 13.7313 9.92227C13.2928 9.74883 12.8068 9.66094 12.2869 9.66094C12.0828 9.66094 11.8853 9.74469 11.504 9.99297C11.233 10.1695 10.9611 10.3447 10.6884 10.5187C10.4264 10.6857 10.0715 10.8421 9.63313 10.9837C9.20543 11.1221 8.77118 11.1923 8.34255 11.1923C7.91396 11.1923 7.47982 11.1221 7.05165 10.9837C6.61377 10.8422 6.25885 10.6859 5.99713 10.5189C5.69361 10.325 5.41901 10.148 5.1808 9.99277C4.79995 9.74453 4.60233 9.66074 4.39819 9.66074C3.87815 9.66074 3.39233 9.74879 2.95394 9.92246C2.51417 10.0966 2.13347 10.3357 1.82234 10.6334C1.52527 10.9178 1.26023 11.263 1.035 11.6596C0.817891 12.0419 0.64211 12.4406 0.512697 12.8448C0.387697 13.2356 0.283206 13.663 0.202034 14.1153C0.121605 14.5635 0.0669956 14.9888 0.0399644 15.3794C0.0130747 15.7725 -0.000253442 16.1664 3.64897e-06 16.5604C3.64897e-06 17.6045 0.331877 18.4496 0.986328 19.0729C1.63269 19.688 2.48792 20.0001 3.52796 20.0001H13.1581C14.1981 20.0001 15.053 19.6882 15.6996 19.073C16.3542 18.4501 16.686 17.6048 16.686 16.5603C16.6859 16.1573 16.6723 15.7598 16.6456 15.379Z" fill="#BDBDBD"/>
</svg>
