<svg width="90" height="94" viewBox="0 0 90 94" fill="none" xmlns="http://www.w3.org/2000/svg">
<g clip-path="url(#clip0_641_1992)">
<path d="M52.4234 52.529C52.3568 52.7237 52.2827 52.9184 52.2086 53.1055C50.838 56.7966 49.0599 60.5926 47.6004 64.3361C45.3099 63.5655 42.9096 63.181 40.4956 63.1981C40.3063 59.8765 40.5278 56.5439 41.1549 53.2777C41.8513 50.0508 43.459 46.8913 46.1557 45.042C47.7412 43.9414 49.5193 43.5895 50.8528 45.1618C52.0112 46.6352 52.629 48.4686 52.6012 50.3503C52.6039 51.0803 52.5444 51.8093 52.4234 52.529Z" fill="#CFEAE4"/>
<path d="M22.0925 61.4014C20.8008 61.1509 19.4887 61.023 18.1734 61.0195C17.8338 58.5395 17.7345 56.032 17.877 53.5325C18.0391 51.0816 18.9213 48.7353 20.4108 46.7941C20.7344 46.3438 21.1434 45.963 21.614 45.6738C22.0846 45.3846 22.6074 45.1928 23.1519 45.1095C23.7545 45.0835 24.3429 45.2987 24.7893 45.7085C23.5891 50.8596 22.4185 56.123 22.0925 61.4014Z" fill="#CFEAE4"/>
<path d="M34.9613 68.0645C32.9953 71.0601 30.2811 73.4776 27.0934 75.0723C25.7302 73.253 24.8708 70.5801 24.2262 68.4238C27.7833 69.1517 31.4596 69.0286 34.9613 68.0645Z" fill="#58C2B2"/>
<path d="M40.4956 63.1904C42.9096 63.1733 45.3099 63.5578 47.6004 64.3284C47.43 64.7701 47.2596 65.1969 47.1041 65.6312C44.0023 64.9423 40.8808 64.3484 37.7395 63.8492C36.739 56.8935 37.7368 49.7937 40.6141 43.3946C41.285 41.7781 42.2387 40.2969 43.4294 39.0222C44.0306 38.3883 44.7498 37.8807 45.5457 37.5287C46.3416 37.1766 47.1985 36.987 48.0672 36.9707C49.1487 37.0532 50.1906 37.4171 51.0916 38.0272C51.9926 38.6373 52.722 39.4727 53.2088 40.4522C54.1526 42.4342 54.4484 44.6681 54.0533 46.8312C53.71 48.7806 53.1637 50.688 52.4235 52.5213C52.5453 51.7966 52.6048 51.0627 52.6013 50.3276C52.629 48.4459 52.0112 46.6126 50.8528 45.1391C49.5193 43.5668 47.7412 43.9187 46.1557 45.0193C43.459 46.8836 41.8513 50.0431 41.1549 53.2551C40.5266 56.5262 40.3051 59.8638 40.4956 63.1904Z" fill="#58C2B2"/>
<path d="M18.1734 61.0195C19.4887 61.023 20.8008 61.1509 22.0925 61.4014C22.0925 61.6784 22.0925 61.9629 22.0407 62.2474C20.0058 62.1526 17.9684 62.1002 15.9285 62.0902C14.6324 56.4101 15.0689 50.4666 17.1806 45.0421C17.9842 42.8914 19.1469 40.8958 20.6182 39.1423C21.0641 38.5856 21.6095 38.1183 22.2259 37.7647C22.5341 37.5895 22.8748 37.4805 23.2266 37.4444C23.5785 37.4083 23.9339 37.446 24.2707 37.5551C24.7033 37.758 25.0755 38.0724 25.3498 38.4666C25.6242 38.8609 25.7911 39.3211 25.8339 39.8012C25.8997 40.7706 25.7944 41.7441 25.5227 42.6762C25.293 43.6495 25.0634 44.6304 24.8263 45.6186C24.3799 45.2088 23.7915 44.9936 23.189 45.0197C22.6444 45.1029 22.1217 45.2947 21.6511 45.5839C21.1805 45.8731 20.7715 46.2539 20.4478 46.7043C18.9583 48.6454 18.0761 50.9917 17.9141 53.4426C17.7535 55.9707 17.8403 58.5087 18.1734 61.0195Z" fill="#58C2B2"/>
<path d="M52.4234 52.5292C53.1637 50.6959 53.71 48.7886 54.0533 46.8391C54.4484 44.676 54.1526 42.4421 53.2088 40.4601C52.722 39.4807 51.9926 38.6452 51.0916 38.0352C50.1906 37.4251 49.1487 37.0611 48.0672 36.9786C47.1985 36.9949 46.3416 37.1846 45.5457 37.5366C44.7498 37.8887 44.0305 38.3962 43.4294 39.0301C42.2387 40.3048 41.285 41.786 40.6141 43.4025C37.7368 49.8017 36.739 56.9014 37.7395 63.8572C40.8808 64.3563 44.0023 64.9503 47.1041 65.6391C47.2596 65.2048 47.43 64.7781 47.6004 64.3363C49.0821 60.5928 50.838 56.7969 52.2086 53.1058C52.2827 52.9111 52.3568 52.7164 52.4234 52.5292ZM22.0925 61.4089C22.4185 56.168 23.5742 50.8671 24.7893 45.6861C25.0263 44.6978 25.256 43.717 25.4857 42.7437C25.7573 41.8116 25.8627 40.838 25.7968 39.8686C25.7541 39.3886 25.5872 38.9283 25.3128 38.5341C25.0384 38.1398 24.6662 37.8255 24.2336 37.6225C23.8968 37.5134 23.5414 37.4758 23.1896 37.5118C22.8377 37.5479 22.4971 37.657 22.1888 37.8322C21.5724 38.1857 21.0271 38.653 20.5812 39.2098C19.1295 40.9457 17.9797 42.9178 17.1806 45.0422C15.0873 50.4614 14.6638 56.3935 15.9656 62.0603C18.0054 62.0603 20.0428 62.1127 22.0777 62.2175C22.0555 61.9629 22.0703 61.6784 22.0925 61.4014V61.4089ZM64.1957 53.0758C62.0102 62.0603 56.9723 70.1613 51.8382 77.843C49.6526 78.7115 47.2744 79.7447 45.0815 80.6132C43.4427 84.8214 42.7054 89.333 42.9182 93.8503C33.515 93.2968 24.2604 91.2241 15.5063 87.7109C15.0071 83.3829 14.8584 79.0209 15.0617 74.6685C13.3652 73.0213 9.7942 68.7163 9.7942 68.7163C9.7942 68.7163 9.73493 60.8099 9.89792 58.1371C10.1998 52.4665 11.4031 46.8821 13.4615 41.5981C17.025 32.7335 23.8335 24.9095 32.6794 21.5478C41.5253 18.1861 52.4827 19.9456 58.9504 26.946C65.1811 33.7143 66.3813 44.0689 64.1957 53.0683V53.0758ZM27.0637 75.0803C30.2632 73.4878 32.9882 71.0673 34.9613 68.0649C31.4596 69.029 27.7833 69.1521 24.2262 68.4243C24.8485 70.5955 25.7005 73.2534 27.0637 75.0728V75.0803Z" fill="url(#paint0_radial_641_1992)"/>
<path d="M81.5764 55.7108C79.0723 61.356 75.1235 66.4622 71.3821 71.4336C70.3227 72.8412 69.2633 74.2787 68.2409 75.7462C67.8708 75.586 67.5507 75.3272 67.3148 74.9975C66.1368 73.4252 66.1442 71.4112 66.4998 69.3747L66.5443 69.1351C68.2631 67.3681 69.9745 65.5937 71.6044 63.7444C74.5093 60.5666 76.9628 56.996 78.8945 53.1353C79.4072 53.1618 79.9034 53.3274 80.331 53.6146C80.7585 53.9018 81.1017 54.3 81.3245 54.7674C81.4559 55.067 81.5409 55.3851 81.5764 55.7108Z" fill="#FAA747"/>
<path d="M81.9839 57.1562C82.1764 56.2413 82.2264 55.3016 82.132 54.371C82.0731 53.9034 81.9273 53.4513 81.7023 53.0383C81.2488 52.2533 80.5053 51.6824 79.6353 51.4511C78.9136 51.2332 78.1493 51.2023 77.4127 51.3612C75.7853 51.8163 74.3105 52.7091 73.1454 53.9443C68.673 58.237 65.8379 63.9832 65.1367 70.1762L65.0922 70.618C64.907 72.7892 65.1367 74.9006 66.5739 76.5402C66.7779 76.7782 67.0149 76.985 67.2777 77.1542C68.6706 78.0376 70.1227 77.0568 71.5229 75.8364C73.6686 73.9488 75.5503 71.7751 77.1164 69.3751C79.5416 65.6776 81.1976 61.5205 81.9839 57.1562ZM71.471 74.4888C70.3745 75.4097 69.2484 76.1584 68.2409 75.7541C67.8708 75.5939 67.5507 75.3351 67.3148 75.0054C66.1368 73.4331 66.1442 71.4191 66.4998 69.3826L66.5443 69.143C67.5391 63.8341 70.2116 58.9947 74.1604 55.3518C75.1841 54.3124 76.4623 53.5657 77.8647 53.1881C78.2017 53.1246 78.5459 53.1095 78.8871 53.1432C79.3998 53.1697 79.896 53.3353 80.3235 53.6225C80.7511 53.9097 81.0943 54.3079 81.3171 54.7753C81.4492 55.0772 81.5342 55.398 81.569 55.7262C81.6337 56.6236 81.5435 57.5255 81.3023 58.3916C79.795 64.6742 76.3525 70.3108 71.471 74.4888Z" fill="#7EB2DB"/>
<path d="M81.3097 58.3762C79.8033 64.6652 76.3579 70.3076 71.471 74.4884C70.3745 75.4093 69.2484 76.158 68.2409 75.7537C69.2633 74.2563 70.3227 72.8487 71.3821 71.4411C75.0864 66.4622 79.0723 61.3561 81.5764 55.7183C81.6403 56.6132 81.55 57.5125 81.3097 58.3762ZM74.1604 55.3365C70.2116 58.9794 67.5391 63.8187 66.5443 69.1276C68.2631 67.3607 69.9745 65.5863 71.6044 63.737C74.5093 60.5592 76.9628 56.9886 78.8945 53.1278C78.5533 53.0941 78.2091 53.1092 77.8721 53.1727C76.4671 53.5492 75.1862 54.2959 74.1604 55.3365Z" fill="#FFC761"/>
<path d="M13.8838 87.0445C13.3355 86.8049 12.7799 86.5653 12.2391 86.2958C11.6315 83.0239 11.0092 79.7521 10.3943 76.4802C12.0038 79.8347 13.1767 83.3856 13.8838 87.0445ZM71.7451 22.2739C75.4047 25.0776 78.216 28.8592 79.8615 33.1919C81.5071 37.5246 81.9214 42.2359 81.0578 46.794C80.7267 48.3874 80.2505 49.9463 79.6353 51.451C80.5053 51.6823 81.2488 52.2532 81.7023 53.0382C81.9257 53.4519 82.0714 53.9037 82.132 54.3709C82.9293 52.4007 83.5058 50.3464 83.8508 48.2465C85.4511 38.2513 80.3095 27.5224 71.7451 22.2739ZM65.0774 70.6179C62.7288 73.0437 60.4025 75.4844 58.2985 78.1049C54.5942 82.7244 51.564 88.1151 50.7343 93.9325C54.0337 93.839 57.3243 93.5415 60.5877 93.0416C61.3286 87.3215 64.0031 82.0506 67.2555 77.1391C66.9927 76.97 66.7556 76.7632 66.5517 76.5251C65.1441 74.9004 64.9144 72.7891 65.0996 70.6179H65.0774Z" fill="#7EB2DB"/>
<path d="M86.6587 41.6501C86.2112 35.7937 83.9333 30.2326 80.1539 25.7701C76.3237 21.4051 71.0265 18.5675 65.5145 16.7856C54.9646 13.4838 42.933 12.211 32.5313 16.591C24.1091 20.1631 17.3362 26.8232 13.5726 35.2337C10.498 42.1892 9.29782 50.3725 8.79403 58.0842C8.71995 59.2597 8.66068 60.4351 8.60882 61.5807C8.3684 67.9 8.93868 74.2243 10.3054 80.3956C10.4832 81.2417 11.0463 85.8013 11.7871 86.1307L12.2316 86.3329C11.6241 83.061 11.0018 79.7892 10.3869 76.5173C11.9952 79.8671 13.168 83.4129 13.8764 87.0666C14.4098 87.2912 14.9358 87.5158 15.4692 87.7255C14.97 83.3975 14.8213 79.0355 15.0247 74.683C13.3281 73.0359 9.75716 68.7308 9.75716 68.7308C9.75716 68.7308 9.69789 60.8245 9.86088 58.1516C10.1628 52.4811 11.366 46.8967 13.4244 41.6127C16.988 32.748 23.7965 24.924 32.6424 21.5624C41.4883 18.2007 52.4457 19.9601 58.9134 26.9605C65.1737 33.7363 66.3739 44.0909 64.1884 53.0903C62.0028 62.0898 56.9649 70.1758 51.8307 77.8575C49.6452 78.726 47.267 79.7592 45.0741 80.6277C43.4353 84.836 42.698 89.3476 42.9108 93.8649C45.5235 94.0196 48.1363 94.0545 50.7491 93.9697C51.5789 88.1522 54.6238 82.7391 58.3133 78.142C60.4173 75.5066 62.7585 73.0658 65.0922 70.655L65.1367 70.2132C65.8379 64.0202 68.673 58.2741 73.1454 53.9813C74.3105 52.7461 75.7853 51.8534 77.4127 51.3983C78.1493 51.2393 78.9136 51.2702 79.6353 51.4881C80.2505 49.9835 80.7267 48.4245 81.0578 46.8312C81.9214 42.2731 81.5071 37.5618 79.8615 33.229C78.216 28.8963 75.4047 25.1147 71.7451 22.3111C80.3095 27.552 85.4511 38.2884 83.8508 48.2837C83.5058 50.3835 82.9293 52.4378 82.132 54.4081C82.2264 55.3386 82.1764 56.2783 81.9839 57.1933C81.2021 61.5564 79.5512 65.7135 77.1312 69.4121C75.5651 71.8122 73.6834 73.9858 71.5377 75.8735C70.1375 77.0938 68.6854 78.0747 67.2926 77.1912C64.0254 82.1027 61.3286 87.3736 60.6248 93.0937C62.1065 92.8766 63.529 92.6145 64.9588 92.345C67.6556 84.1616 73.1824 77.2436 77.9388 69.9662C80.3211 66.475 82.3396 62.744 83.962 58.8329C86.1783 53.3973 87.1019 47.512 86.6587 41.6501Z" fill="url(#paint1_linear_641_1992)"/>
<path style="mix-blend-mode:screen" d="M67.5593 18.463C68.5986 21.4696 68.6402 24.7367 67.6778 27.7694C66.7104 30.7847 65.1731 33.5817 63.1511 36.0051C58.4466 41.89 52.0382 46.1576 45.1185 48.8679C38.1989 51.5782 30.8866 52.8061 23.552 53.2778C21.4274 53.5076 19.2803 53.4015 17.188 52.9633C16.1404 52.7378 15.1483 52.3022 14.2702 51.6824C13.3922 51.0625 12.6461 50.271 12.0761 49.3546C9.29042 44.4131 12.9947 36.8736 15.5211 32.5311C18.7299 26.9791 23.2996 22.3558 28.7899 19.1069C40.377 12.3236 55.6091 13.1696 67.5593 18.463Z" fill="url(#paint2_linear_641_1992)"/>
<g style="mix-blend-mode:multiply">
<path d="M14.2616 33.9688L12.6613 37.4577C25.5227 38.8803 47.8597 42.9233 85.7252 53.1281L86.0068 51.8029C86.0068 51.8029 59.106 36.8962 43.8517 34.2233C24.6337 30.8691 14.2616 33.9688 14.2616 33.9688Z" fill="#93ABB5"/>
</g>
<path d="M88.9406 25.3212C91.1632 34.0736 89.7851 43.6346 85.9771 51.8029C81.7986 49.8064 77.5535 47.9546 73.2417 46.2475C72.9231 45.8432 72.5971 45.4464 72.2415 45.0346L73.2935 42.2794C75.1531 37.1807 77.2942 25.4186 77.3905 19.4514C71.3352 11.7103 63.8212 5.25936 55.2832 0.47168C68.6261 5.73508 81.9839 16.3068 88.9406 25.3212Z" fill="#04686E"/>
<path d="M77.4201 19.4512C77.3238 25.4409 75.1976 37.1806 73.3232 42.2792C63.7216 35.2372 53.1209 29.704 41.881 25.8676C42.8515 17.9463 46.4299 10.6015 51.6381 3.57865C45.9121 9.62946 41.7803 17.0358 39.6213 25.1189C34.5617 23.5025 29.3947 22.2515 24.1595 21.3754C25.5301 18.2233 29.5678 12.1438 29.5678 12.1438C36.3171 6.73819 44.9704 2.03632 54.0904 -0.0151367C54.4954 0.134604 54.9029 0.291833 55.3128 0.456549C63.8522 5.24863 71.3663 11.7047 77.4201 19.4512Z" fill="url(#paint3_linear_641_1992)"/>
<path d="M73.3232 42.2791L72.2711 45.0419C69.2367 41.7234 65.704 38.9087 61.8028 36.7013C55.3148 33.1143 48.4741 30.2211 41.392 28.0687L41.7773 26.7884C41.7773 26.4815 41.8365 26.1745 41.881 25.875C53.1204 29.7091 63.7211 35.2397 73.3232 42.2791Z" fill="#3FBFB5"/>
<path d="M51.6381 3.57861C46.4521 10.6015 42.8515 17.9463 41.881 25.8676C41.1401 25.6055 40.3992 25.3585 39.6213 25.1189C41.7803 17.0357 45.9121 9.62942 51.6381 3.57861Z" fill="#04686E"/>
<path d="M24.1521 21.3902C29.3873 22.2663 34.5543 23.5173 39.6139 25.1337C40.3548 25.3733 41.0957 25.6204 41.8736 25.8824C41.8291 26.1819 41.7995 26.4888 41.7698 26.7958L41.3846 28.0761C37.9914 26.998 34.5538 26.0471 31.1385 25.2086C20.9828 22.592 10.4672 21.7013 0.0222321 22.5731C0.0430837 21.7273 0.299894 20.9046 0.763095 20.1997C8.5789 19.7008 16.4255 20.1001 24.1521 21.3902Z" fill="#3FBFB5"/>
<path d="M72.2711 45.0418C72.6268 45.4536 72.9528 45.8504 73.2713 46.2547C57.8968 40.1779 41.8717 35.9388 25.5227 33.6241C21.7591 33.0925 17.7881 32.6807 14.2616 33.976C8.9274 31.086 3.14867 28.2109 0 23.1946C0 22.9999 5.42602e-06 22.7828 0.0518658 22.5657C10.4968 21.6939 21.0125 22.5845 31.1681 25.2011C34.5835 26.0397 38.0211 26.9905 41.4142 28.0687C48.4964 30.221 55.337 33.1142 61.825 36.7012C65.7183 38.9106 69.2435 41.7252 72.2711 45.0418Z" fill="#04686E"/>
</g>
<defs>
<radialGradient id="paint0_radial_641_1992" cx="0" cy="0" r="1" gradientUnits="userSpaceOnUse" gradientTransform="translate(33.3672 34.284) rotate(18.251) scale(46.2448 46.6388)">
<stop stop-color="#367992"/>
<stop offset="1" stop-color="#2D3C52"/>
</radialGradient>
<linearGradient id="paint1_linear_641_1992" x1="38.5026" y1="15.2957" x2="55.268" y2="90.0691" gradientUnits="userSpaceOnUse">
<stop stop-color="#FFEEC5"/>
<stop offset="1" stop-color="#ADDCF6"/>
</linearGradient>
<linearGradient id="paint2_linear_641_1992" x1="35.6775" y1="4.67503" x2="44.3429" y2="58.8379" gradientUnits="userSpaceOnUse">
<stop stop-color="#BDBE9A"/>
<stop offset="0.16" stop-color="#9D9E80"/>
<stop offset="0.74" stop-color="#2D2E25"/>
<stop offset="1" stop-color="#010101"/>
</linearGradient>
<linearGradient id="paint3_linear_641_1992" x1="55.5128" y1="-2.43346" x2="50.0843" y2="25.7567" gradientUnits="userSpaceOnUse">
<stop stop-color="#91D1B6"/>
<stop offset="1" stop-color="#00B2A3"/>
</linearGradient>
<clipPath id="clip0_641_1992">
<rect width="90" height="94" fill="white"/>
</clipPath>
</defs>
</svg>
