<svg width="90" height="90" viewBox="0 0 90 90" fill="none" xmlns="http://www.w3.org/2000/svg">
<g clip-path="url(#clip0_641_2032)">
<path d="M24.276 41.6731C25.4861 51.9567 30.0384 61.6105 34.6895 70.8334C37.0109 72.093 39.5134 73.568 41.843 74.8275C43.101 79.7183 43.3115 84.8224 42.4604 89.8013C53.0153 90.4856 63.6108 89.4559 73.8407 86.7518C74.9703 82.0227 75.7164 77.2089 76.0715 72.3581C78.1789 70.7588 82.7312 66.4747 82.7312 66.4747C82.7312 66.4747 83.8672 57.7158 84.0401 54.7327C84.4732 48.4038 83.8867 42.046 82.3031 35.9057C79.529 25.5807 73.0339 16.018 63.6083 11.0461C54.1828 6.07419 41.7772 6.55481 33.6358 13.4326C25.7825 20.0784 23.0495 31.3978 24.276 41.6731Z" fill="url(#paint0_radial_641_2032)"/>
<path d="M4.56874 42.2283C6.5938 48.8575 10.3311 55.031 13.7968 61.0636C14.7846 62.7623 15.7724 64.5025 16.7109 66.2758C17.1484 66.1458 17.5416 65.8962 17.8469 65.5549C19.3698 63.9722 19.6332 61.7431 19.4933 59.4312C19.4933 59.34 19.4933 59.2571 19.4933 59.1577C17.8469 56.9701 16.1511 54.7658 14.5541 52.4871C11.7461 48.5676 9.49623 44.2723 7.86976 39.7258C7.29483 39.685 6.71957 39.8004 6.20407 40.0598C5.68856 40.3193 5.25172 40.7133 4.93918 41.2008C4.76101 41.5207 4.63589 41.8678 4.56874 42.2283Z" fill="#FAA747"/>
<path d="M3.91841 43.7696C3.82783 42.7289 3.90005 41.6803 4.13244 40.6622C4.25534 40.1516 4.47627 39.6703 4.78277 39.2452C5.39611 38.4367 6.30105 37.9038 7.30174 37.7619C8.12931 37.6246 8.97775 37.6958 9.77133 37.969C11.5218 38.7005 13.0434 39.8944 14.1754 41.4245C18.5727 46.7844 20.9539 53.5323 20.9009 60.4835C20.9009 60.6493 20.9009 60.815 20.9009 60.9724C20.8186 63.4087 20.2753 65.7206 18.4314 67.3448C18.1692 67.5787 17.8754 67.774 17.5588 67.9248C15.9124 68.7121 14.4142 67.4277 13.0147 65.8781C10.8797 63.4913 9.07684 60.8235 7.65572 57.9479C5.47483 53.5231 4.20367 48.7007 3.91841 43.7696ZM13.2864 64.4279C14.3895 65.6046 15.5337 66.5824 16.7109 66.2758C17.1484 66.1458 17.5416 65.8962 17.8469 65.5549C19.3698 63.9722 19.6332 61.7431 19.4933 59.4311C19.4933 59.34 19.4933 59.2571 19.4933 59.1577C19.112 53.1394 16.8011 47.4082 12.9077 42.8249C11.9064 41.5281 10.5792 40.524 9.06338 39.9164C8.6981 39.8003 8.31851 39.7362 7.93561 39.7258C7.36068 39.685 6.78542 39.8004 6.26992 40.0598C5.75441 40.3193 5.31757 40.7133 5.00503 41.2008C4.81538 41.5186 4.67909 41.8658 4.60166 42.2283C4.40626 43.2139 4.38397 44.2264 4.53581 45.2197C5.35738 52.394 8.42157 59.1201 13.2864 64.4279Z" fill="#7EB2DB"/>
<path d="M4.50289 45.2196C5.33367 52.3977 8.40959 59.1243 13.2864 64.4277C14.3895 65.6044 15.5337 66.5822 16.7109 66.2756C15.7724 64.5023 14.7846 62.7621 13.7968 61.0634C10.3064 55.0308 6.59381 48.8242 4.56874 42.2281C4.37334 43.2137 4.35105 44.2262 4.50289 45.2196ZM12.8748 42.8248C16.7682 47.408 19.0791 53.1393 19.4604 59.1575C17.814 56.9699 16.1182 54.7656 14.5212 52.4868C11.7132 48.5674 9.4633 44.2721 7.83683 39.7256C8.21974 39.736 8.59933 39.8001 8.96461 39.9162C10.5044 40.5135 11.8554 41.5185 12.8748 42.8248Z" fill="#FFC761"/>
<path d="M75.7011 86.2379C76.3432 86.0555 76.9935 85.8567 77.6274 85.6495L81.0107 75.0179C78.7695 78.5128 76.985 82.2839 75.7011 86.2379ZM20.0119 6.49658C15.5614 9.10444 11.9235 12.9126 9.50895 17.4912C7.09435 22.0698 5.99912 27.2366 6.34685 32.4086C6.50256 34.2185 6.82219 36.0103 7.30175 37.7617C6.30105 37.9036 5.39612 38.4364 4.78277 39.2449C4.47627 39.6701 4.25535 40.1514 4.13245 40.6619C3.51006 38.3679 3.14557 36.0109 3.04583 33.635C2.60954 22.3321 9.77134 11.1288 20.0119 6.49658ZM20.9174 61.0054C23.2059 64.0217 25.4615 67.0463 27.4536 70.2614C30.9357 75.888 33.6029 82.2769 33.7428 88.8481C30.078 88.2974 26.4494 87.5254 22.8766 86.5362C22.8766 80.0975 20.5552 73.8826 17.5752 67.9826C17.8919 67.8318 18.1857 67.6365 18.4478 67.4026C20.2753 65.7536 20.8186 63.4416 20.9174 61.0054Z" fill="#7EB2DB"/>
<path d="M0.806798 25.937C2.1026 19.5021 5.39777 13.6487 10.2159 9.22307C15.0645 4.91408 21.3455 2.48613 27.7171 1.30115C39.8674 -0.952783 53.4502 -0.712472 64.4481 5.54386C73.3419 10.6575 79.9829 18.9708 83.0358 28.8124C85.5054 36.9415 85.7606 46.2141 85.2749 54.799C85.2091 56.1165 85.1185 57.4258 85.0115 58.7019C84.433 65.7429 82.9499 72.6785 80.5992 79.3354C80.2781 80.2469 79.0104 85.2271 78.1296 85.4923C77.9567 85.5503 77.7838 85.6083 77.6027 85.6497L81.0108 75.0181C78.7696 78.5131 76.985 82.2841 75.7011 86.2381C75.0838 86.4204 74.4663 86.5944 73.8407 86.7518C74.9704 82.0227 75.7165 77.2089 76.0716 72.3581C78.179 70.7588 82.7312 66.4747 82.7312 66.4747C82.7312 66.4747 83.8672 57.7158 84.0401 54.7327C84.4733 48.4038 83.8867 42.0461 82.3032 35.9057C79.529 25.5807 73.034 16.018 63.6084 11.0461C54.1828 6.0742 41.7772 6.55481 33.6358 13.4326C25.7579 20.0619 23.0249 31.4061 24.2514 41.6814C25.478 51.9567 30.0138 61.6188 34.6648 70.8417C36.9862 72.1013 39.4888 73.5763 41.8184 74.8358C43.0764 79.7266 43.2869 84.8307 42.4358 89.8096C39.5052 89.6273 36.5939 89.3096 33.7017 88.8566C33.5618 82.2854 30.8946 75.8965 27.4125 70.2699C25.4203 67.0548 23.1648 64.0302 20.8763 61.0139C20.8763 60.8564 20.8763 60.6907 20.8763 60.525C20.9293 53.5738 18.5481 46.8259 14.1508 41.466C13.0188 39.9358 11.4971 38.742 9.74671 38.0105C8.95313 37.7372 8.10468 37.6661 7.27712 37.8033C6.79756 36.0519 6.47792 34.2601 6.32221 32.4502C5.97448 27.2783 7.06972 22.1114 9.48431 17.5328C11.8989 12.9542 15.5367 9.1461 19.9873 6.53824C9.74671 11.1787 2.5849 22.3738 3.0212 33.6766C3.12094 36.0525 3.48543 38.4096 4.10781 40.7036C3.87542 41.7218 3.8032 42.7703 3.89378 43.8111C4.1798 48.7546 5.45668 53.5887 7.64755 58.0224C9.06867 60.8981 10.8715 63.5659 13.0066 65.9527C14.406 67.5022 15.8877 68.7867 17.5506 67.9994C20.5306 73.8994 22.8273 80.1143 22.852 86.553C21.2632 86.1055 19.6827 85.6166 18.1268 85.0863C16.2335 75.6479 11.0144 67.2122 6.70088 58.4948C4.5225 54.296 2.77647 49.8839 1.49005 45.3275C-0.238484 39.0063 -0.472483 32.3655 0.806798 25.937Z" fill="url(#paint1_linear_641_2032)"/>
<path style="mix-blend-mode:screen" d="M25.1569 2.84266C23.5992 6.03446 23.1138 9.64929 23.7739 13.1428C24.4436 16.6255 25.78 19.9438 27.7088 22.9126C32.1458 30.0888 38.7396 35.6905 46.0496 39.6431C53.3595 43.5958 61.3857 45.9326 69.486 47.4739C71.8223 48.0102 74.226 48.1863 76.6148 47.996C77.8123 47.8844 78.9758 47.5338 80.0372 46.9647C81.0987 46.3956 82.0368 45.6194 82.797 44.6814C86.559 39.5851 83.4474 30.7185 81.2247 25.556C78.3961 18.9613 73.9316 13.2088 68.2594 8.8504C56.3148 -0.239926 39.2006 -1.38347 25.1569 2.84266Z" fill="url(#paint2_linear_641_2032)"/>
<path d="M40.3531 56.4397C40.4848 56.9452 40.6083 57.4424 40.7317 57.9478C44.2715 57.6081 47.8359 57.3761 51.4333 57.2518C53.4862 49.6781 53.3319 41.6699 50.9887 34.1821C50.4636 32.2955 49.6017 30.5208 48.4451 28.945C47.8601 28.1603 47.1271 27.4994 46.2881 27.0003C45.449 26.5012 44.5203 26.1737 43.5553 26.0364C42.3402 25.9778 41.1307 26.2379 40.0455 26.7914C38.9603 27.3449 38.0366 28.1726 37.3648 29.1936C36.0481 31.2606 35.4169 33.6949 35.562 36.146C35.6832 38.3567 36.0364 40.5482 36.6158 42.6841C37.3319 46.0981 39.678 51.9152 40.3531 56.4397ZM68.2512 38.8805L67.8807 35.5162C67.6912 34.4474 67.6912 33.3533 67.8807 32.2845C67.9902 31.7536 68.2377 31.2615 68.5978 30.8582C68.9578 30.455 69.4177 30.1551 69.9305 29.9891C70.3208 29.9126 70.7225 29.918 71.1106 30.005C71.4987 30.092 71.8649 30.2586 72.186 30.4946C72.8228 30.9712 73.3646 31.5644 73.783 32.243C75.1872 34.3863 76.2121 36.7581 76.8124 39.2534C78.4212 45.5558 78.094 52.2011 75.8739 58.3125C73.6102 58.0473 71.3299 57.8235 69.0497 57.6578C69.0497 57.3346 69.0991 57.0198 69.1155 56.7049C69.1237 50.7526 68.8352 44.8037 68.2512 38.8805Z" fill="#58C2B2"/>
<path d="M45.6627 39.9328C46.1374 40.6731 46.5268 41.4654 46.8234 42.2944C47.3461 43.7818 47.7507 45.3085 48.0335 46.8603C48.5804 49.5636 48.7878 52.3252 48.6509 55.0805C48.6583 55.8489 48.6032 56.6166 48.4862 57.3759C45.8904 57.5085 43.3056 57.6991 40.7317 57.9477C40.6083 57.4422 40.4848 56.945 40.3531 56.4395C39.678 51.9151 37.3319 46.0979 36.5746 42.6839C36.5334 42.5265 36.5005 42.369 36.4594 42.2199C36.7978 41.0111 37.4123 39.8987 38.2539 38.9715C40.6083 36.4939 43.8681 37.1982 45.6627 39.9328Z" fill="#CFEAE4"/>
<path d="M69.5765 38.4746C69.944 38.4084 70.322 38.4335 70.6778 38.5475C71.0335 38.6616 71.3562 38.8613 71.618 39.1292C72.136 39.6702 72.5418 40.3097 72.8117 41.0102C73.6584 42.9365 74.2454 44.9682 74.5568 47.0511C75.0672 50.3657 75.1331 54.8239 73.7337 58.0308C72.2025 57.865 70.6549 57.7242 69.1155 57.6081C69.1155 57.285 69.1649 56.9701 69.1814 56.6552C69.1814 51.6253 68.9097 45.0541 68.3582 39.4606C68.6281 38.9907 69.0626 38.639 69.5765 38.4746Z" fill="#CFEAE4"/>
<path d="M56.4136 60.1108C58.8833 61.3568 61.6738 61.8081 64.4068 61.4035C64.1741 64.56 63.1488 67.6052 61.4269 70.2536C61.3801 70.4149 61.288 70.5592 61.1615 70.6689C61.035 70.7787 60.8797 70.8492 60.7143 70.872C60.5488 70.8948 60.3804 70.8689 60.2293 70.7974C60.0782 70.7258 59.9509 70.6118 59.8628 70.469C57.3768 68.041 56.3148 63.5995 56.4136 60.1108Z" fill="#58C2B2"/>
<path style="mix-blend-mode:screen" d="M70.482 19.6392C71.0275 20.1699 71.3513 20.89 71.3875 21.6528C71.2725 22.1878 70.9631 22.6603 70.5199 22.9776C70.0768 23.295 69.5319 23.4342 68.992 23.3681C67.913 23.1928 66.8928 22.7547 66.0203 22.092C60.0769 18.3851 53.5046 15.8146 46.634 14.5098C45.7615 14.4144 44.9194 14.1319 44.1645 13.6812C43.7986 13.4463 43.5197 13.0966 43.3709 12.6862C43.2221 12.2759 43.2117 11.8276 43.3413 11.4106C43.7035 10.582 44.7407 10.2671 45.6544 10.1345C50.2568 9.40225 54.9694 9.89416 59.3246 11.5614C63.6798 13.2287 67.5261 16.0134 70.482 19.6392Z" fill="url(#paint3_linear_641_2032)"/>
<path d="M19.8884 22.9953C18.6894 24.5237 17.3256 25.9133 15.8218 27.1386C14.3059 28.354 12.4614 29.0817 10.5287 29.2268C9.56509 29.2868 8.60146 29.1099 7.72091 28.7115C6.84035 28.3131 6.0693 27.705 5.47426 26.9397C4.90307 26.1567 4.60752 25.2044 4.63435 24.2334C4.66119 23.2624 5.00888 22.3281 5.62243 21.5783C6.65802 20.6295 7.97334 20.0475 9.36797 19.921C8.75299 19.0014 8.49689 17.8856 8.64881 16.7876C8.80072 15.6896 9.34995 14.6867 10.1912 13.9713C10.8992 13.4542 11.736 13.1456 12.6082 13.0797C13.4804 13.0139 14.3537 13.1934 15.1303 13.5984C16.6733 14.4292 17.8918 15.7609 18.5878 17.377C19.271 18.8935 19.5097 21.2883 19.8884 22.9953Z" fill="#E83332"/>
<path d="M18.8018 21.7854C19.1035 23.6988 19.6171 25.5722 20.3329 27.3706C21.0587 29.1805 22.3095 30.7283 23.9221 31.8121C24.7334 32.3401 25.6599 32.662 26.622 32.75C27.5841 32.8381 28.5531 32.6897 29.4457 32.3176C30.3221 31.9138 31.0402 31.2282 31.4873 30.3687C31.9343 29.5092 32.0849 28.5245 31.9153 27.5694C31.4752 26.222 30.6075 25.0574 29.4457 24.2548C30.4317 23.76 31.2023 22.9172 31.6107 21.8872C32.019 20.8572 32.0366 19.7119 31.6601 18.6697C31.293 17.8735 30.7142 17.195 29.9878 16.7095C29.2613 16.2239 28.4156 15.9502 27.5441 15.9186C25.7933 15.8733 24.0796 16.4317 22.6873 17.5013C21.329 18.5123 19.9543 20.4844 18.8018 21.7854Z" fill="#E83332"/>
<path d="M18.9271 21.1105C20.8633 21.1656 22.7992 21.0051 24.6985 20.6319C26.611 20.2511 28.3623 19.3062 29.724 17.9202C30.3921 17.2198 30.8788 16.3682 31.1422 15.4387C31.4055 14.5091 31.4378 13.5294 31.2361 12.5836C31.0002 11.6479 30.4583 10.816 29.6956 10.2186C28.9329 9.6212 27.9926 9.29222 27.0227 9.2834C25.6173 9.46837 24.3131 10.1072 23.3106 11.1017C23.0054 10.0416 22.3187 9.12924 21.3813 8.53851C20.4438 7.94778 19.3213 7.71999 18.2276 7.89855C17.3775 8.11304 16.6042 8.55729 15.9934 9.18212C15.3826 9.80696 14.9581 10.588 14.7669 11.4388C14.4006 13.1515 14.6345 14.9386 15.43 16.5038C16.1741 18.0247 17.8601 19.7385 18.9271 21.1105Z" fill="#E83332"/>
<path d="M20.567 23.4445C18.6554 23.1313 16.7155 23.0318 14.7834 23.1479C12.8371 23.2699 10.9753 23.9724 9.44065 25.164C8.68497 25.769 8.08894 26.5479 7.70377 27.434C7.31859 28.32 7.15579 29.2867 7.22934 30.2509C7.33812 31.2097 7.76404 32.1065 8.44013 32.8005C9.11622 33.4944 10.0041 33.946 10.9642 34.0843C12.3817 34.0887 13.7596 33.6298 14.8859 32.7781C15.0467 33.8695 15.6055 34.8654 16.4556 35.576C17.3057 36.2867 18.3877 36.6624 19.4955 36.6315C20.3666 36.5325 21.1923 36.1955 21.8811 35.6578C22.5699 35.1202 23.0949 34.4028 23.3981 33.5852C23.9899 31.9367 23.9967 30.1344 23.4174 28.477C22.8831 26.8703 21.4412 24.9467 20.567 23.4445Z" fill="#E83332"/>
<path d="M20.9627 22.1976C21.5748 19.5029 21.3848 17.1605 20.5383 16.9656C19.6918 16.7708 18.5093 18.7973 17.8972 21.492C17.2851 24.1866 17.4751 26.5291 18.3216 26.7239C19.1682 26.9187 20.3506 24.8922 20.9627 22.1976Z" fill="#F2C94C"/>
</g>
<defs>
<radialGradient id="paint0_radial_641_2032" cx="0" cy="0" r="1" gradientUnits="userSpaceOnUse" gradientTransform="translate(61.9218 26.8175) rotate(168.391) scale(51.8608 52.1768)">
<stop stop-color="#367992"/>
<stop offset="1" stop-color="#2D3C52"/>
</radialGradient>
<linearGradient id="paint1_linear_641_2032" x1="52.4788" y1="1.46688" x2="33.1808" y2="86.3241" gradientUnits="userSpaceOnUse">
<stop stop-color="#FFEEC5"/>
<stop offset="1" stop-color="#ADDCF6"/>
</linearGradient>
<linearGradient id="paint2_linear_641_2032" x1="63.094" y1="-6.36251" x2="46.5716" y2="52.679" gradientUnits="userSpaceOnUse">
<stop stop-color="#BDBE9A"/>
<stop offset="0.16" stop-color="#9D9E80"/>
<stop offset="0.74" stop-color="#2D2E25"/>
<stop offset="1" stop-color="#010101"/>
</linearGradient>
<linearGradient id="paint3_linear_641_2032" x1="72.3342" y1="0.729315" x2="47.7888" y2="26.5954" gradientUnits="userSpaceOnUse">
<stop stop-color="#BDBE9A"/>
<stop offset="0.16" stop-color="#9D9E80"/>
<stop offset="0.74" stop-color="#2D2E25"/>
<stop offset="1" stop-color="#010101"/>
</linearGradient>
<clipPath id="clip0_641_2032">
<rect width="90" height="90" fill="white"/>
</clipPath>
</defs>
</svg>
