<svg width="74" height="74" viewBox="0 0 74 74" fill="none" xmlns="http://www.w3.org/2000/svg">
<path fill-rule="evenodd" clip-rule="evenodd" d="M72.2698 58.0486L72.282 58.1634C72.282 57.0996 70.2314 45.1882 69.9689 44.4008C69.731 43.6874 67.2514 29.513 66.6435 23.3741C65.9625 16.4939 63.6948 15.3607 63.6948 15.3607C63.217 15.0092 62.6427 14.813 62.0497 14.7988C53.2241 14.5887 38.0087 14.9228 35.9913 14.965C34.1558 15.0032 19.1332 14.6314 16.079 15.0283C13.6757 15.3408 13.1245 17.1833 13.0583 17.6461C12.4978 21.5609 9.90548 36.6493 9.69706 37.8617C6.0673 53.7468 6.55813 59.1578 6.55813 59.1578C6.6833 60.745 8.06819 61.9325 9.65601 61.8134C12.2558 61.6186 25.0772 62.2108 33.5265 61.951C41.9544 61.6917 55.8528 62.1146 55.8528 62.1146C56.3133 62.1285 56.7705 62.0322 57.1863 61.8336C58.659 61.1303 61.1404 59.1708 62.8872 57.7179C63.7742 58.4665 64.6736 59.2002 65.585 59.9189C67.4257 61.5076 68.6242 61.6223 69.165 61.6119C70.9141 61.5781 71.7484 60.5857 72.1294 59.4199C72.2823 58.9525 72.2912 58.4235 72.2698 58.0486Z" fill="#F1F1F6"/>
<path fill-rule="evenodd" clip-rule="evenodd" d="M55.8257 62.1138C56.5419 62.1352 57.2405 61.8899 57.7861 61.4253C58.3316 60.9607 58.6852 60.3101 58.7781 59.5996C60.2018 48.7155 61.9781 36.6006 63.1311 31.3061C63.9047 27.7536 64.5354 21.5509 64.8542 17.9431C64.8889 17.5493 64.8425 17.1527 64.7179 16.7776C64.5933 16.4025 64.3931 16.0569 64.1296 15.7623C63.8662 15.4676 63.5452 15.23 63.1864 15.0643C62.8275 14.8986 62.4385 14.8082 62.0434 14.7987C53.218 14.5888 38.0081 14.9229 35.9913 14.9652C34.1558 15.0033 19.1332 14.6316 16.079 15.0285C13.6757 15.3409 13.1245 17.1834 13.0583 17.6462C12.4978 21.561 9.90548 36.6495 9.69706 37.8618C6.0673 53.7469 6.55813 59.1579 6.55813 59.1579C6.6833 60.7451 8.06819 61.9326 9.65601 61.8135C12.2558 61.6187 25.0772 62.211 33.5265 61.9511C41.7341 61.6985 55.1296 62.093 55.8257 62.1138Z" fill="#F1F1F6"/>
<path fill-rule="evenodd" clip-rule="evenodd" d="M4.01388 53.3031L6.78108 51.5964L6.82878 51.5635C9.07161 50.0563 10.4158 47.0446 11.4382 43.8608C13.2604 38.1854 13.8284 31.8159 14.3577 29.4097C14.9517 26.7102 15.5429 20.9153 15.8663 17.4897C15.9327 16.7868 16.254 16.1326 16.7695 15.6504C17.2851 15.1681 17.9593 14.8912 18.665 14.8719C23.8491 14.7297 34.4767 14.9968 35.9914 14.9653C37.8333 14.9268 50.6868 14.6441 59.6156 14.756C60.0245 14.7612 60.4277 14.8531 60.7984 15.0255C61.1692 15.198 61.4991 15.4472 61.7665 15.7566C62.0338 16.0661 62.2325 16.4287 62.3494 16.8205C62.4662 17.2124 62.4986 17.6246 62.4444 18.0299C62.3156 18.9899 62.1781 19.9486 62.0319 20.9061L62.0253 20.9466C59.3584 36.6863 58.9375 43.1523 58.9375 43.1523C58.934 43.207 58.9288 43.2613 58.9225 43.3157C57.8336 52.2916 54.5284 55.2294 53.6104 55.8827C52.3876 56.9707 50.5281 57.8142 48.4382 58.3475C44.4381 59.3685 39.5905 59.3867 39.0315 59.3852C31.6543 59.5514 21.1611 59.3641 13.263 59.3621C8.50996 59.3609 6.00726 59.1895 4.69781 59.0233C4.66257 59.025 4.62729 59.0259 4.59201 59.0259L4.59577 59.01C3.45599 58.8588 3.28978 58.716 3.28978 58.716C2.75351 58.4457 2.31478 58.0149 2.03457 57.4837C1.75435 56.9525 1.64657 56.3472 1.72621 55.752C1.80584 55.1567 2.06892 54.601 2.4789 54.1621C2.88889 53.7232 3.4254 53.423 4.01388 53.3031ZM51.0947 54.183L51.8263 56.4848C51.3211 56.4848 50.8248 56.3524 50.3867 56.1009C49.9487 55.8493 49.5842 55.4873 49.3296 55.051C49.9887 54.8059 50.5891 54.5186 51.0947 54.183Z" fill="#F1F1F6"/>
<path fill-rule="evenodd" clip-rule="evenodd" d="M27.0828 20.9197C28.3628 20.5317 29.3352 19.3876 29.4364 17.9747C29.6251 15.3387 28.6189 13.8443 27.5847 12.917C25.9092 11.415 23.6806 11.4503 23.6447 11.4508C23.5832 11.452 23.5216 11.4549 23.4603 11.4595C17.473 11.9116 17.7701 17.751 17.7782 17.8943C17.7784 17.8965 17.7785 17.8988 17.7785 17.901C18.0832 22.976 22.635 23.5374 23.6812 23.5825C25.3384 23.6536 26.7657 22.4968 27.0828 20.9197ZM23.8266 17.8044C23.85 17.8062 23.8714 17.8065 23.8893 17.8065H23.9297C23.8954 17.8049 23.861 17.8042 23.8266 17.8044Z" fill="#F1F1F6"/>
<path fill-rule="evenodd" clip-rule="evenodd" d="M34.0474 20.9945C35.3685 20.5708 36.3342 19.342 36.3568 17.879C36.3839 16.092 35.8266 14.8785 35.1644 14.016C33.4514 11.7862 30.5518 11.8165 30.5518 11.8165L30.3605 11.8255C24.3731 12.2773 24.6703 18.1169 24.6784 18.2603L24.6786 18.2666C24.9877 23.4146 29.669 23.9161 30.6258 23.9499C32.3755 24.0121 33.859 22.7072 34.0474 20.9945ZM30.7281 18.171C30.7518 18.173 30.7735 18.173 30.7912 18.173C30.8088 18.1727 30.8224 18.1721 30.8302 18.1724C30.7962 18.1712 30.7622 18.1707 30.7281 18.171ZM30.5911 17.6151L30.5851 17.6168C30.5799 17.6744 30.577 17.7325 30.5761 17.7909C30.5773 17.7221 30.594 17.6622 30.5969 17.6139L30.5911 17.6151ZM52.9571 20.2528C53.3415 19.9526 53.6551 19.5713 53.8755 19.1361C54.0958 18.7008 54.2175 18.2224 54.2318 17.7348C54.2862 15.9218 53.7404 14.6892 53.0871 13.8142C51.3791 11.526 48.43 11.5552 48.43 11.5552L48.2381 11.5642C42.2508 12.016 42.5479 17.8556 42.556 17.999L42.5566 18.0053C42.8526 22.9399 47.159 23.6114 48.3636 23.6819C48.4193 23.6877 49.3857 23.7533 50.311 23.5605C51.8976 23.2299 52.9834 21.8163 52.9571 20.2528ZM48.4751 17.3526L48.4682 17.3541C48.4601 17.423 48.4551 17.4923 48.4532 17.5616C48.4555 17.479 48.4746 17.4087 48.4751 17.3526Z" fill="#F1F1F6"/>
<path fill-rule="evenodd" clip-rule="evenodd" d="M58.1028 20.8053C59.4729 20.3867 60.4661 19.1073 60.4557 17.6025C60.4439 15.8548 59.8704 14.6688 59.1954 13.8253C57.4772 11.6796 54.6496 11.7119 54.6496 11.7119L54.4588 11.7209C48.4715 12.1727 48.7686 18.0121 48.7767 18.1557L48.777 18.1621C49.0753 23.1319 53.4431 23.7763 54.6094 23.8401C56.4071 23.9384 57.951 22.5865 58.1028 20.8053ZM54.8236 18.0641C54.8462 18.0661 54.8667 18.0667 54.8841 18.067C54.9014 18.067 54.9156 18.067 54.9251 18.0676C54.8913 18.0655 54.8575 18.0644 54.8236 18.0641ZM54.6895 17.5105L54.6771 17.5134C54.6753 17.5563 54.6745 17.5992 54.6748 17.6421C54.6745 17.5915 54.6881 17.5467 54.6936 17.5097L54.6895 17.5105Z" fill="#F1F1F6"/>
<path fill-rule="evenodd" clip-rule="evenodd" d="M15.9199 18.056C16.0118 17.4128 34.0444 17.897 36.0517 17.8551C38.0589 17.8135 53.1991 17.4799 61.9811 17.6889C61.9811 17.6889 63.2701 18.6379 63.7673 23.6595C64.3934 29.9833 66.9816 44.5801 67.2268 45.3152C67.4719 46.0503 69.3915 57.1705 69.3915 58.1637C69.3915 58.1637 69.7214 59.6934 67.4262 57.6894C67.4262 57.6894 63.9549 55.0002 62.9509 53.8627C62.9509 53.8627 58.1823 58.155 55.9409 59.2254C55.9409 59.2254 41.9323 58.8005 33.438 59.0618C24.9433 59.3234 12.0537 58.7352 9.43999 58.9312C9.43999 58.9312 9.03067 53.7312 12.5327 38.4297C12.5327 38.4297 15.3334 22.1517 15.9199 18.056Z" fill="#4BCBEC"/>
<path fill-rule="evenodd" clip-rule="evenodd" d="M62.8968 53.9111C62.3646 54.3867 58.042 58.2219 55.9408 59.2256L55.6951 59.2079C55.9546 58.3136 56.1113 56.709 56.4695 53.8545L62.9508 53.8629L62.8968 53.9111Z" fill="#3C69C6"/>
<path fill-rule="evenodd" clip-rule="evenodd" d="M55.9123 59.2249C55.2104 59.2038 41.7098 58.8074 33.438 59.0618C24.9433 59.3234 12.0537 58.7352 9.43999 58.9312C9.43999 58.9312 9.03067 53.7312 12.5327 38.4297C12.5327 38.4297 15.3334 22.1517 15.9199 18.056C16.0118 17.4128 34.0444 17.897 36.0517 17.8551C38.0586 17.8135 53.1931 17.4799 61.9748 17.6889C61.6646 21.199 61.0596 27.2349 60.3069 30.6912C59.144 36.0311 57.348 48.248 55.9123 59.2249Z" fill="#FF9227"/>
<path fill-rule="evenodd" clip-rule="evenodd" d="M18.7443 17.7615C23.9225 17.6196 34.5386 17.8869 36.0516 17.8552C37.886 17.817 50.6868 17.5352 59.5795 17.6464C59.3746 19.1773 59.1751 20.4637 59.1751 20.4637C56.4727 36.4141 56.0527 42.9677 56.0527 42.9677C55.0069 51.5913 51.8263 53.5943 51.8263 53.5943C48.8027 56.6011 39.0041 56.4947 39.0041 56.4947C31.644 56.6621 21.155 56.4736 13.2636 56.4716C5.25428 56.4696 4.59204 56.1354 4.59204 56.1354C5.34476 56.1354 8.44149 53.9628 8.44149 53.9628C15.2272 49.402 16.2826 34.1149 17.181 30.031C17.7924 27.252 18.4113 21.2881 18.7443 17.7615Z" fill="#FFBE32"/>
<path fill-rule="evenodd" clip-rule="evenodd" d="M28.9217 22.0469C29.3114 21.8174 46.4858 21.9633 47.113 21.8795C47.7403 21.796 47.4258 24.2703 47.3639 24.305C47.2827 24.3513 29.4308 24.6377 29.1091 24.5863C28.7896 24.5348 28.7344 22.1573 28.9217 22.0469Z" fill="#3C69C6"/>
<path fill-rule="evenodd" clip-rule="evenodd" d="M25.8728 29.8665C26.2347 29.8665 30.958 29.8333 31.0918 29.8665C31.2257 29.9001 31.2153 31.3682 31.0586 31.4353C30.8638 31.5182 25.887 31.6145 25.889 31.4726C25.8913 31.3231 25.7725 29.8665 25.8728 29.8665ZM18.75 29.9611C19.1119 29.9611 23.5751 29.9411 23.7089 29.9746C23.8424 30.0082 23.8459 31.3118 23.689 31.3786C23.4944 31.4619 18.7093 31.5992 18.7113 31.4572C18.7136 31.3078 18.6497 29.9611 18.75 29.9611ZM34.1504 29.7622C34.5123 29.7622 38.9885 29.6902 39.1009 29.7703C39.1295 29.7905 39.1951 31.2352 39.12 31.3124C38.9726 31.4642 34.1241 31.483 34.1261 31.341C34.1282 31.1916 34.0501 29.7622 34.1504 29.7622ZM41.9126 29.7842C42.2745 29.7842 46.7374 29.7781 46.8712 29.8116C47.005 29.8451 47.0836 31.1214 46.927 31.1881C46.7321 31.2714 41.9129 31.3676 41.9149 31.2257C41.9172 31.076 41.8123 29.7842 41.9126 29.7842ZM49.8222 29.7067C50.1841 29.7067 54.6814 29.6902 54.8152 29.7237C54.949 29.7573 54.9797 31.1329 54.8227 31.1997C54.6282 31.2829 49.7644 31.3552 49.7664 31.2133C49.7687 31.0638 49.7219 29.7067 49.8222 29.7067Z" fill="#FF9227"/>
<path fill-rule="evenodd" clip-rule="evenodd" d="M23.7072 33.4249C23.7072 33.4249 23.0083 42.3757 20.7371 48.5041C20.1621 50.0555 19.4878 51.4248 18.6937 52.4117C18.1873 53.0413 17.6346 53.513 17.0247 53.7628C16.9537 53.7919 16.8972 53.8479 16.8676 53.9187C16.838 53.9894 16.8377 54.069 16.8668 54.14C16.8959 54.2109 16.952 54.2674 17.0228 54.297C17.0935 54.3266 17.1731 54.3269 17.2441 54.2978C18.927 53.6081 20.2671 51.4361 21.2791 48.705C23.5737 42.513 24.2836 33.47 24.2836 33.47C24.2896 33.3936 24.265 33.3179 24.2151 33.2596C24.1653 33.2013 24.0944 33.1652 24.0179 33.1593C23.9415 33.1533 23.8658 33.1779 23.8076 33.2277C23.7493 33.2775 23.7132 33.3485 23.7072 33.4249ZM31.5489 33.4839C31.5489 33.4839 30.6242 42.7423 28.8404 48.9649C28.3877 50.5438 27.881 51.9258 27.3173 52.9022C26.9678 53.5078 26.6042 53.9538 26.2096 54.1683C26.1435 54.2056 26.0947 54.2673 26.0737 54.3403C26.0527 54.4132 26.0613 54.4915 26.0975 54.5582C26.1338 54.6249 26.1948 54.6746 26.2674 54.6967C26.3401 54.7188 26.4184 54.7114 26.4857 54.6762C26.9537 54.4218 27.4035 53.9096 27.818 53.1913C28.4004 52.1822 28.9283 50.7559 29.396 49.1242C31.1916 42.8605 32.1241 33.5414 32.1241 33.5414C32.1311 33.4655 32.1077 33.3899 32.0592 33.3311C32.0107 33.2723 31.9409 33.2351 31.865 33.2275C31.7892 33.2199 31.7134 33.2426 31.6542 33.2906C31.595 33.3386 31.5571 33.4081 31.5489 33.4839ZM39.5207 33.4752C39.5207 33.4752 38.5324 42.8567 36.6659 49.0889C36.1924 50.6692 35.6643 52.0449 35.0783 53.0043C34.7164 53.5966 34.3412 54.0264 33.9342 54.2192C33.8649 54.252 33.8115 54.3111 33.7857 54.3833C33.76 54.4555 33.7639 54.5351 33.7968 54.6044C33.8296 54.6737 33.8887 54.7271 33.9609 54.7529C34.0331 54.7786 34.1127 54.7747 34.182 54.7418C34.669 54.5109 35.1385 54.0151 35.5718 53.3058C36.1782 52.3125 36.7295 50.8903 37.2194 49.2548C39.0989 42.9807 40.0956 33.5359 40.0956 33.5359C40.0996 33.4982 40.0961 33.46 40.0853 33.4236C40.0746 33.3872 40.0567 33.3533 40.0329 33.3237C40.009 33.2942 39.9795 33.2697 39.9462 33.2516C39.9128 33.2335 39.8762 33.2221 39.8385 33.2181C39.8007 33.2141 39.7626 33.2176 39.7262 33.2283C39.6898 33.2391 39.6558 33.2569 39.6263 33.2808C39.5968 33.3047 39.5723 33.3342 39.5542 33.3675C39.536 33.4009 39.5246 33.4375 39.5207 33.4752ZM47.6228 33.0881C47.6228 33.0881 46.8267 42.1763 44.7859 48.5443C44.2676 50.161 43.6704 51.6012 42.9825 52.6646C42.5443 53.3419 42.0728 53.8636 41.5571 54.1657C41.491 54.2045 41.443 54.2679 41.4236 54.342C41.4042 54.4162 41.415 54.495 41.4536 54.5612C41.5343 54.6987 41.7115 54.7453 41.8493 54.6646C42.4315 54.3235 42.9729 53.7434 43.4678 52.9785C44.1792 51.8792 44.8007 50.3923 45.3363 48.7206C47.3939 42.3009 48.1986 33.1387 48.1986 33.1387C48.2039 33.0632 48.1793 32.9885 48.1301 32.9309C48.0809 32.8733 48.011 32.8373 47.9355 32.8307C47.8601 32.8241 47.785 32.8473 47.7265 32.8955C47.668 32.9436 47.6308 33.0128 47.6228 33.0881Z" fill="white"/>
<path fill-rule="evenodd" clip-rule="evenodd" d="M18.1768 37.7763C18.1768 37.7763 49.1999 37.6411 52.7343 36.921C52.8094 36.9057 52.8754 36.8612 52.9177 36.7973C52.96 36.7333 52.9752 36.6552 52.9599 36.5801C52.9446 36.5049 52.9001 36.4389 52.8361 36.3966C52.7722 36.3543 52.6941 36.3391 52.6189 36.3544C49.0961 37.0722 18.1745 37.1982 18.1745 37.1982C18.1366 37.1984 18.099 37.206 18.064 37.2207C18.029 37.2353 17.9972 37.2568 17.9705 37.2837C17.9165 37.3381 17.8863 37.4118 17.8866 37.4884C17.8869 37.5651 17.9177 37.6385 17.9721 37.6925C18.0265 37.7465 18.1002 37.7766 18.1768 37.7763ZM18.1708 43.3957C18.1708 43.3957 36.7584 43.7224 51.8396 43.0688C51.9155 43.0646 51.9868 43.0306 52.0378 42.9743C52.0889 42.9179 52.1157 42.8437 52.1124 42.7677C52.1092 42.6918 52.0761 42.6201 52.0204 42.5684C51.9646 42.5166 51.8908 42.4889 51.8148 42.4912C36.7491 43.1442 18.1809 42.8176 18.1809 42.8176C18.1062 42.8194 18.0351 42.8499 17.9825 42.9029C17.9298 42.9559 17.8997 43.0271 17.8984 43.1018C17.8971 43.1765 17.9247 43.2488 17.9755 43.3035C18.0262 43.3583 18.0962 43.3913 18.1708 43.3957ZM16.0736 49.3417C16.0736 49.3417 34.0374 48.7541 50.0318 49.3417C50.1084 49.3445 50.183 49.3168 50.2392 49.2646C50.2954 49.2124 50.3285 49.14 50.3313 49.0634C50.3341 48.9867 50.3063 48.9121 50.2541 48.856C50.2019 48.7998 50.1295 48.7667 50.0529 48.7639C34.0397 48.1757 16.0548 48.7639 16.0548 48.7639C16.0169 48.7651 15.9796 48.7738 15.945 48.7895C15.9104 48.8051 15.8792 48.8275 15.8533 48.8552C15.8009 48.9111 15.7728 48.9856 15.7753 49.0622C15.7765 49.1002 15.7852 49.1375 15.8009 49.1721C15.8165 49.2066 15.8389 49.2378 15.8666 49.2638C15.8943 49.2897 15.9268 49.31 15.9623 49.3233C15.9979 49.3367 16.0357 49.343 16.0736 49.3417Z" fill="white"/>
<path fill-rule="evenodd" clip-rule="evenodd" d="M23.8427 19.8282C23.4394 19.8108 21.6476 19.633 21.5296 17.6767C21.5282 17.6489 21.4166 15.3939 23.7256 15.2081C23.8204 15.2084 24.5324 15.2277 25.0761 15.7148C25.4762 16.0735 25.7612 16.6866 25.6881 17.7062C25.6817 17.8198 25.7203 17.9314 25.7955 18.0169C25.8707 18.1023 25.9765 18.1548 26.09 18.1629C26.2036 18.171 26.3158 18.1342 26.4024 18.0603C26.489 17.9864 26.5431 17.8814 26.5529 17.768C26.6527 16.3762 26.2012 15.559 25.6548 15.0693C24.8177 14.3186 23.7019 14.3409 23.7019 14.3409L23.6779 14.342C20.4783 14.5834 20.6639 17.7267 20.6639 17.7267V17.7278C20.8246 20.4043 23.2539 20.6708 23.8054 20.6945C23.9194 20.698 24.0302 20.6564 24.1138 20.5788C24.1974 20.5012 24.247 20.3937 24.2519 20.2797C24.2568 20.1658 24.2166 20.0545 24.14 19.9699C24.0634 19.8854 23.9566 19.8345 23.8427 19.8282ZM30.7588 20.1947C30.39 20.1814 28.5495 20.0265 28.4298 18.0423C28.4284 18.0149 28.3168 15.7596 30.6258 15.574C30.7351 15.574 31.6396 15.5963 32.1842 16.3051C32.4417 16.6407 32.61 17.1269 32.5993 17.8218C32.5984 17.8787 32.6087 17.9353 32.6297 17.9882C32.6507 18.0412 32.6819 18.0894 32.7216 18.1303C32.7612 18.1712 32.8085 18.2039 32.8608 18.2265C32.9131 18.2491 32.9693 18.2611 33.0262 18.262C33.0831 18.2629 33.1397 18.2525 33.1926 18.2316C33.2456 18.2106 33.2939 18.1794 33.3348 18.1397C33.3756 18.1001 33.4083 18.0528 33.4309 18.0005C33.4535 17.9482 33.4656 17.892 33.4664 17.8351C33.4809 16.8881 33.2228 16.234 32.8718 15.777C32.0307 14.682 30.6021 14.7068 30.6021 14.7068C30.594 14.7068 30.5862 14.7074 30.5781 14.708C27.3785 14.9494 27.5641 18.0926 27.5641 18.0926V18.0938C27.7271 20.8081 30.2235 21.0434 30.7282 21.0613C30.8404 21.061 30.9482 21.0173 31.0289 20.9393C31.1095 20.8612 31.1568 20.7549 31.1608 20.6428C31.1647 20.5306 31.1251 20.4212 31.0501 20.3377C30.9752 20.2541 30.8707 20.2029 30.7588 20.1947ZM49.5444 19.8816C49.0845 19.9776 48.602 19.9319 48.602 19.9319L48.5864 19.9308C48.1257 19.9042 46.4222 19.6868 46.3075 17.781C46.306 17.7541 46.1942 15.4983 48.5038 15.3127C48.6139 15.3124 49.5331 15.335 50.0757 16.062C50.3332 16.4071 50.4971 16.9072 50.4755 17.6223C50.4738 17.6792 50.4833 17.7359 50.5035 17.7892C50.5237 17.8424 50.5542 17.8912 50.5932 17.9326C50.6323 17.9741 50.6791 18.0075 50.731 18.0308C50.783 18.0542 50.839 18.0671 50.8959 18.0688C50.9528 18.0705 51.0095 18.061 51.0628 18.0408C51.116 18.0206 51.1648 17.9901 51.2062 17.951C51.2477 17.912 51.281 17.8652 51.3044 17.8132C51.3278 17.7613 51.3407 17.7053 51.3424 17.6483C51.3713 16.68 51.1195 16.0108 50.7706 15.5434C49.9323 14.4204 48.4798 14.4455 48.4798 14.4455C48.472 14.4455 48.4639 14.4461 48.4558 14.4467C45.2561 14.6881 45.4417 17.8313 45.4417 17.8313L45.442 17.8322C45.5981 20.4346 47.8979 20.7589 48.533 20.7965C48.6078 20.8026 49.1767 20.8442 49.7213 20.7306C49.8339 20.7072 49.9325 20.6399 49.9956 20.5437C50.0586 20.4475 50.0808 20.3303 50.0573 20.2177C50.0339 20.1051 49.9667 20.0064 49.8705 19.9434C49.7743 19.8804 49.657 19.8582 49.5444 19.8816ZM54.8146 20.088C54.3648 20.0635 52.6437 19.8539 52.5281 17.938C52.5266 17.9108 52.4148 15.6553 54.7241 15.4694C54.8319 15.4694 55.715 15.4914 56.2619 16.1744C56.5192 16.4959 56.6935 16.9621 56.6981 17.6287C56.7017 17.7418 56.7494 17.8489 56.8309 17.9274C56.9124 18.0058 57.0214 18.0493 57.1345 18.0485C57.2477 18.0477 57.356 18.0027 57.4364 17.9231C57.5168 17.8436 57.563 17.7357 57.565 17.6226C57.5589 16.7069 57.2927 16.0741 56.9389 15.6324C56.0943 14.5776 54.7004 14.6022 54.7004 14.6022L54.6764 14.6034C51.4768 14.845 51.6624 17.988 51.6624 17.988L51.6626 17.9891C51.8199 20.6104 54.1521 20.9202 54.7672 20.9541C54.8798 20.9566 54.9891 20.9153 55.0718 20.8388C55.1545 20.7622 55.2042 20.6565 55.2104 20.544C55.2165 20.4315 55.1787 20.321 55.1048 20.2359C55.0309 20.1508 54.9268 20.0978 54.8146 20.088Z" fill="#3C69C6"/>
</svg>
