<svg width="29" height="29" viewBox="0 0 29 29" fill="none" xmlns="http://www.w3.org/2000/svg">
<circle cx="14.5" cy="14.5" r="14" stroke="#5C89FE" stroke-dasharray="2 2"/>
<g clip-path="url(#clip0_325_2026)">
<path d="M15.6327 17.2362L13.7855 15.4107L13.8073 15.3889C15.0727 13.978 15.9745 12.3562 16.5055 10.6398H18.6364V9.18161H13.5455V7.72705H12.0909V9.18161H7V10.6289H15.1236C14.6327 12.0325 13.8654 13.3634 12.8182 14.5271C12.1418 13.7743 11.5818 12.9562 11.1382 12.0907H9.68364C10.2145 13.2761 10.9418 14.3962 11.8509 15.4071L8.15272 19.0616L9.18182 20.0907L12.8182 16.4543L15.08 18.7162L15.6327 17.2362ZM19.7273 13.5452H18.2727L15 22.2725H16.4545L17.2727 20.0907H20.7273L21.5454 22.2725H23L19.7273 13.5452ZM17.8182 18.6361L19 15.4834L20.1818 18.6361H17.8182Z" fill="#5C89FE"/>
</g>
<defs>
<clipPath id="clip0_325_2026">
<rect width="16" height="16" fill="white" transform="translate(7 7)"/>
</clipPath>
</defs>
</svg>
