<svg width="39" height="39" viewBox="0 0 39 39" fill="none" xmlns="http://www.w3.org/2000/svg">
<circle cx="19.5" cy="19.5" r="19.5" fill="#F2F3F3"/>
<g clip-path="url(#clip0_305_1479)">
<path d="M20.3883 35.9683C20.1068 35.8848 19.7961 35.6788 19.8837 35.3136C19.9332 35.1621 20.0339 35.0317 20.1691 34.9439C20.3043 34.8562 20.466 34.8164 20.6274 34.8311C21.2887 34.9302 21.2223 36.2213 20.3883 35.9683Z" fill="#EDF7F7"/>
<path d="M16.0697 32.2595C18.441 33.4087 21.0926 33.883 23.7242 33.6287C23.3359 33.0606 22.8139 32.5927 22.2024 32.2647C21.1187 32.3429 20.1254 32.0534 19.0524 31.8865C18.0431 31.6941 16.9977 31.8248 16.0697 32.2595Z" fill="#FF70F1"/>
<path d="M18.6832 17.3616V17.5781C18.739 18.963 18.9196 20.434 19.0019 21.8372C19.8745 21.834 20.7415 21.9732 21.5676 22.2493C22.0076 21.1601 22.3065 20.021 22.4573 18.8587C22.5822 17.7059 22.3856 16.4722 21.6605 15.5516C21.2409 15.0065 20.6699 14.6909 20.0351 15.0665C19.4727 15.4295 19.0552 15.9722 18.8532 16.6027C18.7745 16.8504 18.7177 17.1043 18.6832 17.3616Z" fill="#FCD5FF"/>
<path d="M28.0933 23.7048C28.564 23.7667 29.0281 23.8706 29.4797 24.0152C29.8737 23.2273 30.1886 22.4036 30.4199 21.5557C30.6446 20.7168 30.6075 19.8309 30.3137 19.0128C30.2532 18.8267 30.1556 18.6543 30.0265 18.5056C29.8975 18.3569 29.7396 18.235 29.562 18.1469C29.4615 18.1074 29.3539 18.0884 29.2456 18.0911C29.1374 18.0938 29.0309 18.1181 28.9325 18.1625C28.7626 20.0221 28.574 21.9104 28.0933 23.7048Z" fill="#FCD5FF"/>
<path d="M22.938 24.4976C23.2767 25.7143 23.9364 26.8218 24.8503 27.7082C25.5223 27.2544 26.1119 26.4641 26.5793 25.8121C25.278 25.6579 24.0312 25.2078 22.938 24.4976Z" fill="#FABFFB"/>
<path d="M21.5755 22.2494C20.7495 21.9734 19.8824 21.8341 19.0099 21.8373C19.0099 22.0016 19.0311 22.1633 19.0364 22.3276C20.1785 22.4424 21.3161 22.5919 22.4493 22.7762C23.5747 20.5695 24.0302 18.0916 23.7614 15.6378C23.713 15.0233 23.5519 14.4225 23.286 13.8642C23.1514 13.5859 22.9619 13.3365 22.7285 13.1305C22.4951 12.9246 22.2223 12.7662 21.9261 12.6645C21.546 12.5711 21.1478 12.576 20.7703 12.6789C20.3928 12.7817 20.0488 12.979 19.7721 13.2513C19.2244 13.8061 18.8709 14.5177 18.7628 15.2831C18.6627 15.974 18.636 16.6732 18.6832 17.3696C18.7234 17.1153 18.7856 16.8649 18.8691 16.621C19.0711 15.9906 19.4886 15.4479 20.051 15.0848C20.6858 14.7093 21.2568 15.0249 21.6765 15.57C22.3936 16.4906 22.5901 17.7243 22.4732 18.8771C22.3183 20.0335 22.0168 21.1664 21.5755 22.2494Z" fill="#FABFFB"/>
<path d="M29.4797 24.0151C29.0281 23.8705 28.5641 23.7666 28.0933 23.7047C28.0703 23.8021 28.0437 23.8986 28.0136 23.9942C28.7227 24.1872 29.4292 24.3985 30.1384 24.6228C31.2176 22.8776 31.7359 20.8534 31.6257 18.8145C31.5896 18.0092 31.4154 17.2156 31.1105 16.4672C31.0177 16.2332 30.8828 16.0176 30.7121 15.8308C30.626 15.7375 30.5211 15.6629 30.404 15.6117C30.287 15.5605 30.1603 15.5339 30.0321 15.5334C29.8586 15.5519 29.6933 15.6156 29.5532 15.7178C29.4131 15.8201 29.3034 15.9572 29.2353 16.1151C29.105 16.4314 29.0322 16.7677 29.0202 17.1088C28.9883 17.4609 28.9565 17.813 28.9272 18.1677C29.0256 18.1232 29.1321 18.0989 29.2403 18.0962C29.3486 18.0935 29.4562 18.1125 29.5567 18.152C29.7343 18.2401 29.8922 18.362 30.0212 18.5107C30.1503 18.6594 30.2479 18.8318 30.3084 19.0179C30.6022 19.836 30.6393 20.7219 30.4146 21.5609C30.1847 22.4067 29.8716 23.2287 29.4797 24.0151Z" fill="#FABFFB"/>
<path d="M18.6832 17.3618C18.636 16.6655 18.6627 15.9663 18.7628 15.2753C18.8709 14.51 19.2244 13.7983 19.7721 13.2436C20.0488 12.9712 20.3927 12.774 20.7703 12.6711C21.1478 12.5683 21.546 12.5633 21.9261 12.6568C22.2223 12.7585 22.495 12.9169 22.7285 13.1228C22.9619 13.3288 23.1514 13.5781 23.286 13.8565C23.5519 14.4148 23.713 15.0156 23.7614 15.63C24.0301 18.0839 23.5747 20.5618 22.4493 22.7685C21.3143 22.5842 20.1767 22.4347 19.0364 22.3199C19.0364 22.1556 19.0205 21.9939 19.0098 21.8296C18.9275 20.4264 18.7442 18.9606 18.6911 17.5705L18.6832 17.3618ZM28.0933 23.7048C28.574 21.9104 28.7626 20.0221 28.9326 18.1625C28.9618 17.8078 28.9936 17.4557 29.0255 17.1036C29.0375 16.7626 29.1103 16.4263 29.2406 16.1099C29.3087 15.9521 29.4184 15.815 29.5585 15.7127C29.6986 15.6105 29.8639 15.5468 30.0374 15.5283C30.1656 15.5287 30.2923 15.5554 30.4093 15.6066C30.5264 15.6578 30.6313 15.7324 30.7174 15.8257C30.8886 16.0141 31.0236 16.2315 31.1158 16.4673C31.4207 17.2157 31.5949 18.0093 31.631 18.8146C31.7394 20.8552 31.2182 22.8804 30.1357 24.6255C29.4345 24.4012 28.728 24.1899 28.0109 23.9969C28.041 23.8996 28.0685 23.8022 28.0933 23.7048ZM14.585 16.2325C14.3194 19.477 15.1401 22.7346 16.0378 25.867C16.6938 26.4016 17.3923 27.012 18.0457 27.544C18.1367 29.1292 17.8832 30.7153 17.302 32.1969C20.5892 33.0639 23.9969 33.4064 27.3947 33.2115C28.0528 31.8244 28.5946 30.3869 29.0149 28.9133C29.7825 28.5534 31.4876 27.5179 31.4876 27.5179C31.4876 27.5179 32.3986 24.8863 32.643 23.9787C33.1767 22.055 33.3919 20.0595 33.2804 18.0687C33.052 14.712 31.6045 11.3501 28.9379 9.24011C26.2713 7.13013 22.3245 6.49635 19.3179 8.10818C16.4203 9.66785 14.8453 12.988 14.585 16.2325ZM24.8503 27.7083C23.9364 26.8219 23.2768 25.7145 22.938 24.4977C24.0321 25.2043 25.2789 25.6508 26.5794 25.8018C26.1119 26.4642 25.5223 27.2545 24.8503 27.7083Z" fill="url(#paint0_radial_305_1479)"/>
<path d="M8.32225 15.1631C8.54801 17.3253 9.32887 19.4666 10.0539 21.5452C10.2585 22.1321 10.4603 22.7293 10.6462 23.3318C10.7928 23.3207 10.933 23.2682 11.0499 23.1805C11.6289 22.7867 11.8467 22.1164 11.9609 21.3992C11.9609 21.3705 11.9609 21.3418 11.9609 21.3131C11.5705 20.5307 11.1827 19.7482 10.8321 18.9528C10.193 17.5691 9.75229 16.105 9.52275 14.6024C9.3449 14.553 9.15686 14.5512 8.97804 14.597C8.79922 14.6429 8.6361 14.7348 8.50551 14.8632C8.42904 14.9533 8.36722 15.0545 8.32225 15.1631Z" fill="#FAA747"/>
<path d="M8.00885 15.6118C8.04466 15.285 8.13437 14.9661 8.27445 14.6676C8.34678 14.5172 8.44775 14.3818 8.57191 14.2686C8.69257 14.1641 8.83304 14.0841 8.98527 14.0331C9.1375 13.982 9.2985 13.961 9.45901 13.9713C9.73045 13.9771 9.99575 14.0517 10.2292 14.1877C10.7365 14.5214 11.1422 14.9838 11.4032 15.5257C12.4565 17.4549 12.7838 19.6869 12.3275 21.8296C12.3275 21.8817 12.3036 21.9313 12.2929 21.9809C12.1123 22.7268 11.7963 23.4049 11.1163 23.7909C11.0196 23.8474 10.9149 23.8896 10.8056 23.9161C10.2292 24.0543 9.84147 23.5666 9.4962 23.0032C8.97358 22.1341 8.57246 21.1998 8.30366 20.2256C7.88908 18.723 7.7888 17.1535 8.00885 15.6118ZM9.66618 22.5625C9.93178 22.9928 10.2399 23.3658 10.633 23.3449C10.7796 23.3338 10.9198 23.2812 11.0367 23.1936C11.6157 22.7998 11.8335 22.1295 11.9477 21.4123C11.9477 21.3836 11.9477 21.3549 11.9477 21.3262C12.2039 19.4459 11.831 17.5347 10.8853 15.8804C10.656 15.4188 10.3047 15.0261 9.86803 14.7433C9.76002 14.6835 9.6437 14.6396 9.52275 14.6129C9.3449 14.5635 9.15686 14.5617 8.97804 14.6075C8.79922 14.6534 8.6361 14.7453 8.50552 14.8737C8.42621 14.9599 8.36082 15.0575 8.31163 15.1632C8.18768 15.4556 8.11753 15.7674 8.10446 16.0839C7.91501 18.3529 8.46669 20.6222 9.67946 22.5625H9.66618Z" fill="#FF70F1"/>
<path d="M8.11507 16.0942C7.92474 18.3586 8.47259 20.6238 9.67944 22.5624C9.94504 22.9927 10.2531 23.3657 10.6462 23.3448C10.4603 22.7424 10.2584 22.1451 10.0539 21.5583C9.32885 19.4718 8.54799 17.3383 8.32224 15.1762C8.19859 15.4678 8.12846 15.7786 8.11507 16.0942ZM10.9092 15.8777C11.8549 17.532 12.2278 19.4432 11.9715 21.3235C11.5811 20.5411 11.1933 19.7586 10.8428 18.9632C10.2036 17.5795 9.7629 16.1154 9.53336 14.6128C9.65431 14.6395 9.77063 14.6834 9.87864 14.7432C10.3198 15.0235 10.6758 15.4154 10.9092 15.8777Z" fill="#FFC761"/>
<path d="M28.0269 33.1591C28.2429 33.1435 28.458 33.1226 28.6723 33.0965L30.4093 30.032C29.4813 30.9692 28.6805 32.0203 28.0269 33.1591ZM15.4455 5.12427C13.875 5.65075 12.4857 6.59795 11.4344 7.85889C10.3831 9.11984 9.71174 10.6443 9.49617 12.2601C9.42935 12.828 9.4169 13.4009 9.45898 13.9711C9.29847 13.9608 9.13747 13.9818 8.98524 14.0329C8.83301 14.0839 8.69254 14.1639 8.57189 14.2684C8.44772 14.3816 8.34675 14.517 8.27442 14.6674C8.22186 13.921 8.25571 13.1712 8.37535 12.4323C8.957 8.92171 11.9264 5.91714 15.4455 5.12427ZM12.2929 21.9807C12.8241 23.0526 13.3553 24.1245 13.7749 25.2382C14.5213 27.1891 14.9622 29.3252 14.593 31.3595C13.4712 30.9594 12.375 30.4935 11.3102 29.9642C11.7086 27.9768 11.3739 25.9189 10.8056 23.9159C10.9148 23.8894 11.0195 23.8472 11.1163 23.7907C11.8042 23.4047 12.1203 22.7266 12.3009 21.9807H12.2929Z" fill="#FF70F1"/>
<path d="M8.1602 9.92072C8.9737 8.01754 10.383 6.41804 12.184 5.35388C13.9874 4.32627 16.1255 3.97156 18.2104 4.00286C22.1944 4.06285 26.4705 4.98352 29.5488 7.59427C32.0372 9.72449 33.6124 12.7007 33.9577 15.9247C34.2233 18.585 33.724 21.4487 33.0281 24.0751C32.9245 24.4767 32.813 24.8732 32.6988 25.2618C32.0731 27.396 31.1678 29.4414 30.0056 31.3466C29.8462 31.6074 29.1344 33.0627 28.8476 33.0914L28.6723 33.1071L30.4093 30.0425C29.4783 30.9801 28.6748 32.0321 28.0189 33.1723C27.8118 33.1879 27.6046 33.2036 27.3974 33.214C28.0555 31.8269 28.5973 30.3894 29.0176 28.9158C29.7851 28.5559 31.4903 27.5204 31.4903 27.5204C31.4903 27.5204 32.4013 24.8888 32.6456 23.9812C33.1793 22.0575 33.3946 20.062 33.2831 18.0712C33.0547 14.7145 31.6071 11.3526 28.9405 9.24261C26.2739 7.13263 22.3272 6.49885 19.3206 8.11068C16.399 9.67556 14.8373 12.9905 14.577 16.235C14.3167 19.4795 15.1401 22.7267 16.0378 25.8564C16.6938 26.3911 17.3924 27.0014 18.0457 27.5335C18.1404 29.122 17.8877 30.7121 17.3047 32.1968C16.3911 31.9586 15.4916 31.6795 14.6063 31.3596C14.9754 29.3253 14.5345 27.1866 13.7882 25.2383C13.3633 24.1246 12.84 23.0527 12.3062 21.9808C12.3062 21.9312 12.3301 21.8816 12.3407 21.8295C12.797 19.6868 12.4697 17.4548 11.4164 15.5256C11.1554 14.9837 10.7497 14.5213 10.2425 14.1876C10.009 14.0516 9.74369 13.977 9.47225 13.9712C9.43017 13.401 9.44262 12.8281 9.50943 12.2602C9.72391 10.6459 10.3933 9.12252 11.4421 7.86172C12.4909 6.60093 13.8775 5.65286 15.4455 5.12436C11.9184 5.9068 8.94903 8.92181 8.37534 12.4271C8.2553 13.1678 8.22144 13.9194 8.27441 14.6675C8.13433 14.966 8.04462 15.2849 8.00881 15.6117C7.78703 17.153 7.88551 18.7225 8.29831 20.2255C8.56712 21.1997 8.96823 22.134 9.49084 23.0031C9.83612 23.5665 10.2239 24.0464 10.8002 23.916C11.3686 25.919 11.7033 27.9769 11.3049 29.9643C10.8321 29.7295 10.362 29.4791 9.90518 29.2183C9.90518 26.1929 8.7817 23.2666 7.96897 20.3115C7.54368 18.8826 7.27042 17.4142 7.15359 15.9299C7.00796 13.8772 7.35266 11.8195 8.1602 9.92072Z" fill="url(#paint1_linear_305_1479)"/>
<path style="mix-blend-mode:screen" d="M17.3047 4.31843C16.6087 5.20356 16.2271 6.28821 16.2184 7.40646C16.2099 8.5209 16.4218 9.62635 16.8425 10.6614C17.796 13.1496 19.5251 15.2883 21.5861 16.9601C23.6471 18.6319 26.0349 19.8577 28.4916 20.8331C29.1961 21.1445 29.9449 21.3486 30.712 21.4382C31.0968 21.4791 31.486 21.4441 31.8568 21.3353C32.2276 21.2265 32.5725 21.046 32.8713 20.8045C34.3799 19.4665 33.955 16.5402 33.5778 14.8057C33.1008 12.5972 32.0525 10.5466 30.5341 8.85137C27.3336 5.3043 22.0137 3.88808 17.3047 4.31843Z" fill="url(#paint2_linear_305_1479)"/>
<path style="mix-blend-mode:screen" d="M23.2701 7.9567C22.9985 7.9427 22.7269 7.98537 22.4733 8.08189C22.3447 8.13224 22.2324 8.21578 22.1483 8.32368C22.0641 8.43157 22.0112 8.55981 21.9952 8.6948C21.9997 8.83402 22.0419 8.96955 22.1176 9.08739C22.1932 9.20522 22.2995 9.30109 22.4255 9.36509C22.6755 9.49266 22.9444 9.58068 23.2223 9.62591C24.439 9.89423 25.6137 10.3214 26.7149 10.8961L30.7652 12.9669C30.8821 13.0269 31.0308 13.0869 31.1371 13.0139C31.2433 12.9409 31.2168 12.6931 31.1371 12.5418C29.9997 10.5827 28.1599 9.1098 25.9765 8.41052C25.1055 8.11571 24.1914 7.96242 23.2701 7.9567Z" fill="url(#paint3_linear_305_1479)"/>
<path d="M12.8347 12.1795C13.4512 12.126 14.0596 12.0053 14.6488 11.8195C15.2449 11.6288 15.7681 11.2651 16.1494 10.7763C16.3368 10.5322 16.461 10.2471 16.5115 9.94541C16.5619 9.64375 16.537 9.33459 16.4389 9.04447C16.3309 8.7576 16.1286 8.51422 15.8641 8.35271C15.5996 8.1912 15.2879 8.12076 14.9781 8.15249C14.5378 8.25802 14.1455 8.50382 13.8626 8.85147C13.7279 8.52874 13.4769 8.26604 13.1574 8.11353C12.838 7.96102 12.4726 7.92939 12.1309 8.02469C11.8682 8.1222 11.638 8.28895 11.4656 8.50659C11.2932 8.72423 11.1852 8.98435 11.1535 9.25834C11.1024 9.80883 11.2418 10.3602 11.5492 10.8232C11.8467 11.3083 12.447 11.7726 12.8347 12.1795Z" fill="#E83332"/>
</g>
<defs>
<radialGradient id="paint0_radial_305_1479" cx="0" cy="0" r="1" gradientUnits="userSpaceOnUse" gradientTransform="translate(27.3443 13.6766) rotate(180) scale(16.7061 16.4052)">
<stop stop-color="#923689"/>
<stop offset="1" stop-color="#FF00D6"/>
</radialGradient>
<linearGradient id="paint1_linear_305_1479" x1="34.2551" y1="11.1492" x2="3.00756" y2="30.2068" gradientUnits="userSpaceOnUse">
<stop stop-color="#FFEEC5"/>
<stop offset="1" stop-color="#ECADF6"/>
</linearGradient>
<linearGradient id="paint2_linear_305_1479" x1="29.8382" y1="3.53077" x2="21.1583" y2="20.8254" gradientUnits="userSpaceOnUse">
<stop stop-color="#BDBE9A"/>
<stop offset="0.16" stop-color="#9D9E80"/>
<stop offset="0.74" stop-color="#2D2E25"/>
<stop offset="1" stop-color="#010101"/>
</linearGradient>
<linearGradient id="paint3_linear_305_1479" x1="28.7069" y1="7.5733" x2="25.8434" y2="12.0158" gradientUnits="userSpaceOnUse">
<stop stop-color="#BDBE9A"/>
<stop offset="0.16" stop-color="#9D9E80"/>
<stop offset="0.74" stop-color="#2D2E25"/>
<stop offset="1" stop-color="#010101"/>
</linearGradient>
<clipPath id="clip0_305_1479">
<rect width="32" height="32" fill="white" transform="matrix(-1 0 0 1 36 4)"/>
</clipPath>
</defs>
</svg>
