<svg width="360" height="51" viewBox="0 0 360 51" fill="none" xmlns="http://www.w3.org/2000/svg">
<path d="M-22.32 30.2401C-22.7656 30.2401 -23.1929 30.0631 -23.5079 29.748C-23.823 29.433 -24 29.0056 -24 28.5601V21.84C-24 20.9121 -23.2479 20.16 -22.32 20.16C-21.3921 20.16 -20.64 20.9121 -20.64 21.84V28.5601C-20.64 29.0056 -20.817 29.433 -21.132 29.748C-21.4471 30.0631 -21.8744 30.2401 -22.32 30.2401ZM-15.5999 35.2799C-16.0455 35.2799 -16.4728 35.1029 -16.7879 34.7879C-17.1029 34.4728 -17.2799 34.0455 -17.2799 33.5999V16.8C-17.2799 15.8721 -16.5278 15.12 -15.5999 15.12C-14.672 15.12 -13.9199 15.8721 -13.9199 16.8V33.5999C-13.9199 34.0455 -14.0969 34.4728 -14.412 34.7879C-14.727 35.1029 -15.1544 35.2799 -15.5999 35.2799ZM11.2799 35.2799C10.8344 35.2799 10.4071 35.1029 10.092 34.7879C9.77693 34.4728 9.59993 34.0455 9.59993 33.5999V16.8C9.59993 15.8721 10.352 15.12 11.2799 15.12C12.2078 15.12 12.96 15.8721 12.96 16.8V33.5999C12.96 34.0455 12.783 34.4728 12.4679 34.7879C12.1528 35.1029 11.7255 35.2799 11.2799 35.2799ZM-8.88005 42C-9.32562 42 -9.75294 41.823 -10.068 41.5079C-10.3831 41.1929 -10.5601 40.7656 -10.5601 40.32V10.0801C-10.5601 9.15218 -9.80796 8.40007 -8.88005 8.40007C-7.95214 8.40007 -7.20004 9.15218 -7.20004 10.0801V40.3202C-7.20004 40.5408 -7.24349 40.7592 -7.32792 40.9631C-7.41235 41.1669 -7.53611 41.3521 -7.69211 41.5081C-7.84812 41.664 -8.03332 41.7878 -8.23715 41.8722C-8.44098 41.9566 -8.65944 42 -8.88005 42ZM18 42C17.5544 42 17.1271 41.823 16.812 41.5079C16.497 41.1929 16.32 40.7656 16.32 40.32V10.0801C16.32 9.63452 16.497 9.2072 16.812 8.89214C17.1271 8.57707 17.5544 8.40007 18 8.40007C18.4456 8.40007 18.8729 8.57707 19.188 8.89214C19.503 9.2072 19.68 9.63452 19.68 10.0801V40.3202C19.68 41.2479 18.9277 42 18 42ZM-2.15999 35.2799C-2.60556 35.2799 -3.03288 35.1029 -3.34794 34.7879C-3.66301 34.4728 -3.84001 34.0455 -3.84001 33.5999V16.8C-3.84001 15.8721 -3.0879 15.12 -2.15999 15.12C-1.23209 15.12 -0.47998 15.8721 -0.47998 16.8V33.5999C-0.47998 34.0455 -0.656979 34.4728 -0.972044 34.7879C-1.28711 35.1029 -1.71443 35.2799 -2.15999 35.2799ZM4.56006 30.2401C4.1145 30.2401 3.68718 30.0631 3.37211 29.748C3.05705 29.433 2.88005 29.0056 2.88005 28.5601V21.84C2.88005 20.9121 3.63216 20.16 4.56006 20.16C5.48797 20.16 6.24008 20.9121 6.24008 21.84V28.5601C6.24003 29.0056 6.06301 29.4329 5.74796 29.748C5.43291 30.063 5.00562 30.24 4.56006 30.2401ZM38.16 35.2799C37.7144 35.2799 37.2871 35.1029 36.9721 34.7878C36.657 34.4728 36.48 34.0455 36.48 33.5999V16.8C36.48 16.3544 36.657 15.9271 36.972 15.612C37.2871 15.297 37.7144 15.12 38.16 15.12C38.6056 15.12 39.0329 15.297 39.3479 15.612C39.663 15.9271 39.84 16.3544 39.84 16.8V33.5999C39.84 34.0455 39.663 34.4728 39.3479 34.7879C39.0329 35.1029 38.6056 35.2799 38.16 35.2799ZM31.4399 42C30.9944 42 30.5671 41.8229 30.252 41.5079C29.937 41.1928 29.76 40.7655 29.7599 40.32V10.0801C29.7599 9.63452 29.9369 9.2072 30.252 8.89214C30.567 8.57707 30.9944 8.40007 31.4399 8.40007C31.8855 8.40007 32.3128 8.57707 32.6279 8.89214C32.9429 9.2072 33.1199 9.63452 33.1199 10.0801V40.3202C33.1199 40.5408 33.0765 40.7592 32.9921 40.9631C32.9076 41.1669 32.7839 41.3521 32.6279 41.5081C32.4719 41.664 32.2867 41.7878 32.0828 41.8722C31.879 41.9566 31.6606 42 31.4399 42ZM24.7201 50.4001C24.2745 50.4 23.8472 50.223 23.5322 49.908C23.2171 49.5929 23.0401 49.1656 23.04 48.7201V1.68001C23.04 1.23445 23.217 0.807128 23.5321 0.492065C23.8472 0.177001 24.2745 0 24.7201 0C25.1656 0 25.5929 0.177001 25.908 0.492065C26.2231 0.807128 26.4001 1.23445 26.4001 1.68001V48.7201C26.4 49.1656 26.223 49.5929 25.908 49.908C25.5929 50.223 25.1656 50.4 24.7201 50.4001ZM44.8801 42C44.4345 42 44.0072 41.8229 43.6922 41.5079C43.3771 41.1928 43.2001 40.7655 43.2 40.32V10.0801C43.2 9.63452 43.377 9.2072 43.6921 8.89214C44.0072 8.57707 44.4345 8.40007 44.8801 8.40007C45.3256 8.40007 45.7529 8.57707 46.068 8.89214C46.3831 9.2072 46.5601 9.63452 46.5601 10.0801V40.3202C46.5601 41.2479 45.8078 42 44.8801 42ZM51.5999 35.2799C51.1544 35.2799 50.7271 35.1029 50.412 34.7878C50.097 34.4728 49.92 34.0455 49.9199 33.5999V16.8C49.9199 16.3544 50.0969 15.9271 50.412 15.612C50.727 15.297 51.1544 15.12 51.5999 15.12C52.0455 15.12 52.4728 15.297 52.7879 15.612C53.1029 15.9271 53.2799 16.3544 53.2799 16.8V33.5999C53.2799 34.0455 53.1029 34.4728 52.7879 34.7879C52.4728 35.1029 52.0455 35.2799 51.5999 35.2799ZM58.32 30.2401C57.8744 30.24 57.4471 30.063 57.1321 29.748C56.817 29.4329 56.64 29.0056 56.64 28.5601V21.84C56.64 21.3944 56.817 20.9671 57.132 20.6521C57.4471 20.337 57.8744 20.16 58.32 20.16C58.7656 20.16 59.1929 20.337 59.5079 20.6521C59.823 20.9671 60 21.3944 60 21.84V28.5601C60 29.0056 59.8229 29.4329 59.5079 29.748C59.1928 30.063 58.7655 30.24 58.32 30.2401Z" fill="url(#paint0_linear_333_1476)"/>
<path d="M59.68 30.2401C59.2344 30.2401 58.8071 30.0631 58.4921 29.748C58.177 29.433 58 29.0056 58 28.5601V21.84C58 20.9121 58.7521 20.16 59.68 20.16C60.6079 20.16 61.36 20.9121 61.36 21.84V28.5601C61.36 29.0056 61.183 29.433 60.868 29.748C60.5529 30.0631 60.1256 30.2401 59.68 30.2401ZM66.4001 35.2799C65.9545 35.2799 65.5272 35.1029 65.2121 34.7879C64.8971 34.4728 64.7201 34.0455 64.7201 33.5999V16.8C64.7201 15.8721 65.4722 15.12 66.4001 15.12C67.328 15.12 68.0801 15.8721 68.0801 16.8V33.5999C68.0801 34.0455 67.9031 34.4728 67.588 34.7879C67.273 35.1029 66.8456 35.2799 66.4001 35.2799ZM93.2799 35.2799C92.8344 35.2799 92.4071 35.1029 92.092 34.7879C91.7769 34.4728 91.5999 34.0455 91.5999 33.5999V16.8C91.5999 15.8721 92.352 15.12 93.2799 15.12C94.2078 15.12 94.96 15.8721 94.96 16.8V33.5999C94.96 34.0455 94.783 34.4728 94.4679 34.7879C94.1528 35.1029 93.7255 35.2799 93.2799 35.2799ZM73.12 42C72.6744 42 72.2471 41.823 71.932 41.5079C71.6169 41.1929 71.4399 40.7656 71.4399 40.32V10.0801C71.4399 9.15218 72.192 8.40007 73.12 8.40007C74.0479 8.40007 74.8 9.15218 74.8 10.0801V40.3202C74.8 40.5408 74.7565 40.7592 74.6721 40.9631C74.5876 41.1669 74.4639 41.3521 74.3079 41.5081C74.1519 41.664 73.9667 41.7878 73.7628 41.8722C73.559 41.9566 73.3406 42 73.12 42ZM100 42C99.5544 42 99.1271 41.823 98.812 41.5079C98.497 41.1929 98.32 40.7656 98.32 40.32V10.0801C98.32 9.63452 98.497 9.2072 98.812 8.89214C99.1271 8.57707 99.5544 8.40007 100 8.40007C100.446 8.40007 100.873 8.57707 101.188 8.89214C101.503 9.2072 101.68 9.63452 101.68 10.0801V40.3202C101.68 41.2479 100.928 42 100 42ZM79.84 35.2799C79.3944 35.2799 78.9671 35.1029 78.6521 34.7879C78.337 34.4728 78.16 34.0455 78.16 33.5999V16.8C78.16 15.8721 78.9121 15.12 79.84 15.12C80.7679 15.12 81.52 15.8721 81.52 16.8V33.5999C81.52 34.0455 81.343 34.4728 81.028 34.7879C80.7129 35.1029 80.2856 35.2799 79.84 35.2799ZM86.5601 30.2401C86.1145 30.2401 85.6872 30.0631 85.3721 29.748C85.0571 29.433 84.88 29.0056 84.88 28.5601V21.84C84.88 20.9121 85.6322 20.16 86.5601 20.16C87.488 20.16 88.2401 20.9121 88.2401 21.84V28.5601C88.24 29.0056 88.063 29.4329 87.748 29.748C87.4329 30.063 87.0056 30.24 86.5601 30.2401ZM120.16 35.2799C119.714 35.2799 119.287 35.1029 118.972 34.7878C118.657 34.4728 118.48 34.0455 118.48 33.5999V16.8C118.48 16.3544 118.657 15.9271 118.972 15.612C119.287 15.297 119.714 15.12 120.16 15.12C120.606 15.12 121.033 15.297 121.348 15.612C121.663 15.9271 121.84 16.3544 121.84 16.8V33.5999C121.84 34.0455 121.663 34.4728 121.348 34.7879C121.033 35.1029 120.606 35.2799 120.16 35.2799ZM113.44 42C112.994 42 112.567 41.8229 112.252 41.5079C111.937 41.1928 111.76 40.7655 111.76 40.32V10.0801C111.76 9.63452 111.937 9.2072 112.252 8.89214C112.567 8.57707 112.994 8.40007 113.44 8.40007C113.886 8.40007 114.313 8.57707 114.628 8.89214C114.943 9.2072 115.12 9.63452 115.12 10.0801V40.3202C115.12 40.5408 115.076 40.7592 114.992 40.9631C114.908 41.1669 114.784 41.3521 114.628 41.5081C114.472 41.664 114.287 41.7878 114.083 41.8722C113.879 41.9566 113.661 42 113.44 42ZM106.72 50.4001C106.275 50.4 105.847 50.223 105.532 49.908C105.217 49.5929 105.04 49.1656 105.04 48.7201V1.68001C105.04 1.23445 105.217 0.807128 105.532 0.492065C105.847 0.177001 106.274 0 106.72 0C107.166 0 107.593 0.177001 107.908 0.492065C108.223 0.807128 108.4 1.23445 108.4 1.68001V48.7201C108.4 49.1656 108.223 49.5929 107.908 49.908C107.593 50.223 107.166 50.4 106.72 50.4001ZM126.88 42C126.435 42 126.007 41.8229 125.692 41.5079C125.377 41.1928 125.2 40.7655 125.2 40.32V10.0801C125.2 9.63452 125.377 9.2072 125.692 8.89214C126.007 8.57707 126.434 8.40007 126.88 8.40007C127.326 8.40007 127.753 8.57707 128.068 8.89214C128.383 9.2072 128.56 9.63452 128.56 10.0801V40.3202C128.56 41.2479 127.808 42 126.88 42ZM133.6 35.2799C133.154 35.2799 132.727 35.1029 132.412 34.7878C132.097 34.4728 131.92 34.0455 131.92 33.5999V16.8C131.92 16.3544 132.097 15.9271 132.412 15.612C132.727 15.297 133.154 15.12 133.6 15.12C134.045 15.12 134.473 15.297 134.788 15.612C135.103 15.9271 135.28 16.3544 135.28 16.8V33.5999C135.28 34.0455 135.103 34.4728 134.788 34.7879C134.473 35.1029 134.045 35.2799 133.6 35.2799ZM140.32 30.2401C139.874 30.24 139.447 30.063 139.132 29.748C138.817 29.4329 138.64 29.0056 138.64 28.5601V21.84C138.64 21.3944 138.817 20.9671 139.132 20.6521C139.447 20.337 139.874 20.16 140.32 20.16C140.766 20.16 141.193 20.337 141.508 20.6521C141.823 20.9671 142 21.3944 142 21.84V28.5601C142 29.0056 141.823 29.4329 141.508 29.748C141.193 30.063 140.766 30.24 140.32 30.2401Z" fill="url(#paint1_linear_333_1476)"/>
<path d="M140.68 30.2401C140.234 30.2401 139.807 30.0631 139.492 29.748C139.177 29.433 139 29.0056 139 28.5601V21.84C139 20.9121 139.752 20.16 140.68 20.16C141.608 20.16 142.36 20.9121 142.36 21.84V28.5601C142.36 29.0056 142.183 29.433 141.868 29.748C141.553 30.0631 141.126 30.2401 140.68 30.2401ZM147.4 35.2799C146.955 35.2799 146.527 35.1029 146.212 34.7879C145.897 34.4728 145.72 34.0455 145.72 33.5999V16.8C145.72 15.8721 146.472 15.12 147.4 15.12C148.328 15.12 149.08 15.8721 149.08 16.8V33.5999C149.08 34.0455 148.903 34.4728 148.588 34.7879C148.273 35.1029 147.846 35.2799 147.4 35.2799ZM174.28 35.2799C173.834 35.2799 173.407 35.1029 173.092 34.7879C172.777 34.4728 172.6 34.0455 172.6 33.5999V16.8C172.6 15.8721 173.352 15.12 174.28 15.12C175.208 15.12 175.96 15.8721 175.96 16.8V33.5999C175.96 34.0455 175.783 34.4728 175.468 34.7879C175.153 35.1029 174.726 35.2799 174.28 35.2799ZM154.12 42C153.674 42 153.247 41.823 152.932 41.5079C152.617 41.1929 152.44 40.7656 152.44 40.32V10.0801C152.44 9.15218 153.192 8.40007 154.12 8.40007C155.048 8.40007 155.8 9.15218 155.8 10.0801V40.3202C155.8 40.5408 155.757 40.7592 155.672 40.9631C155.588 41.1669 155.464 41.3521 155.308 41.5081C155.152 41.664 154.967 41.7878 154.763 41.8722C154.559 41.9566 154.341 42 154.12 42ZM181 42C180.554 42 180.127 41.823 179.812 41.5079C179.497 41.1929 179.32 40.7656 179.32 40.32V10.0801C179.32 9.63452 179.497 9.2072 179.812 8.89214C180.127 8.57707 180.554 8.40007 181 8.40007C181.446 8.40007 181.873 8.57707 182.188 8.89214C182.503 9.2072 182.68 9.63452 182.68 10.0801V40.3202C182.68 41.2479 181.928 42 181 42ZM160.84 35.2799C160.394 35.2799 159.967 35.1029 159.652 34.7879C159.337 34.4728 159.16 34.0455 159.16 33.5999V16.8C159.16 15.8721 159.912 15.12 160.84 15.12C161.768 15.12 162.52 15.8721 162.52 16.8V33.5999C162.52 34.0455 162.343 34.4728 162.028 34.7879C161.713 35.1029 161.286 35.2799 160.84 35.2799ZM167.56 30.2401C167.114 30.2401 166.687 30.0631 166.372 29.748C166.057 29.433 165.88 29.0056 165.88 28.5601V21.84C165.88 20.9121 166.632 20.16 167.56 20.16C168.488 20.16 169.24 20.9121 169.24 21.84V28.5601C169.24 29.0056 169.063 29.4329 168.748 29.748C168.433 30.063 168.006 30.24 167.56 30.2401ZM201.16 35.2799C200.714 35.2799 200.287 35.1029 199.972 34.7878C199.657 34.4728 199.48 34.0455 199.48 33.5999V16.8C199.48 16.3544 199.657 15.9271 199.972 15.612C200.287 15.297 200.714 15.12 201.16 15.12C201.606 15.12 202.033 15.297 202.348 15.612C202.663 15.9271 202.84 16.3544 202.84 16.8V33.5999C202.84 34.0455 202.663 34.4728 202.348 34.7879C202.033 35.1029 201.606 35.2799 201.16 35.2799ZM194.44 42C193.994 42 193.567 41.8229 193.252 41.5079C192.937 41.1928 192.76 40.7655 192.76 40.32V10.0801C192.76 9.63452 192.937 9.2072 193.252 8.89214C193.567 8.57707 193.994 8.40007 194.44 8.40007C194.886 8.40007 195.313 8.57707 195.628 8.89214C195.943 9.2072 196.12 9.63452 196.12 10.0801V40.3202C196.12 40.5408 196.076 40.7592 195.992 40.9631C195.908 41.1669 195.784 41.3521 195.628 41.5081C195.472 41.664 195.287 41.7878 195.083 41.8722C194.879 41.9566 194.661 42 194.44 42ZM187.72 50.4001C187.275 50.4 186.847 50.223 186.532 49.908C186.217 49.5929 186.04 49.1656 186.04 48.7201V1.68001C186.04 1.23445 186.217 0.807128 186.532 0.492065C186.847 0.177001 187.274 0 187.72 0C188.166 0 188.593 0.177001 188.908 0.492065C189.223 0.807128 189.4 1.23445 189.4 1.68001V48.7201C189.4 49.1656 189.223 49.5929 188.908 49.908C188.593 50.223 188.166 50.4 187.72 50.4001ZM207.88 42C207.435 42 207.007 41.8229 206.692 41.5079C206.377 41.1928 206.2 40.7655 206.2 40.32V10.0801C206.2 9.63452 206.377 9.2072 206.692 8.89214C207.007 8.57707 207.434 8.40007 207.88 8.40007C208.326 8.40007 208.753 8.57707 209.068 8.89214C209.383 9.2072 209.56 9.63452 209.56 10.0801V40.3202C209.56 41.2479 208.808 42 207.88 42ZM214.6 35.2799C214.154 35.2799 213.727 35.1029 213.412 34.7878C213.097 34.4728 212.92 34.0455 212.92 33.5999V16.8C212.92 16.3544 213.097 15.9271 213.412 15.612C213.727 15.297 214.154 15.12 214.6 15.12C215.045 15.12 215.473 15.297 215.788 15.612C216.103 15.9271 216.28 16.3544 216.28 16.8V33.5999C216.28 34.0455 216.103 34.4728 215.788 34.7879C215.473 35.1029 215.045 35.2799 214.6 35.2799ZM221.32 30.2401C220.874 30.24 220.447 30.063 220.132 29.748C219.817 29.4329 219.64 29.0056 219.64 28.5601V21.84C219.64 21.3944 219.817 20.9671 220.132 20.6521C220.447 20.337 220.874 20.16 221.32 20.16C221.766 20.16 222.193 20.337 222.508 20.6521C222.823 20.9671 223 21.3944 223 21.84V28.5601C223 29.0056 222.823 29.4329 222.508 29.748C222.193 30.063 221.766 30.24 221.32 30.2401Z" fill="url(#paint2_linear_333_1476)"/>
<path d="M221.68 30.2401C221.234 30.2401 220.807 30.0631 220.492 29.748C220.177 29.433 220 29.0056 220 28.5601V21.84C220 20.9121 220.752 20.16 221.68 20.16C222.608 20.16 223.36 20.9121 223.36 21.84V28.5601C223.36 29.0056 223.183 29.433 222.868 29.748C222.553 30.0631 222.126 30.2401 221.68 30.2401ZM228.4 35.2799C227.955 35.2799 227.527 35.1029 227.212 34.7879C226.897 34.4728 226.72 34.0455 226.72 33.5999V16.8C226.72 15.8721 227.472 15.12 228.4 15.12C229.328 15.12 230.08 15.8721 230.08 16.8V33.5999C230.08 34.0455 229.903 34.4728 229.588 34.7879C229.273 35.1029 228.846 35.2799 228.4 35.2799ZM255.28 35.2799C254.834 35.2799 254.407 35.1029 254.092 34.7879C253.777 34.4728 253.6 34.0455 253.6 33.5999V16.8C253.6 15.8721 254.352 15.12 255.28 15.12C256.208 15.12 256.96 15.8721 256.96 16.8V33.5999C256.96 34.0455 256.783 34.4728 256.468 34.7879C256.153 35.1029 255.726 35.2799 255.28 35.2799ZM235.12 42C234.674 42 234.247 41.823 233.932 41.5079C233.617 41.1929 233.44 40.7656 233.44 40.32V10.0801C233.44 9.15218 234.192 8.40007 235.12 8.40007C236.048 8.40007 236.8 9.15218 236.8 10.0801V40.3202C236.8 40.5408 236.757 40.7592 236.672 40.9631C236.588 41.1669 236.464 41.3521 236.308 41.5081C236.152 41.664 235.967 41.7878 235.763 41.8722C235.559 41.9566 235.341 42 235.12 42ZM262 42C261.554 42 261.127 41.823 260.812 41.5079C260.497 41.1929 260.32 40.7656 260.32 40.32V10.0801C260.32 9.63452 260.497 9.2072 260.812 8.89214C261.127 8.57707 261.554 8.40007 262 8.40007C262.446 8.40007 262.873 8.57707 263.188 8.89214C263.503 9.2072 263.68 9.63452 263.68 10.0801V40.3202C263.68 41.2479 262.928 42 262 42ZM241.84 35.2799C241.394 35.2799 240.967 35.1029 240.652 34.7879C240.337 34.4728 240.16 34.0455 240.16 33.5999V16.8C240.16 15.8721 240.912 15.12 241.84 15.12C242.768 15.12 243.52 15.8721 243.52 16.8V33.5999C243.52 34.0455 243.343 34.4728 243.028 34.7879C242.713 35.1029 242.286 35.2799 241.84 35.2799ZM248.56 30.2401C248.114 30.2401 247.687 30.0631 247.372 29.748C247.057 29.433 246.88 29.0056 246.88 28.5601V21.84C246.88 20.9121 247.632 20.16 248.56 20.16C249.488 20.16 250.24 20.9121 250.24 21.84V28.5601C250.24 29.0056 250.063 29.4329 249.748 29.748C249.433 30.063 249.006 30.24 248.56 30.2401ZM282.16 35.2799C281.714 35.2799 281.287 35.1029 280.972 34.7878C280.657 34.4728 280.48 34.0455 280.48 33.5999V16.8C280.48 16.3544 280.657 15.9271 280.972 15.612C281.287 15.297 281.714 15.12 282.16 15.12C282.606 15.12 283.033 15.297 283.348 15.612C283.663 15.9271 283.84 16.3544 283.84 16.8V33.5999C283.84 34.0455 283.663 34.4728 283.348 34.7879C283.033 35.1029 282.606 35.2799 282.16 35.2799ZM275.44 42C274.994 42 274.567 41.8229 274.252 41.5079C273.937 41.1928 273.76 40.7655 273.76 40.32V10.0801C273.76 9.63452 273.937 9.2072 274.252 8.89214C274.567 8.57707 274.994 8.40007 275.44 8.40007C275.886 8.40007 276.313 8.57707 276.628 8.89214C276.943 9.2072 277.12 9.63452 277.12 10.0801V40.3202C277.12 40.5408 277.076 40.7592 276.992 40.9631C276.908 41.1669 276.784 41.3521 276.628 41.5081C276.472 41.664 276.287 41.7878 276.083 41.8722C275.879 41.9566 275.661 42 275.44 42ZM268.72 50.4001C268.275 50.4 267.847 50.223 267.532 49.908C267.217 49.5929 267.04 49.1656 267.04 48.7201V1.68001C267.04 1.23445 267.217 0.807128 267.532 0.492065C267.847 0.177001 268.274 0 268.72 0C269.166 0 269.593 0.177001 269.908 0.492065C270.223 0.807128 270.4 1.23445 270.4 1.68001V48.7201C270.4 49.1656 270.223 49.5929 269.908 49.908C269.593 50.223 269.166 50.4 268.72 50.4001ZM288.88 42C288.435 42 288.007 41.8229 287.692 41.5079C287.377 41.1928 287.2 40.7655 287.2 40.32V10.0801C287.2 9.63452 287.377 9.2072 287.692 8.89214C288.007 8.57707 288.434 8.40007 288.88 8.40007C289.326 8.40007 289.753 8.57707 290.068 8.89214C290.383 9.2072 290.56 9.63452 290.56 10.0801V40.3202C290.56 41.2479 289.808 42 288.88 42ZM295.6 35.2799C295.154 35.2799 294.727 35.1029 294.412 34.7878C294.097 34.4728 293.92 34.0455 293.92 33.5999V16.8C293.92 16.3544 294.097 15.9271 294.412 15.612C294.727 15.297 295.154 15.12 295.6 15.12C296.045 15.12 296.473 15.297 296.788 15.612C297.103 15.9271 297.28 16.3544 297.28 16.8V33.5999C297.28 34.0455 297.103 34.4728 296.788 34.7879C296.473 35.1029 296.045 35.2799 295.6 35.2799ZM302.32 30.2401C301.874 30.24 301.447 30.063 301.132 29.748C300.817 29.4329 300.64 29.0056 300.64 28.5601V21.84C300.64 21.3944 300.817 20.9671 301.132 20.6521C301.447 20.337 301.874 20.16 302.32 20.16C302.766 20.16 303.193 20.337 303.508 20.6521C303.823 20.9671 304 21.3944 304 21.84V28.5601C304 29.0056 303.823 29.4329 303.508 29.748C303.193 30.063 302.766 30.24 302.32 30.2401Z" fill="url(#paint3_linear_333_1476)"/>
<path d="M302.68 30.2401C302.234 30.2401 301.807 30.0631 301.492 29.748C301.177 29.433 301 29.0056 301 28.5601V21.84C301 20.9121 301.752 20.16 302.68 20.16C303.608 20.16 304.36 20.9121 304.36 21.84V28.5601C304.36 29.0056 304.183 29.433 303.868 29.748C303.553 30.0631 303.126 30.2401 302.68 30.2401ZM309.4 35.2799C308.955 35.2799 308.527 35.1029 308.212 34.7879C307.897 34.4728 307.72 34.0455 307.72 33.5999V16.8C307.72 15.8721 308.472 15.12 309.4 15.12C310.328 15.12 311.08 15.8721 311.08 16.8V33.5999C311.08 34.0455 310.903 34.4728 310.588 34.7879C310.273 35.1029 309.846 35.2799 309.4 35.2799ZM336.28 35.2799C335.834 35.2799 335.407 35.1029 335.092 34.7879C334.777 34.4728 334.6 34.0455 334.6 33.5999V16.8C334.6 15.8721 335.352 15.12 336.28 15.12C337.208 15.12 337.96 15.8721 337.96 16.8V33.5999C337.96 34.0455 337.783 34.4728 337.468 34.7879C337.153 35.1029 336.726 35.2799 336.28 35.2799ZM316.12 42C315.674 42 315.247 41.823 314.932 41.5079C314.617 41.1929 314.44 40.7656 314.44 40.32V10.0801C314.44 9.15218 315.192 8.40007 316.12 8.40007C317.048 8.40007 317.8 9.15218 317.8 10.0801V40.3202C317.8 40.5408 317.757 40.7592 317.672 40.9631C317.588 41.1669 317.464 41.3521 317.308 41.5081C317.152 41.664 316.967 41.7878 316.763 41.8722C316.559 41.9566 316.341 42 316.12 42ZM343 42C342.554 42 342.127 41.823 341.812 41.5079C341.497 41.1929 341.32 40.7656 341.32 40.32V10.0801C341.32 9.63452 341.497 9.2072 341.812 8.89214C342.127 8.57707 342.554 8.40007 343 8.40007C343.446 8.40007 343.873 8.57707 344.188 8.89214C344.503 9.2072 344.68 9.63452 344.68 10.0801V40.3202C344.68 41.2479 343.928 42 343 42ZM322.84 35.2799C322.394 35.2799 321.967 35.1029 321.652 34.7879C321.337 34.4728 321.16 34.0455 321.16 33.5999V16.8C321.16 15.8721 321.912 15.12 322.84 15.12C323.768 15.12 324.52 15.8721 324.52 16.8V33.5999C324.52 34.0455 324.343 34.4728 324.028 34.7879C323.713 35.1029 323.286 35.2799 322.84 35.2799ZM329.56 30.2401C329.114 30.2401 328.687 30.0631 328.372 29.748C328.057 29.433 327.88 29.0056 327.88 28.5601V21.84C327.88 20.9121 328.632 20.16 329.56 20.16C330.488 20.16 331.24 20.9121 331.24 21.84V28.5601C331.24 29.0056 331.063 29.4329 330.748 29.748C330.433 30.063 330.006 30.24 329.56 30.2401ZM363.16 35.2799C362.714 35.2799 362.287 35.1029 361.972 34.7878C361.657 34.4728 361.48 34.0455 361.48 33.5999V16.8C361.48 16.3544 361.657 15.9271 361.972 15.612C362.287 15.297 362.714 15.12 363.16 15.12C363.606 15.12 364.033 15.297 364.348 15.612C364.663 15.9271 364.84 16.3544 364.84 16.8V33.5999C364.84 34.0455 364.663 34.4728 364.348 34.7879C364.033 35.1029 363.606 35.2799 363.16 35.2799ZM356.44 42C355.994 42 355.567 41.8229 355.252 41.5079C354.937 41.1928 354.76 40.7655 354.76 40.32V10.0801C354.76 9.63452 354.937 9.2072 355.252 8.89214C355.567 8.57707 355.994 8.40007 356.44 8.40007C356.886 8.40007 357.313 8.57707 357.628 8.89214C357.943 9.2072 358.12 9.63452 358.12 10.0801V40.3202C358.12 40.5408 358.076 40.7592 357.992 40.9631C357.908 41.1669 357.784 41.3521 357.628 41.5081C357.472 41.664 357.287 41.7878 357.083 41.8722C356.879 41.9566 356.661 42 356.44 42ZM349.72 50.4001C349.275 50.4 348.847 50.223 348.532 49.908C348.217 49.5929 348.04 49.1656 348.04 48.7201V1.68001C348.04 1.23445 348.217 0.807128 348.532 0.492065C348.847 0.177001 349.274 0 349.72 0C350.166 0 350.593 0.177001 350.908 0.492065C351.223 0.807128 351.4 1.23445 351.4 1.68001V48.7201C351.4 49.1656 351.223 49.5929 350.908 49.908C350.593 50.223 350.166 50.4 349.72 50.4001ZM369.88 42C369.435 42 369.007 41.8229 368.692 41.5079C368.377 41.1928 368.2 40.7655 368.2 40.32V10.0801C368.2 9.63452 368.377 9.2072 368.692 8.89214C369.007 8.57707 369.434 8.40007 369.88 8.40007C370.326 8.40007 370.753 8.57707 371.068 8.89214C371.383 9.2072 371.56 9.63452 371.56 10.0801V40.3202C371.56 41.2479 370.808 42 369.88 42ZM376.6 35.2799C376.154 35.2799 375.727 35.1029 375.412 34.7878C375.097 34.4728 374.92 34.0455 374.92 33.5999V16.8C374.92 16.3544 375.097 15.9271 375.412 15.612C375.727 15.297 376.154 15.12 376.6 15.12C377.045 15.12 377.473 15.297 377.788 15.612C378.103 15.9271 378.28 16.3544 378.28 16.8V33.5999C378.28 34.0455 378.103 34.4728 377.788 34.7879C377.473 35.1029 377.045 35.2799 376.6 35.2799ZM383.32 30.2401C382.874 30.24 382.447 30.063 382.132 29.748C381.817 29.4329 381.64 29.0056 381.64 28.5601V21.84C381.64 21.3944 381.817 20.9671 382.132 20.6521C382.447 20.337 382.874 20.16 383.32 20.16C383.766 20.16 384.193 20.337 384.508 20.6521C384.823 20.9671 385 21.3944 385 21.84V28.5601C385 29.0056 384.823 29.4329 384.508 29.748C384.193 30.063 383.766 30.24 383.32 30.2401Z" fill="url(#paint4_linear_333_1476)"/>
<defs>
<linearGradient id="paint0_linear_333_1476" x1="50.5526" y1="21.7001" x2="-25.4382" y2="21.658" gradientUnits="userSpaceOnUse">
<stop stop-color="#00467E"/>
<stop offset="1" stop-color="#00457C" stop-opacity="0"/>
</linearGradient>
<linearGradient id="paint1_linear_333_1476" x1="132.553" y1="21.7001" x2="56.5618" y2="21.658" gradientUnits="userSpaceOnUse">
<stop stop-color="#00467E"/>
<stop offset="1" stop-color="#00457C" stop-opacity="0"/>
</linearGradient>
<linearGradient id="paint2_linear_333_1476" x1="213.553" y1="21.7001" x2="137.562" y2="21.658" gradientUnits="userSpaceOnUse">
<stop stop-color="#00467E"/>
<stop offset="1" stop-color="#00457C" stop-opacity="0"/>
</linearGradient>
<linearGradient id="paint3_linear_333_1476" x1="294.553" y1="21.7001" x2="218.562" y2="21.658" gradientUnits="userSpaceOnUse">
<stop stop-color="#00467E"/>
<stop offset="1" stop-color="#00457C" stop-opacity="0"/>
</linearGradient>
<linearGradient id="paint4_linear_333_1476" x1="375.553" y1="21.7001" x2="299.562" y2="21.658" gradientUnits="userSpaceOnUse">
<stop stop-color="#00467E"/>
<stop offset="1" stop-color="#00457C" stop-opacity="0"/>
</linearGradient>
</defs>
</svg>
