<svg width="235" height="185" viewBox="0 0 235 185" fill="none" xmlns="http://www.w3.org/2000/svg">
<g clip-path="url(#clip0_301_1354)">
<path d="M109.61 119.21C110.265 118.239 110.991 117.316 111.78 116.45C111.93 116.832 112.008 117.239 112.01 117.65C111.951 118.656 111.717 119.644 111.32 120.57C109.621 125.41 108.572 130.454 108.2 135.57C106.057 134.757 103.728 134.563 101.48 135.01C103.532 129.43 106.263 124.124 109.61 119.21Z" fill="url(#paint0_linear_301_1354)"/>
<path d="M108.2 135.58C108.718 135.772 109.223 135.999 109.71 136.26C112.438 137.783 114.486 140.285 115.44 143.26C113.05 147.63 109.83 151.64 107.2 155.81C106.917 156.32 106.552 156.779 106.12 157.17C105.904 157.367 105.645 157.509 105.363 157.586C105.081 157.662 104.786 157.67 104.5 157.61C103.94 157.45 103.8 157.27 103.73 156.69C103.571 155.178 103.728 153.649 104.19 152.2C104.84 150.2 107.82 148.59 107.47 146.2C107.25 144.69 104.53 145.08 103.52 145.58H103.42C102.09 146.441 100.877 147.469 99.81 148.64C99.4951 148.941 99.1611 149.222 98.81 149.48C97.3658 150.601 95.7289 151.448 93.98 151.98C93.1292 152.307 92.2015 152.38 91.31 152.19C90.8982 152.04 90.5513 151.751 90.3287 151.374C90.1062 150.996 90.0218 150.553 90.09 150.12C95.0295 146.923 98.8091 142.221 100.87 136.71C101.07 136.14 101.27 135.58 101.49 135.02C103.735 134.575 106.06 134.769 108.2 135.58Z" fill="url(#paint1_linear_301_1354)"/>
<path d="M103.42 145.59C102.83 148.23 102.24 150.88 101.66 153.52C101.52 154.12 101.3 154.82 100.71 154.96C100.512 154.996 100.308 154.979 100.12 154.908C99.9311 154.838 99.7654 154.717 99.64 154.56C99.3981 154.24 99.2276 153.871 99.14 153.48C98.7931 152.177 98.6747 150.823 98.79 149.48C99.1411 149.222 99.4751 148.941 99.79 148.64C100.864 147.471 102.084 146.446 103.42 145.59Z" fill="#1C2243"/>
<path d="M120.64 119.55C120.761 122.043 120.668 124.542 120.36 127.02C119.851 131.268 118.806 135.434 117.25 139.42C116.728 140.734 116.124 142.013 115.44 143.25C114.486 140.275 112.438 137.773 109.71 136.25C109.223 135.989 108.718 135.761 108.2 135.57C108.572 130.454 109.621 125.41 111.32 120.57C111.717 119.644 111.951 118.656 112.01 117.65C112.008 117.239 111.93 116.832 111.78 116.45C112.265 115.928 112.801 115.455 113.38 115.04C114.76 114.04 117.28 112.99 118.78 114.1C120.28 115.21 120.56 117.85 120.64 119.55Z" fill="#7EB2DB"/>
<path d="M136.06 158.25C138.54 166.73 138.49 175.03 138.27 183.35C136.45 183.7 134.61 183.95 132.74 184.12C133.056 178.912 132.982 173.687 132.52 168.49C132.418 165.909 131.817 163.372 130.75 161.02C129.24 158.02 126.57 155.72 123.84 153.61C124.454 152.874 125.192 152.252 126.02 151.77C126.908 151.28 127.906 151.022 128.92 151.022C129.934 151.022 130.932 151.28 131.82 151.77C134.17 153.06 135.35 155.8 136.06 158.25Z" fill="#7EB2DB"/>
<path d="M130.75 161.02C131.817 163.372 132.418 165.909 132.52 168.49C132.982 173.687 133.056 178.912 132.74 184.12C131.21 184.26 129.68 184.35 128.13 184.38C127.924 175.273 125.357 166.376 120.68 158.56C121.17 157.56 121.68 156.67 122.28 155.77C122.747 155.013 123.269 154.291 123.84 153.61C126.57 155.72 129.24 158.05 130.75 161.02Z" fill="url(#paint2_linear_301_1354)"/>
<path d="M120.68 158.56C125.357 166.376 127.924 175.273 128.13 184.38C123.686 184.46 119.246 184.109 114.87 183.33C114.825 174.73 116.816 166.242 120.68 158.56Z" fill="#FFC761"/>
<path style="mix-blend-mode:screen" d="M123.32 156.36C119.511 161.49 117.199 167.575 116.64 173.94C119.53 175.85 123.53 175.73 125.77 173.94C128.01 172.15 128.85 168.94 128.39 165.79C127.93 162.64 125.43 159.1 123.32 156.36Z" fill="url(#paint3_linear_301_1354)"/>
<path d="M147.2 105.29C158.32 110.35 166.57 122.89 164.91 134.2C164.01 139.939 161.135 145.184 156.78 149.03C151.07 154.21 143.43 158.13 134.62 156.12C133.539 155.868 132.48 155.533 131.45 155.12C134.062 155.736 136.784 155.724 139.391 155.086C141.998 154.448 144.417 153.202 146.45 151.45C151.53 146.92 153.74 139.65 154.22 132.2C154.55 126.98 154.01 121.2 150.92 116.34C147.09 110.26 139.99 106.78 133.48 106.04C130.392 105.713 127.274 105.803 124.21 106.31C127.657 104.246 131.563 103.072 135.576 102.894C139.59 102.716 143.584 103.539 147.2 105.29Z" fill="#7EB2DB"/>
<path d="M150.87 116.36C153.96 121.25 154.5 127 154.17 132.22C153.69 139.67 151.48 146.94 146.4 151.47C144.367 153.222 141.948 154.469 139.341 155.106C136.734 155.744 134.012 155.756 131.4 155.14C124.806 152.446 119.377 147.509 116.07 141.2C112.53 134.543 111.74 126.763 113.87 119.53C115.599 114.029 119.261 109.34 124.18 106.33C127.244 105.824 130.362 105.733 133.45 106.06C139.95 106.8 147.05 110.28 150.87 116.36ZM134.02 125.69C134.432 124.055 134.474 122.348 134.144 120.694C133.813 119.041 133.119 117.481 132.11 116.13C131.486 115.245 130.668 114.515 129.718 113.995C128.768 113.475 127.712 113.179 126.63 113.13C126.578 110.869 126.885 108.614 127.54 106.45C126.05 108.476 125.085 110.84 124.73 113.33C121.42 114.16 118.94 117.33 117.93 120.23C117.691 120.909 117.533 121.614 117.46 122.33C117.273 124.719 117.987 127.09 119.46 128.98C120.549 130.417 122.143 131.386 123.92 131.69C124.23 131.69 124.55 131.77 124.87 131.79C125.256 139.587 128.237 147.032 133.34 152.94C129.117 146.647 126.865 139.239 126.87 131.66C128.489 131.398 130.008 130.705 131.267 129.655C132.527 128.605 133.481 127.235 134.03 125.69H134.02Z" fill="url(#paint4_linear_301_1354)"/>
<path d="M132.12 116.13C133.129 117.481 133.823 119.041 134.154 120.694C134.484 122.348 134.442 124.055 134.03 125.69C133.482 127.246 132.524 128.626 131.257 129.682C129.989 130.738 128.46 131.432 126.83 131.69C126.833 139.259 129.089 146.657 133.31 152.94C128.22 147.031 125.249 139.59 124.87 131.8C124.55 131.8 124.23 131.75 123.92 131.7C122.143 131.396 120.549 130.427 119.46 128.99C117.987 127.101 117.273 124.729 117.46 122.34C117.533 121.624 117.691 120.919 117.93 120.24C118.93 117.33 121.42 114.17 124.73 113.34C125.085 110.85 126.05 108.486 127.54 106.46C126.885 108.624 126.578 110.879 126.63 113.14C127.713 113.186 128.77 113.48 129.722 113.998C130.673 114.516 131.494 115.246 132.12 116.13ZM133.48 123.63C133.569 122.656 133.504 121.674 133.29 120.72L133.23 120.42C133.23 120.32 133.17 120.22 133.15 120.12C133.128 120.029 133.101 119.939 133.07 119.85C133.01 119.643 132.94 119.433 132.86 119.22C132.86 119.22 132.86 119.14 132.81 119.08C132.767 118.954 132.717 118.83 132.66 118.71C132.55 118.46 132.43 118.21 132.3 117.97C132.182 117.746 132.052 117.529 131.91 117.32C131.558 116.772 131.131 116.278 130.64 115.85L130.35 115.61C129.411 114.875 128.242 114.496 127.05 114.54C123.6 114.65 120.86 117.88 119.81 120.91C119.604 121.489 119.467 122.089 119.4 122.7C119.12 125.82 120.88 129.7 124.4 130.23C125.778 130.448 127.19 130.296 128.49 129.79C128.942 129.614 129.38 129.404 129.8 129.16C130.151 128.949 130.485 128.712 130.8 128.45C131.923 127.568 132.761 126.375 133.21 125.02C133.272 124.833 133.322 124.643 133.36 124.45C133.421 124.18 133.461 123.906 133.48 123.63Z" fill="#7EB2DB"/>
<path d="M133.29 120.72C133.504 121.674 133.569 122.656 133.48 123.63C133.461 123.906 133.421 124.18 133.36 124.45C133.322 124.643 133.272 124.833 133.21 125.02C132.761 126.375 131.923 127.568 130.8 128.45C130.485 128.712 130.151 128.949 129.8 129.16C129.38 129.404 128.942 129.614 128.49 129.79C127.378 130.214 126.187 130.389 125 130.3C124.061 129.506 123.328 128.497 122.864 127.357C122.401 126.218 122.221 124.984 122.34 123.76C122.402 123.148 122.54 122.547 122.75 121.97C123.75 118.97 126.54 115.71 129.99 115.6H130.37L130.66 115.84C131.151 116.267 131.578 116.762 131.93 117.31C132.07 117.52 132.2 117.74 132.32 117.96C132.44 118.18 132.57 118.45 132.68 118.7C132.737 118.82 132.787 118.944 132.83 119.07C132.83 119.13 132.83 119.17 132.88 119.21C132.96 119.423 133.03 119.633 133.09 119.84C133.121 119.928 133.148 120.019 133.17 120.11C133.17 120.21 133.23 120.31 133.25 120.41L133.29 120.72Z" fill="#CFEAE4"/>
<path d="M130.35 115.61H129.97C126.52 115.72 123.78 118.96 122.73 121.98C122.52 122.557 122.382 123.159 122.32 123.77C122.201 124.994 122.381 126.228 122.844 127.368C123.308 128.507 124.041 129.516 124.98 130.31C126.167 130.399 127.358 130.225 128.47 129.8C127.17 130.306 125.758 130.458 124.38 130.24C120.88 129.67 119.12 125.83 119.38 122.71C119.447 122.099 119.584 121.499 119.79 120.92C120.84 117.92 123.58 114.66 127.03 114.55C128.227 114.498 129.404 114.874 130.35 115.61Z" fill="#578AB4"/>
<path d="M132.2 123.09C132.031 123.655 131.733 124.172 131.328 124.601C130.923 125.03 130.424 125.358 129.87 125.56C129.25 125.741 128.595 125.771 127.961 125.65C127.326 125.528 126.73 125.257 126.22 124.86C125.671 124.457 125.23 123.925 124.935 123.311C124.64 122.697 124.501 122.02 124.53 121.34C124.072 122.623 123.979 124.007 124.26 125.34C124.478 126.007 124.83 126.622 125.294 127.149C125.758 127.675 126.325 128.101 126.96 128.4C127.649 128.666 128.402 128.713 129.118 128.534C129.834 128.354 130.478 127.959 130.96 127.4C131.92 126.35 131.87 124.57 132.2 123.09Z" fill="#ACDDD7"/>
<path d="M129.26 122.57C130.32 122.25 131.49 121.46 131.16 120.06C130.974 119.479 130.595 118.979 130.085 118.642C129.576 118.306 128.968 118.154 128.36 118.21C125.87 118.59 126.12 123.54 129.26 122.57Z" fill="#EDF7F7"/>
<path style="mix-blend-mode:screen" d="M141.69 114.53C142.283 115.492 142.661 116.571 142.797 117.693C142.933 118.816 142.825 119.954 142.48 121.03C141.776 122.951 140.608 124.669 139.08 126.03C135.645 129.39 131.46 131.886 126.87 133.31C126.87 132.76 126.87 132.21 126.87 131.66C128.5 131.402 130.029 130.708 131.297 129.652C132.564 128.596 133.522 127.216 134.07 125.66C134.482 124.025 134.524 122.318 134.194 120.665C133.863 119.011 133.169 117.452 132.16 116.1C131.536 115.215 130.718 114.485 129.768 113.965C128.818 113.445 127.762 113.149 126.68 113.1C126.658 111.387 126.823 109.677 127.17 108C130.75 108.116 134.251 109.075 137.39 110.8C139.107 111.673 140.583 112.954 141.69 114.53ZM120.51 134.65C122.016 134.479 123.51 134.209 124.98 133.84C124.91 133.14 124.86 132.45 124.84 131.76C124.52 131.76 124.2 131.71 123.89 131.66C122.113 131.356 120.519 130.387 119.43 128.95C117.957 127.061 117.243 124.689 117.43 122.3C117.503 121.584 117.661 120.879 117.9 120.2C118.9 117.29 121.39 114.13 124.7 113.3C124.976 111.438 125.582 109.639 126.49 107.99C124.381 107.969 122.291 108.384 120.35 109.21C117.331 112.029 115.098 115.586 113.87 119.53C112.594 123.744 112.354 128.203 113.17 132.53C113.422 132.83 113.704 133.105 114.01 133.35C115.87 134.86 118.37 134.89 120.51 134.65Z" fill="url(#paint5_linear_301_1354)"/>
<path d="M166.24 173.8C168.098 177.31 170.252 180.656 172.68 183.8C170.82 183.68 168.96 183.5 167.09 183.28C166.518 180.152 166.234 176.979 166.24 173.8Z" fill="#FAA747"/>
<path d="M184.87 172.26C186.96 175.8 188.93 179.38 190.73 183.02C184.784 184.009 178.74 184.278 172.73 183.82C170.302 180.676 168.148 177.331 166.29 173.82V173.37C166.29 169.83 166.36 165.32 167.97 162.37C168.334 161.628 168.906 161.008 169.616 160.585C170.326 160.163 171.144 159.956 171.97 159.99C177.67 160.32 182.23 167.8 184.87 172.26Z" fill="#FFC761"/>
<path d="M166.24 173.8C166.233 176.983 166.518 180.159 167.09 183.29L163.94 182.87C161.554 173.919 160.189 164.728 159.87 155.47C161.03 161.873 163.179 168.057 166.24 173.8Z" fill="#7EB2DB"/>
<path d="M193.22 182.53C192.39 182.71 191.56 182.88 190.72 183.02C188.92 179.38 186.95 175.8 184.86 172.26C182.23 167.78 177.67 160.32 171.92 159.96C171.094 159.926 170.276 160.133 169.566 160.555C168.856 160.978 168.284 161.598 167.92 162.34C166.31 165.34 166.29 169.82 166.24 173.34V173.8C163.179 168.057 161.03 161.873 159.87 155.47C159.75 151.94 159.81 148.47 160.03 144.99C160.14 143.21 160.87 141.62 162.53 141.09C164.405 140.67 166.369 141.004 168 142.02C169.743 143.06 171.332 144.339 172.72 145.82C182.704 156.01 189.782 168.684 193.22 182.53Z" fill="url(#paint6_linear_301_1354)"/>
<path style="mix-blend-mode:screen" d="M165.73 162.8C167.15 166.09 169.24 169.61 172.44 171.03C173.873 171.703 175.506 171.811 177.015 171.333C178.524 170.855 179.797 169.825 180.58 168.45C183.22 163.66 180.48 157.06 176.98 152.11C174.35 148.39 167.05 139.73 162.7 142.67C161.25 143.67 161.27 145.91 161.53 147.9C162.249 153.034 163.662 158.046 165.73 162.8Z" fill="url(#paint7_linear_301_1354)"/>
<path d="M145.52 108.35C136.592 112.756 126.608 114.575 116.7 113.6C118.162 111.422 120.128 109.628 122.43 108.37C126.51 108.67 130.25 107.56 134.29 106.92C138.09 106.182 142.026 106.683 145.52 108.35Z" fill="#7EB2DB"/>
<path d="M135.68 51.2298V52.0598C135.47 57.3698 134.79 63.0098 134.48 68.3898C131.195 68.3775 127.93 68.9114 124.82 69.9698C123.163 65.7939 122.038 61.4264 121.47 56.9698C121 52.5498 121.74 47.8198 124.47 44.2898C126.05 42.1998 128.2 40.9898 130.59 42.4298C132.708 43.822 134.279 45.9025 135.04 48.3198C135.336 49.2698 135.55 50.2433 135.68 51.2298Z" fill="#CFEAE4"/>
<path d="M100.25 75.5499C98.4775 75.7871 96.7303 76.1855 95.03 76.7399C93.5466 73.719 92.3609 70.5608 91.49 67.3099C90.6441 64.0932 90.7835 60.6966 91.89 57.5599C92.1177 56.8463 92.4851 56.1852 92.971 55.6152C93.4569 55.0452 94.0515 54.5777 94.72 54.2399C95.0984 54.0884 95.5037 54.0155 95.9112 54.0259C96.3187 54.0362 96.7198 54.1294 97.09 54.2999C97.73 61.4299 98.44 68.6699 100.25 75.5499Z" fill="#CFEAE4"/>
<path d="M119.66 78.5898C118.385 83.2551 115.901 87.5013 112.46 90.8999C109.93 89.1599 107.71 86.1299 105.95 83.6299C110.85 83.0389 115.544 81.3132 119.66 78.5898Z" fill="#58C2B2"/>
<path d="M124.79 69.9699C127.9 68.9115 131.165 68.3776 134.45 68.3899C134.45 69.0199 134.37 69.6399 134.35 70.2699C130.05 70.7099 125.767 71.2833 121.5 71.9899C117.263 63.5291 115.548 54.0282 116.56 44.6199C116.742 42.264 117.349 39.9603 118.35 37.8199C118.857 36.7526 119.57 35.7964 120.449 35.0068C121.328 34.2172 122.355 33.6099 123.47 33.2199C124.901 32.8617 126.4 32.8807 127.822 33.2751C129.243 33.6694 130.538 34.4257 131.58 35.4699C133.642 37.5968 134.973 40.3254 135.38 43.2599C135.757 45.909 135.858 48.5901 135.68 51.2599C135.528 50.2852 135.294 49.3251 134.98 48.3899C134.219 45.9726 132.648 43.8921 130.53 42.4999C128.14 41.0599 125.99 42.2699 124.41 44.3599C121.71 47.8899 120.97 52.6199 121.41 57.0399C121.993 61.474 123.129 65.8177 124.79 69.9699Z" fill="#58C2B2"/>
<path d="M95.03 76.74C96.7302 76.1855 98.4775 75.7872 100.25 75.55C100.337 75.9233 100.437 76.2933 100.55 76.66C97.88 77.4 95.22 78.21 92.55 79.07C88.4866 72.3786 86.535 64.6175 86.95 56.8C87.0859 53.7122 87.7418 50.6695 88.89 47.8C89.2392 46.903 89.7473 46.0764 90.39 45.36C90.714 45.0024 91.109 44.7163 91.5498 44.5201C91.9906 44.3238 92.4675 44.2216 92.95 44.22C93.6033 44.2909 94.2259 44.5349 94.7533 44.927C95.2807 45.319 95.6938 45.8448 95.95 46.45C96.4407 47.6629 96.7148 48.9524 96.76 50.26C96.88 51.61 97 52.96 97.11 54.32C96.7398 54.1495 96.3387 54.0562 95.9312 54.0459C95.5237 54.0356 95.1184 54.1084 94.74 54.26C94.0715 54.5977 93.4769 55.0653 92.991 55.6353C92.5051 56.2053 92.1376 56.8664 91.91 57.58C90.8035 60.7166 90.6641 64.1132 91.51 67.33C92.3757 70.5733 93.5546 73.7247 95.03 76.74Z" fill="#58C2B2"/>
<path d="M135.68 51.2298C135.858 48.56 135.757 45.8789 135.38 43.2298C134.973 40.2953 133.642 37.5667 131.58 35.4398C130.538 34.3956 129.243 33.6393 127.822 33.245C126.4 32.8506 124.901 32.8316 123.47 33.1898C122.355 33.5798 121.328 34.1871 120.449 34.9767C119.57 35.7663 118.857 36.7225 118.35 37.7898C117.349 39.9302 116.742 42.2339 116.56 44.5898C115.548 53.9981 117.263 63.499 121.5 71.9598C125.773 71.2532 130.057 70.6798 134.35 70.2398C134.35 69.6098 134.41 68.9898 134.45 68.3598C134.76 62.9798 135.45 57.3598 135.65 52.0298L135.68 51.2298ZM100.25 75.5498C98.44 68.6698 97.73 61.4298 97.09 54.2998C96.98 52.9398 96.86 51.5898 96.74 50.2398C96.6948 48.9322 96.4207 47.6427 95.93 46.4298C95.6738 45.8247 95.2607 45.2989 94.7333 44.9068C94.2059 44.5148 93.5833 44.2707 92.93 44.1998C92.4475 44.2014 91.9706 44.3036 91.5298 44.4999C91.089 44.6962 90.694 44.9823 90.37 45.3398C89.7253 46.0623 89.217 46.8958 88.87 47.7998C87.7218 50.6694 87.066 53.7121 86.93 56.7998C86.522 64.6238 88.4842 72.3889 92.56 79.0798C95.2 78.2198 97.86 77.4098 100.56 76.6698C100.447 76.2965 100.343 75.9232 100.25 75.5498ZM151.11 46.8998C152.11 59.3398 149.02 71.8298 145.64 83.8398C143.17 85.8898 140.54 88.2298 138.08 90.2698C137.738 96.3478 138.692 102.429 140.88 108.11C128.504 111.434 115.673 112.747 102.88 112C100.402 106.681 98.3623 101.17 96.78 95.5198C93.89 94.1398 87.47 90.1698 87.47 90.1698C87.47 90.1698 84.04 80.0798 83.12 76.5998C81.1106 69.224 80.3002 61.573 80.72 53.9398C81.58 41.0698 87.03 28.1798 97.07 20.0898C107.11 11.9998 121.97 9.56983 133.29 15.7498C144.2 21.7298 150.13 34.4598 151.11 46.8998ZM112.46 90.8998C115.901 87.5013 118.385 83.2551 119.66 78.5898C115.541 81.299 110.846 83.011 105.95 83.5898C107.71 86.1298 109.93 89.1598 112.46 90.8998Z" fill="url(#paint8_radial_301_1354)"/>
<path d="M174.69 42.8C173.84 51.09 170.9 59.3 168.17 67.27C167.4 69.52 166.64 71.81 165.94 74.12C165.388 74.0773 164.86 73.8759 164.42 73.54C162.24 72.03 161.42 69.46 160.99 66.71C160.99 66.6 160.99 66.49 160.99 66.38C162.46 63.38 163.92 60.38 165.24 57.33C167.647 52.0247 169.306 46.4112 170.17 40.65C170.84 40.4608 171.548 40.4537 172.221 40.6295C172.894 40.8053 173.508 41.1576 174 41.65C174.288 41.9954 174.521 42.3834 174.69 42.8Z" fill="#FAA747"/>
<path d="M175.87 44.5199C175.735 43.267 175.397 42.0443 174.87 40.8999C174.598 40.3231 174.217 39.8038 173.75 39.3699C173.296 38.9693 172.767 38.6624 172.194 38.4668C171.62 38.2712 171.014 38.1907 170.41 38.2299C169.388 38.2524 168.389 38.5383 167.51 39.0599C165.6 40.3391 164.073 42.1119 163.09 44.1899C159.124 51.5867 157.892 60.1446 159.61 68.3599C159.61 68.5599 159.7 68.7499 159.74 68.9399C160.42 71.7999 161.61 74.3999 164.17 75.8799C164.534 76.0964 164.929 76.2581 165.34 76.3599C167.51 76.8899 168.97 75.0199 170.27 72.8599C172.238 69.5274 173.748 65.9452 174.76 62.2099C176.321 56.4487 176.698 50.431 175.87 44.5199ZM169.63 71.1699C168.63 72.8199 167.47 74.2499 165.99 74.1699C165.438 74.1272 164.91 73.9258 164.47 73.5899C162.29 72.0799 161.47 69.5099 161.04 66.7599C161.04 66.6499 161.04 66.5399 161.04 66.4299C160.075 59.2203 161.479 51.8925 165.04 45.5499C165.903 43.7799 167.226 42.2742 168.87 41.1899C169.277 40.9607 169.715 40.7923 170.17 40.6899C170.84 40.5007 171.548 40.4936 172.221 40.6694C172.894 40.8452 173.508 41.1975 174 41.6899C174.299 42.0204 174.545 42.3947 174.73 42.7999C175.197 43.9212 175.461 45.1163 175.51 46.3299C176.223 55.0296 174.146 63.7304 169.58 71.1699H169.63Z" fill="#7EB2DB"/>
<path d="M175.47 46.3699C176.187 55.0521 174.124 63.7372 169.58 71.1699C168.58 72.8199 167.42 74.2499 165.94 74.1699C166.64 71.8599 167.4 69.5699 168.17 67.3199C170.9 59.3199 173.84 51.1399 174.69 42.8499C175.156 43.9681 175.42 45.1598 175.47 46.3699ZM164.95 45.5399C161.389 51.8825 159.985 59.2104 160.95 66.4199C162.42 63.4199 163.88 60.4199 165.2 57.3699C167.607 52.0646 169.266 46.4511 170.13 40.6899C169.675 40.7924 169.237 40.9608 168.83 41.1899C167.169 42.2647 165.829 43.7674 164.95 45.5399Z" fill="#FFC761"/>
<path d="M100.5 111.8C99.6867 111.74 98.8767 111.66 98.07 111.56L91.53 99.8098C95.024 103.403 98.039 107.433 100.5 111.8ZM147.87 4.30981C153.783 6.32845 159.014 9.96014 162.973 14.7948C166.931 19.6294 169.458 25.4745 170.27 31.6698C170.522 33.8473 170.568 36.0436 170.41 38.2298C171.014 38.1906 171.621 38.2711 172.194 38.4668C172.767 38.6624 173.296 38.9693 173.75 39.3698C174.218 39.8037 174.598 40.323 174.87 40.8998C175.068 38.038 174.94 35.1629 174.49 32.3298C172.3 18.8698 161.12 7.34981 147.87 4.30981ZM159.74 68.9398C157.74 73.0498 155.74 77.1598 154.16 81.4298C151.35 88.9098 149.69 97.0998 151.08 104.9C155.304 103.366 159.431 101.579 163.44 99.5498C161.94 91.9298 163.2 84.0398 165.34 76.3598C164.929 76.2581 164.534 76.0964 164.17 75.8798C161.58 74.3998 160.39 71.7998 159.71 68.9398H159.74Z" fill="#7EB2DB"/>
<path d="M175.3 22.6999C172.237 15.4028 166.931 9.27009 160.15 5.18991C153.36 1.24991 145.31 -0.110089 137.46 0.00991116C122.46 0.239911 106.36 3.76992 94.77 13.7799C85.4008 21.9475 79.4702 33.3586 78.17 45.7199C77.17 55.9199 79.05 66.8999 81.67 76.9699C82.06 78.5099 82.48 80.0299 82.91 81.5199C85.2658 89.7028 88.6743 97.545 93.05 104.85C93.65 105.85 96.33 111.43 97.41 111.54L98.07 111.6L91.53 99.8499C95.0353 103.445 98.0604 107.478 100.53 111.85C101.31 111.91 102.09 111.97 102.87 112.01C100.392 106.691 98.3523 101.18 96.77 95.5299C93.88 94.1499 87.46 90.1799 87.46 90.1799C87.46 90.1799 84.03 80.0899 83.11 76.6099C81.1006 69.234 80.2902 61.5831 80.71 53.9499C81.57 41.0799 87.02 28.1899 97.06 20.0999C107.1 12.0099 121.96 9.57991 133.28 15.7599C144.28 21.7599 150.16 34.4699 151.14 46.9099C152.12 59.3499 149.02 71.7999 145.64 83.7999C143.17 85.8499 140.54 88.1899 138.08 90.2299C137.724 96.3207 138.675 102.417 140.87 108.11C144.31 107.197 147.697 106.127 151.03 104.9C149.64 97.0999 151.3 88.8999 154.11 81.4299C155.71 77.1599 157.68 73.0499 159.69 68.9399C159.69 68.7499 159.6 68.5599 159.56 68.3599C157.842 60.1447 159.074 51.5868 163.04 44.1899C164.023 42.112 165.55 40.3391 167.46 39.0599C168.339 38.5383 169.338 38.2524 170.36 38.2299C170.518 36.0437 170.472 33.8474 170.22 31.6699C169.413 25.4804 166.892 19.6395 162.943 14.8054C158.995 9.9713 153.774 6.33625 147.87 4.30991C161.15 7.30991 172.33 18.8699 174.49 32.3099C174.942 35.1496 175.069 38.0314 174.87 40.8999C175.397 42.0444 175.735 43.267 175.87 44.5199C176.705 50.4297 176.334 56.4474 174.78 62.2099C173.768 65.9453 172.258 69.5274 170.29 72.8599C168.99 75.0199 167.53 76.8599 165.36 76.3599C163.22 84.0399 161.96 91.9299 163.46 99.5499C165.24 98.6499 167.01 97.6899 168.73 96.6899C168.73 85.0899 172.96 73.8699 176.02 62.5399C177.621 57.0611 178.65 51.431 179.09 45.7399C179.638 37.8696 178.34 29.9799 175.3 22.6999Z" fill="url(#paint9_linear_301_1354)"/>
<path style="mix-blend-mode:screen" d="M140.87 1.2198C143.49 4.61354 144.927 8.77226 144.96 13.0598C144.992 17.3327 144.194 21.5712 142.61 25.5398C139.02 35.0798 132.51 43.2798 124.75 49.6898C116.99 56.0998 108 60.7998 98.75 64.5398C96.0975 65.7336 93.2784 66.5159 90.39 66.8598C88.9413 67.0166 87.4759 66.8824 86.0798 66.4651C84.6837 66.0479 83.385 65.3559 82.26 64.4298C76.58 59.2998 78.18 48.0798 79.6 41.4298C81.3961 32.9619 85.3429 25.0994 91.06 18.5998C103.11 4.99981 123.14 -0.430196 140.87 1.2198Z" fill="url(#paint10_linear_301_1354)"/>
<path style="mix-blend-mode:screen" d="M118.41 15.1699C119.433 15.1162 120.455 15.2798 121.41 15.6499C121.894 15.8429 122.317 16.1632 122.634 16.5769C122.951 16.9906 123.15 17.4823 123.21 17.9999C123.193 18.5337 123.034 19.0533 122.749 19.5051C122.465 19.9569 122.064 20.3245 121.59 20.5699C120.649 21.059 119.636 21.3965 118.59 21.5699C114.009 22.5987 109.586 24.2366 105.44 26.4399L90.19 34.3799C89.75 34.6099 89.19 34.8399 88.79 34.5599C88.39 34.2799 88.49 33.3299 88.79 32.7499C93.0725 25.2382 99.9995 19.5911 108.22 16.9099C111.499 15.7795 114.941 15.1918 118.41 15.1699Z" fill="url(#paint11_linear_301_1354)"/>
<path d="M205.94 99.1699C205.59 99 205.24 98.82 204.94 98.63C198.129 94.9024 192.737 89.0326 189.6 81.93C189.74 81.54 189.86 81.15 189.98 80.76C187.449 74.8194 183.289 69.7161 177.98 66.04C176.53 65.04 175.93 63.73 176.65 62.12C177.066 61.3348 177.69 60.6795 178.454 60.2261C179.218 59.7727 180.092 59.5387 180.98 59.55C182.749 59.6078 184.472 60.1247 185.98 61.05C189.599 63.0171 192.663 65.8649 194.89 69.33C194.75 69.13 197.57 64.72 197.83 64.18C200.083 59.6286 201.283 54.6283 201.34 49.55C201.34 48.46 200.97 46.93 200.88 45.55C200.79 44.17 201 42.66 202.28 41.96C202.744 41.7506 203.254 41.6628 203.761 41.7048C204.268 41.7468 204.757 41.9172 205.18 42.2C206.023 42.7784 206.724 43.5409 207.23 44.43C211.29 50.81 211.96 59.5 208.49 66.22C209.859 66.7941 211.194 67.4452 212.49 68.17C215.222 61.6725 216.367 54.6179 215.83 47.59C215.71 46.07 215.6 44.29 216.77 43.31C217.341 42.9187 218.027 42.7325 218.717 42.7815C219.407 42.8305 220.06 43.112 220.57 43.58C221.567 44.5404 222.276 45.7592 222.62 47.1C223.988 51.381 224.404 55.9095 223.837 60.368C223.27 64.8266 221.736 69.1072 219.34 72.91C220.13 73.56 220.91 74.25 221.65 74.91C224.143 72.0035 226.037 68.632 227.22 64.99C227.73 63.4 228.36 61.5 229.96 60.99C230.504 60.8677 231.07 60.8962 231.599 61.0724C232.128 61.2486 232.598 61.5659 232.96 61.99C233.669 62.8733 234.119 63.936 234.26 65.06C235.09 69.86 232.6 75.7599 230.65 80.0599C228.382 85.0291 225.427 89.6545 221.87 93.8C219.62 96.43 217.25 98.99 214.76 101.4C211.687 101.349 208.668 100.586 205.94 99.1699Z" fill="url(#paint12_linear_301_1354)"/>
<path d="M214.75 101.41C209.479 106.655 203.452 111.081 196.87 114.54C189.61 118.25 176.76 123.84 169.06 118.8C167.434 117.725 166.224 116.126 165.63 114.27C167.074 115.589 168.852 116.488 170.77 116.87C173.653 117.342 176.604 117.185 179.42 116.41C189.994 113.925 199.37 107.828 205.93 99.1699C208.657 100.59 211.676 101.356 214.75 101.41Z" fill="#7EB2DB"/>
<path d="M204.87 98.6299C205.21 98.8199 205.56 98.9999 205.87 99.1699C199.31 107.828 189.934 113.925 179.36 116.41C176.544 117.185 173.593 117.342 170.71 116.87C168.792 116.488 167.014 115.589 165.57 114.27C165.096 112.844 165.124 111.298 165.65 109.89C166.65 107.26 169.31 105.68 171.65 104.1C176.121 101.138 180.094 97.4864 183.42 93.2799C186.058 89.8603 188.106 86.0242 189.48 81.9299C192.63 89.0403 198.04 94.911 204.87 98.6299Z" fill="url(#paint13_linear_301_1354)"/>
<path style="mix-blend-mode:screen" d="M196.24 93.6599C193.732 97.6774 190.369 101.092 186.39 103.66C185.304 104.431 184.083 104.991 182.79 105.31C182.14 105.463 181.465 105.474 180.811 105.341C180.156 105.208 179.539 104.935 179 104.54C178.696 104.316 178.441 104.033 178.251 103.707C178.06 103.381 177.938 103.02 177.892 102.646C177.846 102.271 177.877 101.891 177.984 101.529C178.09 101.167 178.269 100.83 178.51 100.54C179.154 99.679 179.915 98.9117 180.77 98.2599C184.985 94.58 188.218 89.9099 190.18 84.6699C191.349 88.1601 193.443 91.2674 196.24 93.6599Z" fill="url(#paint14_linear_301_1354)"/>
<path d="M194.12 68.21C194.38 68.58 194.64 68.95 194.89 69.33C194.75 69.13 197.57 64.72 197.83 64.18C200.083 59.6286 201.283 54.6283 201.34 49.55C201.34 48.46 200.97 46.93 200.88 45.55C200.831 44.9682 200.865 44.3824 200.98 43.81C202.485 48.8854 202.884 54.2248 202.149 59.4675C201.414 64.7102 199.563 69.7341 196.72 74.2C196.067 72.1174 195.195 70.1096 194.12 68.21ZM216.79 99.37C212.553 98.1129 208.429 96.504 204.46 94.56C201.32 93.01 198.19 91.18 196.08 88.39C193.97 85.6 192.97 81.85 191.55 78.51C189.14 72.889 185.222 68.0438 180.23 64.51C179.292 63.9175 178.418 63.2306 177.62 62.46C177.366 62.1876 177.142 61.8893 176.95 61.57C176.819 61.7505 176.708 61.945 176.62 62.15C175.9 63.76 176.5 65.06 177.95 66.07C183.259 69.7462 187.419 74.8494 189.95 80.79C189.83 81.18 189.71 81.57 189.57 81.96C192.702 89.0454 198.079 94.9033 204.87 98.63C205.21 98.82 205.56 99 205.87 99.17C208.594 100.588 211.61 101.355 214.68 101.41C215.413 100.737 216.117 100.057 216.79 99.37ZM212.2 67.98C212.65 68.49 213.11 68.98 213.52 69.53C215.832 66.1686 217.136 62.2172 217.28 58.14C217.425 54.087 217.264 50.0289 216.8 46C216.66 44.9925 216.752 43.9663 217.07 43C216.956 43.0663 216.845 43.1398 216.74 43.22C215.57 44.22 215.68 45.98 215.8 47.5C216.337 54.5279 215.192 61.5826 212.46 68.08L212.2 67.98ZM229.93 60.98C228.33 61.45 227.7 63.35 227.19 64.98C226.033 68.5399 224.196 71.8411 221.78 74.7C222.477 75.6064 222.916 76.6845 223.05 77.82C224.953 76.5416 226.35 74.6387 227 72.44C227.75 70.3 228.09 68.04 228.71 65.85C229.155 64.0811 229.955 62.4209 231.06 60.97C230.685 60.8968 230.297 60.9139 229.93 61.02V60.98Z" fill="url(#paint15_linear_301_1354)"/>
<path d="M3.29 33.9099C1.48501 23.8725 0.385652 13.721 0 3.52992L4.25 3.36992C4.44 8.36992 4.8 13.3099 5.33 18.2499L12.33 17.8799C11.95 13.1599 11.7633 8.42326 11.77 3.66992H16.02C16.0218 12.7475 16.6667 21.8135 17.95 30.7999L13.74 31.3999C13.3 28.3299 12.93 25.2299 12.64 22.1199L5.87 22.4799C6.33 26.0599 6.87 29.6299 7.51 33.1599L3.29 33.9099ZM22.69 29.3899H20.62L20.56 27.3199C20.49 24.6799 20.3 22.0699 20.11 19.3199C19.8 15.1299 19.49 10.7899 19.59 6.11992V3.82992L21.86 4.04992C25.3862 4.38722 28.928 4.5341 32.47 4.48992L32.55 8.73993C29.97 8.73993 26.81 8.73992 23.77 8.46992C23.77 10.6299 23.88 12.7399 24.01 14.7999L31.43 14.4299L31.64 18.6699L24.3 19.0399C24.45 21.1299 24.59 23.1199 24.68 25.1199C28.27 24.9999 31.82 24.5899 33.8 24.3299L34.35 28.5499C30.4837 29.0636 26.59 29.3441 22.69 29.3899ZM38.81 28.7999H38.51H36.51L35.04 4.12992L39.29 3.87992L40.52 24.5199C41.73 24.4599 42.93 24.3399 44.25 24.1999H44.76L45.18 28.4299H44.68C42.7311 28.6557 40.7718 28.7792 38.81 28.7999ZM47.53 27.9799V25.7399C47.5254 18.4221 47.0343 11.1126 46.06 3.85992L50.27 3.29992C51.1716 9.9872 51.6692 16.7228 51.76 23.4699L52.69 23.3999C53.77 23.2999 54.89 23.2099 56.01 23.1599L56.18 27.4099C55.18 27.4099 54.18 27.5399 53.06 27.6299C51.94 27.7199 50.86 27.8199 49.74 27.8599L47.53 27.9799ZM58.05 27.3199L57.98 25.0199C57.78 18.2899 57.31 11.4899 56.59 4.80992L56.35 2.55992L58.61 2.45992C61.6133 2.3028 64.6246 2.40653 67.61 2.76992L69.24 2.97992L69.45 4.61992C70.3833 11.2496 70.9375 17.9271 71.11 24.6199V26.8399L68.96 26.7999C66.0803 26.6879 63.1964 26.7815 60.33 27.0799L58.05 27.3199ZM61.05 6.63992C61.57 11.9499 61.94 17.3099 62.14 22.6399C63.64 22.5399 65.19 22.4999 66.84 22.4999C66.67 17.2599 66.11 12.0699 65.47 6.80993C64.06 6.65992 62.6 6.59992 61.06 6.60992L61.05 6.63992ZM78.12 27.2999L73.87 26.7999C74.05 25.2899 74.17 23.7999 74.24 22.2199L78.48 22.3999C78.45 24.0099 78.32 25.6499 78.13 27.2699L78.12 27.2999ZM74.33 18.9199C74.2795 13.3864 73.5062 7.88315 72.03 2.54992L76.13 1.41992C77.7009 7.10894 78.5245 12.9783 78.58 18.8799L74.33 18.9199Z" fill="#FAA747"/>
<path d="M60.7 55.8C55.4168 54.7689 50.6456 51.9604 47.1799 47.8416C43.7142 43.7228 41.7627 38.5417 41.65 33.16C42.55 33.05 42.65 33.07 43.58 32.97C43.5744 37.9927 45.2738 42.8687 48.4 46.8C51.5306 50.5741 55.8748 53.1439 60.69 54.07C60.64 54.58 60.75 55.2 60.7 55.8Z" fill="#FAA747"/>
</g>
<defs>
<linearGradient id="paint0_linear_301_1354" x1="102.857" y1="126.639" x2="111.667" y2="127.52" gradientUnits="userSpaceOnUse">
<stop stop-color="#FFEEC5"/>
<stop offset="1" stop-color="#ADDCF6"/>
</linearGradient>
<linearGradient id="paint1_linear_301_1354" x1="89.12" y1="155.48" x2="119.25" y2="136.24" gradientUnits="userSpaceOnUse">
<stop stop-color="#367992"/>
<stop offset="1" stop-color="#2D3C52"/>
</linearGradient>
<linearGradient id="paint2_linear_301_1354" x1="122.16" y1="155.82" x2="134.59" y2="184.59" gradientUnits="userSpaceOnUse">
<stop stop-color="#FFEEC5"/>
<stop offset="1" stop-color="#ADDCF6"/>
</linearGradient>
<linearGradient id="paint3_linear_301_1354" x1="119.157" y1="154.47" x2="118.523" y2="181.299" gradientUnits="userSpaceOnUse">
<stop stop-color="#BDBE9A"/>
<stop offset="0.16" stop-color="#9D9E80"/>
<stop offset="0.74" stop-color="#2D2E25"/>
<stop offset="1" stop-color="#010101"/>
</linearGradient>
<linearGradient id="paint4_linear_301_1354" x1="113.4" y1="112.37" x2="156.55" y2="149.39" gradientUnits="userSpaceOnUse">
<stop stop-color="#FFEEC5"/>
<stop offset="1" stop-color="#ADDCF6"/>
</linearGradient>
<linearGradient id="paint5_linear_301_1354" x1="119.941" y1="111.56" x2="140.953" y2="139.008" gradientUnits="userSpaceOnUse">
<stop stop-color="#BDBE9A"/>
<stop offset="0.16" stop-color="#9D9E80"/>
<stop offset="0.74" stop-color="#2D2E25"/>
<stop offset="1" stop-color="#010101"/>
</linearGradient>
<linearGradient id="paint6_linear_301_1354" x1="156.35" y1="140.53" x2="185.96" y2="182.06" gradientUnits="userSpaceOnUse">
<stop stop-color="#FFEEC5"/>
<stop offset="1" stop-color="#ADDCF6"/>
</linearGradient>
<linearGradient id="paint7_linear_301_1354" x1="166.452" y1="142.26" x2="171.716" y2="175.171" gradientUnits="userSpaceOnUse">
<stop stop-color="#BDBE9A"/>
<stop offset="0.16" stop-color="#9D9E80"/>
<stop offset="0.74" stop-color="#2D2E25"/>
<stop offset="1" stop-color="#010101"/>
</linearGradient>
<radialGradient id="paint8_radial_301_1354" cx="0" cy="0" r="1" gradientUnits="userSpaceOnUse" gradientTransform="translate(103.07 37.0998) scale(62.9 62.9)">
<stop stop-color="#367992"/>
<stop offset="1" stop-color="#2D3C52"/>
</radialGradient>
<linearGradient id="paint9_linear_301_1354" x1="77.05" y1="27.4099" x2="195.85" y2="98.5599" gradientUnits="userSpaceOnUse">
<stop stop-color="#FFEEC5"/>
<stop offset="1" stop-color="#ADDCF6"/>
</linearGradient>
<linearGradient id="paint10_linear_301_1354" x1="93.68" y1="-1.8002" x2="127.32" y2="64.0198" gradientUnits="userSpaceOnUse">
<stop stop-color="#BDBE9A"/>
<stop offset="0.16" stop-color="#9D9E80"/>
<stop offset="0.74" stop-color="#2D2E25"/>
<stop offset="1" stop-color="#010101"/>
</linearGradient>
<linearGradient id="paint11_linear_301_1354" x1="97.94" y1="13.6999" x2="109" y2="30.5499" gradientUnits="userSpaceOnUse">
<stop stop-color="#BDBE9A"/>
<stop offset="0.16" stop-color="#9D9E80"/>
<stop offset="0.74" stop-color="#2D2E25"/>
<stop offset="1" stop-color="#010101"/>
</linearGradient>
<linearGradient id="paint12_linear_301_1354" x1="210.21" y1="39.37" x2="196.42" y2="114.78" gradientUnits="userSpaceOnUse">
<stop stop-color="#367992"/>
<stop offset="1" stop-color="#2D3C52"/>
</linearGradient>
<linearGradient id="paint13_linear_301_1354" x1="200.942" y1="88.3337" x2="165.748" y2="119.532" gradientUnits="userSpaceOnUse">
<stop stop-color="#FFEEC5"/>
<stop offset="1" stop-color="#ADDCF6"/>
</linearGradient>
<linearGradient id="paint14_linear_301_1354" x1="191.362" y1="83.1413" x2="182.762" y2="112.624" gradientUnits="userSpaceOnUse">
<stop stop-color="#BDBE9A"/>
<stop offset="0.16" stop-color="#9D9E80"/>
<stop offset="0.74" stop-color="#2D2E25"/>
<stop offset="1" stop-color="#010101"/>
</linearGradient>
<linearGradient id="paint15_linear_301_1354" x1="207.92" y1="38.95" x2="194.13" y2="114.36" gradientUnits="userSpaceOnUse">
<stop stop-color="#367992"/>
<stop offset="1" stop-color="#2D3C52"/>
</linearGradient>
<clipPath id="clip0_301_1354">
<rect width="234.41" height="184.39" fill="white"/>
</clipPath>
</defs>
</svg>
